<svg width="11" height="20" viewBox="0 0 11 20" fill="none" xmlns="http://www.w3.org/2000/svg">
    <path d="M7.49517 19.2667L10.7535 16.0417C10.8316 15.9642 10.8936 15.872 10.9359 15.7705C10.9782 15.6689 11 15.56 11 15.45C11 15.34 10.9782 15.2311 10.9359 15.1295C10.8936 15.028 10.8316 14.9358 10.7535 14.8583C10.5974 14.7031 10.3862 14.616 10.166 14.616C9.94585 14.616 9.73464 14.7031 9.5785 14.8583L6.58683 17.825L6.58683 0.833333C6.58683 0.612319 6.49904 0.400358 6.34276 0.244077C6.18648 0.0877972 5.97451 -2.19671e-07 5.7535 -2.29332e-07C5.53249 -2.38993e-07 5.32053 0.0877971 5.16425 0.244077C5.00797 0.400358 4.92017 0.612319 4.92017 0.833333L4.92017 17.875L1.91183 14.8583C1.83436 14.7802 1.7422 14.7182 1.64065 14.6759C1.5391 14.6336 1.43018 14.6118 1.32017 14.6118C1.21016 14.6118 1.10124 14.6336 0.999687 14.6759C0.898137 14.7182 0.805969 14.7802 0.7285 14.8583C0.650393 14.9358 0.588397 15.028 0.54609 15.1295C0.503784 15.2311 0.482002 15.34 0.482002 15.45C0.482002 15.56 0.503783 15.6689 0.54609 15.7705C0.588397 15.872 0.650393 15.9642 0.7285 16.0417L3.96183 19.2667C4.43058 19.7348 5.066 19.9978 5.7285 19.9978C6.391 19.9978 7.02642 19.7348 7.49517 19.2667Z" fill="currentColor"/>
</svg>
