<svg width="28" height="28" viewBox="0 0 28 28" fill="none" xmlns="http://www.w3.org/2000/svg">
    <rect y="0.741001" width="27.9978" height="26.518" rx="13.259" fill="#FEFEFE"/>
    <path d="M23.2667 12.2458L20.0417 8.9875C19.9642 8.90939 19.872 8.8474 19.7705 8.80509C19.6689 8.76278 19.56 8.741 19.45 8.741C19.34 8.741 19.2311 8.76278 19.1295 8.80509C19.028 8.8474 18.9358 8.90939 18.8583 8.9875C18.7031 9.14364 18.616 9.35484 18.616 9.575C18.616 9.79515 18.7031 10.0064 18.8583 10.1625L21.825 13.1542H4.83333C4.61232 13.1542 4.40036 13.242 4.24408 13.3982C4.0878 13.5545 4 13.7665 4 13.9875C4 14.2085 4.0878 14.4205 4.24408 14.5768C4.40036 14.733 4.61232 14.8208 4.83333 14.8208H21.875L18.8583 17.8292C18.7802 17.9066 18.7182 17.9988 18.6759 18.1004C18.6336 18.2019 18.6118 18.3108 18.6118 18.4208C18.6118 18.5308 18.6336 18.6398 18.6759 18.7413C18.7182 18.8429 18.7802 18.935 18.8583 19.0125C18.9358 19.0906 19.028 19.1526 19.1295 19.1949C19.2311 19.2372 19.34 19.259 19.45 19.259C19.56 19.259 19.6689 19.2372 19.7705 19.1949C19.872 19.1526 19.9642 19.0906 20.0417 19.0125L23.2667 15.7792C23.7348 15.3104 23.9978 14.675 23.9978 14.0125C23.9978 13.35 23.7348 12.7146 23.2667 12.2458Z" fill="#1E1E1E"/>
</svg>
