<svg width="1044" height="359" viewBox="0 0 1044 359" fill="none" xmlns="http://www.w3.org/2000/svg">
    <path d="M710.533 108.387C712.757 106.538 715.983 106.538 718.207 108.387L799.374 174.887C802.259 177.286 802.259 181.714 799.374 184.113L718.207 250.613C715.983 252.462 712.757 252.462 710.533 250.613L629.365 184.113C626.481 181.714 626.481 177.286 629.365 174.887L710.533 108.387Z" fill="#FFCD29" stroke="#EBAB00" stroke-width="4" stroke-linecap="round"/>
    <path d="M682.891 175H679.933V166.273H682.95C683.817 166.273 684.561 166.447 685.183 166.797C685.808 167.143 686.288 167.642 686.624 168.293C686.959 168.943 687.126 169.722 687.126 170.628C687.126 171.537 686.957 172.318 686.619 172.972C686.284 173.625 685.8 174.126 685.166 174.476C684.536 174.825 683.777 175 682.891 175ZM681.514 173.632H682.814C683.422 173.632 683.929 173.521 684.335 173.3C684.742 173.075 685.047 172.741 685.251 172.298C685.456 171.852 685.558 171.295 685.558 170.628C685.558 169.96 685.456 169.406 685.251 168.966C685.047 168.523 684.744 168.192 684.344 167.973C683.946 167.751 683.452 167.641 682.861 167.641H681.514V173.632ZM691.284 175.128C690.644 175.128 690.09 174.987 689.622 174.706C689.153 174.425 688.789 174.031 688.531 173.526C688.275 173.02 688.147 172.429 688.147 171.753C688.147 171.077 688.275 170.484 688.531 169.976C688.789 169.467 689.153 169.072 689.622 168.791C690.09 168.51 690.644 168.369 691.284 168.369C691.923 168.369 692.477 168.51 692.945 168.791C693.414 169.072 693.776 169.467 694.032 169.976C694.291 170.484 694.42 171.077 694.42 171.753C694.42 172.429 694.291 173.02 694.032 173.526C693.776 174.031 693.414 174.425 692.945 174.706C692.477 174.987 691.923 175.128 691.284 175.128ZM691.292 173.892C691.639 173.892 691.928 173.797 692.161 173.607C692.394 173.413 692.568 173.155 692.681 172.831C692.798 172.507 692.856 172.146 692.856 171.749C692.856 171.348 692.798 170.986 692.681 170.662C692.568 170.335 692.394 170.075 692.161 169.882C691.928 169.689 691.639 169.592 691.292 169.592C690.937 169.592 690.642 169.689 690.406 169.882C690.173 170.075 689.998 170.335 689.882 170.662C689.768 170.986 689.711 171.348 689.711 171.749C689.711 172.146 689.768 172.507 689.882 172.831C689.998 173.155 690.173 173.413 690.406 173.607C690.642 173.797 690.937 173.892 691.292 173.892ZM699.401 177.455C699.19 177.455 698.996 177.438 698.817 177.403C698.641 177.372 698.5 177.335 698.395 177.293L698.753 176.091C698.977 176.156 699.178 176.188 699.354 176.185C699.53 176.182 699.685 176.126 699.818 176.018C699.955 175.913 700.07 175.737 700.163 175.49L700.295 175.136L697.922 168.455H699.558L701.067 173.398H701.135L702.648 168.455H704.288L701.668 175.793C701.545 176.139 701.384 176.436 701.182 176.683C700.98 176.933 700.733 177.124 700.44 177.254C700.151 177.388 699.804 177.455 699.401 177.455ZM707.856 175.128C707.217 175.128 706.663 174.987 706.194 174.706C705.726 174.425 705.362 174.031 705.103 173.526C704.848 173.02 704.72 172.429 704.72 171.753C704.72 171.077 704.848 170.484 705.103 169.976C705.362 169.467 705.726 169.072 706.194 168.791C706.663 168.51 707.217 168.369 707.856 168.369C708.496 168.369 709.049 168.51 709.518 168.791C709.987 169.072 710.349 169.467 710.605 169.976C710.863 170.484 710.993 171.077 710.993 171.753C710.993 172.429 710.863 173.02 710.605 173.526C710.349 174.031 709.987 174.425 709.518 174.706C709.049 174.987 708.496 175.128 707.856 175.128ZM707.865 173.892C708.211 173.892 708.501 173.797 708.734 173.607C708.967 173.413 709.14 173.155 709.254 172.831C709.371 172.507 709.429 172.146 709.429 171.749C709.429 171.348 709.371 170.986 709.254 170.662C709.14 170.335 708.967 170.075 708.734 169.882C708.501 169.689 708.211 169.592 707.865 169.592C707.51 169.592 707.214 169.689 706.978 169.882C706.746 170.075 706.571 170.335 706.454 170.662C706.341 170.986 706.284 171.348 706.284 171.749C706.284 172.146 706.341 172.507 706.454 172.831C706.571 173.155 706.746 173.413 706.978 173.607C707.214 173.797 707.51 173.892 707.865 173.892ZM716.342 172.247V168.455H717.884V175H716.389V173.837H716.321C716.173 174.203 715.93 174.503 715.592 174.736C715.257 174.969 714.843 175.085 714.352 175.085C713.923 175.085 713.544 174.99 713.214 174.8C712.887 174.607 712.632 174.327 712.447 173.96C712.262 173.591 712.17 173.145 712.17 172.622V168.455H713.713V172.384C713.713 172.798 713.826 173.128 714.053 173.372C714.281 173.616 714.579 173.739 714.948 173.739C715.176 173.739 715.396 173.683 715.609 173.572C715.822 173.462 715.997 173.297 716.133 173.078C716.272 172.857 716.342 172.58 716.342 172.247ZM723.534 175L721.685 168.455H723.257L724.408 173.057H724.467L725.644 168.455H727.199L728.375 173.031H728.439L729.573 168.455H731.149L729.296 175H727.689L726.462 170.577H726.372L725.145 175H723.534ZM733.978 175.132C733.563 175.132 733.189 175.058 732.857 174.911C732.528 174.76 732.266 174.538 732.073 174.246C731.883 173.953 731.787 173.592 731.787 173.163C731.787 172.794 731.856 172.489 731.992 172.247C732.128 172.006 732.314 171.812 732.55 171.668C732.786 171.523 733.052 171.413 733.347 171.339C733.645 171.263 733.954 171.207 734.272 171.173C734.655 171.134 734.966 171.098 735.205 171.067C735.444 171.033 735.617 170.982 735.725 170.913C735.836 170.842 735.891 170.733 735.891 170.585V170.56C735.891 170.239 735.796 169.99 735.606 169.814C735.415 169.638 735.141 169.55 734.783 169.55C734.405 169.55 734.106 169.632 733.884 169.797C733.665 169.962 733.518 170.156 733.441 170.381L732.001 170.176C732.114 169.778 732.302 169.446 732.563 169.179C732.824 168.909 733.144 168.707 733.522 168.574C733.9 168.438 734.317 168.369 734.775 168.369C735.09 168.369 735.404 168.406 735.716 168.48C736.029 168.554 736.314 168.676 736.573 168.847C736.831 169.014 737.039 169.243 737.195 169.533C737.354 169.822 737.434 170.185 737.434 170.619V175H735.951V174.101H735.9C735.806 174.283 735.674 174.453 735.503 174.612C735.336 174.768 735.124 174.895 734.868 174.991C734.616 175.085 734.319 175.132 733.978 175.132ZM734.378 173.999C734.688 173.999 734.956 173.937 735.184 173.815C735.411 173.69 735.586 173.526 735.708 173.321C735.833 173.116 735.895 172.893 735.895 172.652V171.881C735.847 171.92 735.765 171.957 735.648 171.991C735.535 172.026 735.407 172.055 735.265 172.081C735.123 172.107 734.982 172.129 734.843 172.149C734.704 172.169 734.583 172.186 734.481 172.2C734.251 172.232 734.045 172.283 733.863 172.354C733.681 172.425 733.537 172.524 733.432 172.652C733.327 172.777 733.275 172.939 733.275 173.138C733.275 173.422 733.378 173.636 733.586 173.781C733.793 173.926 734.057 173.999 734.378 173.999ZM740.396 171.165V175H738.853V168.455H740.327V169.567H740.404C740.555 169.2 740.795 168.909 741.124 168.693C741.457 168.477 741.867 168.369 742.356 168.369C742.807 168.369 743.201 168.466 743.536 168.659C743.874 168.852 744.136 169.132 744.32 169.499C744.508 169.865 744.6 170.31 744.597 170.832V175H743.055V171.071C743.055 170.634 742.941 170.291 742.714 170.044C742.489 169.797 742.178 169.673 741.78 169.673C741.511 169.673 741.271 169.733 741.06 169.852C740.853 169.969 740.69 170.138 740.57 170.359C740.454 170.581 740.396 170.849 740.396 171.165ZM749.302 168.455V169.648H745.539V168.455H749.302ZM746.468 166.886H748.011V173.031C748.011 173.239 748.042 173.398 748.104 173.509C748.17 173.616 748.255 173.69 748.36 173.73C748.465 173.77 748.582 173.79 748.71 173.79C748.806 173.79 748.894 173.783 748.974 173.768C749.056 173.754 749.119 173.741 749.161 173.73L749.421 174.936C749.339 174.964 749.221 174.996 749.068 175.03C748.917 175.064 748.732 175.084 748.514 175.089C748.127 175.101 747.779 175.043 747.469 174.915C747.16 174.784 746.914 174.582 746.732 174.31C746.553 174.037 746.465 173.696 746.468 173.287V166.886ZM680.418 186.455V187.648H676.655V186.455H680.418ZM677.584 184.886H679.127V191.031C679.127 191.239 679.158 191.398 679.22 191.509C679.286 191.616 679.371 191.69 679.476 191.73C679.581 191.77 679.698 191.79 679.826 191.79C679.922 191.79 680.01 191.783 680.09 191.768C680.172 191.754 680.235 191.741 680.277 191.73L680.537 192.936C680.455 192.964 680.337 192.996 680.184 193.03C680.033 193.064 679.848 193.084 679.63 193.089C679.243 193.101 678.895 193.043 678.586 192.915C678.276 192.784 678.03 192.582 677.848 192.31C677.669 192.037 677.581 191.696 677.584 191.287V184.886ZM684.361 193.128C683.722 193.128 683.168 192.987 682.699 192.706C682.23 192.425 681.867 192.031 681.608 191.526C681.352 191.02 681.225 190.429 681.225 189.753C681.225 189.077 681.352 188.484 681.608 187.976C681.867 187.467 682.23 187.072 682.699 186.791C683.168 186.51 683.722 186.369 684.361 186.369C685 186.369 685.554 186.51 686.023 186.791C686.492 187.072 686.854 187.467 687.109 187.976C687.368 188.484 687.497 189.077 687.497 189.753C687.497 190.429 687.368 191.02 687.109 191.526C686.854 192.031 686.492 192.425 686.023 192.706C685.554 192.987 685 193.128 684.361 193.128ZM684.369 191.892C684.716 191.892 685.006 191.797 685.239 191.607C685.472 191.413 685.645 191.155 685.759 190.831C685.875 190.507 685.933 190.146 685.933 189.749C685.933 189.348 685.875 188.986 685.759 188.662C685.645 188.335 685.472 188.075 685.239 187.882C685.006 187.689 684.716 187.592 684.369 187.592C684.014 187.592 683.719 187.689 683.483 187.882C683.25 188.075 683.075 188.335 682.959 188.662C682.845 188.986 682.788 189.348 682.788 189.749C682.788 190.146 682.845 190.507 682.959 190.831C683.075 191.155 683.25 191.413 683.483 191.607C683.719 191.797 684.014 191.892 684.369 191.892ZM691.519 186.455H693.062V193.375C693.062 193.847 692.972 194.236 692.793 194.543C692.614 194.849 692.356 195.078 692.018 195.229C691.68 195.379 691.269 195.455 690.786 195.455C690.729 195.455 690.677 195.453 690.628 195.45C690.58 195.45 690.528 195.449 690.471 195.446V194.189C690.513 194.192 690.552 194.193 690.586 194.193C690.62 194.196 690.655 194.197 690.692 194.197C690.988 194.197 691.199 194.125 691.327 193.98C691.455 193.838 691.519 193.629 691.519 193.354V186.455ZM692.286 185.526C692.039 185.526 691.827 185.445 691.651 185.283C691.478 185.118 691.391 184.92 691.391 184.69C691.391 184.457 691.478 184.26 691.651 184.098C691.827 183.933 692.039 183.851 692.286 183.851C692.53 183.851 692.739 183.933 692.913 184.098C693.089 184.26 693.177 184.457 693.177 184.69C693.177 184.92 693.089 185.118 692.913 185.283C692.739 185.445 692.53 185.526 692.286 185.526ZM697.371 193.128C696.732 193.128 696.178 192.987 695.709 192.706C695.24 192.425 694.877 192.031 694.618 191.526C694.363 191.02 694.235 190.429 694.235 189.753C694.235 189.077 694.363 188.484 694.618 187.976C694.877 187.467 695.24 187.072 695.709 186.791C696.178 186.51 696.732 186.369 697.371 186.369C698.01 186.369 698.564 186.51 699.033 186.791C699.502 187.072 699.864 187.467 700.12 187.976C700.378 188.484 700.507 189.077 700.507 189.753C700.507 190.429 700.378 191.02 700.12 191.526C699.864 192.031 699.502 192.425 699.033 192.706C698.564 192.987 698.01 193.128 697.371 193.128ZM697.38 191.892C697.726 191.892 698.016 191.797 698.249 191.607C698.482 191.413 698.655 191.155 698.769 190.831C698.885 190.507 698.944 190.146 698.944 189.749C698.944 189.348 698.885 188.986 698.769 188.662C698.655 188.335 698.482 188.075 698.249 187.882C698.016 187.689 697.726 187.592 697.38 187.592C697.025 187.592 696.729 187.689 696.493 187.882C696.26 188.075 696.086 188.335 695.969 188.662C695.855 188.986 695.799 189.348 695.799 189.749C695.799 190.146 695.855 190.507 695.969 190.831C696.086 191.155 696.26 191.413 696.493 191.607C696.729 191.797 697.025 191.892 697.38 191.892ZM701.685 193V186.455H703.227V193H701.685ZM702.46 185.526C702.216 185.526 702.006 185.445 701.83 185.283C701.654 185.118 701.565 184.92 701.565 184.69C701.565 184.457 701.654 184.26 701.83 184.098C702.006 183.933 702.216 183.851 702.46 183.851C702.708 183.851 702.918 183.933 703.091 184.098C703.267 184.26 703.355 184.457 703.355 184.69C703.355 184.92 703.267 185.118 703.091 185.283C702.918 185.445 702.708 185.526 702.46 185.526ZM706.224 189.165V193H704.682V186.455H706.156V187.567H706.233C706.383 187.2 706.623 186.909 706.953 186.693C707.285 186.477 707.696 186.369 708.185 186.369C708.636 186.369 709.03 186.466 709.365 186.659C709.703 186.852 709.964 187.132 710.149 187.499C710.337 187.865 710.429 188.31 710.426 188.832V193H708.883V189.071C708.883 188.634 708.77 188.291 708.542 188.044C708.318 187.797 708.007 187.673 707.609 187.673C707.339 187.673 707.099 187.733 706.889 187.852C706.682 187.969 706.518 188.138 706.399 188.359C706.283 188.581 706.224 188.849 706.224 189.165ZM717.604 193.128C716.948 193.128 716.381 192.991 715.904 192.719C715.43 192.443 715.065 192.054 714.809 191.551C714.553 191.045 714.426 190.45 714.426 189.766C714.426 189.092 714.553 188.501 714.809 187.993C715.068 187.482 715.428 187.084 715.891 186.8C716.354 186.513 716.899 186.369 717.524 186.369C717.927 186.369 718.308 186.435 718.666 186.565C719.026 186.693 719.345 186.892 719.62 187.162C719.899 187.432 720.117 187.776 720.276 188.193C720.435 188.608 720.515 189.102 720.515 189.676V190.149H715.15V189.109H719.036C719.033 188.814 718.97 188.551 718.845 188.321C718.72 188.088 718.545 187.905 718.32 187.771C718.099 187.638 717.84 187.571 717.545 187.571C717.229 187.571 716.952 187.648 716.714 187.801C716.475 187.952 716.289 188.151 716.156 188.398C716.025 188.642 715.958 188.911 715.955 189.203V190.111C715.955 190.491 716.025 190.818 716.164 191.091C716.303 191.361 716.498 191.568 716.748 191.713C716.998 191.855 717.291 191.926 717.626 191.926C717.85 191.926 718.053 191.895 718.235 191.832C718.417 191.767 718.575 191.672 718.708 191.547C718.842 191.422 718.943 191.267 719.011 191.082L720.451 191.244C720.36 191.625 720.187 191.957 719.931 192.241C719.678 192.523 719.354 192.741 718.96 192.898C718.565 193.051 718.113 193.128 717.604 193.128ZM727.347 186.455L725.016 193H723.312L720.981 186.455H722.626L724.13 191.317H724.198L725.706 186.455H727.347ZM730.958 193.128C730.301 193.128 729.735 192.991 729.257 192.719C728.783 192.443 728.418 192.054 728.162 191.551C727.907 191.045 727.779 190.45 727.779 189.766C727.779 189.092 727.907 188.501 728.162 187.993C728.421 187.482 728.782 187.084 729.245 186.8C729.708 186.513 730.252 186.369 730.877 186.369C731.28 186.369 731.661 186.435 732.019 186.565C732.38 186.693 732.698 186.892 732.973 187.162C733.252 187.432 733.47 187.776 733.63 188.193C733.789 188.608 733.868 189.102 733.868 189.676V190.149H728.503V189.109H732.389C732.387 188.814 732.323 188.551 732.198 188.321C732.073 188.088 731.898 187.905 731.674 187.771C731.452 187.638 731.193 187.571 730.898 187.571C730.583 187.571 730.306 187.648 730.067 187.801C729.828 187.952 729.642 188.151 729.509 188.398C729.378 188.642 729.311 188.911 729.309 189.203V190.111C729.309 190.491 729.378 190.818 729.517 191.091C729.657 191.361 729.851 191.568 730.101 191.713C730.351 191.855 730.644 191.926 730.979 191.926C731.203 191.926 731.407 191.895 731.588 191.832C731.77 191.767 731.928 191.672 732.061 191.547C732.195 191.422 732.296 191.267 732.364 191.082L733.804 191.244C733.713 191.625 733.54 191.957 733.284 192.241C733.032 192.523 732.708 192.741 732.313 192.898C731.918 193.051 731.466 193.128 730.958 193.128ZM736.584 189.165V193H735.041V186.455H736.516V187.567H736.592C736.743 187.2 736.983 186.909 737.313 186.693C737.645 186.477 738.055 186.369 738.544 186.369C738.996 186.369 739.389 186.466 739.724 186.659C740.063 186.852 740.324 187.132 740.509 187.499C740.696 187.865 740.788 188.31 740.786 188.832V193H739.243V189.071C739.243 188.634 739.129 188.291 738.902 188.044C738.678 187.797 738.367 187.673 737.969 187.673C737.699 187.673 737.459 187.733 737.249 187.852C737.041 187.969 736.878 188.138 736.759 188.359C736.642 188.581 736.584 188.849 736.584 189.165ZM745.49 186.455V187.648H741.727V186.455H745.49ZM742.656 184.886H744.199V191.031C744.199 191.239 744.23 191.398 744.293 191.509C744.358 191.616 744.443 191.69 744.548 191.73C744.654 191.77 744.77 191.79 744.898 191.79C744.994 191.79 745.083 191.783 745.162 191.768C745.244 191.754 745.307 191.741 745.35 191.73L745.61 192.936C745.527 192.964 745.409 192.996 745.256 193.03C745.105 193.064 744.921 193.084 744.702 193.089C744.315 193.101 743.967 193.043 743.658 192.915C743.348 192.784 743.102 192.582 742.921 192.31C742.742 192.037 742.654 191.696 742.656 191.287V184.886ZM748.123 190.435V190.324C748.126 189.81 748.174 189.401 748.268 189.097C748.364 188.793 748.501 188.548 748.677 188.364C748.853 188.176 749.067 188.004 749.32 187.848C749.493 187.74 749.648 187.622 749.785 187.494C749.924 187.364 750.033 187.219 750.113 187.06C750.192 186.898 750.232 186.717 750.232 186.518C750.232 186.294 750.18 186.099 750.074 185.935C749.969 185.77 749.827 185.642 749.648 185.551C749.472 185.46 749.275 185.415 749.056 185.415C748.854 185.415 748.663 185.459 748.481 185.547C748.302 185.632 748.153 185.763 748.033 185.939C747.917 186.112 747.851 186.332 747.837 186.599H746.32C746.334 186.06 746.465 185.608 746.712 185.244C746.962 184.881 747.292 184.608 747.701 184.426C748.113 184.244 748.567 184.153 749.065 184.153C749.607 184.153 750.084 184.249 750.496 184.439C750.911 184.629 751.234 184.901 751.464 185.253C751.697 185.602 751.813 186.017 751.813 186.497C751.813 186.821 751.761 187.111 751.655 187.366C751.553 187.622 751.407 187.849 751.216 188.048C751.026 188.247 750.8 188.425 750.539 188.581C750.309 188.723 750.12 188.871 749.972 189.024C749.827 189.178 749.719 189.358 749.648 189.565C749.58 189.77 749.545 190.023 749.542 190.324V190.435H748.123ZM748.864 193.094C748.609 193.094 748.388 193.003 748.204 192.821C748.019 192.639 747.927 192.418 747.927 192.156C747.927 191.901 748.019 191.682 748.204 191.5C748.388 191.318 748.609 191.227 748.864 191.227C749.117 191.227 749.336 191.318 749.52 191.5C749.708 191.682 749.802 191.901 749.802 192.156C749.802 192.33 749.758 192.487 749.67 192.629C749.584 192.771 749.471 192.885 749.329 192.97C749.19 193.053 749.035 193.094 748.864 193.094Z" fill="black" fill-opacity="0.8"/>
    <rect x="2" y="156" width="132.254" height="48" rx="3" fill="#757575" stroke="#424242" stroke-width="4" stroke-linecap="round"/>
    <path d="M37.8914 184V175.273H39.4723V178.967H43.5164V175.273H45.1016V184H43.5164V180.293H39.4723V184H37.8914ZM49.476 184.128C48.8368 184.128 48.2828 183.987 47.8141 183.706C47.3453 183.425 46.9817 183.031 46.7231 182.526C46.4675 182.02 46.3396 181.429 46.3396 180.753C46.3396 180.077 46.4675 179.484 46.7231 178.976C46.9817 178.467 47.3453 178.072 47.8141 177.791C48.2828 177.51 48.8368 177.369 49.476 177.369C50.1152 177.369 50.6692 177.51 51.1379 177.791C51.6067 178.072 51.9689 178.467 52.2246 178.976C52.4831 179.484 52.6124 180.077 52.6124 180.753C52.6124 181.429 52.4831 182.02 52.2246 182.526C51.9689 183.031 51.6067 183.425 51.1379 183.706C50.6692 183.987 50.1152 184.128 49.476 184.128ZM49.4845 182.892C49.8311 182.892 50.1209 182.797 50.3538 182.607C50.5868 182.413 50.7601 182.155 50.8737 181.831C50.9902 181.507 51.0484 181.146 51.0484 180.749C51.0484 180.348 50.9902 179.986 50.8737 179.662C50.7601 179.335 50.5868 179.075 50.3538 178.882C50.1209 178.689 49.8311 178.592 49.4845 178.592C49.1294 178.592 48.8339 178.689 48.5981 178.882C48.3652 179.075 48.1905 179.335 48.074 179.662C47.9604 179.986 47.9035 180.348 47.9035 180.749C47.9035 181.146 47.9604 181.507 48.074 181.831C48.1905 182.155 48.3652 182.413 48.5981 182.607C48.8339 182.797 49.1294 182.892 49.4845 182.892ZM53.7897 184V177.455H55.2641V178.567H55.3408C55.4772 178.192 55.703 177.899 56.0183 177.689C56.3337 177.476 56.7101 177.369 57.1476 177.369C57.5908 177.369 57.9644 177.477 58.2683 177.693C58.5752 177.906 58.7911 178.197 58.9161 178.567H58.9843C59.1291 178.203 59.3735 177.913 59.7172 177.697C60.0638 177.479 60.4743 177.369 60.9487 177.369C61.551 177.369 62.0425 177.56 62.4232 177.94C62.8039 178.321 62.9942 178.876 62.9942 179.607V184H61.4473V179.845C61.4473 179.439 61.3394 179.142 61.1235 178.955C60.9076 178.764 60.6433 178.669 60.3308 178.669C59.9587 178.669 59.6675 178.786 59.4573 179.018C59.2499 179.249 59.1462 179.548 59.1462 179.918V184H57.6334V179.781C57.6334 179.443 57.5311 179.173 57.3266 178.972C57.1249 178.77 56.8607 178.669 56.534 178.669C56.3124 178.669 56.1107 178.726 55.9289 178.839C55.747 178.95 55.6022 179.108 55.4942 179.312C55.3862 179.514 55.3323 179.75 55.3323 180.02V184H53.7897ZM67.3249 184.128C66.6687 184.128 66.1019 183.991 65.6246 183.719C65.1502 183.443 64.7851 183.054 64.5295 182.551C64.2738 182.045 64.1459 181.45 64.1459 180.766C64.1459 180.092 64.2738 179.501 64.5295 178.993C64.788 178.482 65.1488 178.084 65.6118 177.8C66.0749 177.513 66.6189 177.369 67.2439 177.369C67.6474 177.369 68.028 177.435 68.386 177.565C68.7468 177.693 69.065 177.892 69.3405 178.162C69.619 178.432 69.8377 178.776 69.9968 179.193C70.1559 179.608 70.2354 180.102 70.2354 180.676V181.149H64.8704V180.109H68.7567C68.7539 179.814 68.69 179.551 68.565 179.321C68.44 179.088 68.2653 178.905 68.0408 178.771C67.8192 178.638 67.5607 178.571 67.2653 178.571C66.9499 178.571 66.6729 178.648 66.4343 178.801C66.1957 178.952 66.0096 179.151 65.8761 179.398C65.7454 179.642 65.6786 179.911 65.6758 180.203V181.111C65.6758 181.491 65.7454 181.818 65.8846 182.091C66.0238 182.361 66.2184 182.568 66.4684 182.713C66.7184 182.855 67.011 182.926 67.3462 182.926C67.5707 182.926 67.7738 182.895 67.9556 182.832C68.1374 182.767 68.2951 182.672 68.4286 182.547C68.5621 182.422 68.663 182.267 68.7312 182.082L70.1715 182.244C70.0806 182.625 69.9073 182.957 69.6516 183.241C69.3988 183.523 69.0749 183.741 68.68 183.898C68.2851 184.051 67.8334 184.128 67.3249 184.128ZM71.4085 186.455V177.455H72.9255V178.537H73.015C73.0945 178.378 73.2068 178.209 73.3516 178.03C73.4965 177.848 73.6926 177.693 73.9397 177.565C74.1869 177.435 74.5022 177.369 74.8857 177.369C75.3914 177.369 75.8474 177.499 76.2536 177.757C76.6627 178.013 76.9866 178.392 77.2252 178.895C77.4667 179.395 77.5874 180.009 77.5874 180.736C77.5874 181.455 77.4695 182.065 77.2338 182.568C76.998 183.071 76.6769 183.455 76.2707 183.719C75.8644 183.983 75.4042 184.115 74.89 184.115C74.515 184.115 74.2039 184.053 73.9568 183.928C73.7096 183.803 73.5107 183.652 73.3602 183.476C73.2124 183.297 73.0974 183.128 73.015 182.969H72.9511V186.455H71.4085ZM72.9213 180.727C72.9213 181.151 72.9809 181.521 73.1002 181.839C73.2224 182.158 73.3971 182.406 73.6244 182.585C73.8545 182.761 74.1329 182.849 74.4596 182.849C74.8005 182.849 75.086 182.759 75.3161 182.577C75.5463 182.392 75.7195 182.141 75.836 181.822C75.9553 181.501 76.015 181.136 76.015 180.727C76.015 180.321 75.9568 179.96 75.8403 179.645C75.7238 179.33 75.5505 179.082 75.3204 178.903C75.0903 178.724 74.8034 178.635 74.4596 178.635C74.1301 178.635 73.8502 178.722 73.6201 178.895C73.39 179.068 73.2153 179.311 73.096 179.624C72.9795 179.936 72.9213 180.304 72.9213 180.727ZM80.66 184.132C80.2452 184.132 79.8716 184.058 79.5393 183.911C79.2097 183.76 78.9483 183.538 78.7552 183.246C78.5648 182.953 78.4697 182.592 78.4697 182.163C78.4697 181.794 78.5378 181.489 78.6742 181.247C78.8106 181.006 78.9966 180.812 79.2324 180.668C79.4682 180.523 79.7339 180.413 80.0293 180.339C80.3276 180.263 80.6358 180.207 80.954 180.173C81.3375 180.134 81.6486 180.098 81.8873 180.067C82.1259 180.033 82.2992 179.982 82.4072 179.913C82.5179 179.842 82.5733 179.733 82.5733 179.585V179.56C82.5733 179.239 82.4782 178.99 82.2878 178.814C82.0975 178.638 81.8233 178.55 81.4654 178.55C81.0875 178.55 80.7878 178.632 80.5662 178.797C80.3475 178.962 80.1998 179.156 80.1231 179.381L78.6827 179.176C78.7964 178.778 78.9839 178.446 79.2452 178.179C79.5066 177.909 79.8262 177.707 80.204 177.574C80.5819 177.438 80.9995 177.369 81.4569 177.369C81.7722 177.369 82.0861 177.406 82.3986 177.48C82.7111 177.554 82.9966 177.676 83.2552 177.847C83.5137 178.014 83.7211 178.243 83.8773 178.533C84.0364 178.822 84.116 179.185 84.116 179.619V184H82.633V183.101H82.5819C82.4881 183.283 82.356 183.453 82.1856 183.612C82.0179 183.768 81.8063 183.895 81.5506 183.991C81.2978 184.085 81.0009 184.132 80.66 184.132ZM81.0606 182.999C81.3702 182.999 81.6387 182.937 81.866 182.815C82.0932 182.69 82.2679 182.526 82.3901 182.321C82.5151 182.116 82.5776 181.893 82.5776 181.652V180.881C82.5293 180.92 82.4469 180.957 82.3304 180.991C82.2168 181.026 82.089 181.055 81.9469 181.081C81.8049 181.107 81.6643 181.129 81.525 181.149C81.3858 181.169 81.2651 181.186 81.1628 181.2C80.9327 181.232 80.7268 181.283 80.5449 181.354C80.3631 181.425 80.2197 181.524 80.1145 181.652C80.0094 181.777 79.9569 181.939 79.9569 182.138C79.9569 182.422 80.0606 182.636 80.2679 182.781C80.4753 182.926 80.7395 182.999 81.0606 182.999ZM88.3817 186.591C87.8277 186.591 87.3519 186.516 86.9541 186.365C86.5564 186.217 86.2368 186.018 85.9953 185.768C85.7538 185.518 85.5862 185.241 85.4925 184.938L86.8817 184.601C86.9442 184.729 87.0351 184.855 87.1544 184.98C87.2737 185.108 87.4342 185.213 87.6359 185.295C87.8405 185.381 88.0976 185.423 88.4073 185.423C88.8448 185.423 89.207 185.317 89.4939 185.104C89.7808 184.893 89.9243 184.547 89.9243 184.064V182.824H89.8476C89.768 182.983 89.6516 183.146 89.4982 183.314C89.3476 183.482 89.1473 183.622 88.8973 183.736C88.6501 183.849 88.3391 183.906 87.9641 183.906C87.4612 183.906 87.0053 183.788 86.5962 183.553C86.1899 183.314 85.8661 182.959 85.6246 182.487C85.3859 182.013 85.2666 181.419 85.2666 180.706C85.2666 179.987 85.3859 179.381 85.6246 178.886C85.8661 178.389 86.1913 178.013 86.6004 177.757C87.0095 177.499 87.4655 177.369 87.9683 177.369C88.3519 177.369 88.6672 177.435 88.9144 177.565C89.1644 177.693 89.3632 177.848 89.5109 178.03C89.6587 178.209 89.7709 178.378 89.8476 178.537H89.9328V177.455H91.4541V184.107C91.4541 184.666 91.3206 185.129 91.0536 185.496C90.7865 185.862 90.4215 186.136 89.9584 186.318C89.4953 186.5 88.9698 186.591 88.3817 186.591ZM88.3945 182.696C88.7212 182.696 88.9996 182.616 89.2297 182.457C89.4598 182.298 89.6345 182.07 89.7538 181.771C89.8732 181.473 89.9328 181.115 89.9328 180.697C89.9328 180.286 89.8732 179.925 89.7538 179.615C89.6374 179.305 89.4641 179.065 89.234 178.895C89.0067 178.722 88.7269 178.635 88.3945 178.635C88.0507 178.635 87.7638 178.724 87.5337 178.903C87.3036 179.082 87.1303 179.328 87.0138 179.641C86.8973 179.95 86.8391 180.303 86.8391 180.697C86.8391 181.098 86.8973 181.449 87.0138 181.75C87.1331 182.048 87.3078 182.281 87.5379 182.449C87.7709 182.614 88.0564 182.696 88.3945 182.696ZM95.8008 184.128C95.1446 184.128 94.5778 183.991 94.1005 183.719C93.6261 183.443 93.261 183.054 93.0054 182.551C92.7497 182.045 92.6218 181.45 92.6218 180.766C92.6218 180.092 92.7497 179.501 93.0054 178.993C93.2639 178.482 93.6247 178.084 94.0878 177.8C94.5508 177.513 95.0949 177.369 95.7199 177.369C96.1233 177.369 96.5039 177.435 96.8619 177.565C97.2227 177.693 97.5409 177.892 97.8164 178.162C98.0949 178.432 98.3136 178.776 98.4727 179.193C98.6318 179.608 98.7113 180.102 98.7113 180.676V181.149H93.3463V180.109H97.2326C97.2298 179.814 97.1659 179.551 97.0409 179.321C96.9159 179.088 96.7412 178.905 96.5167 178.771C96.2951 178.638 96.0366 178.571 95.7412 178.571C95.4258 178.571 95.1488 178.648 94.9102 178.801C94.6716 178.952 94.4855 179.151 94.352 179.398C94.2213 179.642 94.1545 179.911 94.1517 180.203V181.111C94.1517 181.491 94.2213 181.818 94.3605 182.091C94.4997 182.361 94.6943 182.568 94.9443 182.713C95.1943 182.855 95.4869 182.926 95.8221 182.926C96.0466 182.926 96.2497 182.895 96.4315 182.832C96.6133 182.767 96.771 182.672 96.9045 182.547C97.038 182.422 97.1389 182.267 97.2071 182.082L98.6474 182.244C98.5565 182.625 98.3832 182.957 98.1275 183.241C97.8747 183.523 97.5508 183.741 97.1559 183.898C96.761 184.051 96.3093 184.128 95.8008 184.128Z" fill="white"/>
    <rect x="909.746" y="156" width="132.254" height="48" rx="3" fill="#757575" stroke="#424242" stroke-width="4" stroke-linecap="round"/>
    <path d="M938.641 184V175.273H941.914C942.584 175.273 943.147 175.389 943.601 175.622C944.059 175.855 944.404 176.182 944.637 176.602C944.873 177.02 944.991 177.507 944.991 178.064C944.991 178.624 944.871 179.109 944.633 179.521C944.397 179.93 944.049 180.247 943.589 180.472C943.128 180.693 942.563 180.804 941.893 180.804H939.562V179.491H941.68C942.072 179.491 942.393 179.437 942.643 179.33C942.893 179.219 943.077 179.058 943.197 178.848C943.319 178.635 943.38 178.374 943.38 178.064C943.38 177.754 943.319 177.49 943.197 177.271C943.074 177.05 942.888 176.882 942.638 176.768C942.388 176.652 942.066 176.594 941.671 176.594H940.222V184H938.641ZM943.15 180.045L945.31 184H943.546L941.424 180.045H943.15ZM949.05 184.128C948.393 184.128 947.827 183.991 947.349 183.719C946.875 183.443 946.51 183.054 946.254 182.551C945.999 182.045 945.871 181.45 945.871 180.766C945.871 180.092 945.999 179.501 946.254 178.993C946.513 178.482 946.874 178.084 947.337 177.8C947.8 177.513 948.344 177.369 948.969 177.369C949.372 177.369 949.753 177.435 950.111 177.565C950.472 177.693 950.79 177.892 951.065 178.162C951.344 178.432 951.562 178.776 951.722 179.193C951.881 179.608 951.96 180.102 951.96 180.676V181.149H946.595V180.109H950.482C950.479 179.814 950.415 179.551 950.29 179.321C950.165 179.088 949.99 178.905 949.766 178.771C949.544 178.638 949.285 178.571 948.99 178.571C948.675 178.571 948.398 178.648 948.159 178.801C947.92 178.952 947.734 179.151 947.601 179.398C947.47 179.642 947.403 179.911 947.401 180.203V181.111C947.401 181.491 947.47 181.818 947.609 182.091C947.749 182.361 947.943 182.568 948.193 182.713C948.443 182.855 948.736 182.926 949.071 182.926C949.295 182.926 949.499 182.895 949.68 182.832C949.862 182.767 950.02 182.672 950.153 182.547C950.287 182.422 950.388 182.267 950.456 182.082L951.896 182.244C951.805 182.625 951.632 182.957 951.376 183.241C951.124 183.523 950.8 183.741 950.405 183.898C950.01 184.051 949.558 184.128 949.05 184.128ZM957.501 186.455V182.969H957.437C957.358 183.128 957.243 183.297 957.092 183.476C956.941 183.652 956.743 183.803 956.495 183.928C956.248 184.053 955.937 184.115 955.562 184.115C955.048 184.115 954.588 183.983 954.182 183.719C953.775 183.455 953.454 183.071 953.218 182.568C952.983 182.065 952.865 181.455 952.865 180.736C952.865 180.009 952.984 179.395 953.223 178.895C953.464 178.392 953.789 178.013 954.199 177.757C954.608 177.499 955.064 177.369 955.566 177.369C955.95 177.369 956.265 177.435 956.513 177.565C956.76 177.693 956.956 177.848 957.101 178.03C957.245 178.209 957.358 178.378 957.437 178.537H957.531V177.455H959.048V186.455H957.501ZM955.993 182.849C956.319 182.849 956.598 182.761 956.828 182.585C957.058 182.406 957.233 182.158 957.352 181.839C957.471 181.521 957.531 181.151 957.531 180.727C957.531 180.304 957.471 179.936 957.352 179.624C957.236 179.311 957.062 179.068 956.832 178.895C956.605 178.722 956.325 178.635 955.993 178.635C955.649 178.635 955.362 178.724 955.132 178.903C954.902 179.082 954.728 179.33 954.612 179.645C954.495 179.96 954.437 180.321 954.437 180.727C954.437 181.136 954.495 181.501 954.612 181.822C954.731 182.141 954.906 182.392 955.136 182.577C955.369 182.759 955.655 182.849 955.993 182.849ZM964.673 181.247V177.455H966.216V184H964.72V182.837H964.652C964.504 183.203 964.261 183.503 963.923 183.736C963.588 183.969 963.175 184.085 962.683 184.085C962.254 184.085 961.875 183.99 961.545 183.8C961.219 183.607 960.963 183.327 960.778 182.96C960.594 182.591 960.501 182.145 960.501 181.622V177.455H962.044V181.384C962.044 181.798 962.157 182.128 962.385 182.372C962.612 182.616 962.91 182.739 963.28 182.739C963.507 182.739 963.727 182.683 963.94 182.572C964.153 182.462 964.328 182.297 964.464 182.078C964.604 181.857 964.673 181.58 964.673 181.247ZM970.568 184.128C969.912 184.128 969.345 183.991 968.867 183.719C968.393 183.443 968.028 183.054 967.772 182.551C967.517 182.045 967.389 181.45 967.389 180.766C967.389 180.092 967.517 179.501 967.772 178.993C968.031 178.482 968.392 178.084 968.855 177.8C969.318 177.513 969.862 177.369 970.487 177.369C970.89 177.369 971.271 177.435 971.629 177.565C971.99 177.693 972.308 177.892 972.583 178.162C972.862 178.432 973.081 178.776 973.24 179.193C973.399 179.608 973.478 180.102 973.478 180.676V181.149H968.113V180.109H972C971.997 179.814 971.933 179.551 971.808 179.321C971.683 179.088 971.508 178.905 971.284 178.771C971.062 178.638 970.804 178.571 970.508 178.571C970.193 178.571 969.916 178.648 969.677 178.801C969.438 178.952 969.252 179.151 969.119 179.398C968.988 179.642 968.921 179.911 968.919 180.203V181.111C968.919 181.491 968.988 181.818 969.127 182.091C969.267 182.361 969.461 182.568 969.711 182.713C969.961 182.855 970.254 182.926 970.589 182.926C970.813 182.926 971.017 182.895 971.198 182.832C971.38 182.767 971.538 182.672 971.671 182.547C971.805 182.422 971.906 182.267 971.974 182.082L973.414 182.244C973.323 182.625 973.15 182.957 972.894 183.241C972.642 183.523 972.318 183.741 971.923 183.898C971.528 184.051 971.076 184.128 970.568 184.128ZM979.825 179.185L978.418 179.338C978.379 179.196 978.309 179.062 978.21 178.938C978.113 178.812 977.982 178.712 977.818 178.635C977.653 178.558 977.451 178.52 977.212 178.52C976.891 178.52 976.621 178.589 976.403 178.729C976.187 178.868 976.08 179.048 976.083 179.27C976.08 179.46 976.15 179.615 976.292 179.734C976.437 179.854 976.675 179.952 977.008 180.028L978.124 180.267C978.744 180.401 979.204 180.612 979.505 180.902C979.809 181.192 979.962 181.571 979.965 182.04C979.962 182.452 979.842 182.815 979.603 183.131C979.367 183.443 979.039 183.687 978.619 183.864C978.198 184.04 977.715 184.128 977.17 184.128C976.369 184.128 975.724 183.96 975.235 183.625C974.746 183.287 974.455 182.817 974.362 182.214L975.866 182.07C975.934 182.365 976.079 182.588 976.3 182.739C976.522 182.889 976.81 182.964 977.166 182.964C977.532 182.964 977.826 182.889 978.048 182.739C978.272 182.588 978.384 182.402 978.384 182.18C978.384 181.993 978.312 181.838 978.167 181.716C978.025 181.594 977.803 181.5 977.502 181.435L976.386 181.2C975.758 181.07 975.293 180.849 974.992 180.54C974.691 180.227 974.542 179.832 974.545 179.355C974.542 178.952 974.651 178.602 974.873 178.307C975.097 178.009 975.408 177.778 975.806 177.616C976.207 177.452 976.668 177.369 977.191 177.369C977.958 177.369 978.562 177.533 979.002 177.859C979.445 178.186 979.719 178.628 979.825 179.185ZM984.374 177.455V178.648H980.611V177.455H984.374ZM981.54 175.886H983.083V182.031C983.083 182.239 983.114 182.398 983.176 182.509C983.242 182.616 983.327 182.69 983.432 182.73C983.537 182.77 983.654 182.79 983.781 182.79C983.878 182.79 983.966 182.783 984.046 182.768C984.128 182.754 984.19 182.741 984.233 182.73L984.493 183.936C984.411 183.964 984.293 183.996 984.139 184.03C983.989 184.064 983.804 184.084 983.585 184.089C983.199 184.101 982.851 184.043 982.541 183.915C982.232 183.784 981.986 183.582 981.804 183.31C981.625 183.037 981.537 182.696 981.54 182.287V175.886ZM993.187 177.672C993.148 177.3 992.98 177.01 992.685 176.803C992.392 176.595 992.011 176.491 991.543 176.491C991.213 176.491 990.93 176.541 990.695 176.641C990.459 176.74 990.278 176.875 990.153 177.045C990.028 177.216 989.964 177.411 989.962 177.629C989.962 177.811 990.003 177.969 990.085 178.102C990.17 178.236 990.285 178.349 990.43 178.443C990.575 178.534 990.736 178.611 990.912 178.673C991.088 178.736 991.266 178.788 991.445 178.831L992.263 179.036C992.592 179.112 992.909 179.216 993.213 179.347C993.52 179.477 993.794 179.642 994.035 179.841C994.28 180.04 994.473 180.28 994.615 180.561C994.757 180.842 994.828 181.172 994.828 181.55C994.828 182.061 994.697 182.511 994.436 182.901C994.175 183.287 993.797 183.589 993.303 183.808C992.811 184.024 992.216 184.132 991.517 184.132C990.838 184.132 990.249 184.027 989.749 183.817C989.251 183.607 988.862 183.3 988.581 182.896C988.303 182.493 988.152 182.001 988.129 181.422H989.685C989.707 181.726 989.801 181.979 989.966 182.18C990.131 182.382 990.345 182.533 990.609 182.632C990.876 182.732 991.175 182.781 991.504 182.781C991.848 182.781 992.149 182.73 992.408 182.628C992.669 182.523 992.874 182.378 993.021 182.193C993.169 182.006 993.244 181.787 993.247 181.537C993.244 181.31 993.178 181.122 993.047 180.974C992.916 180.824 992.733 180.699 992.497 180.599C992.264 180.497 991.991 180.406 991.679 180.327L990.686 180.071C989.967 179.886 989.399 179.607 988.982 179.232C988.567 178.854 988.359 178.352 988.359 177.727C988.359 177.213 988.499 176.763 988.777 176.376C989.058 175.99 989.44 175.69 989.923 175.477C990.406 175.261 990.953 175.153 991.564 175.153C992.183 175.153 992.726 175.261 993.192 175.477C993.66 175.69 994.028 175.987 994.295 176.368C994.562 176.746 994.7 177.18 994.709 177.672H993.187ZM998.935 184.128C998.279 184.128 997.712 183.991 997.235 183.719C996.76 183.443 996.395 183.054 996.14 182.551C995.884 182.045 995.756 181.45 995.756 180.766C995.756 180.092 995.884 179.501 996.14 178.993C996.398 178.482 996.759 178.084 997.222 177.8C997.685 177.513 998.229 177.369 998.854 177.369C999.258 177.369 999.638 177.435 999.996 177.565C1000.36 177.693 1000.68 177.892 1000.95 178.162C1001.23 178.432 1001.45 178.776 1001.61 179.193C1001.77 179.608 1001.85 180.102 1001.85 180.676V181.149H996.481V180.109H1000.37C1000.36 179.814 1000.3 179.551 1000.18 179.321C1000.05 179.088 999.875 178.905 999.651 178.771C999.429 178.638 999.171 178.571 998.875 178.571C998.56 178.571 998.283 178.648 998.044 178.801C997.806 178.952 997.62 179.151 997.486 179.398C997.356 179.642 997.289 179.911 997.286 180.203V181.111C997.286 181.491 997.356 181.818 997.495 182.091C997.634 182.361 997.829 182.568 998.079 182.713C998.329 182.855 998.621 182.926 998.956 182.926C999.181 182.926 999.384 182.895 999.566 182.832C999.748 182.767 999.905 182.672 1000.04 182.547C1000.17 182.422 1000.27 182.267 1000.34 182.082L1001.78 182.244C1001.69 182.625 1001.52 182.957 1001.26 183.241C1001.01 183.523 1000.69 183.741 1000.29 183.898C999.895 184.051 999.444 184.128 998.935 184.128ZM1004.56 180.165V184H1003.02V177.455H1004.49V178.567H1004.57C1004.72 178.2 1004.96 177.909 1005.29 177.693C1005.62 177.477 1006.03 177.369 1006.52 177.369C1006.97 177.369 1007.37 177.466 1007.7 177.659C1008.04 177.852 1008.3 178.132 1008.49 178.499C1008.67 178.865 1008.77 179.31 1008.76 179.832V184H1007.22V180.071C1007.22 179.634 1007.11 179.291 1006.88 179.044C1006.66 178.797 1006.34 178.673 1005.95 178.673C1005.68 178.673 1005.44 178.733 1005.23 178.852C1005.02 178.969 1004.86 179.138 1004.74 179.359C1004.62 179.581 1004.56 179.849 1004.56 180.165ZM1013.47 177.455V178.648H1009.7V177.455H1013.47ZM1010.63 175.886H1012.18V182.031C1012.18 182.239 1012.21 182.398 1012.27 182.509C1012.34 182.616 1012.42 182.69 1012.53 182.73C1012.63 182.77 1012.75 182.79 1012.88 182.79C1012.97 182.79 1013.06 182.783 1013.14 182.768C1013.22 182.754 1013.28 182.741 1013.33 182.73L1013.59 183.936C1013.5 183.964 1013.39 183.996 1013.23 184.03C1013.08 184.064 1012.9 184.084 1012.68 184.089C1012.29 184.101 1011.94 184.043 1011.64 183.915C1011.33 183.784 1011.08 183.582 1010.9 183.31C1010.72 183.037 1010.63 182.696 1010.63 182.287V175.886Z" fill="white"/>
    <rect x="210.401" y="156" width="132.254" height="48" rx="3" fill="#F3F3F3" stroke="#DBDBDB" stroke-width="4" stroke-linecap="round"/>
    <path d="M228.963 178.06C228.892 177.83 228.794 177.624 228.669 177.442C228.547 177.257 228.399 177.099 228.226 176.969C228.055 176.838 227.859 176.74 227.638 176.675C227.416 176.607 227.175 176.572 226.913 176.572C226.444 176.572 226.027 176.69 225.66 176.926C225.294 177.162 225.006 177.509 224.795 177.966C224.588 178.42 224.484 178.974 224.484 179.628C224.484 180.287 224.588 180.845 224.795 181.303C225.003 181.76 225.291 182.108 225.66 182.347C226.03 182.582 226.459 182.7 226.947 182.7C227.39 182.7 227.774 182.615 228.098 182.445C228.425 182.274 228.676 182.033 228.852 181.72C229.028 181.405 229.116 181.036 229.116 180.612L229.474 180.668H227.105V179.432H230.646V180.48C230.646 181.227 230.487 181.874 230.169 182.419C229.851 182.964 229.413 183.385 228.856 183.68C228.3 183.973 227.66 184.119 226.939 184.119C226.135 184.119 225.429 183.939 224.821 183.578C224.216 183.214 223.743 182.699 223.402 182.031C223.064 181.361 222.895 180.565 222.895 179.645C222.895 178.94 222.994 178.311 223.193 177.757C223.395 177.203 223.676 176.733 224.037 176.347C224.398 175.957 224.821 175.662 225.307 175.46C225.792 175.256 226.321 175.153 226.892 175.153C227.375 175.153 227.825 175.224 228.243 175.366C228.66 175.506 229.031 175.705 229.355 175.963C229.682 176.222 229.95 176.528 230.16 176.884C230.371 177.239 230.508 177.631 230.574 178.06H228.963ZM234.83 184.128C234.191 184.128 233.637 183.987 233.168 183.706C232.699 183.425 232.336 183.031 232.077 182.526C231.821 182.02 231.693 181.429 231.693 180.753C231.693 180.077 231.821 179.484 232.077 178.976C232.336 178.467 232.699 178.072 233.168 177.791C233.637 177.51 234.191 177.369 234.83 177.369C235.469 177.369 236.023 177.51 236.492 177.791C236.961 178.072 237.323 178.467 237.578 178.976C237.837 179.484 237.966 180.077 237.966 180.753C237.966 181.429 237.837 182.02 237.578 182.526C237.323 183.031 236.961 183.425 236.492 183.706C236.023 183.987 235.469 184.128 234.83 184.128ZM234.838 182.892C235.185 182.892 235.475 182.797 235.708 182.607C235.941 182.413 236.114 182.155 236.228 181.831C236.344 181.507 236.402 181.146 236.402 180.749C236.402 180.348 236.344 179.986 236.228 179.662C236.114 179.335 235.941 179.075 235.708 178.882C235.475 178.689 235.185 178.592 234.838 178.592C234.483 178.592 234.188 178.689 233.952 178.882C233.719 179.075 233.544 179.335 233.428 179.662C233.314 179.986 233.257 180.348 233.257 180.749C233.257 181.146 233.314 181.507 233.428 181.831C233.544 182.155 233.719 182.413 233.952 182.607C234.188 182.797 234.483 182.892 234.838 182.892ZM245.257 177.455V178.648H241.494V177.455H245.257ZM242.423 175.886H243.965V182.031C243.965 182.239 243.997 182.398 244.059 182.509C244.124 182.616 244.21 182.69 244.315 182.73C244.42 182.77 244.536 182.79 244.664 182.79C244.761 182.79 244.849 182.783 244.928 182.768C245.011 182.754 245.073 182.741 245.116 182.73L245.376 183.936C245.293 183.964 245.176 183.996 245.022 184.03C244.872 184.064 244.687 184.084 244.468 184.089C244.082 184.101 243.734 184.043 243.424 183.915C243.114 183.784 242.869 183.582 242.687 183.31C242.508 183.037 242.42 182.696 242.423 182.287V175.886ZM249.199 184.128C248.56 184.128 248.006 183.987 247.538 183.706C247.069 183.425 246.705 183.031 246.447 182.526C246.191 182.02 246.063 181.429 246.063 180.753C246.063 180.077 246.191 179.484 246.447 178.976C246.705 178.467 247.069 178.072 247.538 177.791C248.006 177.51 248.56 177.369 249.199 177.369C249.839 177.369 250.393 177.51 250.861 177.791C251.33 178.072 251.692 178.467 251.948 178.976C252.207 179.484 252.336 180.077 252.336 180.753C252.336 181.429 252.207 182.02 251.948 182.526C251.692 183.031 251.33 183.425 250.861 183.706C250.393 183.987 249.839 184.128 249.199 184.128ZM249.208 182.892C249.555 182.892 249.844 182.797 250.077 182.607C250.31 182.413 250.484 182.155 250.597 181.831C250.714 181.507 250.772 181.146 250.772 180.749C250.772 180.348 250.714 179.986 250.597 179.662C250.484 179.335 250.31 179.075 250.077 178.882C249.844 178.689 249.555 178.592 249.208 178.592C248.853 178.592 248.557 178.689 248.322 178.882C248.089 179.075 247.914 179.335 247.797 179.662C247.684 179.986 247.627 180.348 247.627 180.749C247.627 181.146 247.684 181.507 247.797 181.831C247.914 182.155 248.089 182.413 248.322 182.607C248.557 182.797 248.853 182.892 249.208 182.892ZM256.426 184V175.273H262.102V176.598H258.007V178.967H261.808V180.293H258.007V182.675H262.136V184H256.426ZM269.361 177.455L267.03 184H265.326L262.995 177.455H264.64L266.144 182.317H266.212L267.721 177.455H269.361ZM272.972 184.128C272.316 184.128 271.749 183.991 271.272 183.719C270.797 183.443 270.432 183.054 270.176 182.551C269.921 182.045 269.793 181.45 269.793 180.766C269.793 180.092 269.921 179.501 270.176 178.993C270.435 178.482 270.796 178.084 271.259 177.8C271.722 177.513 272.266 177.369 272.891 177.369C273.294 177.369 273.675 177.435 274.033 177.565C274.394 177.693 274.712 177.892 274.988 178.162C275.266 178.432 275.485 178.776 275.644 179.193C275.803 179.608 275.882 180.102 275.882 180.676V181.149H270.517V180.109H274.404C274.401 179.814 274.337 179.551 274.212 179.321C274.087 179.088 273.912 178.905 273.688 178.771C273.466 178.638 273.208 178.571 272.912 178.571C272.597 178.571 272.32 178.648 272.081 178.801C271.843 178.952 271.657 179.151 271.523 179.398C271.392 179.642 271.326 179.911 271.323 180.203V181.111C271.323 181.491 271.392 181.818 271.532 182.091C271.671 182.361 271.865 182.568 272.115 182.713C272.365 182.855 272.658 182.926 272.993 182.926C273.218 182.926 273.421 182.895 273.603 182.832C273.784 182.767 273.942 182.672 274.076 182.547C274.209 182.422 274.31 182.267 274.378 182.082L275.818 182.244C275.728 182.625 275.554 182.957 275.299 183.241C275.046 183.523 274.722 183.741 274.327 183.898C273.932 184.051 273.48 184.128 272.972 184.128ZM278.598 180.165V184H277.055V177.455H278.53V178.567H278.607C278.757 178.2 278.997 177.909 279.327 177.693C279.659 177.477 280.07 177.369 280.558 177.369C281.01 177.369 281.403 177.466 281.739 177.659C282.077 177.852 282.338 178.132 282.523 178.499C282.71 178.865 282.803 179.31 282.8 179.832V184H281.257V180.071C281.257 179.634 281.144 179.291 280.916 179.044C280.692 178.797 280.381 178.673 279.983 178.673C279.713 178.673 279.473 178.733 279.263 178.852C279.055 178.969 278.892 179.138 278.773 179.359C278.656 179.581 278.598 179.849 278.598 180.165ZM287.504 177.455V178.648H283.742V177.455H287.504ZM284.671 175.886H286.213V182.031C286.213 182.239 286.244 182.398 286.307 182.509C286.372 182.616 286.458 182.69 286.563 182.73C286.668 182.77 286.784 182.79 286.912 182.79C287.009 182.79 287.097 182.783 287.176 182.768C287.259 182.754 287.321 182.741 287.364 182.73L287.624 183.936C287.541 183.964 287.423 183.996 287.27 184.03C287.119 184.064 286.935 184.084 286.716 184.089C286.33 184.101 285.982 184.043 285.672 183.915C285.362 183.784 285.117 183.582 284.935 183.31C284.756 183.037 284.668 182.696 284.671 182.287V175.886ZM296.318 177.672C296.278 177.3 296.111 177.01 295.815 176.803C295.523 176.595 295.142 176.491 294.673 176.491C294.344 176.491 294.061 176.541 293.825 176.641C293.589 176.74 293.409 176.875 293.284 177.045C293.159 177.216 293.095 177.411 293.092 177.629C293.092 177.811 293.134 177.969 293.216 178.102C293.301 178.236 293.416 178.349 293.561 178.443C293.706 178.534 293.866 178.611 294.043 178.673C294.219 178.736 294.396 178.788 294.575 178.831L295.393 179.036C295.723 179.112 296.04 179.216 296.344 179.347C296.651 179.477 296.925 179.642 297.166 179.841C297.411 180.04 297.604 180.28 297.746 180.561C297.888 180.842 297.959 181.172 297.959 181.55C297.959 182.061 297.828 182.511 297.567 182.901C297.305 183.287 296.928 183.589 296.433 183.808C295.942 184.024 295.347 184.132 294.648 184.132C293.969 184.132 293.379 184.027 292.879 183.817C292.382 183.607 291.993 183.3 291.712 182.896C291.433 182.493 291.283 182.001 291.26 181.422H292.815C292.838 181.726 292.932 181.979 293.097 182.18C293.261 182.382 293.476 182.533 293.74 182.632C294.007 182.732 294.305 182.781 294.635 182.781C294.979 182.781 295.28 182.73 295.538 182.628C295.8 182.523 296.004 182.378 296.152 182.193C296.3 182.006 296.375 181.787 296.378 181.537C296.375 181.31 296.308 181.122 296.178 180.974C296.047 180.824 295.864 180.699 295.628 180.599C295.395 180.497 295.122 180.406 294.81 180.327L293.817 180.071C293.098 179.886 292.53 179.607 292.112 179.232C291.697 178.854 291.49 178.352 291.49 177.727C291.49 177.213 291.629 176.763 291.908 176.376C292.189 175.99 292.571 175.69 293.054 175.477C293.537 175.261 294.084 175.153 294.695 175.153C295.314 175.153 295.857 175.261 296.322 175.477C296.791 175.69 297.159 175.987 297.426 176.368C297.693 176.746 297.831 177.18 297.839 177.672H296.318ZM302.023 184.128C301.37 184.128 300.809 183.984 300.34 183.697C299.874 183.411 299.515 183.014 299.262 182.509C299.012 182 298.887 181.415 298.887 180.753C298.887 180.088 299.015 179.501 299.27 178.993C299.526 178.482 299.887 178.084 300.353 177.8C300.821 177.513 301.375 177.369 302.015 177.369C302.546 177.369 303.016 177.467 303.425 177.663C303.837 177.857 304.165 178.131 304.41 178.486C304.654 178.838 304.793 179.25 304.827 179.722H303.353C303.293 179.406 303.151 179.143 302.927 178.933C302.705 178.72 302.408 178.614 302.036 178.614C301.721 178.614 301.444 178.699 301.205 178.869C300.966 179.037 300.78 179.278 300.647 179.594C300.516 179.909 300.451 180.287 300.451 180.727C300.451 181.173 300.516 181.557 300.647 181.878C300.777 182.196 300.961 182.442 301.196 182.615C301.435 182.786 301.715 182.871 302.036 182.871C302.263 182.871 302.466 182.828 302.645 182.743C302.827 182.655 302.979 182.528 303.101 182.364C303.223 182.199 303.307 181.999 303.353 181.763H304.827C304.79 182.226 304.654 182.636 304.418 182.994C304.182 183.349 303.861 183.628 303.455 183.83C303.049 184.028 302.571 184.128 302.023 184.128ZM305.962 184V177.455H307.458V178.545H307.526C307.645 178.168 307.85 177.876 308.139 177.672C308.432 177.464 308.766 177.361 309.141 177.361C309.226 177.361 309.321 177.365 309.426 177.374C309.534 177.379 309.624 177.389 309.695 177.403V178.822C309.629 178.8 309.526 178.78 309.384 178.763C309.245 178.743 309.11 178.733 308.979 178.733C308.698 178.733 308.445 178.794 308.22 178.916C307.999 179.036 307.824 179.202 307.696 179.415C307.568 179.628 307.504 179.874 307.504 180.152V184H305.962ZM313.216 184.128C312.56 184.128 311.993 183.991 311.516 183.719C311.041 183.443 310.676 183.054 310.42 182.551C310.165 182.045 310.037 181.45 310.037 180.766C310.037 180.092 310.165 179.501 310.42 178.993C310.679 178.482 311.04 178.084 311.503 177.8C311.966 177.513 312.51 177.369 313.135 177.369C313.538 177.369 313.919 177.435 314.277 177.565C314.638 177.693 314.956 177.892 315.231 178.162C315.51 178.432 315.729 178.776 315.888 179.193C316.047 179.608 316.126 180.102 316.126 180.676V181.149H310.761V180.109H314.648C314.645 179.814 314.581 179.551 314.456 179.321C314.331 179.088 314.156 178.905 313.932 178.771C313.71 178.638 313.452 178.571 313.156 178.571C312.841 178.571 312.564 178.648 312.325 178.801C312.087 178.952 311.901 179.151 311.767 179.398C311.636 179.642 311.57 179.911 311.567 180.203V181.111C311.567 181.491 311.636 181.818 311.776 182.091C311.915 182.361 312.109 182.568 312.359 182.713C312.609 182.855 312.902 182.926 313.237 182.926C313.462 182.926 313.665 182.895 313.847 182.832C314.028 182.767 314.186 182.672 314.32 182.547C314.453 182.422 314.554 182.267 314.622 182.082L316.062 182.244C315.972 182.625 315.798 182.957 315.543 183.241C315.29 183.523 314.966 183.741 314.571 183.898C314.176 184.051 313.724 184.128 313.216 184.128ZM320.197 184.128C319.541 184.128 318.974 183.991 318.497 183.719C318.022 183.443 317.657 183.054 317.402 182.551C317.146 182.045 317.018 181.45 317.018 180.766C317.018 180.092 317.146 179.501 317.402 178.993C317.66 178.482 318.021 178.084 318.484 177.8C318.947 177.513 319.491 177.369 320.116 177.369C320.52 177.369 320.9 177.435 321.258 177.565C321.619 177.693 321.937 177.892 322.213 178.162C322.491 178.432 322.71 178.776 322.869 179.193C323.028 179.608 323.108 180.102 323.108 180.676V181.149H317.743V180.109H321.629C321.626 179.814 321.562 179.551 321.437 179.321C321.312 179.088 321.137 178.905 320.913 178.771C320.691 178.638 320.433 178.571 320.137 178.571C319.822 178.571 319.545 178.648 319.307 178.801C319.068 178.952 318.882 179.151 318.748 179.398C318.618 179.642 318.551 179.911 318.548 180.203V181.111C318.548 181.491 318.618 181.818 318.757 182.091C318.896 182.361 319.091 182.568 319.341 182.713C319.591 182.855 319.883 182.926 320.218 182.926C320.443 182.926 320.646 182.895 320.828 182.832C321.01 182.767 321.167 182.672 321.301 182.547C321.434 182.422 321.535 182.267 321.603 182.082L323.044 182.244C322.953 182.625 322.78 182.957 322.524 183.241C322.271 183.523 321.947 183.741 321.552 183.898C321.157 184.051 320.706 184.128 320.197 184.128ZM325.823 180.165V184H324.281V177.455H325.755V178.567H325.832C325.982 178.2 326.222 177.909 326.552 177.693C326.884 177.477 327.295 177.369 327.784 177.369C328.235 177.369 328.629 177.466 328.964 177.659C329.302 177.852 329.563 178.132 329.748 178.499C329.936 178.865 330.028 179.31 330.025 179.832V184H328.482V180.071C328.482 179.634 328.369 179.291 328.141 179.044C327.917 178.797 327.606 178.673 327.208 178.673C326.938 178.673 326.698 178.733 326.488 178.852C326.281 178.969 326.117 179.138 325.998 179.359C325.882 179.581 325.823 179.849 325.823 180.165Z" fill="black" fill-opacity="0.8"/>
    <rect x="418.802" y="156" width="132.254" height="48" rx="3" fill="#F3F3F3" stroke="#DBDBDB" stroke-width="4" stroke-linecap="round"/>
    <path d="M453.726 178.217H452.132C452.087 177.956 452.003 177.724 451.881 177.523C451.759 177.318 451.607 177.145 451.425 177.003C451.243 176.861 451.036 176.754 450.803 176.683C450.573 176.609 450.324 176.572 450.057 176.572C449.583 176.572 449.162 176.692 448.796 176.93C448.429 177.166 448.142 177.513 447.935 177.97C447.728 178.425 447.624 178.98 447.624 179.636C447.624 180.304 447.728 180.866 447.935 181.324C448.145 181.778 448.432 182.122 448.796 182.355C449.162 182.585 449.581 182.7 450.053 182.7C450.314 182.7 450.559 182.666 450.786 182.598C451.016 182.527 451.222 182.423 451.404 182.287C451.588 182.151 451.743 181.983 451.868 181.784C451.996 181.585 452.084 181.358 452.132 181.102L453.726 181.111C453.666 181.526 453.537 181.915 453.338 182.278C453.142 182.642 452.885 182.963 452.567 183.241C452.249 183.517 451.877 183.733 451.451 183.889C451.024 184.043 450.551 184.119 450.032 184.119C449.264 184.119 448.58 183.942 447.978 183.587C447.375 183.232 446.901 182.719 446.554 182.048C446.208 181.378 446.034 180.574 446.034 179.636C446.034 178.696 446.209 177.892 446.559 177.224C446.908 176.554 447.384 176.041 447.986 175.686C448.588 175.331 449.27 175.153 450.032 175.153C450.517 175.153 450.969 175.222 451.387 175.358C451.804 175.494 452.176 175.695 452.503 175.959C452.83 176.22 453.098 176.541 453.309 176.922C453.522 177.3 453.661 177.732 453.726 178.217ZM456.516 180.165V184H454.974V175.273H456.482V178.567H456.559C456.712 178.197 456.95 177.906 457.271 177.693C457.594 177.477 458.006 177.369 458.506 177.369C458.961 177.369 459.357 177.464 459.695 177.655C460.033 177.845 460.295 178.124 460.479 178.49C460.667 178.857 460.761 179.304 460.761 179.832V184H459.218V180.071C459.218 179.631 459.104 179.288 458.877 179.044C458.653 178.797 458.337 178.673 457.931 178.673C457.658 178.673 457.414 178.733 457.198 178.852C456.985 178.969 456.817 179.138 456.695 179.359C456.576 179.581 456.516 179.849 456.516 180.165ZM465.056 184.128C464.417 184.128 463.863 183.987 463.394 183.706C462.926 183.425 462.562 183.031 462.303 182.526C462.048 182.02 461.92 181.429 461.92 180.753C461.92 180.077 462.048 179.484 462.303 178.976C462.562 178.467 462.926 178.072 463.394 177.791C463.863 177.51 464.417 177.369 465.056 177.369C465.695 177.369 466.249 177.51 466.718 177.791C467.187 178.072 467.549 178.467 467.805 178.976C468.063 179.484 468.193 180.077 468.193 180.753C468.193 181.429 468.063 182.02 467.805 182.526C467.549 183.031 467.187 183.425 466.718 183.706C466.249 183.987 465.695 184.128 465.056 184.128ZM465.065 182.892C465.411 182.892 465.701 182.797 465.934 182.607C466.167 182.413 466.34 182.155 466.454 181.831C466.57 181.507 466.629 181.146 466.629 180.749C466.629 180.348 466.57 179.986 466.454 179.662C466.34 179.335 466.167 179.075 465.934 178.882C465.701 178.689 465.411 178.592 465.065 178.592C464.71 178.592 464.414 178.689 464.178 178.882C463.945 179.075 463.771 179.335 463.654 179.662C463.541 179.986 463.484 180.348 463.484 180.749C463.484 181.146 463.541 181.507 463.654 181.831C463.771 182.155 463.945 182.413 464.178 182.607C464.414 182.797 464.71 182.892 465.065 182.892ZM472.225 184.128C471.586 184.128 471.032 183.987 470.563 183.706C470.094 183.425 469.731 183.031 469.472 182.526C469.216 182.02 469.089 181.429 469.089 180.753C469.089 180.077 469.216 179.484 469.472 178.976C469.731 178.467 470.094 178.072 470.563 177.791C471.032 177.51 471.586 177.369 472.225 177.369C472.864 177.369 473.418 177.51 473.887 177.791C474.356 178.072 474.718 178.467 474.974 178.976C475.232 179.484 475.361 180.077 475.361 180.753C475.361 181.429 475.232 182.02 474.974 182.526C474.718 183.031 474.356 183.425 473.887 183.706C473.418 183.987 472.864 184.128 472.225 184.128ZM472.234 182.892C472.58 182.892 472.87 182.797 473.103 182.607C473.336 182.413 473.509 182.155 473.623 181.831C473.739 181.507 473.797 181.146 473.797 180.749C473.797 180.348 473.739 179.986 473.623 179.662C473.509 179.335 473.336 179.075 473.103 178.882C472.87 178.689 472.58 178.592 472.234 178.592C471.878 178.592 471.583 178.689 471.347 178.882C471.114 179.075 470.94 179.335 470.823 179.662C470.709 179.986 470.653 180.348 470.653 180.749C470.653 181.146 470.709 181.507 470.823 181.831C470.94 182.155 471.114 182.413 471.347 182.607C471.583 182.797 471.878 182.892 472.234 182.892ZM481.712 179.185L480.306 179.338C480.266 179.196 480.196 179.062 480.097 178.938C480 178.812 479.87 178.712 479.705 178.635C479.54 178.558 479.338 178.52 479.1 178.52C478.779 178.52 478.509 178.589 478.29 178.729C478.074 178.868 477.968 179.048 477.97 179.27C477.968 179.46 478.037 179.615 478.179 179.734C478.324 179.854 478.563 179.952 478.895 180.028L480.012 180.267C480.631 180.401 481.091 180.612 481.392 180.902C481.696 181.192 481.85 181.571 481.853 182.04C481.85 182.452 481.729 182.815 481.49 183.131C481.255 183.443 480.926 183.687 480.506 183.864C480.086 184.04 479.603 184.128 479.057 184.128C478.256 184.128 477.611 183.96 477.122 183.625C476.634 183.287 476.343 182.817 476.249 182.214L477.753 182.07C477.821 182.365 477.966 182.588 478.188 182.739C478.409 182.889 478.698 182.964 479.053 182.964C479.419 182.964 479.713 182.889 479.935 182.739C480.159 182.588 480.272 182.402 480.272 182.18C480.272 181.993 480.199 181.838 480.054 181.716C479.912 181.594 479.691 181.5 479.39 181.435L478.273 181.2C477.645 181.07 477.181 180.849 476.88 180.54C476.578 180.227 476.429 179.832 476.432 179.355C476.429 178.952 476.539 178.602 476.76 178.307C476.985 178.009 477.296 177.778 477.694 177.616C478.094 177.452 478.556 177.369 479.078 177.369C479.845 177.369 480.449 177.533 480.89 177.859C481.333 178.186 481.607 178.628 481.712 179.185ZM485.89 184.128C485.234 184.128 484.667 183.991 484.19 183.719C483.716 183.443 483.351 183.054 483.095 182.551C482.839 182.045 482.711 181.45 482.711 180.766C482.711 180.092 482.839 179.501 483.095 178.993C483.353 178.482 483.714 178.084 484.177 177.8C484.64 177.513 485.184 177.369 485.809 177.369C486.213 177.369 486.593 177.435 486.951 177.565C487.312 177.693 487.63 177.892 487.906 178.162C488.184 178.432 488.403 178.776 488.562 179.193C488.721 179.608 488.801 180.102 488.801 180.676V181.149H483.436V180.109H487.322C487.319 179.814 487.255 179.551 487.13 179.321C487.005 179.088 486.831 178.905 486.606 178.771C486.385 178.638 486.126 178.571 485.831 178.571C485.515 178.571 485.238 178.648 485 178.801C484.761 178.952 484.575 179.151 484.441 179.398C484.311 179.642 484.244 179.911 484.241 180.203V181.111C484.241 181.491 484.311 181.818 484.45 182.091C484.589 182.361 484.784 182.568 485.034 182.713C485.284 182.855 485.576 182.926 485.912 182.926C486.136 182.926 486.339 182.895 486.521 182.832C486.703 182.767 486.861 182.672 486.994 182.547C487.128 182.422 487.228 182.267 487.297 182.082L488.737 182.244C488.646 182.625 488.473 182.957 488.217 183.241C487.964 183.523 487.64 183.741 487.245 183.898C486.851 184.051 486.399 184.128 485.89 184.128ZM492.887 184V175.273H498.563V176.598H494.468V178.967H498.269V180.293H494.468V182.675H498.597V184H492.887ZM505.822 177.455L503.491 184H501.787L499.456 177.455H501.101L502.605 182.317H502.673L504.181 177.455H505.822ZM509.433 184.128C508.776 184.128 508.21 183.991 507.732 183.719C507.258 183.443 506.893 183.054 506.637 182.551C506.382 182.045 506.254 181.45 506.254 180.766C506.254 180.092 506.382 179.501 506.637 178.993C506.896 178.482 507.257 178.084 507.72 177.8C508.183 177.513 508.727 177.369 509.352 177.369C509.755 177.369 510.136 177.435 510.494 177.565C510.855 177.693 511.173 177.892 511.448 178.162C511.727 178.432 511.945 178.776 512.105 179.193C512.264 179.608 512.343 180.102 512.343 180.676V181.149H506.978V180.109H510.864C510.862 179.814 510.798 179.551 510.673 179.321C510.548 179.088 510.373 178.905 510.149 178.771C509.927 178.638 509.668 178.571 509.373 178.571C509.058 178.571 508.781 178.648 508.542 178.801C508.303 178.952 508.117 179.151 507.984 179.398C507.853 179.642 507.786 179.911 507.784 180.203V181.111C507.784 181.491 507.853 181.818 507.992 182.091C508.132 182.361 508.326 182.568 508.576 182.713C508.826 182.855 509.119 182.926 509.454 182.926C509.678 182.926 509.882 182.895 510.063 182.832C510.245 182.767 510.403 182.672 510.536 182.547C510.67 182.422 510.771 182.267 510.839 182.082L512.279 182.244C512.188 182.625 512.015 182.957 511.759 183.241C511.507 183.523 511.183 183.741 510.788 183.898C510.393 184.051 509.941 184.128 509.433 184.128ZM515.059 180.165V184H513.516V177.455H514.991V178.567H515.067C515.218 178.2 515.458 177.909 515.788 177.693C516.12 177.477 516.53 177.369 517.019 177.369C517.471 177.369 517.864 177.466 518.199 177.659C518.538 177.852 518.799 178.132 518.984 178.499C519.171 178.865 519.263 179.31 519.261 179.832V184H517.718V180.071C517.718 179.634 517.604 179.291 517.377 179.044C517.153 178.797 516.842 178.673 516.444 178.673C516.174 178.673 515.934 178.733 515.724 178.852C515.516 178.969 515.353 179.138 515.234 179.359C515.117 179.581 515.059 179.849 515.059 180.165ZM523.965 177.455V178.648H520.202V177.455H523.965ZM521.131 175.886H522.674V182.031C522.674 182.239 522.705 182.398 522.768 182.509C522.833 182.616 522.918 182.69 523.023 182.73C523.129 182.77 523.245 182.79 523.373 182.79C523.469 182.79 523.558 182.783 523.637 182.768C523.719 182.754 523.782 182.741 523.825 182.73L524.084 183.936C524.002 183.964 523.884 183.996 523.731 184.03C523.58 184.064 523.396 184.084 523.177 184.089C522.79 184.101 522.442 184.043 522.133 183.915C521.823 183.784 521.577 183.582 521.396 183.31C521.217 183.037 521.129 182.696 521.131 182.287V175.886Z" fill="black" fill-opacity="0.8"/>
    <rect x="648.243" y="2" width="132.254" height="48" rx="3" fill="#AFF4C6" stroke="#65BF8C" stroke-width="4" stroke-linecap="round"/>
    <path d="M704.301 21.2727H706.087L708.222 25.1335H708.307L710.442 21.2727H712.227L709.053 26.7443V30H707.476V26.7443L704.301 21.2727ZM714.826 30.1278C714.17 30.1278 713.603 29.9915 713.126 29.7188C712.651 29.4432 712.286 29.054 712.03 28.5511C711.775 28.0455 711.647 27.4503 711.647 26.7656C711.647 26.0923 711.775 25.5014 712.03 24.9929C712.289 24.4815 712.65 24.0838 713.113 23.7997C713.576 23.5128 714.12 23.3693 714.745 23.3693C715.148 23.3693 715.529 23.4347 715.887 23.5653C716.248 23.6932 716.566 23.892 716.841 24.1619C717.12 24.4318 717.339 24.7756 717.498 25.1932C717.657 25.608 717.736 26.1023 717.736 26.6761V27.1491H712.371V26.1094H716.258C716.255 25.8139 716.191 25.5511 716.066 25.321C715.941 25.0881 715.766 24.9048 715.542 24.7713C715.32 24.6378 715.062 24.571 714.766 24.571C714.451 24.571 714.174 24.6477 713.935 24.8011C713.697 24.9517 713.51 25.1506 713.377 25.3977C713.246 25.642 713.18 25.9105 713.177 26.2031V27.1108C713.177 27.4915 713.246 27.8182 713.385 28.0909C713.525 28.3608 713.719 28.5682 713.969 28.7131C714.219 28.8551 714.512 28.9261 714.847 28.9261C715.072 28.9261 715.275 28.8949 715.456 28.8324C715.638 28.767 715.796 28.6719 715.93 28.5469C716.063 28.4219 716.164 28.267 716.232 28.0824L717.672 28.2443C717.581 28.625 717.408 28.9574 717.153 29.2415C716.9 29.5227 716.576 29.7415 716.181 29.8977C715.786 30.0511 715.334 30.1278 714.826 30.1278ZM724.083 25.1847L722.676 25.3381C722.637 25.196 722.567 25.0625 722.468 24.9375C722.371 24.8125 722.24 24.7116 722.076 24.6349C721.911 24.5582 721.709 24.5199 721.47 24.5199C721.149 24.5199 720.88 24.5895 720.661 24.7287C720.445 24.8679 720.338 25.0483 720.341 25.2699C720.338 25.4602 720.408 25.6151 720.55 25.7344C720.695 25.8537 720.934 25.9517 721.266 26.0284L722.382 26.267C723.002 26.4006 723.462 26.6122 723.763 26.902C724.067 27.1918 724.22 27.571 724.223 28.0398C724.22 28.4517 724.1 28.8153 723.861 29.1307C723.625 29.4432 723.297 29.6875 722.877 29.8636C722.456 30.0398 721.973 30.1278 721.428 30.1278C720.627 30.1278 719.982 29.9602 719.493 29.625C719.005 29.2869 718.713 28.8168 718.62 28.2145L720.124 28.0696C720.192 28.3651 720.337 28.5881 720.559 28.7386C720.78 28.8892 721.068 28.9645 721.424 28.9645C721.79 28.9645 722.084 28.8892 722.306 28.7386C722.53 28.5881 722.642 28.402 722.642 28.1804C722.642 27.9929 722.57 27.8381 722.425 27.7159C722.283 27.5937 722.061 27.5 721.76 27.4347L720.644 27.2003C720.016 27.0696 719.551 26.8494 719.25 26.5398C718.949 26.2273 718.8 25.8324 718.803 25.3551C718.8 24.9517 718.909 24.6023 719.131 24.3068C719.355 24.0085 719.666 23.7784 720.064 23.6165C720.465 23.4517 720.926 23.3693 721.449 23.3693C722.216 23.3693 722.82 23.5327 723.26 23.8594C723.703 24.1861 723.978 24.6278 724.083 25.1847Z" fill="black" fill-opacity="0.8"/>
    <rect x="648.243" y="309" width="132.254" height="48" rx="3" fill="#FFC7C2" stroke="#FF735E" stroke-width="4" stroke-linecap="round"/>
    <path d="M714.371 328.273V337H712.965L708.852 331.055H708.78V337H707.199V328.273H708.614L712.722 334.222H712.798V328.273H714.371ZM718.748 337.128C718.109 337.128 717.555 336.987 717.087 336.706C716.618 336.425 716.254 336.031 715.996 335.526C715.74 335.02 715.612 334.429 715.612 333.753C715.612 333.077 715.74 332.484 715.996 331.976C716.254 331.467 716.618 331.072 717.087 330.791C717.555 330.51 718.109 330.369 718.748 330.369C719.388 330.369 719.942 330.51 720.41 330.791C720.879 331.072 721.241 331.467 721.497 331.976C721.756 332.484 721.885 333.077 721.885 333.753C721.885 334.429 721.756 335.02 721.497 335.526C721.241 336.031 720.879 336.425 720.41 336.706C719.942 336.987 719.388 337.128 718.748 337.128ZM718.757 335.892C719.104 335.892 719.393 335.797 719.626 335.607C719.859 335.413 720.033 335.155 720.146 334.831C720.263 334.507 720.321 334.146 720.321 333.749C720.321 333.348 720.263 332.986 720.146 332.662C720.033 332.335 719.859 332.075 719.626 331.882C719.393 331.689 719.104 331.592 718.757 331.592C718.402 331.592 718.106 331.689 717.871 331.882C717.638 332.075 717.463 332.335 717.346 332.662C717.233 332.986 717.176 333.348 717.176 333.749C717.176 334.146 717.233 334.507 717.346 334.831C717.463 335.155 717.638 335.413 717.871 335.607C718.106 335.797 718.402 335.892 718.757 335.892Z" fill="black" fill-opacity="0.8"/>
    <path d="M139.754 179C139.202 179 138.754 179.448 138.754 180C138.754 180.552 139.202 181 139.754 181V179ZM205.608 180.707C205.999 180.317 205.999 179.683 205.608 179.293L199.244 172.929C198.854 172.538 198.22 172.538 197.83 172.929C197.439 173.319 197.439 173.953 197.83 174.343L203.487 180L197.83 185.657C197.439 186.047 197.439 186.681 197.83 187.071C198.22 187.462 198.854 187.462 199.244 187.071L205.608 180.707ZM139.754 181H204.901V179H139.754V181Z" fill="#DBDBDB"/>
    <path d="M348.155 179C347.603 179 347.155 179.448 347.155 180C347.155 180.552 347.603 181 348.155 181V179ZM414.009 180.707C414.399 180.317 414.399 179.683 414.009 179.293L407.645 172.929C407.254 172.538 406.621 172.538 406.231 172.929C405.84 173.319 405.84 173.953 406.231 174.343L411.888 180L406.231 185.657C405.84 186.047 405.84 186.681 406.231 187.071C406.621 187.462 407.254 187.462 407.645 187.071L414.009 180.707ZM348.155 181H413.302V179H348.155V181Z" fill="#DBDBDB"/>
    <path d="M556.556 178.5C556.004 178.5 555.556 178.948 555.556 179.5C555.556 180.052 556.004 180.5 556.556 180.5V178.5ZM622.409 180.207C622.8 179.817 622.8 179.183 622.409 178.793L616.045 172.429C615.655 172.038 615.022 172.038 614.631 172.429C614.241 172.819 614.241 173.453 614.631 173.843L620.288 179.5L614.631 185.157C614.241 185.547 614.241 186.181 614.631 186.571C615.022 186.962 615.655 186.962 616.045 186.571L622.409 180.207ZM556.556 180.5H621.702V178.5H556.556V180.5Z" fill="#DBDBDB"/>
    <path d="M713.37 101.5C713.37 102.052 713.817 102.5 714.37 102.5C714.922 102.5 715.37 102.052 715.37 101.5H713.37ZM715.077 54.7929C714.686 54.4024 714.053 54.4024 713.663 54.7929L707.299 61.1569C706.908 61.5474 706.908 62.1805 707.299 62.5711C707.689 62.9616 708.322 62.9616 708.713 62.5711L714.37 56.9142L720.026 62.5711C720.417 62.9616 721.05 62.9616 721.441 62.5711C721.831 62.1805 721.831 61.5474 721.441 61.1569L715.077 54.7929ZM715.37 101.5V55.5H713.37V101.5H715.37Z" fill="#DBDBDB"/>
    <path d="M715.37 257.5C715.37 256.948 714.922 256.5 714.37 256.5C713.817 256.5 713.37 256.948 713.37 257.5H715.37ZM713.663 304.207C714.053 304.598 714.686 304.598 715.077 304.207L721.441 297.843C721.831 297.453 721.831 296.819 721.441 296.429C721.05 296.038 720.417 296.038 720.026 296.429L714.37 302.086L708.713 296.429C708.322 296.038 707.689 296.038 707.299 296.429C706.908 296.819 706.908 297.453 707.299 297.843L713.663 304.207ZM713.37 257.5V303.5H715.37V257.5H713.37Z" fill="#DBDBDB"/>
    <path d="M785.997 25C785.445 25 784.997 25.4477 784.997 26C784.997 26.5523 785.445 27 785.997 27V25ZM975.166 151.207C975.556 151.598 976.189 151.598 976.58 151.207L982.944 144.843C983.334 144.453 983.334 143.819 982.944 143.429C982.553 143.038 981.92 143.038 981.53 143.429L975.873 149.086L970.216 143.429C969.825 143.038 969.192 143.038 968.802 143.429C968.411 143.819 968.411 144.453 968.802 144.843L975.166 151.207ZM785.997 27H951.873V25H785.997V27ZM974.873 50V150.5H976.873V50H974.873ZM951.873 27C964.575 27 974.873 37.2974 974.873 50H976.873C976.873 36.1929 965.68 25 951.873 25V27Z" fill="#DBDBDB"/>
    <path d="M642.742 334C643.295 334 643.742 333.552 643.742 333C643.742 332.448 643.295 332 642.742 332V334ZM485.636 208.793C485.245 208.402 484.612 208.402 484.222 208.793L477.858 215.157C477.467 215.547 477.467 216.181 477.858 216.571C478.248 216.962 478.881 216.962 479.272 216.571L484.929 210.914L490.586 216.571C490.976 216.962 491.609 216.962 492 216.571C492.39 216.181 492.39 215.547 492 215.157L485.636 208.793ZM642.742 332H508.929V334H642.742V332ZM485.929 309V209.5H483.929V309H485.929ZM508.929 332C496.226 332 485.929 321.703 485.929 309H483.929C483.929 322.807 495.122 334 508.929 334V332Z" fill="#DBDBDB"/>
</svg>
