<svg width="1040" height="498" viewBox="0 0 1040 498" fill="none" xmlns="http://www.w3.org/2000/svg">
    <path d="M58.6822 494H55.2102V484.662H58.6822C60.1289 484.662 61.3049 485.096 62.2102 485.964C63.1156 486.832 63.5682 487.957 63.5682 489.338C63.5682 490.71 63.1156 491.83 62.2102 492.698C61.3142 493.566 60.1382 494 58.6822 494ZM58.6822 492.558C59.6622 492.558 60.4416 492.25 61.0202 491.634C61.5989 491.018 61.8882 490.253 61.8882 489.338C61.8882 488.395 61.6036 487.621 61.0342 487.014C60.4742 486.407 59.6902 486.104 58.6822 486.104H56.8482V492.558H58.6822ZM70.7077 494H69.2377V493.272C68.715 493.869 67.987 494.168 67.0537 494.168C66.4377 494.168 65.8917 493.972 65.4157 493.58C64.9397 493.179 64.7017 492.628 64.7017 491.928C64.7017 491.209 64.935 490.663 65.4017 490.29C65.8777 489.917 66.4283 489.73 67.0537 489.73C68.015 489.73 68.743 490.019 69.2377 490.598V489.59C69.2377 489.198 69.093 488.89 68.8037 488.666C68.5143 488.442 68.1317 488.33 67.6557 488.33C66.8997 488.33 66.2323 488.615 65.6537 489.184L65.0517 488.162C65.817 487.434 66.7643 487.07 67.8937 487.07C68.7243 487.07 69.401 487.266 69.9237 487.658C70.4463 488.05 70.7077 488.671 70.7077 489.52V494ZM67.6277 493.16C68.365 493.16 68.9017 492.927 69.2377 492.46V491.438C68.9017 490.971 68.365 490.738 67.6277 490.738C67.2077 490.738 66.8623 490.85 66.5917 491.074C66.321 491.298 66.1857 491.592 66.1857 491.956C66.1857 492.32 66.321 492.614 66.5917 492.838C66.8623 493.053 67.2077 493.16 67.6277 493.16ZM72.3195 496.646L72.5435 495.33C72.7115 495.405 72.8982 495.442 73.1035 495.442C73.5795 495.442 73.9015 495.246 74.0695 494.854L74.4055 494.084L71.6335 487.238H73.2015L75.1755 492.306L77.1495 487.238H78.7315L75.4695 495.218C75.0682 496.217 74.2935 496.725 73.1455 496.744C72.8375 496.744 72.5622 496.711 72.3195 496.646ZM88.2903 493.748C87.7956 494.028 87.2356 494.168 86.6103 494.168C85.9849 494.168 85.4249 494.028 84.9303 493.748C84.4356 493.468 84.0436 493.095 83.7543 492.628C83.4649 492.161 83.2456 491.648 83.0963 491.088C82.9469 490.528 82.8723 489.945 82.8723 489.338C82.8723 488.731 82.9469 488.148 83.0963 487.588C83.2456 487.028 83.4649 486.519 83.7543 486.062C84.0436 485.595 84.4356 485.222 84.9303 484.942C85.4249 484.662 85.9849 484.522 86.6103 484.522C87.2356 484.522 87.7956 484.662 88.2903 484.942C88.7849 485.222 89.1769 485.595 89.4663 486.062C89.7556 486.519 89.9749 487.028 90.1243 487.588C90.2736 488.148 90.3483 488.731 90.3483 489.338C90.3483 489.945 90.2736 490.528 90.1243 491.088C89.9749 491.648 89.7556 492.161 89.4663 492.628C89.1769 493.095 88.7849 493.468 88.2903 493.748ZM85.0423 491.76C85.3783 492.395 85.9009 492.712 86.6103 492.712C87.3196 492.712 87.8423 492.395 88.1783 491.76C88.5143 491.125 88.6823 490.318 88.6823 489.338C88.6823 488.713 88.6169 488.157 88.4863 487.672C88.3649 487.187 88.1409 486.785 87.8143 486.468C87.4969 486.141 87.0956 485.978 86.6103 485.978C86.1249 485.978 85.7189 486.141 85.3923 486.468C85.0749 486.785 84.8509 487.187 84.7203 487.672C84.5989 488.157 84.5383 488.713 84.5383 489.338C84.5383 490.318 84.7063 491.125 85.0423 491.76Z" fill="#1E1E1E"/>
    <path d="M194.351 494H190.879V484.662H194.351C195.797 484.662 196.973 485.096 197.879 485.964C198.784 486.832 199.237 487.957 199.237 489.338C199.237 490.71 198.784 491.83 197.879 492.698C196.983 493.566 195.807 494 194.351 494ZM194.351 492.558C195.331 492.558 196.11 492.25 196.689 491.634C197.267 491.018 197.557 490.253 197.557 489.338C197.557 488.395 197.272 487.621 196.703 487.014C196.143 486.407 195.359 486.104 194.351 486.104H192.517V492.558H194.351ZM206.376 494H204.906V493.272C204.383 493.869 203.655 494.168 202.722 494.168C202.106 494.168 201.56 493.972 201.084 493.58C200.608 493.179 200.37 492.628 200.37 491.928C200.37 491.209 200.603 490.663 201.07 490.29C201.546 489.917 202.097 489.73 202.722 489.73C203.683 489.73 204.411 490.019 204.906 490.598V489.59C204.906 489.198 204.761 488.89 204.472 488.666C204.183 488.442 203.8 488.33 203.324 488.33C202.568 488.33 201.901 488.615 201.322 489.184L200.72 488.162C201.485 487.434 202.433 487.07 203.562 487.07C204.393 487.07 205.069 487.266 205.592 487.658C206.115 488.05 206.376 488.671 206.376 489.52V494ZM203.296 493.16C204.033 493.16 204.57 492.927 204.906 492.46V491.438C204.57 490.971 204.033 490.738 203.296 490.738C202.876 490.738 202.531 490.85 202.26 491.074C201.989 491.298 201.854 491.592 201.854 491.956C201.854 492.32 201.989 492.614 202.26 492.838C202.531 493.053 202.876 493.16 203.296 493.16ZM207.988 496.646L208.212 495.33C208.38 495.405 208.567 495.442 208.772 495.442C209.248 495.442 209.57 495.246 209.738 494.854L210.074 494.084L207.302 487.238H208.87L210.844 492.306L212.818 487.238H214.4L211.138 495.218C210.737 496.217 209.962 496.725 208.814 496.744C208.506 496.744 208.231 496.711 207.988 496.646ZM222.293 494H220.655V486.79L219.129 488.372L218.177 487.378L220.865 484.662H222.293V494Z" fill="#1E1E1E"/>
    <path d="M327.488 494H324.016V484.662H327.488C328.935 484.662 330.111 485.096 331.016 485.964C331.921 486.832 332.374 487.957 332.374 489.338C332.374 490.71 331.921 491.83 331.016 492.698C330.12 493.566 328.944 494 327.488 494ZM327.488 492.558C328.468 492.558 329.247 492.25 329.826 491.634C330.405 491.018 330.694 490.253 330.694 489.338C330.694 488.395 330.409 487.621 329.84 487.014C329.28 486.407 328.496 486.104 327.488 486.104H325.654V492.558H327.488ZM339.513 494H338.043V493.272C337.521 493.869 336.793 494.168 335.859 494.168C335.243 494.168 334.697 493.972 334.221 493.58C333.745 493.179 333.507 492.628 333.507 491.928C333.507 491.209 333.741 490.663 334.207 490.29C334.683 489.917 335.234 489.73 335.859 489.73C336.821 489.73 337.549 490.019 338.043 490.598V489.59C338.043 489.198 337.899 488.89 337.609 488.666C337.32 488.442 336.937 488.33 336.461 488.33C335.705 488.33 335.038 488.615 334.459 489.184L333.857 488.162C334.623 487.434 335.57 487.07 336.699 487.07C337.53 487.07 338.207 487.266 338.729 487.658C339.252 488.05 339.513 488.671 339.513 489.52V494ZM336.433 493.16C337.171 493.16 337.707 492.927 338.043 492.46V491.438C337.707 490.971 337.171 490.738 336.433 490.738C336.013 490.738 335.668 490.85 335.397 491.074C335.127 491.298 334.991 491.592 334.991 491.956C334.991 492.32 335.127 492.614 335.397 492.838C335.668 493.053 336.013 493.16 336.433 493.16ZM341.125 496.646L341.349 495.33C341.517 495.405 341.704 495.442 341.909 495.442C342.385 495.442 342.707 495.246 342.875 494.854L343.211 494.084L340.439 487.238H342.007L343.981 492.306L345.955 487.238H347.537L344.275 495.218C343.874 496.217 343.099 496.725 341.951 496.744C341.643 496.744 341.368 496.711 341.125 496.646ZM358.566 494H351.804V492.712C353.755 491.237 355.08 490.145 355.78 489.436C356.489 488.717 356.844 488.041 356.844 487.406C356.844 486.949 356.676 486.599 356.34 486.356C356.013 486.104 355.617 485.978 355.15 485.978C354.123 485.978 353.283 486.351 352.63 487.098L351.678 486.02C352.079 485.535 352.583 485.166 353.19 484.914C353.806 484.653 354.45 484.522 355.122 484.522C356.074 484.522 356.877 484.779 357.53 485.292C358.183 485.805 358.51 486.51 358.51 487.406C358.51 488.209 358.174 489.007 357.502 489.8C356.83 490.593 355.803 491.513 354.422 492.558H358.566V494Z" fill="#1E1E1E"/>
    <path d="M464.936 494H461.464V484.662H464.936C466.383 484.662 467.559 485.096 468.464 485.964C469.37 486.832 469.822 487.957 469.822 489.338C469.822 490.71 469.37 491.83 468.464 492.698C467.568 493.566 466.392 494 464.936 494ZM464.936 492.558C465.916 492.558 466.696 492.25 467.274 491.634C467.853 491.018 468.142 490.253 468.142 489.338C468.142 488.395 467.858 487.621 467.288 487.014C466.728 486.407 465.944 486.104 464.936 486.104H463.102V492.558H464.936ZM476.962 494H475.492V493.272C474.969 493.869 474.241 494.168 473.308 494.168C472.692 494.168 472.146 493.972 471.67 493.58C471.194 493.179 470.956 492.628 470.956 491.928C470.956 491.209 471.189 490.663 471.656 490.29C472.132 489.917 472.682 489.73 473.308 489.73C474.269 489.73 474.997 490.019 475.492 490.598V489.59C475.492 489.198 475.347 488.89 475.058 488.666C474.768 488.442 474.386 488.33 473.91 488.33C473.154 488.33 472.486 488.615 471.908 489.184L471.306 488.162C472.071 487.434 473.018 487.07 474.148 487.07C474.978 487.07 475.655 487.266 476.178 487.658C476.7 488.05 476.962 488.671 476.962 489.52V494ZM473.882 493.16C474.619 493.16 475.156 492.927 475.492 492.46V491.438C475.156 490.971 474.619 490.738 473.882 490.738C473.462 490.738 473.116 490.85 472.846 491.074C472.575 491.298 472.44 491.592 472.44 491.956C472.44 492.32 472.575 492.614 472.846 492.838C473.116 493.053 473.462 493.16 473.882 493.16ZM478.574 496.646L478.798 495.33C478.966 495.405 479.152 495.442 479.358 495.442C479.834 495.442 480.156 495.246 480.324 494.854L480.66 494.084L477.888 487.238H479.456L481.43 492.306L483.404 487.238H484.986L481.724 495.218C481.322 496.217 480.548 496.725 479.4 496.744C479.092 496.744 478.816 496.711 478.574 496.646ZM492.416 494.168C491.623 494.168 490.918 494.028 490.302 493.748C489.696 493.468 489.224 493.104 488.888 492.656L489.77 491.578C490.069 491.923 490.452 492.199 490.918 492.404C491.385 492.609 491.866 492.712 492.36 492.712C492.967 492.712 493.443 492.586 493.788 492.334C494.134 492.073 494.306 491.723 494.306 491.284C494.306 490.407 493.616 489.968 492.234 489.968C491.609 489.968 491.25 489.973 491.156 489.982V488.512C491.268 488.521 491.628 488.526 492.234 488.526C492.813 488.526 493.275 488.423 493.62 488.218C493.975 488.013 494.152 487.705 494.152 487.294C494.152 486.874 493.975 486.552 493.62 486.328C493.266 486.095 492.813 485.978 492.262 485.978C491.348 485.978 490.545 486.323 489.854 487.014L489.014 485.992C489.845 485.012 490.979 484.522 492.416 484.522C493.434 484.522 494.25 484.751 494.866 485.208C495.482 485.656 495.79 486.267 495.79 487.042C495.79 487.621 495.585 488.101 495.174 488.484C494.773 488.857 494.302 489.091 493.76 489.184C494.292 489.231 494.787 489.455 495.244 489.856C495.702 490.257 495.93 490.789 495.93 491.452C495.93 492.255 495.608 492.908 494.964 493.412C494.33 493.916 493.48 494.168 492.416 494.168Z" fill="#1E1E1E"/>
    <path d="M600.215 494H596.743V484.662H600.215C601.662 484.662 602.838 485.096 603.743 485.964C604.649 486.832 605.101 487.957 605.101 489.338C605.101 490.71 604.649 491.83 603.743 492.698C602.847 493.566 601.671 494 600.215 494ZM600.215 492.558C601.195 492.558 601.975 492.25 602.553 491.634C603.132 491.018 603.421 490.253 603.421 489.338C603.421 488.395 603.137 487.621 602.567 487.014C602.007 486.407 601.223 486.104 600.215 486.104H598.381V492.558H600.215ZM612.241 494H610.771V493.272C610.248 493.869 609.52 494.168 608.587 494.168C607.971 494.168 607.425 493.972 606.949 493.58C606.473 493.179 606.235 492.628 606.235 491.928C606.235 491.209 606.468 490.663 606.935 490.29C607.411 489.917 607.962 489.73 608.587 489.73C609.548 489.73 610.276 490.019 610.771 490.598V489.59C610.771 489.198 610.626 488.89 610.337 488.666C610.048 488.442 609.665 488.33 609.189 488.33C608.433 488.33 607.766 488.615 607.187 489.184L606.585 488.162C607.35 487.434 608.298 487.07 609.427 487.07C610.258 487.07 610.934 487.266 611.457 487.658C611.98 488.05 612.241 488.671 612.241 489.52V494ZM609.161 493.16C609.898 493.16 610.435 492.927 610.771 492.46V491.438C610.435 490.971 609.898 490.738 609.161 490.738C608.741 490.738 608.396 490.85 608.125 491.074C607.854 491.298 607.719 491.592 607.719 491.956C607.719 492.32 607.854 492.614 608.125 492.838C608.396 493.053 608.741 493.16 609.161 493.16ZM613.853 496.646L614.077 495.33C614.245 495.405 614.431 495.442 614.637 495.442C615.113 495.442 615.435 495.246 615.603 494.854L615.939 494.084L613.167 487.238H614.735L616.709 492.306L618.683 487.238H620.265L617.003 495.218C616.601 496.217 615.827 496.725 614.679 496.744C614.371 496.744 614.095 496.711 613.853 496.646ZM630.313 494H628.675V491.886H624.223V490.57L628.059 484.662H630.313V490.444H631.559V491.886H630.313V494ZM628.675 490.444V486.132L625.833 490.444H628.675Z" fill="#1E1E1E"/>
    <path d="M735.399 494H731.927V484.662H735.399C736.845 484.662 738.021 485.096 738.927 485.964C739.832 486.832 740.285 487.957 740.285 489.338C740.285 490.71 739.832 491.83 738.927 492.698C738.031 493.566 736.855 494 735.399 494ZM735.399 492.558C736.379 492.558 737.158 492.25 737.737 491.634C738.315 491.018 738.605 490.253 738.605 489.338C738.605 488.395 738.32 487.621 737.751 487.014C737.191 486.407 736.407 486.104 735.399 486.104H733.565V492.558H735.399ZM747.424 494H745.954V493.272C745.432 493.869 744.704 494.168 743.77 494.168C743.154 494.168 742.608 493.972 742.132 493.58C741.656 493.179 741.418 492.628 741.418 491.928C741.418 491.209 741.652 490.663 742.118 490.29C742.594 489.917 743.145 489.73 743.77 489.73C744.732 489.73 745.46 490.019 745.954 490.598V489.59C745.954 489.198 745.81 488.89 745.52 488.666C745.231 488.442 744.848 488.33 744.372 488.33C743.616 488.33 742.949 488.615 742.37 489.184L741.768 488.162C742.534 487.434 743.481 487.07 744.61 487.07C745.441 487.07 746.118 487.266 746.64 487.658C747.163 488.05 747.424 488.671 747.424 489.52V494ZM744.344 493.16C745.082 493.16 745.618 492.927 745.954 492.46V491.438C745.618 490.971 745.082 490.738 744.344 490.738C743.924 490.738 743.579 490.85 743.308 491.074C743.038 491.298 742.902 491.592 742.902 491.956C742.902 492.32 743.038 492.614 743.308 492.838C743.579 493.053 743.924 493.16 744.344 493.16ZM749.036 496.646L749.26 495.33C749.428 495.405 749.615 495.442 749.82 495.442C750.296 495.442 750.618 495.246 750.786 494.854L751.122 494.084L748.35 487.238H749.918L751.892 492.306L753.866 487.238H755.448L752.186 495.218C751.785 496.217 751.01 496.725 749.862 496.744C749.554 496.744 749.279 496.711 749.036 496.646ZM763.271 494.168C761.768 494.168 760.611 493.687 759.799 492.726L760.737 491.606C761.39 492.343 762.23 492.712 763.257 492.712C763.835 492.712 764.297 492.558 764.643 492.25C764.997 491.933 765.175 491.541 765.175 491.074C765.175 490.57 765.002 490.169 764.657 489.87C764.321 489.562 763.868 489.408 763.299 489.408C762.505 489.408 761.824 489.679 761.255 490.22L760.093 489.884V484.662H766.211V486.104H761.731V488.806C762.272 488.265 762.977 487.994 763.845 487.994C764.666 487.994 765.366 488.269 765.945 488.82C766.533 489.361 766.827 490.089 766.827 491.004C766.827 491.965 766.495 492.735 765.833 493.314C765.179 493.883 764.325 494.168 763.271 494.168Z" fill="#1E1E1E"/>
    <path d="M872.656 494H869.184V484.662H872.656C874.102 484.662 875.278 485.096 876.184 485.964C877.089 486.832 877.542 487.957 877.542 489.338C877.542 490.71 877.089 491.83 876.184 492.698C875.288 493.566 874.112 494 872.656 494ZM872.656 492.558C873.636 492.558 874.415 492.25 874.994 491.634C875.572 491.018 875.862 490.253 875.862 489.338C875.862 488.395 875.577 487.621 875.008 487.014C874.448 486.407 873.664 486.104 872.656 486.104H870.822V492.558H872.656ZM884.681 494H883.211V493.272C882.689 493.869 881.961 494.168 881.027 494.168C880.411 494.168 879.865 493.972 879.389 493.58C878.913 493.179 878.675 492.628 878.675 491.928C878.675 491.209 878.909 490.663 879.375 490.29C879.851 489.917 880.402 489.73 881.027 489.73C881.989 489.73 882.717 490.019 883.211 490.598V489.59C883.211 489.198 883.067 488.89 882.777 488.666C882.488 488.442 882.105 488.33 881.629 488.33C880.873 488.33 880.206 488.615 879.627 489.184L879.025 488.162C879.791 487.434 880.738 487.07 881.867 487.07C882.698 487.07 883.375 487.266 883.897 487.658C884.42 488.05 884.681 488.671 884.681 489.52V494ZM881.601 493.16C882.339 493.16 882.875 492.927 883.211 492.46V491.438C882.875 490.971 882.339 490.738 881.601 490.738C881.181 490.738 880.836 490.85 880.565 491.074C880.295 491.298 880.159 491.592 880.159 491.956C880.159 492.32 880.295 492.614 880.565 492.838C880.836 493.053 881.181 493.16 881.601 493.16ZM886.293 496.646L886.517 495.33C886.685 495.405 886.872 495.442 887.077 495.442C887.553 495.442 887.875 495.246 888.043 494.854L888.379 494.084L885.607 487.238H887.175L889.149 492.306L891.123 487.238H892.705L889.443 495.218C889.042 496.217 888.267 496.725 887.119 496.744C886.811 496.744 886.536 496.711 886.293 496.646ZM900.696 494.168C900.033 494.168 899.45 494.042 898.946 493.79C898.442 493.529 898.04 493.174 897.742 492.726C897.443 492.278 897.219 491.774 897.07 491.214C896.92 490.645 896.846 490.024 896.846 489.352C896.846 487.943 897.205 486.785 897.924 485.88C898.642 484.975 899.655 484.522 900.962 484.522C902.044 484.522 902.94 484.867 903.65 485.558L902.88 486.804C902.357 486.253 901.718 485.978 900.962 485.978C900.215 485.978 899.618 486.277 899.17 486.874C898.722 487.471 898.498 488.199 898.498 489.058C898.498 489.179 898.502 489.268 898.512 489.324C898.745 488.979 899.09 488.675 899.548 488.414C900.005 488.153 900.495 488.022 901.018 488.022C901.904 488.022 902.646 488.288 903.244 488.82C903.841 489.343 904.14 490.08 904.14 491.032C904.14 491.919 903.822 492.665 903.188 493.272C902.553 493.869 901.722 494.168 900.696 494.168ZM900.612 492.712C901.19 492.712 901.648 492.549 901.984 492.222C902.32 491.886 902.488 491.508 902.488 491.088C902.488 490.547 902.306 490.136 901.942 489.856C901.578 489.567 901.12 489.422 900.57 489.422C900.178 489.422 899.8 489.525 899.436 489.73C899.072 489.926 898.768 490.192 898.526 490.528C898.582 491.125 898.778 491.639 899.114 492.068C899.45 492.497 899.949 492.712 900.612 492.712Z" fill="#1E1E1E"/>
    <path d="M1008.93 494H1005.46V484.662H1008.93C1010.38 484.662 1011.56 485.096 1012.46 485.964C1013.37 486.832 1013.82 487.957 1013.82 489.338C1013.82 490.71 1013.37 491.83 1012.46 492.698C1011.56 493.566 1010.39 494 1008.93 494ZM1008.93 492.558C1009.91 492.558 1010.69 492.25 1011.27 491.634C1011.85 491.018 1012.14 490.253 1012.14 489.338C1012.14 488.395 1011.85 487.621 1011.28 487.014C1010.72 486.407 1009.94 486.104 1008.93 486.104H1007.1V492.558H1008.93ZM1020.96 494H1019.49V493.272C1018.97 493.869 1018.24 494.168 1017.3 494.168C1016.69 494.168 1016.14 493.972 1015.67 493.58C1015.19 493.179 1014.95 492.628 1014.95 491.928C1014.95 491.209 1015.19 490.663 1015.65 490.29C1016.13 489.917 1016.68 489.73 1017.3 489.73C1018.27 489.73 1018.99 490.019 1019.49 490.598V489.59C1019.49 489.198 1019.34 488.89 1019.05 488.666C1018.77 488.442 1018.38 488.33 1017.91 488.33C1017.15 488.33 1016.48 488.615 1015.9 489.184L1015.3 488.162C1016.07 487.434 1017.02 487.07 1018.14 487.07C1018.98 487.07 1019.65 487.266 1020.17 487.658C1020.7 488.05 1020.96 488.671 1020.96 489.52V494ZM1017.88 493.16C1018.62 493.16 1019.15 492.927 1019.49 492.46V491.438C1019.15 490.971 1018.62 490.738 1017.88 490.738C1017.46 490.738 1017.11 490.85 1016.84 491.074C1016.57 491.298 1016.44 491.592 1016.44 491.956C1016.44 492.32 1016.57 492.614 1016.84 492.838C1017.11 493.053 1017.46 493.16 1017.88 493.16ZM1022.57 496.646L1022.79 495.33C1022.96 495.405 1023.15 495.442 1023.35 495.442C1023.83 495.442 1024.15 495.246 1024.32 494.854L1024.66 494.084L1021.88 487.238H1023.45L1025.43 492.306L1027.4 487.238H1028.98L1025.72 495.218C1025.32 496.217 1024.54 496.725 1023.4 496.744C1023.09 496.744 1022.81 496.711 1022.57 496.646ZM1036.03 494H1034.24L1037.77 486.104H1032.93V484.662H1039.66V485.796L1036.03 494Z" fill="#1E1E1E"/>
    <path d="M63.2949 57V13H198.615V57H63.2949Z" stroke="#DBDBDB"/>
    <path d="M198.615 57V13H333.935V57H198.615Z" stroke="#DBDBDB"/>
    <path d="M333.935 57V13H469.255V57H333.935Z" stroke="#DBDBDB"/>
    <path d="M469.255 57V13H604.575V57H469.255Z" stroke="#DBDBDB"/>
    <path d="M604.575 57V13H739.895V57H604.575Z" stroke="#DBDBDB"/>
    <path d="M739.895 57V13H875.215V57H739.895Z" stroke="#DBDBDB"/>
    <path d="M875.215 57V13H1010.54V57H875.215Z" stroke="#DBDBDB"/>
    <path d="M63.2949 101V57H198.615V101H63.2949Z" stroke="#DBDBDB"/>
    <path d="M198.615 101V57H333.935V101H198.615Z" stroke="#DBDBDB"/>
    <path d="M333.935 101V57H469.255V101H333.935Z" stroke="#DBDBDB"/>
    <path d="M469.255 101V57H604.575V101H469.255Z" stroke="#DBDBDB"/>
    <path d="M604.575 101V57H739.895V101H604.575Z" stroke="#DBDBDB"/>
    <path d="M739.895 101V57H875.215V101H739.895Z" stroke="#DBDBDB"/>
    <path d="M875.215 101V57H1010.54V101H875.215Z" stroke="#DBDBDB"/>
    <path d="M63.2949 145V101H198.615V145H63.2949Z" stroke="#DBDBDB"/>
    <path d="M198.615 145V101H333.935V145H198.615Z" stroke="#DBDBDB"/>
    <path d="M333.935 145V101H469.255V145H333.935Z" stroke="#DBDBDB"/>
    <path d="M469.255 145V101H604.575V145H469.255Z" stroke="#DBDBDB"/>
    <path d="M604.575 145V101H739.895V145H604.575Z" stroke="#DBDBDB"/>
    <path d="M739.895 145V101H875.215V145H739.895Z" stroke="#DBDBDB"/>
    <path d="M875.215 145V101H1010.54V145H875.215Z" stroke="#DBDBDB"/>
    <path d="M63.2949 189V145H198.615V189H63.2949Z" stroke="#DBDBDB"/>
    <path d="M198.615 189V145H333.935V189H198.615Z" stroke="#DBDBDB"/>
    <path d="M333.935 189V145H469.255V189H333.935Z" stroke="#DBDBDB"/>
    <path d="M469.255 189V145H604.575V189H469.255Z" stroke="#DBDBDB"/>
    <path d="M604.575 189V145H739.895V189H604.575Z" stroke="#DBDBDB"/>
    <path d="M739.895 189V145H875.215V189H739.895Z" stroke="#DBDBDB"/>
    <path d="M875.215 189V145H1010.54V189H875.215Z" stroke="#DBDBDB"/>
    <path d="M63.2949 233V189H198.615V233H63.2949Z" stroke="#DBDBDB"/>
    <path d="M198.615 233V189H333.935V233H198.615Z" stroke="#DBDBDB"/>
    <path d="M333.935 233V189H469.255V233H333.935Z" stroke="#DBDBDB"/>
    <path d="M469.255 233V189H604.575V233H469.255Z" stroke="#DBDBDB"/>
    <path d="M604.575 233V189H739.895V233H604.575Z" stroke="#DBDBDB"/>
    <path d="M739.895 233V189H875.215V233H739.895Z" stroke="#DBDBDB"/>
    <path d="M875.215 233V189H1010.54V233H875.215Z" stroke="#DBDBDB"/>
    <path d="M63.2949 277V233H198.615V277H63.2949Z" stroke="#DBDBDB"/>
    <path d="M198.615 277V233H333.935V277H198.615Z" stroke="#DBDBDB"/>
    <path d="M333.935 277V233H469.255V277H333.935Z" stroke="#DBDBDB"/>
    <path d="M469.255 277V233H604.575V277H469.255Z" stroke="#DBDBDB"/>
    <path d="M604.575 277V233H739.895V277H604.575Z" stroke="#DBDBDB"/>
    <path d="M739.895 277V233H875.215V277H739.895Z" stroke="#DBDBDB"/>
    <path d="M875.215 277V233H1010.54V277H875.215Z" stroke="#DBDBDB"/>
    <path d="M63.2949 321V277H198.615V321H63.2949Z" stroke="#DBDBDB"/>
    <path d="M198.615 321V277H333.935V321H198.615Z" stroke="#DBDBDB"/>
    <path d="M333.935 321V277H469.255V321H333.935Z" stroke="#DBDBDB"/>
    <path d="M469.255 321V277H604.575V321H469.255Z" stroke="#DBDBDB"/>
    <path d="M604.575 321V277H739.895V321H604.575Z" stroke="#DBDBDB"/>
    <path d="M739.895 321V277H875.215V321H739.895Z" stroke="#DBDBDB"/>
    <path d="M875.215 321V277H1010.54V321H875.215Z" stroke="#DBDBDB"/>
    <path d="M63.2949 365V321H198.615V365H63.2949Z" stroke="#DBDBDB"/>
    <path d="M198.615 365V321H333.935V365H198.615Z" stroke="#DBDBDB"/>
    <path d="M333.935 365V321H469.255V365H333.935Z" stroke="#DBDBDB"/>
    <path d="M469.255 365V321H604.575V365H469.255Z" stroke="#DBDBDB"/>
    <path d="M604.575 365V321H739.895V365H604.575Z" stroke="#DBDBDB"/>
    <path d="M739.895 365V321H875.215V365H739.895Z" stroke="#DBDBDB"/>
    <path d="M875.215 365V321H1010.54V365H875.215Z" stroke="#DBDBDB"/>
    <path d="M63.2949 409V365H198.615V409H63.2949Z" stroke="#DBDBDB"/>
    <path d="M198.615 409V365H333.935V409H198.615Z" stroke="#DBDBDB"/>
    <path d="M333.935 409V365H469.255V409H333.935Z" stroke="#DBDBDB"/>
    <path d="M469.255 409V365H604.575V409H469.255Z" stroke="#DBDBDB"/>
    <path d="M604.575 409V365H739.895V409H604.575Z" stroke="#DBDBDB"/>
    <path d="M739.895 409V365H875.215V409H739.895Z" stroke="#DBDBDB"/>
    <path d="M875.215 409V365H1010.54V409H875.215Z" stroke="#DBDBDB"/>
    <path d="M63.2949 453V409H198.615V453H63.2949Z" stroke="#DBDBDB"/>
    <path d="M198.615 453V409H333.935V453H198.615Z" stroke="#DBDBDB"/>
    <path d="M333.935 453V409H469.255V453H333.935Z" stroke="#DBDBDB"/>
    <path d="M469.255 453V409H604.575V453H469.255Z" stroke="#DBDBDB"/>
    <path d="M604.575 453V409H739.895V453H604.575Z" stroke="#DBDBDB"/>
    <path d="M739.895 453V409H875.215V453H739.895Z" stroke="#DBDBDB"/>
    <path d="M875.215 453V409H1010.54V453H875.215Z" stroke="#DBDBDB"/>
    <path d="M64 14L173.585 87.7212L279.061 140.379L394.582 163.481L505.994 167.558L619.232 207.646L739.776 272.874L874.932 315H1011" stroke="#FF3636" stroke-width="4"/>
    <path d="M4.326 13H2.688V5.79L1.162 7.372L0.21 6.378L2.898 3.662H4.326V13ZM11.3104 12.748C10.8157 13.028 10.2557 13.168 9.63036 13.168C9.00503 13.168 8.44503 13.028 7.95036 12.748C7.45569 12.468 7.06369 12.0947 6.77436 11.628C6.48503 11.1613 6.26569 10.648 6.11636 10.088C5.96703 9.528 5.89236 8.94467 5.89236 8.338C5.89236 7.73133 5.96703 7.148 6.11636 6.588C6.26569 6.028 6.48503 5.51933 6.77436 5.062C7.06369 4.59533 7.45569 4.222 7.95036 3.942C8.44503 3.662 9.00503 3.522 9.63036 3.522C10.2557 3.522 10.8157 3.662 11.3104 3.942C11.805 4.222 12.197 4.59533 12.4864 5.062C12.7757 5.51933 12.995 6.028 13.1444 6.588C13.2937 7.148 13.3684 7.73133 13.3684 8.338C13.3684 8.94467 13.2937 9.528 13.1444 10.088C12.995 10.648 12.7757 11.1613 12.4864 11.628C12.197 12.0947 11.805 12.468 11.3104 12.748ZM8.06236 10.76C8.39836 11.3947 8.92103 11.712 9.63036 11.712C10.3397 11.712 10.8624 11.3947 11.1984 10.76C11.5344 10.1253 11.7024 9.318 11.7024 8.338C11.7024 7.71267 11.637 7.15733 11.5064 6.672C11.385 6.18667 11.161 5.78533 10.8344 5.468C10.517 5.14133 10.1157 4.978 9.63036 4.978C9.14503 4.978 8.73903 5.14133 8.41236 5.468C8.09503 5.78533 7.87103 6.18667 7.74036 6.672C7.61903 7.15733 7.55836 7.71267 7.55836 8.338C7.55836 9.318 7.72636 10.1253 8.06236 10.76ZM19.9373 12.748C19.4426 13.028 18.8826 13.168 18.2573 13.168C17.632 13.168 17.072 13.028 16.5773 12.748C16.0826 12.468 15.6906 12.0947 15.4013 11.628C15.112 11.1613 14.8926 10.648 14.7433 10.088C14.594 9.528 14.5193 8.94467 14.5193 8.338C14.5193 7.73133 14.594 7.148 14.7433 6.588C14.8926 6.028 15.112 5.51933 15.4013 5.062C15.6906 4.59533 16.0826 4.222 16.5773 3.942C17.072 3.662 17.632 3.522 18.2573 3.522C18.8826 3.522 19.4426 3.662 19.9373 3.942C20.432 4.222 20.824 4.59533 21.1133 5.062C21.4026 5.51933 21.622 6.028 21.7713 6.588C21.9206 7.148 21.9953 7.73133 21.9953 8.338C21.9953 8.94467 21.9206 9.528 21.7713 10.088C21.622 10.648 21.4026 11.1613 21.1133 11.628C20.824 12.0947 20.432 12.468 19.9373 12.748ZM16.6893 10.76C17.0253 11.3947 17.548 11.712 18.2573 11.712C18.9666 11.712 19.4893 11.3947 19.8253 10.76C20.1613 10.1253 20.3293 9.318 20.3293 8.338C20.3293 7.71267 20.264 7.15733 20.1333 6.672C20.012 6.18667 19.788 5.78533 19.4613 5.468C19.144 5.14133 18.7426 4.978 18.2573 4.978C17.772 4.978 17.366 5.14133 17.0393 5.468C16.722 5.78533 16.498 6.18667 16.3673 6.672C16.246 7.15733 16.1853 7.71267 16.1853 8.338C16.1853 9.318 16.3533 10.1253 16.6893 10.76ZM25.2743 8.156C24.5929 8.156 24.0376 7.94133 23.6083 7.512C23.1789 7.07333 22.9643 6.52267 22.9643 5.86C22.9643 5.188 23.1789 4.63267 23.6083 4.194C24.0376 3.746 24.5929 3.522 25.2743 3.522C25.9649 3.522 26.5249 3.746 26.9543 4.194C27.3929 4.63267 27.6123 5.188 27.6123 5.86C27.6123 6.52267 27.3929 7.07333 26.9543 7.512C26.5249 7.94133 25.9649 8.156 25.2743 8.156ZM25.3023 13H24.3783L30.3423 3.662H31.2803L25.3023 13ZM31.9663 12.524C31.5369 12.9533 30.9816 13.168 30.3003 13.168C29.6189 13.168 29.0636 12.9533 28.6343 12.524C28.2049 12.0853 27.9903 11.5347 27.9903 10.872C27.9903 10.2 28.2049 9.64467 28.6343 9.206C29.0636 8.758 29.6189 8.534 30.3003 8.534C30.9816 8.534 31.5369 8.758 31.9663 9.206C32.4049 9.654 32.6243 10.2093 32.6243 10.872C32.6243 11.5347 32.4049 12.0853 31.9663 12.524ZM25.2743 7.232C25.6383 7.232 25.9369 7.106 26.1703 6.854C26.4036 6.59267 26.5203 6.26133 26.5203 5.86C26.5203 5.44 26.4036 5.104 26.1703 4.852C25.9369 4.59067 25.6383 4.46 25.2743 4.46C24.9103 4.46 24.6116 4.59067 24.3783 4.852C24.1543 5.104 24.0423 5.44 24.0423 5.86C24.0423 6.26133 24.1589 6.59267 24.3923 6.854C24.6256 7.106 24.9196 7.232 25.2743 7.232ZM29.4043 11.866C29.6376 12.118 29.9363 12.244 30.3003 12.244C30.6643 12.244 30.9629 12.118 31.1963 11.866C31.4296 11.6047 31.5463 11.2733 31.5463 10.872C31.5463 10.452 31.4296 10.116 31.1963 9.864C30.9629 9.60267 30.6643 9.472 30.3003 9.472C29.9363 9.472 29.6376 9.60267 29.4043 9.864C29.1803 10.116 29.0683 10.452 29.0683 10.872C29.0683 11.2733 29.1803 11.6047 29.4043 11.866Z" fill="#1E1E1E"/>
    <path d="M10.2579 57.154C9.16585 57.154 8.27452 56.8087 7.58385 56.118L8.33985 54.886C8.86252 55.4273 9.50185 55.698 10.2579 55.698C11.0512 55.698 11.6579 55.3993 12.0779 54.802C12.5072 54.1953 12.7219 53.472 12.7219 52.632V52.352C12.4792 52.6973 12.1292 53.0053 11.6719 53.276C11.2145 53.5373 10.7292 53.668 10.2159 53.668C9.32919 53.668 8.58252 53.402 7.97585 52.87C7.37852 52.338 7.07985 51.596 7.07985 50.644C7.07985 49.7573 7.39718 49.0153 8.03185 48.418C8.67585 47.8113 9.50652 47.508 10.5239 47.508C11.4012 47.508 12.1339 47.7367 12.7219 48.194C13.3192 48.642 13.7439 49.2207 13.9959 49.93C14.2479 50.63 14.3739 51.4327 14.3739 52.338C14.3739 53.738 14.0145 54.8907 13.2959 55.796C12.5772 56.7013 11.5645 57.154 10.2579 57.154ZM10.6499 52.254C11.0512 52.254 11.4339 52.156 11.7979 51.96C12.1619 51.764 12.4605 51.498 12.6939 51.162C12.6472 50.574 12.4512 50.0607 12.1059 49.622C11.7699 49.1833 11.2705 48.964 10.6079 48.964C10.0385 48.964 9.58585 49.132 9.24985 49.468C8.91385 49.804 8.74585 50.1773 8.74585 50.588C8.74585 51.1293 8.92785 51.5447 9.29185 51.834C9.65585 52.114 10.1085 52.254 10.6499 52.254ZM20.9481 56.748C20.4534 57.028 19.8934 57.168 19.2681 57.168C18.6427 57.168 18.0827 57.028 17.5881 56.748C17.0934 56.468 16.7014 56.0947 16.4121 55.628C16.1227 55.1613 15.9034 54.648 15.7541 54.088C15.6047 53.528 15.5301 52.9447 15.5301 52.338C15.5301 51.7313 15.6047 51.148 15.7541 50.588C15.9034 50.028 16.1227 49.5193 16.4121 49.062C16.7014 48.5953 17.0934 48.222 17.5881 47.942C18.0827 47.662 18.6427 47.522 19.2681 47.522C19.8934 47.522 20.4534 47.662 20.9481 47.942C21.4427 48.222 21.8347 48.5953 22.1241 49.062C22.4134 49.5193 22.6327 50.028 22.7821 50.588C22.9314 51.148 23.0061 51.7313 23.0061 52.338C23.0061 52.9447 22.9314 53.528 22.7821 54.088C22.6327 54.648 22.4134 55.1613 22.1241 55.628C21.8347 56.0947 21.4427 56.468 20.9481 56.748ZM17.7001 54.76C18.0361 55.3947 18.5587 55.712 19.2681 55.712C19.9774 55.712 20.5001 55.3947 20.8361 54.76C21.1721 54.1253 21.3401 53.318 21.3401 52.338C21.3401 51.7127 21.2747 51.1573 21.1441 50.672C21.0227 50.1867 20.7987 49.7853 20.4721 49.468C20.1547 49.1413 19.7534 48.978 19.2681 48.978C18.7827 48.978 18.3767 49.1413 18.0501 49.468C17.7327 49.7853 17.5087 50.1867 17.3781 50.672C17.2567 51.1573 17.1961 51.7127 17.1961 52.338C17.1961 53.318 17.3641 54.1253 17.7001 54.76ZM26.285 52.156C25.6037 52.156 25.0483 51.9413 24.619 51.512C24.1897 51.0733 23.975 50.5227 23.975 49.86C23.975 49.188 24.1897 48.6327 24.619 48.194C25.0483 47.746 25.6037 47.522 26.285 47.522C26.9757 47.522 27.5357 47.746 27.965 48.194C28.4037 48.6327 28.623 49.188 28.623 49.86C28.623 50.5227 28.4037 51.0733 27.965 51.512C27.5357 51.9413 26.9757 52.156 26.285 52.156ZM26.313 57H25.389L31.353 47.662H32.291L26.313 57ZM32.977 56.524C32.5477 56.9533 31.9923 57.168 31.311 57.168C30.6297 57.168 30.0743 56.9533 29.645 56.524C29.2157 56.0853 29.001 55.5347 29.001 54.872C29.001 54.2 29.2157 53.6447 29.645 53.206C30.0743 52.758 30.6297 52.534 31.311 52.534C31.9923 52.534 32.5477 52.758 32.977 53.206C33.4157 53.654 33.635 54.2093 33.635 54.872C33.635 55.5347 33.4157 56.0853 32.977 56.524ZM26.285 51.232C26.649 51.232 26.9477 51.106 27.181 50.854C27.4143 50.5927 27.531 50.2613 27.531 49.86C27.531 49.44 27.4143 49.104 27.181 48.852C26.9477 48.5907 26.649 48.46 26.285 48.46C25.921 48.46 25.6223 48.5907 25.389 48.852C25.165 49.104 25.053 49.44 25.053 49.86C25.053 50.2613 25.1697 50.5927 25.403 50.854C25.6363 51.106 25.9303 51.232 26.285 51.232ZM30.415 55.866C30.6483 56.118 30.947 56.244 31.311 56.244C31.675 56.244 31.9737 56.118 32.207 55.866C32.4403 55.6047 32.557 55.2733 32.557 54.872C32.557 54.452 32.4403 54.116 32.207 53.864C31.9737 53.6027 31.675 53.472 31.311 53.472C30.947 53.472 30.6483 53.6027 30.415 53.864C30.191 54.116 30.079 54.452 30.079 54.872C30.079 55.2733 30.191 55.6047 30.415 55.866Z" fill="#1E1E1E"/>
    <path d="M13.2539 100.496C12.5725 100.944 11.7279 101.168 10.7199 101.168C9.71185 101.168 8.86252 100.944 8.17185 100.496C7.48118 100.039 7.13585 99.4087 7.13585 98.606C7.13585 98.0367 7.33185 97.542 7.72385 97.122C8.12518 96.702 8.62918 96.3893 9.23585 96.184C8.65718 95.9973 8.18585 95.722 7.82185 95.358C7.46718 94.994 7.28985 94.532 7.28985 93.972C7.28985 93.5613 7.38785 93.1927 7.58385 92.866C7.78918 92.5393 8.05518 92.2827 8.38185 92.096C8.71785 91.9093 9.08185 91.7693 9.47385 91.676C9.87518 91.5733 10.2905 91.522 10.7199 91.522C11.1492 91.522 11.5599 91.5733 11.9519 91.676C12.3439 91.7693 12.7079 91.9093 13.0439 92.096C13.3799 92.2827 13.6459 92.5393 13.8419 92.866C14.0472 93.1927 14.1499 93.5613 14.1499 93.972C14.1499 95.0267 13.4965 95.764 12.1899 96.184C12.7965 96.3893 13.2959 96.702 13.6879 97.122C14.0892 97.542 14.2899 98.0367 14.2899 98.606C14.2899 99.4087 13.9445 100.039 13.2539 100.496ZM10.7199 95.54C10.9719 95.4933 11.2145 95.4327 11.4479 95.358C11.6812 95.274 11.9099 95.134 12.1339 94.938C12.3672 94.7327 12.4839 94.4947 12.4839 94.224C12.4839 93.8413 12.3159 93.538 11.9799 93.314C11.6532 93.09 11.2332 92.978 10.7199 92.978C10.1972 92.978 9.76785 93.09 9.43185 93.314C9.10519 93.538 8.94185 93.8413 8.94185 94.224C8.94185 94.4947 9.05852 94.7327 9.29185 94.938C9.52519 95.134 9.75852 95.274 9.99185 95.358C10.2252 95.4327 10.4679 95.4933 10.7199 95.54ZM10.7199 99.712C11.2519 99.712 11.7045 99.5907 12.0779 99.348C12.4512 99.1053 12.6379 98.788 12.6379 98.396C12.6379 97.976 12.4185 97.64 11.9799 97.388C11.5505 97.1267 11.1305 96.9727 10.7199 96.926C10.4772 96.954 10.2205 97.0193 9.94985 97.122C9.67919 97.2153 9.41785 97.3787 9.16585 97.612C8.91385 97.836 8.78785 98.0973 8.78785 98.396C8.78785 98.788 8.96985 99.1053 9.33385 99.348C9.70719 99.5907 10.1692 99.712 10.7199 99.712ZM20.866 100.748C20.3714 101.028 19.8114 101.168 19.186 101.168C18.5607 101.168 18.0007 101.028 17.506 100.748C17.0114 100.468 16.6194 100.095 16.33 99.628C16.0407 99.1613 15.8214 98.648 15.672 98.088C15.5227 97.528 15.448 96.9447 15.448 96.338C15.448 95.7313 15.5227 95.148 15.672 94.588C15.8214 94.028 16.0407 93.5193 16.33 93.062C16.6194 92.5953 17.0114 92.222 17.506 91.942C18.0007 91.662 18.5607 91.522 19.186 91.522C19.8114 91.522 20.3714 91.662 20.866 91.942C21.3607 92.222 21.7527 92.5953 22.042 93.062C22.3314 93.5193 22.5507 94.028 22.7 94.588C22.8494 95.148 22.924 95.7313 22.924 96.338C22.924 96.9447 22.8494 97.528 22.7 98.088C22.5507 98.648 22.3314 99.1613 22.042 99.628C21.7527 100.095 21.3607 100.468 20.866 100.748ZM17.618 98.76C17.954 99.3947 18.4767 99.712 19.186 99.712C19.8954 99.712 20.418 99.3947 20.754 98.76C21.09 98.1253 21.258 97.318 21.258 96.338C21.258 95.7127 21.1927 95.1573 21.062 94.672C20.9407 94.1867 20.7167 93.7853 20.39 93.468C20.0727 93.1413 19.6714 92.978 19.186 92.978C18.7007 92.978 18.2947 93.1413 17.968 93.468C17.6507 93.7853 17.4267 94.1867 17.296 94.672C17.1747 95.1573 17.114 95.7127 17.114 96.338C17.114 97.318 17.282 98.1253 17.618 98.76ZM26.203 96.156C25.5216 96.156 24.9663 95.9413 24.537 95.512C24.1076 95.0733 23.893 94.5227 23.893 93.86C23.893 93.188 24.1076 92.6327 24.537 92.194C24.9663 91.746 25.5216 91.522 26.203 91.522C26.8936 91.522 27.4536 91.746 27.883 92.194C28.3216 92.6327 28.541 93.188 28.541 93.86C28.541 94.5227 28.3216 95.0733 27.883 95.512C27.4536 95.9413 26.8936 96.156 26.203 96.156ZM26.231 101H25.307L31.271 91.662H32.209L26.231 101ZM32.895 100.524C32.4656 100.953 31.9103 101.168 31.229 101.168C30.5476 101.168 29.9923 100.953 29.563 100.524C29.1336 100.085 28.919 99.5347 28.919 98.872C28.919 98.2 29.1336 97.6447 29.563 97.206C29.9923 96.758 30.5476 96.534 31.229 96.534C31.9103 96.534 32.4656 96.758 32.895 97.206C33.3336 97.654 33.553 98.2093 33.553 98.872C33.553 99.5347 33.3336 100.085 32.895 100.524ZM26.203 95.232C26.567 95.232 26.8656 95.106 27.099 94.854C27.3323 94.5927 27.449 94.2613 27.449 93.86C27.449 93.44 27.3323 93.104 27.099 92.852C26.8656 92.5907 26.567 92.46 26.203 92.46C25.839 92.46 25.5403 92.5907 25.307 92.852C25.083 93.104 24.971 93.44 24.971 93.86C24.971 94.2613 25.0876 94.5927 25.321 94.854C25.5543 95.106 25.8483 95.232 26.203 95.232ZM30.333 99.866C30.5663 100.118 30.865 100.244 31.229 100.244C31.593 100.244 31.8916 100.118 32.125 99.866C32.3583 99.6047 32.475 99.2733 32.475 98.872C32.475 98.452 32.3583 98.116 32.125 97.864C31.8916 97.6027 31.593 97.472 31.229 97.472C30.865 97.472 30.5663 97.6027 30.333 97.864C30.109 98.116 29.997 98.452 29.997 98.872C29.997 99.2733 30.109 99.6047 30.333 99.866Z" fill="#1E1E1E"/>
    <path d="M11.1249 145H9.33292L12.8609 137.104H8.01692V135.662H14.7509V136.796L11.1249 145ZM21.0821 144.748C20.5874 145.028 20.0274 145.168 19.4021 145.168C18.7768 145.168 18.2168 145.028 17.7221 144.748C17.2274 144.468 16.8354 144.095 16.5461 143.628C16.2568 143.161 16.0374 142.648 15.8881 142.088C15.7388 141.528 15.6641 140.945 15.6641 140.338C15.6641 139.731 15.7388 139.148 15.8881 138.588C16.0374 138.028 16.2568 137.519 16.5461 137.062C16.8354 136.595 17.2274 136.222 17.7221 135.942C18.2168 135.662 18.7768 135.522 19.4021 135.522C20.0274 135.522 20.5874 135.662 21.0821 135.942C21.5768 136.222 21.9688 136.595 22.2581 137.062C22.5474 137.519 22.7668 138.028 22.9161 138.588C23.0654 139.148 23.1401 139.731 23.1401 140.338C23.1401 140.945 23.0654 141.528 22.9161 142.088C22.7668 142.648 22.5474 143.161 22.2581 143.628C21.9688 144.095 21.5768 144.468 21.0821 144.748ZM17.8341 142.76C18.1701 143.395 18.6928 143.712 19.4021 143.712C20.1114 143.712 20.6341 143.395 20.9701 142.76C21.3061 142.125 21.4741 141.318 21.4741 140.338C21.4741 139.713 21.4088 139.157 21.2781 138.672C21.1568 138.187 20.9328 137.785 20.6061 137.468C20.2888 137.141 19.8874 136.978 19.4021 136.978C18.9168 136.978 18.5108 137.141 18.1841 137.468C17.8668 137.785 17.6428 138.187 17.5121 138.672C17.3908 139.157 17.3301 139.713 17.3301 140.338C17.3301 141.318 17.4981 142.125 17.8341 142.76ZM26.419 140.156C25.7377 140.156 25.1824 139.941 24.753 139.512C24.3237 139.073 24.109 138.523 24.109 137.86C24.109 137.188 24.3237 136.633 24.753 136.194C25.1824 135.746 25.7377 135.522 26.419 135.522C27.1097 135.522 27.6697 135.746 28.099 136.194C28.5377 136.633 28.757 137.188 28.757 137.86C28.757 138.523 28.5377 139.073 28.099 139.512C27.6697 139.941 27.1097 140.156 26.419 140.156ZM26.447 145H25.523L31.487 135.662H32.425L26.447 145ZM33.111 144.524C32.6817 144.953 32.1264 145.168 31.445 145.168C30.7637 145.168 30.2084 144.953 29.779 144.524C29.3497 144.085 29.135 143.535 29.135 142.872C29.135 142.2 29.3497 141.645 29.779 141.206C30.2084 140.758 30.7637 140.534 31.445 140.534C32.1264 140.534 32.6817 140.758 33.111 141.206C33.5497 141.654 33.769 142.209 33.769 142.872C33.769 143.535 33.5497 144.085 33.111 144.524ZM26.419 139.232C26.783 139.232 27.0817 139.106 27.315 138.854C27.5484 138.593 27.665 138.261 27.665 137.86C27.665 137.44 27.5484 137.104 27.315 136.852C27.0817 136.591 26.783 136.46 26.419 136.46C26.055 136.46 25.7564 136.591 25.523 136.852C25.299 137.104 25.187 137.44 25.187 137.86C25.187 138.261 25.3037 138.593 25.537 138.854C25.7704 139.106 26.0644 139.232 26.419 139.232ZM30.549 143.866C30.7824 144.118 31.081 144.244 31.445 144.244C31.809 144.244 32.1077 144.118 32.341 143.866C32.5744 143.605 32.691 143.273 32.691 142.872C32.691 142.452 32.5744 142.116 32.341 141.864C32.1077 141.603 31.809 141.472 31.445 141.472C31.081 141.472 30.7824 141.603 30.549 141.864C30.325 142.116 30.213 142.452 30.213 142.872C30.213 143.273 30.325 143.605 30.549 143.866Z" fill="#1E1E1E"/>
    <path d="M10.9719 189.168C10.3092 189.168 9.72585 189.042 9.22185 188.79C8.71785 188.529 8.31652 188.174 8.01785 187.726C7.71918 187.278 7.49518 186.774 7.34585 186.214C7.19652 185.645 7.12185 185.024 7.12185 184.352C7.12185 182.943 7.48118 181.785 8.19985 180.88C8.91852 179.975 9.93119 179.522 11.2379 179.522C12.3205 179.522 13.2165 179.867 13.9259 180.558L13.1559 181.804C12.6332 181.253 11.9939 180.978 11.2379 180.978C10.4912 180.978 9.89385 181.277 9.44585 181.874C8.99785 182.471 8.77385 183.199 8.77385 184.058C8.77385 184.179 8.77852 184.268 8.78785 184.324C9.02118 183.979 9.36652 183.675 9.82385 183.414C10.2812 183.153 10.7712 183.022 11.2939 183.022C12.1805 183.022 12.9225 183.288 13.5199 183.82C14.1172 184.343 14.4159 185.08 14.4159 186.032C14.4159 186.919 14.0985 187.665 13.4639 188.272C12.8292 188.869 11.9985 189.168 10.9719 189.168ZM10.8879 187.712C11.4665 187.712 11.9239 187.549 12.2599 187.222C12.5959 186.886 12.7639 186.508 12.7639 186.088C12.7639 185.547 12.5819 185.136 12.2179 184.856C11.8539 184.567 11.3965 184.422 10.8459 184.422C10.4539 184.422 10.0759 184.525 9.71185 184.73C9.34785 184.926 9.04452 185.192 8.80185 185.528C8.85785 186.125 9.05385 186.639 9.38985 187.068C9.72585 187.497 10.2252 187.712 10.8879 187.712ZM20.9481 188.748C20.4534 189.028 19.8934 189.168 19.2681 189.168C18.6427 189.168 18.0827 189.028 17.5881 188.748C17.0934 188.468 16.7014 188.095 16.4121 187.628C16.1227 187.161 15.9034 186.648 15.7541 186.088C15.6047 185.528 15.5301 184.945 15.5301 184.338C15.5301 183.731 15.6047 183.148 15.7541 182.588C15.9034 182.028 16.1227 181.519 16.4121 181.062C16.7014 180.595 17.0934 180.222 17.5881 179.942C18.0827 179.662 18.6427 179.522 19.2681 179.522C19.8934 179.522 20.4534 179.662 20.9481 179.942C21.4427 180.222 21.8347 180.595 22.1241 181.062C22.4134 181.519 22.6327 182.028 22.7821 182.588C22.9314 183.148 23.0061 183.731 23.0061 184.338C23.0061 184.945 22.9314 185.528 22.7821 186.088C22.6327 186.648 22.4134 187.161 22.1241 187.628C21.8347 188.095 21.4427 188.468 20.9481 188.748ZM17.7001 186.76C18.0361 187.395 18.5587 187.712 19.2681 187.712C19.9774 187.712 20.5001 187.395 20.8361 186.76C21.1721 186.125 21.3401 185.318 21.3401 184.338C21.3401 183.713 21.2747 183.157 21.1441 182.672C21.0227 182.187 20.7987 181.785 20.4721 181.468C20.1547 181.141 19.7534 180.978 19.2681 180.978C18.7827 180.978 18.3767 181.141 18.0501 181.468C17.7327 181.785 17.5087 182.187 17.3781 182.672C17.2567 183.157 17.1961 183.713 17.1961 184.338C17.1961 185.318 17.3641 186.125 17.7001 186.76ZM26.285 184.156C25.6037 184.156 25.0483 183.941 24.619 183.512C24.1897 183.073 23.975 182.523 23.975 181.86C23.975 181.188 24.1897 180.633 24.619 180.194C25.0483 179.746 25.6037 179.522 26.285 179.522C26.9757 179.522 27.5357 179.746 27.965 180.194C28.4037 180.633 28.623 181.188 28.623 181.86C28.623 182.523 28.4037 183.073 27.965 183.512C27.5357 183.941 26.9757 184.156 26.285 184.156ZM26.313 189H25.389L31.353 179.662H32.291L26.313 189ZM32.977 188.524C32.5477 188.953 31.9923 189.168 31.311 189.168C30.6297 189.168 30.0743 188.953 29.645 188.524C29.2157 188.085 29.001 187.535 29.001 186.872C29.001 186.2 29.2157 185.645 29.645 185.206C30.0743 184.758 30.6297 184.534 31.311 184.534C31.9923 184.534 32.5477 184.758 32.977 185.206C33.4157 185.654 33.635 186.209 33.635 186.872C33.635 187.535 33.4157 188.085 32.977 188.524ZM26.285 183.232C26.649 183.232 26.9477 183.106 27.181 182.854C27.4143 182.593 27.531 182.261 27.531 181.86C27.531 181.44 27.4143 181.104 27.181 180.852C26.9477 180.591 26.649 180.46 26.285 180.46C25.921 180.46 25.6223 180.591 25.389 180.852C25.165 181.104 25.053 181.44 25.053 181.86C25.053 182.261 25.1697 182.593 25.403 182.854C25.6363 183.106 25.9303 183.232 26.285 183.232ZM30.415 187.866C30.6483 188.118 30.947 188.244 31.311 188.244C31.675 188.244 31.9737 188.118 32.207 187.866C32.4403 187.605 32.557 187.273 32.557 186.872C32.557 186.452 32.4403 186.116 32.207 185.864C31.9737 185.603 31.675 185.472 31.311 185.472C30.947 185.472 30.6483 185.603 30.415 185.864C30.191 186.116 30.079 186.452 30.079 186.872C30.079 187.273 30.191 187.605 30.415 187.866Z" fill="#1E1E1E"/>
    <path d="M10.8039 233.168C9.30119 233.168 8.14385 232.687 7.33185 231.726L8.26985 230.606C8.92318 231.343 9.76318 231.712 10.7899 231.712C11.3685 231.712 11.8305 231.558 12.1759 231.25C12.5305 230.933 12.7079 230.541 12.7079 230.074C12.7079 229.57 12.5352 229.169 12.1899 228.87C11.8539 228.562 11.4012 228.408 10.8319 228.408C10.0385 228.408 9.35719 228.679 8.78785 229.22L7.62585 228.884V223.662H13.7439V225.104H9.26385V227.806C9.80518 227.265 10.5099 226.994 11.3779 226.994C12.1992 226.994 12.8992 227.269 13.4779 227.82C14.0659 228.361 14.3599 229.089 14.3599 230.004C14.3599 230.965 14.0285 231.735 13.3659 232.314C12.7125 232.883 11.8585 233.168 10.8039 233.168ZM20.9344 232.748C20.4397 233.028 19.8797 233.168 19.2544 233.168C18.629 233.168 18.069 233.028 17.5744 232.748C17.0797 232.468 16.6877 232.095 16.3984 231.628C16.109 231.161 15.8897 230.648 15.7404 230.088C15.591 229.528 15.5164 228.945 15.5164 228.338C15.5164 227.731 15.591 227.148 15.7404 226.588C15.8897 226.028 16.109 225.519 16.3984 225.062C16.6877 224.595 17.0797 224.222 17.5744 223.942C18.069 223.662 18.629 223.522 19.2544 223.522C19.8797 223.522 20.4397 223.662 20.9344 223.942C21.429 224.222 21.821 224.595 22.1104 225.062C22.3997 225.519 22.619 226.028 22.7684 226.588C22.9177 227.148 22.9924 227.731 22.9924 228.338C22.9924 228.945 22.9177 229.528 22.7684 230.088C22.619 230.648 22.3997 231.161 22.1104 231.628C21.821 232.095 21.429 232.468 20.9344 232.748ZM17.6864 230.76C18.0224 231.395 18.545 231.712 19.2544 231.712C19.9637 231.712 20.4864 231.395 20.8224 230.76C21.1584 230.125 21.3264 229.318 21.3264 228.338C21.3264 227.713 21.261 227.157 21.1304 226.672C21.009 226.187 20.785 225.785 20.4584 225.468C20.141 225.141 19.7397 224.978 19.2544 224.978C18.769 224.978 18.363 225.141 18.0364 225.468C17.719 225.785 17.495 226.187 17.3644 226.672C17.243 227.157 17.1824 227.713 17.1824 228.338C17.1824 229.318 17.3504 230.125 17.6864 230.76ZM26.2713 228.156C25.59 228.156 25.0347 227.941 24.6053 227.512C24.176 227.073 23.9613 226.523 23.9613 225.86C23.9613 225.188 24.176 224.633 24.6053 224.194C25.0347 223.746 25.59 223.522 26.2713 223.522C26.962 223.522 27.522 223.746 27.9513 224.194C28.39 224.633 28.6093 225.188 28.6093 225.86C28.6093 226.523 28.39 227.073 27.9513 227.512C27.522 227.941 26.962 228.156 26.2713 228.156ZM26.2993 233H25.3753L31.3393 223.662H32.2773L26.2993 233ZM32.9633 232.524C32.534 232.953 31.9787 233.168 31.2973 233.168C30.616 233.168 30.0607 232.953 29.6313 232.524C29.202 232.085 28.9873 231.535 28.9873 230.872C28.9873 230.2 29.202 229.645 29.6313 229.206C30.0607 228.758 30.616 228.534 31.2973 228.534C31.9787 228.534 32.534 228.758 32.9633 229.206C33.402 229.654 33.6213 230.209 33.6213 230.872C33.6213 231.535 33.402 232.085 32.9633 232.524ZM26.2713 227.232C26.6353 227.232 26.934 227.106 27.1673 226.854C27.4007 226.593 27.5173 226.261 27.5173 225.86C27.5173 225.44 27.4007 225.104 27.1673 224.852C26.934 224.591 26.6353 224.46 26.2713 224.46C25.9073 224.46 25.6087 224.591 25.3753 224.852C25.1513 225.104 25.0393 225.44 25.0393 225.86C25.0393 226.261 25.156 226.593 25.3893 226.854C25.6227 227.106 25.9167 227.232 26.2713 227.232ZM30.4013 231.866C30.6347 232.118 30.9333 232.244 31.2973 232.244C31.6613 232.244 31.96 232.118 32.1933 231.866C32.4267 231.605 32.5433 231.273 32.5433 230.872C32.5433 230.452 32.4267 230.116 32.1933 229.864C31.96 229.603 31.6613 229.472 31.2973 229.472C30.9333 229.472 30.6347 229.603 30.4013 229.864C30.1773 230.116 30.0653 230.452 30.0653 230.872C30.0653 231.273 30.1773 231.605 30.4013 231.866Z" fill="#1E1E1E"/>
    <path d="M13.0299 277H11.3919V274.886H6.93985V273.57L10.7759 267.662H13.0299V273.444H14.2759V274.886H13.0299V277ZM11.3919 273.444V269.132L8.54985 273.444H11.3919ZM20.6609 276.748C20.1663 277.028 19.6063 277.168 18.9809 277.168C18.3556 277.168 17.7956 277.028 17.3009 276.748C16.8063 276.468 16.4143 276.095 16.1249 275.628C15.8356 275.161 15.6163 274.648 15.4669 274.088C15.3176 273.528 15.2429 272.945 15.2429 272.338C15.2429 271.731 15.3176 271.148 15.4669 270.588C15.6163 270.028 15.8356 269.519 16.1249 269.062C16.4143 268.595 16.8063 268.222 17.3009 267.942C17.7956 267.662 18.3556 267.522 18.9809 267.522C19.6063 267.522 20.1663 267.662 20.6609 267.942C21.1556 268.222 21.5476 268.595 21.8369 269.062C22.1263 269.519 22.3456 270.028 22.4949 270.588C22.6443 271.148 22.7189 271.731 22.7189 272.338C22.7189 272.945 22.6443 273.528 22.4949 274.088C22.3456 274.648 22.1263 275.161 21.8369 275.628C21.5476 276.095 21.1556 276.468 20.6609 276.748ZM17.4129 274.76C17.7489 275.395 18.2716 275.712 18.9809 275.712C19.6903 275.712 20.2129 275.395 20.5489 274.76C20.8849 274.125 21.0529 273.318 21.0529 272.338C21.0529 271.713 20.9876 271.157 20.8569 270.672C20.7356 270.187 20.5116 269.785 20.1849 269.468C19.8676 269.141 19.4663 268.978 18.9809 268.978C18.4956 268.978 18.0896 269.141 17.7629 269.468C17.4456 269.785 17.2216 270.187 17.0909 270.672C16.9696 271.157 16.9089 271.713 16.9089 272.338C16.9089 273.318 17.0769 274.125 17.4129 274.76ZM25.9979 272.156C25.3166 272.156 24.7612 271.941 24.3319 271.512C23.9026 271.073 23.6879 270.523 23.6879 269.86C23.6879 269.188 23.9026 268.633 24.3319 268.194C24.7612 267.746 25.3166 267.522 25.9979 267.522C26.6886 267.522 27.2486 267.746 27.6779 268.194C28.1166 268.633 28.3359 269.188 28.3359 269.86C28.3359 270.523 28.1166 271.073 27.6779 271.512C27.2486 271.941 26.6886 272.156 25.9979 272.156ZM26.0259 277H25.1019L31.0659 267.662H32.0039L26.0259 277ZM32.6899 276.524C32.2606 276.953 31.7052 277.168 31.0239 277.168C30.3426 277.168 29.7872 276.953 29.3579 276.524C28.9286 276.085 28.7139 275.535 28.7139 274.872C28.7139 274.2 28.9286 273.645 29.3579 273.206C29.7872 272.758 30.3426 272.534 31.0239 272.534C31.7052 272.534 32.2606 272.758 32.6899 273.206C33.1286 273.654 33.3479 274.209 33.3479 274.872C33.3479 275.535 33.1286 276.085 32.6899 276.524ZM25.9979 271.232C26.3619 271.232 26.6606 271.106 26.8939 270.854C27.1272 270.593 27.2439 270.261 27.2439 269.86C27.2439 269.44 27.1272 269.104 26.8939 268.852C26.6606 268.591 26.3619 268.46 25.9979 268.46C25.6339 268.46 25.3352 268.591 25.1019 268.852C24.8779 269.104 24.7659 269.44 24.7659 269.86C24.7659 270.261 24.8826 270.593 25.1159 270.854C25.3492 271.106 25.6432 271.232 25.9979 271.232ZM30.1279 275.866C30.3612 276.118 30.6599 276.244 31.0239 276.244C31.3879 276.244 31.6866 276.118 31.9199 275.866C32.1532 275.605 32.2699 275.273 32.2699 274.872C32.2699 274.452 32.1532 274.116 31.9199 273.864C31.6866 273.603 31.3879 273.472 31.0239 273.472C30.6599 273.472 30.3612 273.603 30.1279 273.864C29.9039 274.116 29.7919 274.452 29.7919 274.872C29.7919 275.273 29.9039 275.605 30.1279 275.866Z" fill="#1E1E1E"/>
    <path d="M10.4119 321.168C9.61852 321.168 8.91385 321.028 8.29785 320.748C7.69118 320.468 7.21985 320.104 6.88385 319.656L7.76585 318.578C8.06452 318.923 8.44718 319.199 8.91385 319.404C9.38052 319.609 9.86119 319.712 10.3559 319.712C10.9625 319.712 11.4385 319.586 11.7839 319.334C12.1292 319.073 12.3019 318.723 12.3019 318.284C12.3019 317.407 11.6112 316.968 10.2299 316.968C9.60452 316.968 9.24519 316.973 9.15185 316.982V315.512C9.26385 315.521 9.62319 315.526 10.2299 315.526C10.8085 315.526 11.2705 315.423 11.6159 315.218C11.9705 315.013 12.1479 314.705 12.1479 314.294C12.1479 313.874 11.9705 313.552 11.6159 313.328C11.2612 313.095 10.8085 312.978 10.2579 312.978C9.34319 312.978 8.54052 313.323 7.84985 314.014L7.00985 312.992C7.84052 312.012 8.97452 311.522 10.4119 311.522C11.4292 311.522 12.2459 311.751 12.8619 312.208C13.4779 312.656 13.7859 313.267 13.7859 314.042C13.7859 314.621 13.5805 315.101 13.1699 315.484C12.7685 315.857 12.2972 316.091 11.7559 316.184C12.2879 316.231 12.7825 316.455 13.2399 316.856C13.6972 317.257 13.9259 317.789 13.9259 318.452C13.9259 319.255 13.6039 319.908 12.9599 320.412C12.3252 320.916 11.4759 321.168 10.4119 321.168ZM20.5789 320.748C20.0842 321.028 19.5242 321.168 18.8989 321.168C18.2736 321.168 17.7136 321.028 17.2189 320.748C16.7242 320.468 16.3322 320.095 16.0429 319.628C15.7536 319.161 15.5342 318.648 15.3849 318.088C15.2356 317.528 15.1609 316.945 15.1609 316.338C15.1609 315.731 15.2356 315.148 15.3849 314.588C15.5342 314.028 15.7536 313.519 16.0429 313.062C16.3322 312.595 16.7242 312.222 17.2189 311.942C17.7136 311.662 18.2736 311.522 18.8989 311.522C19.5242 311.522 20.0842 311.662 20.5789 311.942C21.0736 312.222 21.4656 312.595 21.7549 313.062C22.0442 313.519 22.2636 314.028 22.4129 314.588C22.5622 315.148 22.6369 315.731 22.6369 316.338C22.6369 316.945 22.5622 317.528 22.4129 318.088C22.2636 318.648 22.0442 319.161 21.7549 319.628C21.4656 320.095 21.0736 320.468 20.5789 320.748ZM17.3309 318.76C17.6669 319.395 18.1896 319.712 18.8989 319.712C19.6082 319.712 20.1309 319.395 20.4669 318.76C20.8029 318.125 20.9709 317.318 20.9709 316.338C20.9709 315.713 20.9056 315.157 20.7749 314.672C20.6536 314.187 20.4296 313.785 20.1029 313.468C19.7856 313.141 19.3842 312.978 18.8989 312.978C18.4136 312.978 18.0076 313.141 17.6809 313.468C17.3636 313.785 17.1396 314.187 17.0089 314.672C16.8876 315.157 16.8269 315.713 16.8269 316.338C16.8269 317.318 16.9949 318.125 17.3309 318.76ZM25.9159 316.156C25.2345 316.156 24.6792 315.941 24.2499 315.512C23.8205 315.073 23.6059 314.523 23.6059 313.86C23.6059 313.188 23.8205 312.633 24.2499 312.194C24.6792 311.746 25.2345 311.522 25.9159 311.522C26.6065 311.522 27.1665 311.746 27.5959 312.194C28.0345 312.633 28.2539 313.188 28.2539 313.86C28.2539 314.523 28.0345 315.073 27.5959 315.512C27.1665 315.941 26.6065 316.156 25.9159 316.156ZM25.9439 321H25.0199L30.9839 311.662H31.9219L25.9439 321ZM32.6079 320.524C32.1785 320.953 31.6232 321.168 30.9419 321.168C30.2605 321.168 29.7052 320.953 29.2759 320.524C28.8465 320.085 28.6319 319.535 28.6319 318.872C28.6319 318.2 28.8465 317.645 29.2759 317.206C29.7052 316.758 30.2605 316.534 30.9419 316.534C31.6232 316.534 32.1785 316.758 32.6079 317.206C33.0465 317.654 33.2659 318.209 33.2659 318.872C33.2659 319.535 33.0465 320.085 32.6079 320.524ZM25.9159 315.232C26.2799 315.232 26.5785 315.106 26.8119 314.854C27.0452 314.593 27.1619 314.261 27.1619 313.86C27.1619 313.44 27.0452 313.104 26.8119 312.852C26.5785 312.591 26.2799 312.46 25.9159 312.46C25.5519 312.46 25.2532 312.591 25.0199 312.852C24.7959 313.104 24.6839 313.44 24.6839 313.86C24.6839 314.261 24.8005 314.593 25.0339 314.854C25.2672 315.106 25.5612 315.232 25.9159 315.232ZM30.0459 319.866C30.2792 320.118 30.5779 320.244 30.9419 320.244C31.3059 320.244 31.6045 320.118 31.8379 319.866C32.0712 319.605 32.1879 319.273 32.1879 318.872C32.1879 318.452 32.0712 318.116 31.8379 317.864C31.6045 317.603 31.3059 317.472 30.9419 317.472C30.5779 317.472 30.2792 317.603 30.0459 317.864C29.8219 318.116 29.7099 318.452 29.7099 318.872C29.7099 319.273 29.8219 319.605 30.0459 319.866Z" fill="#1E1E1E"/>
    <path d="M14.0099 365H7.24785V363.712C9.19852 362.237 10.5239 361.145 11.2239 360.436C11.9332 359.717 12.2879 359.041 12.2879 358.406C12.2879 357.949 12.1199 357.599 11.7839 357.356C11.4572 357.104 11.0605 356.978 10.5939 356.978C9.56718 356.978 8.72718 357.351 8.07385 358.098L7.12185 357.02C7.52318 356.535 8.02718 356.166 8.63385 355.914C9.24985 355.653 9.89385 355.522 10.5659 355.522C11.5179 355.522 12.3205 355.779 12.9739 356.292C13.6272 356.805 13.9539 357.51 13.9539 358.406C13.9539 359.209 13.6179 360.007 12.9459 360.8C12.2739 361.593 11.2472 362.513 9.86585 363.558H14.0099V365ZM20.866 364.748C20.3714 365.028 19.8114 365.168 19.186 365.168C18.5607 365.168 18.0007 365.028 17.506 364.748C17.0114 364.468 16.6194 364.095 16.33 363.628C16.0407 363.161 15.8214 362.648 15.672 362.088C15.5227 361.528 15.448 360.945 15.448 360.338C15.448 359.731 15.5227 359.148 15.672 358.588C15.8214 358.028 16.0407 357.519 16.33 357.062C16.6194 356.595 17.0114 356.222 17.506 355.942C18.0007 355.662 18.5607 355.522 19.186 355.522C19.8114 355.522 20.3714 355.662 20.866 355.942C21.3607 356.222 21.7527 356.595 22.042 357.062C22.3314 357.519 22.5507 358.028 22.7 358.588C22.8494 359.148 22.924 359.731 22.924 360.338C22.924 360.945 22.8494 361.528 22.7 362.088C22.5507 362.648 22.3314 363.161 22.042 363.628C21.7527 364.095 21.3607 364.468 20.866 364.748ZM17.618 362.76C17.954 363.395 18.4767 363.712 19.186 363.712C19.8954 363.712 20.418 363.395 20.754 362.76C21.09 362.125 21.258 361.318 21.258 360.338C21.258 359.713 21.1927 359.157 21.062 358.672C20.9407 358.187 20.7167 357.785 20.39 357.468C20.0727 357.141 19.6714 356.978 19.186 356.978C18.7007 356.978 18.2947 357.141 17.968 357.468C17.6507 357.785 17.4267 358.187 17.296 358.672C17.1747 359.157 17.114 359.713 17.114 360.338C17.114 361.318 17.282 362.125 17.618 362.76ZM26.203 360.156C25.5216 360.156 24.9663 359.941 24.537 359.512C24.1076 359.073 23.893 358.523 23.893 357.86C23.893 357.188 24.1076 356.633 24.537 356.194C24.9663 355.746 25.5216 355.522 26.203 355.522C26.8936 355.522 27.4536 355.746 27.883 356.194C28.3216 356.633 28.541 357.188 28.541 357.86C28.541 358.523 28.3216 359.073 27.883 359.512C27.4536 359.941 26.8936 360.156 26.203 360.156ZM26.231 365H25.307L31.271 355.662H32.209L26.231 365ZM32.895 364.524C32.4656 364.953 31.9103 365.168 31.229 365.168C30.5476 365.168 29.9923 364.953 29.563 364.524C29.1336 364.085 28.919 363.535 28.919 362.872C28.919 362.2 29.1336 361.645 29.563 361.206C29.9923 360.758 30.5476 360.534 31.229 360.534C31.9103 360.534 32.4656 360.758 32.895 361.206C33.3336 361.654 33.553 362.209 33.553 362.872C33.553 363.535 33.3336 364.085 32.895 364.524ZM26.203 359.232C26.567 359.232 26.8656 359.106 27.099 358.854C27.3323 358.593 27.449 358.261 27.449 357.86C27.449 357.44 27.3323 357.104 27.099 356.852C26.8656 356.591 26.567 356.46 26.203 356.46C25.839 356.46 25.5403 356.591 25.307 356.852C25.083 357.104 24.971 357.44 24.971 357.86C24.971 358.261 25.0876 358.593 25.321 358.854C25.5543 359.106 25.8483 359.232 26.203 359.232ZM30.333 363.866C30.5663 364.118 30.865 364.244 31.229 364.244C31.593 364.244 31.8916 364.118 32.125 363.866C32.3583 363.605 32.475 363.273 32.475 362.872C32.475 362.452 32.3583 362.116 32.125 361.864C31.8916 361.603 31.593 361.472 31.229 361.472C30.865 361.472 30.5663 361.603 30.333 361.864C30.109 362.116 29.997 362.452 29.997 362.872C29.997 363.273 30.109 363.605 30.333 363.866Z" fill="#1E1E1E"/>
    <path d="M14.1475 409H12.5095V401.79L10.9835 403.372L10.0315 402.378L12.7195 399.662H14.1475V409ZM21.1319 408.748C20.6372 409.028 20.0772 409.168 19.4519 409.168C18.8266 409.168 18.2666 409.028 17.7719 408.748C17.2772 408.468 16.8852 408.095 16.5959 407.628C16.3066 407.161 16.0872 406.648 15.9379 406.088C15.7886 405.528 15.7139 404.945 15.7139 404.338C15.7139 403.731 15.7886 403.148 15.9379 402.588C16.0872 402.028 16.3066 401.519 16.5959 401.062C16.8852 400.595 17.2772 400.222 17.7719 399.942C18.2666 399.662 18.8266 399.522 19.4519 399.522C20.0772 399.522 20.6372 399.662 21.1319 399.942C21.6266 400.222 22.0186 400.595 22.3079 401.062C22.5972 401.519 22.8166 402.028 22.9659 402.588C23.1152 403.148 23.1899 403.731 23.1899 404.338C23.1899 404.945 23.1152 405.528 22.9659 406.088C22.8166 406.648 22.5972 407.161 22.3079 407.628C22.0186 408.095 21.6266 408.468 21.1319 408.748ZM17.8839 406.76C18.2199 407.395 18.7426 407.712 19.4519 407.712C20.1612 407.712 20.6839 407.395 21.0199 406.76C21.3559 406.125 21.5239 405.318 21.5239 404.338C21.5239 403.713 21.4586 403.157 21.3279 402.672C21.2066 402.187 20.9826 401.785 20.6559 401.468C20.3386 401.141 19.9372 400.978 19.4519 400.978C18.9666 400.978 18.5606 401.141 18.2339 401.468C17.9166 401.785 17.6926 402.187 17.5619 402.672C17.4406 403.157 17.3799 403.713 17.3799 404.338C17.3799 405.318 17.5479 406.125 17.8839 406.76ZM26.4688 404.156C25.7875 404.156 25.2322 403.941 24.8028 403.512C24.3735 403.073 24.1588 402.523 24.1588 401.86C24.1588 401.188 24.3735 400.633 24.8028 400.194C25.2322 399.746 25.7875 399.522 26.4688 399.522C27.1595 399.522 27.7195 399.746 28.1488 400.194C28.5875 400.633 28.8068 401.188 28.8068 401.86C28.8068 402.523 28.5875 403.073 28.1488 403.512C27.7195 403.941 27.1595 404.156 26.4688 404.156ZM26.4968 409H25.5728L31.5368 399.662H32.4748L26.4968 409ZM33.1608 408.524C32.7315 408.953 32.1762 409.168 31.4948 409.168C30.8135 409.168 30.2582 408.953 29.8288 408.524C29.3995 408.085 29.1848 407.535 29.1848 406.872C29.1848 406.2 29.3995 405.645 29.8288 405.206C30.2582 404.758 30.8135 404.534 31.4948 404.534C32.1762 404.534 32.7315 404.758 33.1608 405.206C33.5995 405.654 33.8188 406.209 33.8188 406.872C33.8188 407.535 33.5995 408.085 33.1608 408.524ZM26.4688 403.232C26.8328 403.232 27.1315 403.106 27.3648 402.854C27.5982 402.593 27.7148 402.261 27.7148 401.86C27.7148 401.44 27.5982 401.104 27.3648 400.852C27.1315 400.591 26.8328 400.46 26.4688 400.46C26.1048 400.46 25.8062 400.591 25.5728 400.852C25.3488 401.104 25.2368 401.44 25.2368 401.86C25.2368 402.261 25.3535 402.593 25.5868 402.854C25.8202 403.106 26.1142 403.232 26.4688 403.232ZM30.5988 407.866C30.8322 408.118 31.1308 408.244 31.4948 408.244C31.8588 408.244 32.1575 408.118 32.3908 407.866C32.6242 407.605 32.7408 407.273 32.7408 406.872C32.7408 406.452 32.6242 406.116 32.3908 405.864C32.1575 405.603 31.8588 405.472 31.4948 405.472C31.1308 405.472 30.8322 405.603 30.5988 405.864C30.3748 406.116 30.2628 406.452 30.2628 406.872C30.2628 407.273 30.3748 407.605 30.5988 407.866Z" fill="#1E1E1E"/>
    <path d="M21.2701 452.748C20.7754 453.028 20.2154 453.168 19.5901 453.168C18.9647 453.168 18.4047 453.028 17.9101 452.748C17.4154 452.468 17.0234 452.095 16.7341 451.628C16.4447 451.161 16.2254 450.648 16.0761 450.088C15.9267 449.528 15.8521 448.945 15.8521 448.338C15.8521 447.731 15.9267 447.148 16.0761 446.588C16.2254 446.028 16.4447 445.519 16.7341 445.062C17.0234 444.595 17.4154 444.222 17.9101 443.942C18.4047 443.662 18.9647 443.522 19.5901 443.522C20.2154 443.522 20.7754 443.662 21.2701 443.942C21.7647 444.222 22.1567 444.595 22.4461 445.062C22.7354 445.519 22.9547 446.028 23.1041 446.588C23.2534 447.148 23.3281 447.731 23.3281 448.338C23.3281 448.945 23.2534 449.528 23.1041 450.088C22.9547 450.648 22.7354 451.161 22.4461 451.628C22.1567 452.095 21.7647 452.468 21.2701 452.748ZM18.0221 450.76C18.3581 451.395 18.8807 451.712 19.5901 451.712C20.2994 451.712 20.8221 451.395 21.1581 450.76C21.4941 450.125 21.6621 449.318 21.6621 448.338C21.6621 447.713 21.5967 447.157 21.4661 446.672C21.3447 446.187 21.1207 445.785 20.7941 445.468C20.4767 445.141 20.0754 444.978 19.5901 444.978C19.1047 444.978 18.6987 445.141 18.3721 445.468C18.0547 445.785 17.8307 446.187 17.7001 446.672C17.5787 447.157 17.5181 447.713 17.5181 448.338C17.5181 449.318 17.6861 450.125 18.0221 450.76ZM26.607 448.156C25.9257 448.156 25.3704 447.941 24.941 447.512C24.5117 447.073 24.297 446.523 24.297 445.86C24.297 445.188 24.5117 444.633 24.941 444.194C25.3704 443.746 25.9257 443.522 26.607 443.522C27.2977 443.522 27.8577 443.746 28.287 444.194C28.7257 444.633 28.945 445.188 28.945 445.86C28.945 446.523 28.7257 447.073 28.287 447.512C27.8577 447.941 27.2977 448.156 26.607 448.156ZM26.635 453H25.711L31.675 443.662H32.613L26.635 453ZM33.299 452.524C32.8697 452.953 32.3144 453.168 31.633 453.168C30.9517 453.168 30.3964 452.953 29.967 452.524C29.5377 452.085 29.323 451.535 29.323 450.872C29.323 450.2 29.5377 449.645 29.967 449.206C30.3964 448.758 30.9517 448.534 31.633 448.534C32.3144 448.534 32.8697 448.758 33.299 449.206C33.7377 449.654 33.957 450.209 33.957 450.872C33.957 451.535 33.7377 452.085 33.299 452.524ZM26.607 447.232C26.971 447.232 27.2697 447.106 27.503 446.854C27.7364 446.593 27.853 446.261 27.853 445.86C27.853 445.44 27.7364 445.104 27.503 444.852C27.2697 444.591 26.971 444.46 26.607 444.46C26.243 444.46 25.9444 444.591 25.711 444.852C25.487 445.104 25.375 445.44 25.375 445.86C25.375 446.261 25.4917 446.593 25.725 446.854C25.9584 447.106 26.2524 447.232 26.607 447.232ZM30.737 451.866C30.9704 452.118 31.269 452.244 31.633 452.244C31.997 452.244 32.2957 452.118 32.529 451.866C32.7624 451.605 32.879 451.273 32.879 450.872C32.879 450.452 32.7624 450.116 32.529 449.864C32.2957 449.603 31.997 449.472 31.633 449.472C31.269 449.472 30.9704 449.603 30.737 449.864C30.513 450.116 30.401 450.452 30.401 450.872C30.401 451.273 30.513 451.605 30.737 451.866Z" fill="#1E1E1E"/>
    <path d="M938.5 189H809.5V277H938.5V189Z" fill="#FEFEFE" stroke="#1E1E1E"/>
    <path d="M842.896 224H835.498V211.994H837.604V222.146H842.896V224ZM848.403 224.216C847.059 224.216 845.979 223.778 845.163 222.902C844.347 222.014 843.939 220.928 843.939 219.644C843.939 218.36 844.347 217.28 845.163 216.404C845.979 215.528 847.059 215.09 848.403 215.09C849.759 215.09 850.845 215.528 851.661 216.404C852.477 217.28 852.885 218.36 852.885 219.644C852.885 220.94 852.477 222.026 851.661 222.902C850.845 223.778 849.759 224.216 848.403 224.216ZM848.403 222.542C849.183 222.542 849.795 222.266 850.239 221.714C850.695 221.15 850.923 220.46 850.923 219.644C850.923 218.84 850.695 218.162 850.239 217.61C849.795 217.046 849.183 216.764 848.403 216.764C847.635 216.764 847.023 217.046 846.567 217.61C846.123 218.162 845.901 218.84 845.901 219.644C845.901 220.46 846.123 221.15 846.567 221.714C847.023 222.266 847.635 222.542 848.403 222.542ZM864.355 224H862.375L860.359 217.628L858.343 224H856.363L853.663 215.306H855.625L857.461 221.624L859.531 215.306H861.187L863.257 221.624L865.093 215.306H867.055L864.355 224ZM876.051 224.216L872.541 215.9C872.193 215.78 871.875 215.636 871.587 215.468V215H875.349V215.45C875.193 215.534 875.031 215.618 874.863 215.702C874.707 215.774 874.527 215.84 874.323 215.9L876.411 221.318L876.771 222.434H876.807L877.077 221.3L879.003 215.9C878.811 215.852 878.631 215.792 878.463 215.72C878.307 215.648 878.157 215.564 878.013 215.468V215H881.073V215.468C880.953 215.552 880.803 215.63 880.623 215.702C880.455 215.774 880.263 215.84 880.047 215.9L876.861 224L876.051 224.216ZM888.27 221.642C888.27 221.906 888.276 222.134 888.288 222.326C888.3 222.518 888.312 222.722 888.324 222.938L889.566 223.118V223.496C889.266 223.652 888.93 223.79 888.558 223.91C888.198 224.03 887.85 224.12 887.514 224.18H887.064C886.944 223.904 886.872 223.604 886.848 223.28C886.824 222.944 886.806 222.578 886.794 222.182H886.704C886.656 222.422 886.56 222.668 886.416 222.92C886.284 223.16 886.104 223.376 885.876 223.568C885.66 223.76 885.402 223.916 885.102 224.036C884.802 224.156 884.46 224.216 884.076 224.216C883.344 224.216 882.744 223.994 882.276 223.55C881.82 223.106 881.592 222.524 881.592 221.804C881.592 221.252 881.7 220.802 881.916 220.454C882.144 220.094 882.474 219.812 882.906 219.608C883.338 219.404 883.872 219.26 884.508 219.176C885.144 219.08 885.882 219.008 886.722 218.96C886.77 218.444 886.782 217.982 886.758 217.574C886.746 217.154 886.68 216.8 886.56 216.512C886.452 216.212 886.284 215.984 886.056 215.828C885.84 215.66 885.552 215.576 885.192 215.576C885.024 215.576 884.832 215.588 884.616 215.612C884.412 215.624 884.208 215.672 884.004 215.756L883.158 217.916H882.69C882.57 217.556 882.462 217.184 882.366 216.8C882.282 216.416 882.228 216.038 882.204 215.666C882.66 215.39 883.164 215.174 883.716 215.018C884.28 214.862 884.904 214.784 885.588 214.784C886.2 214.784 886.686 214.874 887.046 215.054C887.418 215.222 887.7 215.444 887.892 215.72C888.084 215.996 888.21 216.302 888.27 216.638C888.33 216.974 888.36 217.31 888.36 217.646C888.36 218.366 888.342 219.062 888.306 219.734C888.282 220.394 888.27 221.03 888.27 221.642ZM884.796 223.1C885.096 223.1 885.36 223.04 885.588 222.92C885.816 222.8 886.008 222.656 886.164 222.488C886.32 222.32 886.446 222.152 886.542 221.984C886.638 221.804 886.704 221.654 886.74 221.534V219.644C886.044 219.644 885.474 219.68 885.03 219.752C884.586 219.824 884.238 219.938 883.986 220.094C883.734 220.25 883.56 220.448 883.464 220.688C883.368 220.916 883.32 221.18 883.32 221.48C883.32 221.996 883.452 222.398 883.716 222.686C883.98 222.962 884.34 223.1 884.796 223.1ZM894.712 224H890.716V223.55C891.112 223.358 891.508 223.214 891.904 223.118V211.724L890.536 211.58V211.112C890.848 210.968 891.238 210.842 891.706 210.734C892.174 210.626 892.63 210.536 893.074 210.464H893.524V223.118C893.92 223.214 894.316 223.358 894.712 223.55V224ZM896.778 220.436C896.778 219.68 896.796 218.942 896.832 218.222C896.868 217.49 896.886 216.764 896.886 216.044L895.698 215.9V215.432C896.082 215.288 896.472 215.162 896.868 215.054C897.276 214.946 897.672 214.856 898.056 214.784H898.506C898.506 215.684 898.488 216.578 898.452 217.466C898.416 218.354 898.398 219.236 898.398 220.112C898.398 220.58 898.422 221 898.47 221.372C898.53 221.744 898.626 222.056 898.758 222.308C898.902 222.56 899.094 222.758 899.334 222.902C899.574 223.034 899.88 223.1 900.252 223.1C900.792 223.1 901.242 222.908 901.602 222.524C901.974 222.128 902.262 221.618 902.466 220.994V216.044L901.296 215.9V215.432C901.668 215.288 902.052 215.162 902.448 215.054C902.856 214.946 903.252 214.856 903.636 214.784H904.086V222.974L905.274 223.118V223.496C904.926 223.652 904.572 223.79 904.212 223.91C903.864 224.03 903.498 224.12 903.114 224.18H902.664L902.538 222.038H902.466C902.406 222.29 902.298 222.548 902.142 222.812C901.998 223.064 901.806 223.298 901.566 223.514C901.326 223.718 901.05 223.886 900.738 224.018C900.438 224.15 900.108 224.216 899.748 224.216C899.268 224.216 898.842 224.156 898.47 224.036C898.11 223.928 897.804 223.73 897.552 223.442C897.3 223.154 897.108 222.77 896.976 222.29C896.844 221.798 896.778 221.18 896.778 220.436ZM913.756 222.74C913.66 222.944 913.51 223.136 913.306 223.316C913.102 223.496 912.868 223.652 912.604 223.784C912.34 223.916 912.052 224.018 911.74 224.09C911.428 224.174 911.11 224.216 910.786 224.216C910.078 224.216 909.454 224.108 908.914 223.892C908.374 223.664 907.924 223.346 907.564 222.938C907.204 222.518 906.928 222.02 906.736 221.444C906.556 220.868 906.466 220.22 906.466 219.5C906.466 217.964 906.82 216.794 907.528 215.99C908.236 215.186 909.238 214.784 910.534 214.784C910.954 214.784 911.368 214.844 911.776 214.964C912.184 215.072 912.544 215.258 912.856 215.522C913.18 215.786 913.438 216.14 913.63 216.584C913.834 217.016 913.936 217.556 913.936 218.204C913.936 218.408 913.924 218.618 913.9 218.834C913.888 219.038 913.858 219.26 913.81 219.5H908.194C908.194 220.004 908.254 220.478 908.374 220.922C908.506 221.354 908.698 221.732 908.95 222.056C909.202 222.38 909.52 222.638 909.904 222.83C910.288 223.01 910.738 223.1 911.254 223.1C911.674 223.1 912.1 223.04 912.532 222.92C912.964 222.8 913.288 222.644 913.504 222.452L913.756 222.74ZM910.462 215.576C909.778 215.576 909.256 215.81 908.896 216.278C908.536 216.734 908.32 217.544 908.248 218.708H912.208C912.22 218.6 912.226 218.498 912.226 218.402C912.238 218.294 912.244 218.192 912.244 218.096C912.244 217.328 912.1 216.716 911.812 216.26C911.524 215.804 911.074 215.576 910.462 215.576ZM845.537 242.464C845.645 242.464 845.771 242.47 845.915 242.482C846.059 242.494 846.209 242.512 846.365 242.536C846.521 242.548 846.671 242.572 846.815 242.608C846.959 242.632 847.085 242.662 847.193 242.698C847.157 243.094 847.103 243.466 847.031 243.814C846.971 244.15 846.893 244.456 846.797 244.732H846.347L845.555 243.184C845.207 243.184 844.907 243.22 844.655 243.292C844.415 243.364 844.211 243.502 844.043 243.706C843.887 243.91 843.767 244.204 843.683 244.588C843.611 244.972 843.575 245.476 843.575 246.1V247H845.645V247.9H843.575V255.118C844.199 255.19 844.775 255.334 845.303 255.55V256H840.767V255.55C841.139 255.334 841.535 255.19 841.955 255.118V247.9H840.587V247.432C841.007 247.168 841.463 246.97 841.955 246.838V246.208C841.955 245.464 842.045 244.852 842.225 244.372C842.405 243.88 842.657 243.496 842.981 243.22C843.305 242.932 843.683 242.734 844.115 242.626C844.559 242.518 845.033 242.464 845.537 242.464ZM846.603 251.5C846.603 250.744 846.699 250.078 846.891 249.502C847.095 248.914 847.383 248.422 847.755 248.026C848.127 247.618 848.571 247.312 849.087 247.108C849.615 246.892 850.197 246.784 850.833 246.784C851.577 246.784 852.219 246.898 852.759 247.126C853.299 247.354 853.737 247.678 854.073 248.098C854.421 248.506 854.673 248.998 854.829 249.574C854.997 250.15 855.081 250.792 855.081 251.5C855.081 253.012 854.697 254.176 853.929 254.992C853.161 255.808 852.129 256.216 850.833 256.216C850.113 256.216 849.489 256.108 848.961 255.892C848.433 255.664 847.995 255.346 847.647 254.938C847.299 254.518 847.035 254.02 846.855 253.444C846.687 252.856 846.603 252.208 846.603 251.5ZM848.331 251.5C848.331 252.04 848.379 252.55 848.475 253.03C848.583 253.51 848.745 253.93 848.961 254.29C849.189 254.638 849.483 254.914 849.843 255.118C850.203 255.322 850.635 255.424 851.139 255.424C851.787 255.424 852.315 255.106 852.723 254.47C853.143 253.834 853.353 252.844 853.353 251.5C853.353 250.948 853.299 250.438 853.191 249.97C853.095 249.49 852.939 249.076 852.723 248.728C852.507 248.368 852.231 248.086 851.895 247.882C851.559 247.678 851.157 247.576 850.689 247.576C849.981 247.576 849.411 247.894 848.979 248.53C848.547 249.166 848.331 250.156 848.331 251.5ZM860.206 248.35C860.074 248.422 859.906 248.572 859.702 248.8C859.51 249.016 859.336 249.34 859.18 249.772V255.118C859.42 255.142 859.66 255.19 859.9 255.262C860.14 255.322 860.38 255.418 860.62 255.55V256H856.372V255.55C856.588 255.43 856.792 255.34 856.984 255.28C857.176 255.22 857.368 255.166 857.56 255.118V248.044L856.372 247.9V247.432C856.756 247.264 857.152 247.132 857.56 247.036C857.968 246.928 858.358 246.844 858.73 246.784H859.18V248.692H859.252C859.36 248.452 859.51 248.212 859.702 247.972C859.906 247.732 860.134 247.516 860.386 247.324C860.65 247.132 860.932 246.988 861.232 246.892C861.544 246.784 861.862 246.748 862.186 246.784C862.27 246.94 862.342 247.114 862.402 247.306C862.474 247.486 862.54 247.678 862.6 247.882V248.35H860.206ZM868.486 252.436C868.486 251.68 868.504 250.942 868.54 250.222C868.576 249.49 868.594 248.764 868.594 248.044L867.406 247.9V247.432C867.79 247.288 868.18 247.162 868.576 247.054C868.984 246.946 869.38 246.856 869.764 246.784H870.214C870.214 247.684 870.196 248.578 870.16 249.466C870.124 250.354 870.106 251.236 870.106 252.112C870.106 252.58 870.13 253 870.178 253.372C870.238 253.744 870.334 254.056 870.466 254.308C870.61 254.56 870.802 254.758 871.042 254.902C871.282 255.034 871.588 255.1 871.96 255.1C872.5 255.1 872.95 254.908 873.31 254.524C873.682 254.128 873.97 253.618 874.174 252.994V248.044L873.004 247.9V247.432C873.376 247.288 873.76 247.162 874.156 247.054C874.564 246.946 874.96 246.856 875.344 246.784H875.794V254.974L876.982 255.118V255.496C876.634 255.652 876.28 255.79 875.92 255.91C875.572 256.03 875.206 256.12 874.822 256.18H874.372L874.246 254.038H874.174C874.114 254.29 874.006 254.548 873.85 254.812C873.706 255.064 873.514 255.298 873.274 255.514C873.034 255.718 872.758 255.886 872.446 256.018C872.146 256.15 871.816 256.216 871.456 256.216C870.976 256.216 870.55 256.156 870.178 256.036C869.818 255.928 869.512 255.73 869.26 255.442C869.008 255.154 868.816 254.77 868.684 254.29C868.552 253.798 868.486 253.18 868.486 252.436ZM882.746 253.948C882.746 253.612 882.638 253.33 882.422 253.102C882.218 252.862 881.954 252.64 881.63 252.436C881.306 252.232 880.958 252.034 880.586 251.842C880.226 251.65 879.884 251.428 879.56 251.176C879.236 250.912 878.966 250.612 878.75 250.276C878.546 249.94 878.444 249.526 878.444 249.034C878.444 248.71 878.516 248.41 878.66 248.134C878.816 247.858 879.02 247.624 879.272 247.432C879.524 247.228 879.818 247.072 880.154 246.964C880.49 246.844 880.85 246.784 881.234 246.784C881.882 246.784 882.41 246.82 882.818 246.892C883.238 246.964 883.64 247.066 884.024 247.198C883.976 247.582 883.916 247.972 883.844 248.368C883.784 248.752 883.694 249.148 883.574 249.556H883.124L882.44 247.72C882.296 247.66 882.134 247.624 881.954 247.612C881.774 247.588 881.588 247.576 881.396 247.576C881.18 247.576 880.988 247.618 880.82 247.702C880.664 247.774 880.526 247.87 880.406 247.99C880.298 248.11 880.214 248.248 880.154 248.404C880.094 248.56 880.064 248.716 880.064 248.872C880.064 249.196 880.166 249.478 880.37 249.718C880.586 249.946 880.856 250.162 881.18 250.366C881.504 250.558 881.846 250.75 882.206 250.942C882.578 251.134 882.926 251.35 883.25 251.59C883.574 251.83 883.838 252.112 884.042 252.436C884.258 252.748 884.366 253.126 884.366 253.57C884.366 253.978 884.276 254.344 884.096 254.668C883.928 254.992 883.688 255.268 883.376 255.496C883.076 255.724 882.722 255.898 882.314 256.018C881.918 256.15 881.492 256.216 881.036 256.216C880.52 256.216 880.046 256.168 879.614 256.072C879.182 255.988 878.732 255.862 878.264 255.694C878.288 255.262 878.342 254.848 878.426 254.452C878.51 254.044 878.618 253.654 878.75 253.282H879.2L879.992 255.244C880.124 255.34 880.28 255.394 880.46 255.406C880.652 255.418 880.826 255.424 880.982 255.424C881.51 255.424 881.936 255.28 882.26 254.992C882.584 254.704 882.746 254.356 882.746 253.948ZM893.251 254.74C893.155 254.944 893.005 255.136 892.801 255.316C892.597 255.496 892.363 255.652 892.099 255.784C891.835 255.916 891.547 256.018 891.235 256.09C890.923 256.174 890.605 256.216 890.281 256.216C889.573 256.216 888.949 256.108 888.409 255.892C887.869 255.664 887.419 255.346 887.059 254.938C886.699 254.518 886.423 254.02 886.231 253.444C886.051 252.868 885.961 252.22 885.961 251.5C885.961 249.964 886.315 248.794 887.023 247.99C887.731 247.186 888.733 246.784 890.029 246.784C890.449 246.784 890.863 246.844 891.271 246.964C891.679 247.072 892.039 247.258 892.351 247.522C892.675 247.786 892.933 248.14 893.125 248.584C893.329 249.016 893.431 249.556 893.431 250.204C893.431 250.408 893.419 250.618 893.395 250.834C893.383 251.038 893.353 251.26 893.305 251.5H887.689C887.689 252.004 887.749 252.478 887.869 252.922C888.001 253.354 888.193 253.732 888.445 254.056C888.697 254.38 889.015 254.638 889.399 254.83C889.783 255.01 890.233 255.1 890.749 255.1C891.169 255.1 891.595 255.04 892.027 254.92C892.459 254.8 892.783 254.644 892.999 254.452L893.251 254.74ZM889.957 247.576C889.273 247.576 888.751 247.81 888.391 248.278C888.031 248.734 887.815 249.544 887.743 250.708H891.703C891.715 250.6 891.721 250.498 891.721 250.402C891.733 250.294 891.739 250.192 891.739 250.096C891.739 249.328 891.595 248.716 891.307 248.26C891.019 247.804 890.569 247.576 889.957 247.576ZM898.667 248.35C898.535 248.422 898.367 248.572 898.163 248.8C897.971 249.016 897.797 249.34 897.641 249.772V255.118C897.881 255.142 898.121 255.19 898.361 255.262C898.601 255.322 898.841 255.418 899.081 255.55V256H894.833V255.55C895.049 255.43 895.253 255.34 895.445 255.28C895.637 255.22 895.829 255.166 896.021 255.118V248.044L894.833 247.9V247.432C895.217 247.264 895.613 247.132 896.021 247.036C896.429 246.928 896.819 246.844 897.191 246.784H897.641V248.692H897.713C897.821 248.452 897.971 248.212 898.163 247.972C898.367 247.732 898.595 247.516 898.847 247.324C899.111 247.132 899.393 246.988 899.693 246.892C900.005 246.784 900.323 246.748 900.647 246.784C900.731 246.94 900.803 247.114 900.863 247.306C900.935 247.486 901.001 247.678 901.061 247.882V248.35H898.667ZM906.494 253.948C906.494 253.612 906.386 253.33 906.17 253.102C905.966 252.862 905.702 252.64 905.378 252.436C905.054 252.232 904.706 252.034 904.334 251.842C903.974 251.65 903.632 251.428 903.308 251.176C902.984 250.912 902.714 250.612 902.498 250.276C902.294 249.94 902.192 249.526 902.192 249.034C902.192 248.71 902.264 248.41 902.408 248.134C902.564 247.858 902.768 247.624 903.02 247.432C903.272 247.228 903.566 247.072 903.902 246.964C904.238 246.844 904.598 246.784 904.982 246.784C905.63 246.784 906.158 246.82 906.566 246.892C906.986 246.964 907.388 247.066 907.772 247.198C907.724 247.582 907.664 247.972 907.592 248.368C907.532 248.752 907.442 249.148 907.322 249.556H906.872L906.188 247.72C906.044 247.66 905.882 247.624 905.702 247.612C905.522 247.588 905.336 247.576 905.144 247.576C904.928 247.576 904.736 247.618 904.568 247.702C904.412 247.774 904.274 247.87 904.154 247.99C904.046 248.11 903.962 248.248 903.902 248.404C903.842 248.56 903.812 248.716 903.812 248.872C903.812 249.196 903.914 249.478 904.118 249.718C904.334 249.946 904.604 250.162 904.928 250.366C905.252 250.558 905.594 250.75 905.954 250.942C906.326 251.134 906.674 251.35 906.998 251.59C907.322 251.83 907.586 252.112 907.79 252.436C908.006 252.748 908.114 253.126 908.114 253.57C908.114 253.978 908.024 254.344 907.844 254.668C907.676 254.992 907.436 255.268 907.124 255.496C906.824 255.724 906.47 255.898 906.062 256.018C905.666 256.15 905.24 256.216 904.784 256.216C904.268 256.216 903.794 256.168 903.362 256.072C902.93 255.988 902.48 255.862 902.012 255.694C902.036 255.262 902.09 254.848 902.174 254.452C902.258 254.044 902.366 253.654 902.498 253.282H902.948L903.74 255.244C903.872 255.34 904.028 255.394 904.208 255.406C904.4 255.418 904.574 255.424 904.73 255.424C905.258 255.424 905.684 255.28 906.008 254.992C906.332 254.704 906.494 254.356 906.494 253.948Z" fill="#1E1E1E"/>
</svg>
