<svg width="18" height="18" viewBox="0 0 18 18" fill="none" xmlns="http://www.w3.org/2000/svg">
    <g clip-path="url(#clip0_26_2743)">
        <path d="M16.5 4.29296V1.49996C16.5 1.30104 16.421 1.11028 16.2803 0.969626C16.1397 0.828974 15.9489 0.749956 15.75 0.749956C15.5511 0.749956 15.3603 0.828974 15.2197 0.969626C15.079 1.11028 15 1.30104 15 1.49996V3.27446L11.0978 0.641206C10.4788 0.221073 9.74804 -0.00354004 9 -0.00354004C8.25196 -0.00354004 7.52116 0.221073 6.90225 0.641206L1.65225 4.18421C1.14322 4.52735 0.726307 4.99032 0.438198 5.5324C0.15009 6.07449 -0.000388681 6.67907 7.53964e-07 7.29296V14.25C7.53964e-07 16.3177 1.68225 18 3.75 18H6C6.19891 18 6.38968 17.9209 6.53033 17.7803C6.67098 17.6396 6.75 17.4489 6.75 17.25V11.25C6.75 10.8367 7.086 10.5 7.5 10.5H10.5C10.914 10.5 11.25 10.8367 11.25 11.25V17.25C11.25 17.4489 11.329 17.6396 11.4697 17.7803C11.6103 17.9209 11.8011 18 12 18H14.25C16.3178 18 18 16.3177 18 14.25V7.29296C18.0003 6.71074 17.8649 6.13646 17.6045 5.61571C17.3441 5.09495 16.966 4.64206 16.5 4.29296ZM16.5 14.25C16.5 15.4905 15.4905 16.5 14.25 16.5H12.75V11.25C12.75 10.0095 11.7405 8.99996 10.5 8.99996H7.5C6.2595 8.99996 5.25 10.0095 5.25 11.25V16.5H3.75C2.5095 16.5 1.5 15.4905 1.5 14.25V7.29296C1.5 6.54371 1.8705 5.84621 2.4915 5.42771L7.7415 1.88471C8.11262 1.63256 8.55095 1.49775 8.99963 1.49775C9.4483 1.49775 9.88663 1.63256 10.2578 1.88471L15.5078 5.42771C15.8133 5.63348 16.0635 5.91124 16.2364 6.23651C16.4093 6.56178 16.4996 6.92458 16.4993 7.29296L16.5 14.25Z" fill="currentColor"/>
    </g>
    <defs>
        <clipPath id="clip0_26_2743">
            <rect width="18" height="18" fill="white"/>
        </clipPath>
    </defs>
</svg>
