<svg width="774" height="202" viewBox="0 0 774 202" fill="none" xmlns="http://www.w3.org/2000/svg">
    <path d="M1 201V1H151V201H1Z" stroke="#1E1E1E"/>
    <path d="M140 10H126V20H140V10Z" stroke="#1E1E1E"/>
    <path d="M126 10L140 20" stroke="#1E1E1E"/>
    <path d="M140 10L126 20" stroke="#1E1E1E"/>
    <path d="M140 27H126V47H140V27Z" stroke="#1E1E1E"/>
    <path d="M126 27L140 47" stroke="#1E1E1E"/>
    <path d="M140 27L126 47" stroke="#1E1E1E"/>
    <path d="M22 185H8V195H22V185Z" stroke="#1E1E1E"/>
    <path d="M8 185L22 195" stroke="#1E1E1E"/>
    <path d="M22 185L8 195" stroke="#1E1E1E"/>
    <path d="M52.5 185H38.5V195H52.5V185Z" stroke="#1E1E1E"/>
    <path d="M38.5 185L52.5 195" stroke="#1E1E1E"/>
    <path d="M52.5 185L38.5 195" stroke="#1E1E1E"/>
    <path d="M83 185H69V195H83V185Z" stroke="#1E1E1E"/>
    <path d="M69 185L83 195" stroke="#1E1E1E"/>
    <path d="M83 185L69 195" stroke="#1E1E1E"/>
    <path d="M113.5 185H99.5V195H113.5V185Z" stroke="#1E1E1E"/>
    <path d="M99.5 185L113.5 195" stroke="#1E1E1E"/>
    <path d="M113.5 185L99.5 195" stroke="#1E1E1E"/>
    <path d="M144 185H130V195H144V185Z" stroke="#1E1E1E"/>
    <path d="M130 185L144 195" stroke="#1E1E1E"/>
    <path d="M144 185L130 195" stroke="#1E1E1E"/>
    <path d="M144 165H130V175H144V165Z" stroke="#1E1E1E"/>
    <path d="M130 165L144 175" stroke="#1E1E1E"/>
    <path d="M144 165L130 175" stroke="#1E1E1E"/>
    <path d="M126 165H100V175H126V165Z" stroke="#1E1E1E"/>
    <path d="M100 165L126 175" stroke="#1E1E1E"/>
    <path d="M126 165L100 175" stroke="#1E1E1E"/>
    <path d="M1 181L151 181" stroke="#1E1E1E"/>
    <path d="M52.5 88C52.5 92.8889 52.5 97.7778 52.5 102.667C52.5 105.299 52.6381 107.947 52 110.5" stroke="black" stroke-width="2" stroke-linecap="round"/>
    <path d="M54 87.75C55.2561 90.1962 56.0672 92.8637 57.2222 95.3611C57.3472 95.6314 57.5947 96.5 58.0556 96.5C59.7045 96.5 59.8202 91.1941 60.3472 89.8472C60.8925 88.4539 60.5 92.8371 60.5 94.3333C60.5 96.7458 60.4284 99.1792 60.6667 101.583C60.8321 103.253 61.4252 104.886 61.5 106.556C61.5204 107.012 61.3318 107.541 61.75 107.75" stroke="black" stroke-width="2" stroke-linecap="round"/>
    <path d="M70 89.5C69.6167 94.6101 69.1774 99.7195 67.7639 104.667C67.485 105.643 67.0304 106.954 66.5 107.75" stroke="black" stroke-width="2" stroke-linecap="round"/>
    <path d="M70.5 89.75C71.9031 93.8646 72.8673 97.9467 74 102.111C74.2271 102.946 75.1136 105.023 74.75 105.75" stroke="black" stroke-width="2" stroke-linecap="round"/>
    <path d="M67.75 100.25C70.0822 100.594 72.4151 100.928 74.75 101.25" stroke="black" stroke-width="2" stroke-linecap="round"/>
    <path d="M80 89.75C80.2474 94.6983 81.3286 109.523 80.9444 104.583C80.6533 100.841 79.83 95.0378 82.625 92.0278C84.5817 89.9205 86.5 95.4986 86.5 96.7083C86.5 97.4719 86.7957 98.75 85.7361 98.75C84.7407 98.75 83.7454 98.75 82.75 98.75" stroke="black" stroke-width="2" stroke-linecap="round"/>
    <path d="M120 10H13V20H120V10Z" stroke="#1E1E1E"/>
    <path d="M20.25 12.5002C20.0374 11.9687 18.9108 12.0726 18.5139 12.2711C17.3932 12.8314 18.1275 14.018 18.6181 14.7294C18.7202 14.8775 19.6696 15.7469 19.1667 15.8474C18.3668 16.0074 17.5618 15.9223 16.75 16.1252" stroke="black" stroke-linecap="round"/>
    <path d="M21.875 15.2498C22.0686 15.2005 24.3616 14.7327 23.9306 14.0553C23.5496 13.4567 21.9449 13.7469 21.5278 14.1803C21.005 14.7236 21.2111 15.9126 21.6528 16.4234C22.3093 17.1825 23.0966 16.9349 23.75 16.3748" stroke="black" stroke-linecap="round"/>
    <path d="M26.2497 14.125C25.7421 14.5865 25.0702 15.7539 25.3192 16.4653C25.4194 16.7518 26.1197 16.6466 26.347 16.625C27.6347 16.5024 27.4078 14.5221 26.6247 14" stroke="black" stroke-linecap="round"/>
    <path d="M27.375 14.625C27.4819 15.1846 27.4959 16.5 28.3472 16.5C28.7219 16.5 29.4511 16.3477 29.625 16" stroke="black" stroke-linecap="round"/>
    <path d="M31.2499 14.375C31.2499 15.3472 31.2499 18.2639 31.2499 17.2917C31.2499 16.7782 31.237 16.2632 31.2499 15.75C31.2783 14.6215 31.7065 14.25 32.7499 14.25" stroke="black" stroke-linecap="round"/>
    <path d="M34.9997 14.125C34.1164 14.3563 33.3065 15.8362 34.1941 16.5625C34.5462 16.8506 34.9061 17.0224 35.3747 16.9722C36.0794 16.8967 36.3035 16.3211 36.7497 15.875" stroke="black" stroke-linecap="round"/>
    <path d="M38.25 12.5C38.25 13.9352 38.25 15.3704 38.25 16.8056C38.25 17.0369 38.4471 16.2966 38.6111 16.125C38.9568 15.7634 39.2935 15.6083 39.7778 15.625C40.5075 15.6502 40.5766 16.2925 40.7222 16.875C40.9275 17.696 41.7385 16.8459 42.125 16.625" stroke="black" stroke-linecap="round"/>
    <path d="M347.333 27H333.333V43H347.333V27Z" stroke="#1E1E1E"/>
    <path d="M333.333 27L347.333 43" stroke="#1E1E1E"/>
    <path d="M347.333 27L333.333 43" stroke="#1E1E1E"/>
    <path d="M208.333 201V1H358.333V201H208.333Z" stroke="#1E1E1E"/>
    <path d="M327.333 10H220.333V20H327.333V10Z" stroke="#1E1E1E"/>
    <path d="M227.583 12.5002C227.37 11.9687 226.244 12.0726 225.847 12.2711C224.726 12.8314 225.46 14.018 225.951 14.7294C226.053 14.8775 227.003 15.7469 226.5 15.8474C225.7 16.0074 224.895 15.9223 224.083 16.1252" stroke="black" stroke-linecap="round"/>
    <path d="M229.208 15.2498C229.402 15.2005 231.695 14.7327 231.264 14.0553C230.883 13.4567 229.278 13.7469 228.861 14.1803C228.338 14.7236 228.544 15.9126 228.986 16.4234C229.642 17.1825 230.43 16.9349 231.083 16.3748" stroke="black" stroke-linecap="round"/>
    <path d="M233.583 14.125C233.075 14.5865 232.403 15.7539 232.652 16.4653C232.752 16.7518 233.453 16.6466 233.68 16.625C234.968 16.5024 234.741 14.5221 233.958 14" stroke="black" stroke-linecap="round"/>
    <path d="M234.708 14.625C234.815 15.1846 234.829 16.5 235.68 16.5C236.055 16.5 236.784 16.3477 236.958 16" stroke="black" stroke-linecap="round"/>
    <path d="M238.583 14.375C238.583 15.3472 238.583 18.2639 238.583 17.2917C238.583 16.7782 238.57 16.2632 238.583 15.75C238.611 14.6215 239.039 14.25 240.083 14.25" stroke="black" stroke-linecap="round"/>
    <path d="M242.333 14.125C241.449 14.3563 240.639 15.8362 241.527 16.5625C241.879 16.8506 242.239 17.0224 242.708 16.9722C243.412 16.8967 243.637 16.3211 244.083 15.875" stroke="black" stroke-linecap="round"/>
    <path d="M245.583 12.5C245.583 13.9352 245.583 15.3704 245.583 16.8056C245.583 17.0369 245.78 16.2966 245.944 16.125C246.29 15.7634 246.626 15.6083 247.111 15.625C247.841 15.6502 247.91 16.2925 248.055 16.875C248.26 17.696 249.071 16.8459 249.458 16.625" stroke="black" stroke-linecap="round"/>
    <path d="M349.333 89H215.333V99H349.333V89Z" stroke="#1E1E1E"/>
    <path d="M224.412 91.5002C224.146 90.9687 222.735 91.0726 222.238 91.2711C220.835 91.8314 221.754 93.018 222.369 93.7294C222.497 93.8775 223.686 94.7469 223.056 94.8474C222.054 95.0074 221.046 94.9223 220.029 95.1252" stroke="black" stroke-linecap="round"/>
    <path d="M226.448 94.2498C226.69 94.2005 229.562 93.7327 229.022 93.0553C228.545 92.4567 226.535 92.7469 226.013 93.1803C225.358 93.7236 225.616 94.9126 226.169 95.4234C226.991 96.1825 227.977 95.9349 228.796 95.3748" stroke="black" stroke-linecap="round"/>
    <path d="M231.926 93.125C231.291 93.5865 230.449 94.7539 230.761 95.4653C230.886 95.7518 231.763 95.6466 232.048 95.625C233.661 95.5024 233.377 93.5221 232.396 93" stroke="black" stroke-linecap="round"/>
    <path d="M233.335 93.625C233.469 94.1846 233.487 95.5 234.553 95.5C235.022 95.5 235.935 95.3477 236.153 95" stroke="black" stroke-linecap="round"/>
    <path d="M238.188 93.375C238.188 94.3472 238.188 97.2639 238.188 96.2917C238.188 95.7782 238.172 95.2632 238.188 94.75C238.223 93.6215 238.76 93.25 240.066 93.25" stroke="black" stroke-linecap="round"/>
    <path d="M242.884 93.125C241.778 93.3563 240.764 94.8362 241.876 95.5625C242.317 95.8506 242.767 96.0224 243.354 95.9722C244.237 95.8967 244.517 95.3211 245.076 94.875" stroke="black" stroke-linecap="round"/>
    <path d="M246.955 91.5C246.955 92.9352 246.955 94.3704 246.955 95.8056C246.955 96.0369 247.201 95.2966 247.407 95.125C247.84 94.7634 248.261 94.6083 248.868 94.625C249.782 94.6502 249.868 95.2925 250.051 95.875C250.308 96.696 251.323 95.8459 251.807 95.625" stroke="black" stroke-linecap="round"/>
    <path d="M347.333 10H333.333V20H347.333V10Z" stroke="#1E1E1E"/>
    <path d="M333.333 10L347.333 20" stroke="#1E1E1E"/>
    <path d="M347.333 10L333.333 20" stroke="#1E1E1E"/>
    <path d="M208.333 47L358.333 47" stroke="#1E1E1E"/>
    <path d="M217.083 53C217.083 56.2402 217.232 59.6038 216.333 62.75" stroke="black" stroke-width="2" stroke-linecap="round"/>
    <path d="M216.333 54C217.84 53.7991 219.349 53.7968 220.833 53.5" stroke="black" stroke-width="2" stroke-linecap="round"/>
    <path d="M217.333 58.25H221.333" stroke="black" stroke-width="2" stroke-linecap="round"/>
    <path d="M217.083 62.75C218.923 62.91 220.738 63 222.583 63" stroke="black" stroke-width="2" stroke-linecap="round"/>
    <path d="M226.083 56.75C227.656 58.9877 228.883 61.3502 231.083 63" stroke="black" stroke-width="2" stroke-linecap="round"/>
    <path d="M229.583 58C228.896 58.6867 225.562 63.958 225.333 63.5" stroke="black" stroke-width="2" stroke-linecap="round"/>
    <path d="M235.583 59.75C235.381 62.8913 234.742 65.9958 234.583 69.1389C234.497 70.8397 234.59 68.0614 234.597 67.7917C234.694 64.2709 234.624 61.3145 237.833 59.3889C239.02 58.6766 240.166 59.5775 239.792 60.8889C239.42 62.1905 237.967 62.5 236.833 62.5" stroke="black" stroke-width="2" stroke-linecap="round"/>
    <path d="M244.083 54V63" stroke="black" stroke-width="2" stroke-linecap="round"/>
    <path d="M247.583 59.5002C247.583 60.4787 247.26 62.288 248.027 63.0835C248.911 63.9999 250.596 61.9193 250.916 61.278C252.137 58.8369 249.594 58.7446 248.083 59.5002" stroke="black" stroke-width="2" stroke-linecap="round"/>
    <path d="M254.083 59.25C254.126 60.3669 254.039 61.7841 254.347 62.8611C254.611 63.786 254.516 60.9396 254.722 60C254.889 59.2362 255.1 58 256.139 58C257.02 58 257.083 58.842 257.083 59.5" stroke="black" stroke-width="2" stroke-linecap="round"/>
    <path d="M261.083 60.4998C262.089 60.3211 265.884 60.1159 265.319 58.1387C265.065 57.2497 263.161 58.4931 262.972 58.8609C262.369 60.0327 261.933 61.7511 262.722 62.9581C263.639 64.3602 265.46 62.9289 266.333 62.2498" stroke="black" stroke-width="2" stroke-linecap="round"/>
    <path d="M278.833 59.2498C279.032 59.0873 280.958 57.0138 279.583 57.3054C278.15 57.6094 278.083 58.438 278.083 59.7498C278.083 60.9444 278.05 62.6377 279.555 62.9721C280.485 63.1787 280.801 62.8455 281.083 61.9998" stroke="black" stroke-width="2" stroke-linecap="round"/>
    <path d="M283.833 58.25C283.942 59.0907 284.666 64.1816 286.333 63.25C287.285 62.7182 287.642 60.4924 288.083 59.5" stroke="black" stroke-width="2" stroke-linecap="round"/>
    <path d="M293.083 59.7499C293.083 57.866 290.833 59.517 290.833 60.8054C290.833 61.6923 290.763 63.3421 291.986 63.486C293.229 63.6323 293.907 62.5515 294.083 61.4999" stroke="black" stroke-width="2" stroke-linecap="round"/>
    <path d="M296.833 59C296.982 60.1544 296.961 61.3773 297.208 62.5139C297.336 63.1048 297.607 61.2596 297.639 61.1389C297.966 59.9003 298.604 57.5 300.194 57.5C301.38 57.5 300.766 62.0795 300.722 62.7361C300.593 64.6719 302.411 61.5067 302.833 61" stroke="black" stroke-width="2" stroke-linecap="round"/>
    <path d="M307.833 51.75C307.284 54.1979 307.083 56.5273 307.083 59.0278C307.083 59.4503 306.914 60.3461 307.138 60.75C307.689 61.7403 309.42 59.83 309.833 59.5" stroke="black" stroke-width="2" stroke-linecap="round"/>
    <path d="M302.583 57.5C304.912 57.1492 307.24 56.7343 309.583 56.5" stroke="black" stroke-width="2" stroke-linecap="round"/>
    <path d="M317.333 55.4999C316.349 55.4343 314.609 55.0419 314.889 56.611C315.215 58.4419 317.402 59.1232 317.805 60.736C317.986 61.4566 317.687 61.4999 317.041 61.4999C316.236 61.4999 315.43 61.4999 314.625 61.4999C314.598 61.4999 312.896 61.4999 313.833 61.4999" stroke="black" stroke-width="2" stroke-linecap="round"/>
    <path d="M234.333 72H215.333V82H234.333V72Z" stroke="#1E1E1E"/>
    <path d="M219.708 74.5C219.324 76.0982 218.208 77.8259 218.208 79.5" stroke="black" stroke-linecap="round"/>
    <path d="M219.833 74.125C220.84 75.0517 220.885 76.7107 221.458 77.8889C221.575 78.1287 221.654 78.1627 221.715 78.4375C221.785 78.754 222.708 80.2088 222.708 79.75" stroke="black" stroke-linecap="round"/>
    <path d="M218.708 78C219.638 78 221.113 78.2975 221.958 77.875" stroke="black" stroke-linecap="round"/>
    <path d="M224.458 74.5C224.659 75.5921 224.696 76.6331 224.708 77.7361C224.71 77.9525 224.658 79.1498 224.958 79" stroke="black" stroke-linecap="round"/>
    <path d="M226.083 74.5C226.142 75.6502 226.137 76.8373 226.361 77.9722C226.432 78.336 226.57 78.6818 226.583 79.0556C226.594 79.3735 226.49 79.7824 226.708 80" stroke="black" stroke-linecap="round"/>
    <path d="M257.333 72H238.333V82H257.333V72Z" stroke="#1E1E1E"/>
    <path d="M241.208 74.75C241.419 76.3588 241.333 78.0036 241.333 79.625" stroke="black" stroke-linecap="round"/>
    <path d="M241.708 75C241.861 76.6843 243.079 77.8323 243.736 79.2778C243.825 79.4745 244.083 77.6676 244.083 77.375C244.083 76.625 244.083 75.875 244.083 75.125" stroke="black" stroke-linecap="round"/>
    <path d="M246.583 77.5002C247.485 77.3198 247.374 75.2695 246.34 76.9933C245.995 77.5677 246.324 78.3225 246.68 78.8058C247.001 79.2412 247.463 79.1252 247.958 79.1252" stroke="black" stroke-linecap="round"/>
    <path d="M249.208 76.625C250.224 76.2865 249.996 79.2453 251 79.4861C251.104 79.5112 251.09 78.1343 251.111 78C251.154 77.7222 251.458 76.8958 251.708 76.7083C251.793 76.6442 252.455 78.2816 252.514 78.4167C252.571 78.5492 253.067 79.7884 253.271 79.4722C253.799 78.6503 253.902 77.4188 254.208 76.5" stroke="black" stroke-linecap="round"/>
    <path d="M345.333 72H261.333V82H345.333V72Z" stroke="#1E1E1E"/>
    <path d="M265.583 74.9374C265.45 74.982 265.314 75.3372 265.271 75.4652C265.1 75.9765 265.122 76.57 265.184 77.0972C265.254 77.6919 265.596 78.252 266.236 78.3611C266.668 78.4346 267.646 78.377 267.924 77.993C268.57 77.1001 268.316 75.8179 267.646 75.0069C267.349 74.6481 267.103 74.4396 266.649 74.3159C266.359 74.2367 265.804 74.1715 266.083 74.5624" stroke="black" stroke-linecap="round"/>
    <path d="M270.083 75.8126C269.83 76.3193 270.055 77.1348 270.083 77.6876C270.104 78.12 270.052 76.818 270.111 76.389C270.208 75.6744 270.734 75.132 271.506 75.2918C271.612 75.3136 272.418 75.5966 272.145 75.6876" stroke="black" stroke-linecap="round"/>
    <path d="M274.146 76.0002C274.081 76.5772 273.879 77.5057 274.534 77.8127C274.96 78.012 275.719 77.989 275.833 77.4238C275.958 76.8058 275.414 76.2154 274.896 75.9516C274.739 75.8718 274.26 75.8098 274.708 75.9377" stroke="black" stroke-linecap="round"/>
    <path d="M275.833 76.3125C276.143 76.9118 277.494 79.0357 276.299 79.4861C275.666 79.7246 273.594 79.5625 274.271 79.5625" stroke="black" stroke-linecap="round"/>
    <path d="M279.083 76C278.811 76.4819 278.406 77.0881 278.694 77.6528C278.978 78.209 279.846 78.2372 280.291 77.8473C280.751 77.4438 280.503 76.4242 280.274 75.9653C280.099 75.6155 279.641 75.7685 279.333 75.8125" stroke="black" stroke-linecap="round"/>
    <path d="M280.833 76.25C280.844 76.7002 280.832 77.6875 281.524 77.6875C281.912 77.6875 282.338 77.7482 282.708 77.625" stroke="black" stroke-linecap="round"/>
    <path d="M284.708 75.8751C284.708 76.5834 284.708 77.2918 284.708 78.0001C284.708 78.3473 284.811 77.9516 284.833 77.8334C284.894 77.5087 285.243 75.1136 286.069 75.8334C286.659 76.3478 286.753 76.9232 286.847 77.632C286.874 77.8406 287.004 78.1288 287.229 78.1737C287.703 78.2685 287.969 78.0467 288.208 77.6876" stroke="black" stroke-linecap="round"/>
    <path d="M289.833 75.4375C290.001 76.0167 290.145 76.5835 290.194 77.1875C290.225 77.5679 290.178 77.9427 290.271 78.3125" stroke="black" stroke-linecap="round"/>
    <path d="M292.146 75.2498C292.85 75.2498 293.573 75.1999 294.271 75.3123C294.353 75.3256 294.923 75.2959 294.819 75.5033C294.662 75.8173 294.081 76.0036 293.836 76.2845C293.71 76.4298 292.63 77.9095 293.18 77.9095C293.799 77.9095 294.412 77.6971 295.041 77.6873C295.202 77.6848 295.499 77.7308 295.583 77.5623" stroke="black" stroke-linecap="round"/>
    <path d="M298.083 75.3127C297.287 75.5703 297.16 76.3346 297.458 77.0627C297.697 77.6466 298.267 77.9634 298.712 77.3613C299.089 76.8505 299.139 76.2994 299.139 75.6773C299.139 75.0073 298.669 75.1252 298.146 75.1252" stroke="black" stroke-linecap="round"/>
    <path d="M299.458 75.375C299.494 75.9275 299.523 77.0899 299.986 77.5347C300.463 77.9938 301.187 77.5761 301.521 77.1875" stroke="black" stroke-linecap="round"/>
    <path d="M303.021 74.125C303.119 74.7062 303.183 75.2767 303.347 75.8472C303.491 76.3496 303.455 76.8788 303.715 77.3507C303.858 77.6091 305.083 78.2824 305.083 77.625" stroke="black" stroke-linecap="round"/>
    <path d="M302.646 76.1876C303.287 76.0991 303.937 76.1251 304.583 76.1251" stroke="black" stroke-linecap="round"/>
    <path d="M306.333 75.375C306.461 76.3284 306.583 79.2119 306.583 78.25" stroke="black" stroke-linecap="round"/>
    <path d="M308.708 75.875C308.677 76.4063 308.608 77.0399 309.097 77.3889C309.543 77.7071 310.103 77.7041 310.316 77.1284C310.438 76.7975 310.486 76.1799 310.198 75.9201C309.907 75.6581 309.381 75.75 309.021 75.75" stroke="black" stroke-linecap="round"/>
    <path d="M312.146 75.6873C312.175 76.313 312.11 77.0321 312.271 77.6456C312.356 77.9713 312.333 77.2935 312.333 77.2567C312.336 76.8035 312.316 76.2841 312.673 75.9442C312.867 75.7595 313.252 75.5919 313.517 75.7012C314.12 75.9494 313.81 76.9598 313.989 77.4581C314.249 78.1801 315.077 77.3806 315.333 77.1248" stroke="black" stroke-linecap="round"/>
    <path d="M320.52 76.3748C321.206 76.2606 321.795 75.7603 322.041 75.1109C322.131 74.8738 321.993 74.8605 321.75 74.906C321.124 75.0228 320.333 75.4241 319.958 75.9581C319.504 76.6044 320.158 77.5516 320.708 77.8748C321.15 78.1345 322.164 78.3292 322.395 77.7498" stroke="black" stroke-linecap="round"/>
    <path d="M323.833 75.5625C323.916 76.0313 324.064 76.4806 324.218 76.9306C324.287 77.1301 324.508 78.0872 324.802 78.2083C325.093 78.3283 325.205 77.4106 325.236 77.2743C325.367 76.6936 325.523 76.1799 325.708 75.625" stroke="black" stroke-linecap="round"/>
    <path d="M328.583 76.5001C328.854 76.3505 329.403 76.0635 329.33 75.6599C329.245 75.197 328.159 75.9729 328.055 76.0661C327.468 76.5957 327.008 77.2265 327.833 77.771C328.528 78.2296 329.462 78.0364 330.208 77.8126" stroke="black" stroke-linecap="round"/>
    <path d="M331.958 75.875C331.913 76.3978 331.77 77.0227 331.837 77.5521C331.849 77.6528 331.936 77.3727 331.962 77.2743C332.113 76.6823 332.245 75.9539 333.038 76.0174C333.253 76.0346 333.387 76.4676 333.43 76.625C333.537 77.0131 333.458 77.3926 333.458 77.7847C333.458 78.0632 334.379 77.7314 334.521 77.625" stroke="black" stroke-linecap="round"/>
    <path d="M337.02 74C336.984 74.6812 336.958 75.3597 336.958 76.0417C336.958 76.4017 336.832 77.0749 337.052 77.3924C337.217 77.6309 338.008 77.1608 338.083 76.9375" stroke="black" stroke-linecap="round"/>
    <path d="M335.583 76.25C336.562 76.211 337.541 76.1658 338.521 76.125" stroke="black" stroke-linecap="round"/>
    <path d="M340.895 75.25C340.443 75.3454 339.686 75.7326 339.729 76.2847C339.772 76.8352 340.402 77.2062 340.826 77.4653C341.192 77.6887 340.36 77.9375 340.145 77.9375" stroke="black" stroke-linecap="round"/>
    <path d="M337.083 91.75C337.083 93.6786 337.333 95.6522 337.333 97.5" stroke="black" stroke-linecap="round"/>
    <path d="M336.583 92.5C337.766 92.2372 338.933 92.1334 340.083 91.75" stroke="black" stroke-linecap="round"/>
    <path d="M337.583 95.25C338.77 95.25 339.913 95 341.083 95" stroke="black" stroke-linecap="round"/>
    <path d="M217.333 105.75C217.333 108.56 217.475 111.414 217.319 114.222C217.29 114.752 217.3 116.267 216.833 116.5" stroke="black" stroke-width="2" stroke-linecap="round"/>
    <path d="M214.083 105C214.083 106.193 216.694 106.113 217.652 106.222C218.817 106.355 219.5 106.459 220.583 107" stroke="black" stroke-width="2" stroke-linecap="round"/>
    <path d="M221.083 110.75C221.083 111.558 220.656 114.128 221.583 114.694C222.655 115.35 223.739 113.687 223.93 112.903C224.093 112.236 224.288 111.045 223.916 110.403C223.363 109.447 220.324 110 219.333 110" stroke="black" stroke-width="2" stroke-linecap="round"/>
    <path d="M230.333 105.5C230.333 107.246 230.41 108.894 230.767 110.608C230.791 110.722 231.166 111.899 230.958 111.861C230.544 111.786 230.142 111.353 229.715 111.42C229.285 111.487 228.851 112.384 228.611 112.715C228.016 113.539 228.721 115.043 229.597 115.396C230.143 115.616 230.847 115.317 231.167 114.861C231.523 114.352 231.396 113.592 231.396 113" stroke="black" stroke-width="2" stroke-linecap="round"/>
    <path d="M234.27 112.187C234.139 112.835 233.876 114.256 234.573 114.694C235.537 115.3 236.287 114.607 236.541 113.625C236.716 112.952 236.654 112.217 236.034 111.83C235.84 111.708 234.811 111.492 235.27 111.875" stroke="black" stroke-width="2" stroke-linecap="round"/>
    <path d="M237.833 111.875C237.677 112.381 237.688 112.837 237.847 113.347C237.973 113.752 238.166 114.398 238.548 114.639C239.019 114.935 239.73 115.139 240.278 114.944C240.652 114.811 240.61 114.323 240.646 114" stroke="black" stroke-width="2" stroke-linecap="round"/>
    <path d="M243.895 112.312C243.874 113.1 243.723 114.254 244.267 114.924C244.636 115.379 245.167 114.924 245.451 114.601C245.88 114.112 245.919 113.672 246.006 113.069C246.084 112.534 246.328 113.978 246.333 114C246.597 115.351 247.026 116.697 247.076 118.08C247.098 118.685 247.197 119.688 246.406 119.823C245.457 119.985 244.362 119.625 243.444 119.403C243.166 119.336 242.625 119.25 243.208 119.25" stroke="black" stroke-width="2" stroke-linecap="round"/>
    <path d="M349.333 126H215.333V158H349.333V126Z" stroke="#1E1E1E"/>
    <path d="M243.333 131H219.333V151H243.333V131Z" stroke="#1E1E1E"/>
    <path d="M219.333 131L243.333 151" stroke="#1E1E1E"/>
    <path d="M243.333 131L219.333 151" stroke="#1E1E1E"/>
    <path d="M253.583 130.75V135.438" stroke="black" stroke-linecap="round"/>
    <path d="M253.458 130.875C254.088 130.825 255.664 130.457 256.208 131" stroke="black" stroke-linecap="round"/>
    <path d="M253.896 132.812H255.896" stroke="black" stroke-linecap="round"/>
    <path d="M258.02 132.563C257.63 133.018 256.817 134.29 257.409 134.813C257.814 135.17 258.344 134.934 258.652 134.549C258.983 134.136 259.202 133.276 259.069 132.75C258.964 132.336 258.925 132.375 258.52 132.438" stroke="black" stroke-linecap="round"/>
    <path d="M259.708 133.062C259.654 133.307 259.295 134.243 259.597 134.472C259.823 134.643 260.167 134.764 260.416 134.91C260.933 135.211 261.458 135.023 261.458 134.375" stroke="black" stroke-linecap="round"/>
    <path d="M264.021 132.562C263.99 133.22 263.958 133.877 263.958 134.535C263.958 134.975 263.957 134.488 263.962 134.34C263.983 133.725 264.159 133.396 264.694 133.09C265.241 132.778 265.751 132.823 266.17 133.344C266.356 133.575 266.556 133.825 266.632 134.118C266.725 134.482 266.665 134.85 266.722 135.215C266.817 135.828 266.698 133.885 267.069 133.389C267.431 132.907 268.261 132.532 268.68 133.097C269.098 133.659 268.632 134.539 268.712 135.177C268.742 135.416 269.441 134.654 269.521 134.562" stroke="black" stroke-linecap="round"/>
    <path d="M271.271 133.062C271.189 133.726 271.083 134.392 271.083 135.062" stroke="black" stroke-linecap="round"/>
    <path d="M271.521 131.312C271.463 131.32 271.479 131.333 271.458 131.375" stroke="black" stroke-linecap="round"/>
    <path d="M273.958 130.562C273.718 131.639 273.583 132.702 273.583 133.806C273.583 134.031 273.528 134.848 273.708 134.938" stroke="black" stroke-linecap="round"/>
    <path d="M276.083 133.375C276.104 133.513 276.175 134.83 276.437 134.858C276.743 134.89 277.134 134.392 277.336 134.222C277.568 134.028 277.827 133.873 277.986 133.611C278.07 133.472 278.073 133.69 278.076 133.75C278.103 134.266 278.083 134.789 278.083 135.306C278.083 135.589 278.145 139.368 277.861 139.292C277.521 139.201 275.808 138.087 276.083 137.812" stroke="black" stroke-linecap="round"/>
    <path d="M285.833 133.188C285.645 134.822 285.746 136.477 285.795 138.118C285.795 138.142 285.779 138.387 285.722 138.188C285.596 137.751 285.645 137.221 285.673 136.778C285.753 135.521 285.902 134.065 286.34 132.875C286.452 132.57 286.694 132.036 287.104 132.087C287.695 132.161 288.197 132.689 288.256 133.271C288.353 134.211 287.515 134.625 286.708 134.625" stroke="black" stroke-linecap="round"/>
    <path d="M290.583 132.25C290.409 132.599 290.58 133.275 290.583 133.66C290.586 134.052 290.594 134.425 290.645 134.812" stroke="black" stroke-linecap="round"/>
    <path d="M293.895 132.812C293.591 133.145 292.678 133.863 292.763 134.424C292.827 134.837 293.486 135.02 293.791 135.118C294.244 135.264 294.706 135.368 295.184 135.368C295.522 135.368 295.553 135.339 295.645 135.062" stroke="black" stroke-linecap="round"/>
    <path d="M296.958 132.938C296.958 133.575 296.958 134.213 296.958 134.851C296.958 135.108 297.072 134.347 297.159 134.104C297.269 133.801 297.54 132.927 298.017 133.451C298.235 133.691 298.204 134.113 298.208 134.41C298.209 134.506 298.134 135.01 298.25 135.083C298.379 135.166 298.782 134.981 298.902 134.938C299.16 134.845 299.367 134.662 299.583 134.5" stroke="black" stroke-linecap="round"/>
    <path d="M301.208 132.562C301.214 133.289 301.076 134.257 301.388 134.948C301.427 135.035 301.458 135.147 301.458 135" stroke="black" stroke-linecap="round"/>
    <path d="M304.27 132.875C303.499 132.978 303.197 133.71 303.399 134.399C303.582 135.026 304.282 134.713 304.708 134.5" stroke="black" stroke-linecap="round"/>
    <path d="M254.083 139.25C253.761 140.651 253.712 142.493 252.958 143.75" stroke="black" stroke-linecap="round"/>
    <path d="M254.333 139.625C254.833 140.853 255.122 142.203 255.708 143.375" stroke="black" stroke-linecap="round"/>
    <path d="M253.833 142.5H255.333" stroke="black" stroke-linecap="round"/>
    <path d="M258.958 138.875C258.958 139.569 258.956 140.264 258.986 140.958C258.986 140.97 259.16 141.967 259.062 142.049C258.958 142.135 258.778 141.985 258.694 141.938C258.367 141.753 257.883 141.759 257.541 141.903C257.02 142.121 256.911 143.017 257.333 143.375C258.339 144.228 259.335 143.823 260.083 143" stroke="black" stroke-linecap="round"/>
    <path d="M262.333 139C262.333 139.939 262.351 140.881 262.333 141.819C262.328 142.078 262.236 141.821 262.187 141.743C261.736 141.021 261.172 141.661 260.958 142.181C260.671 142.879 260.48 143.897 261.43 144.16C262.33 144.409 263.602 144.227 264.208 143.5" stroke="black" stroke-linecap="round"/>
    <path d="M265.083 141.75C265.128 142.384 265.208 143.03 265.208 143.667C265.208 144.201 265.181 142.595 265.229 142.062C265.266 141.642 265.352 140.719 265.736 140.431C265.948 140.271 266.454 140.375 266.708 140.375" stroke="black" stroke-linecap="round"/>
    <path d="M269.208 141.875C269.508 141.49 270.061 140.982 269.263 141C268.264 141.023 268.13 141.689 268.416 142.583C268.855 143.958 270.274 144.464 271.208 143.375" stroke="black" stroke-linecap="round"/>
    <path d="M273.708 140.5C273.173 141.402 274.095 141.781 274.201 142.632C274.303 143.45 272.978 143.476 272.458 143.625" stroke="black" stroke-linecap="round"/>
    <path d="M276.708 140.5C276.517 140.33 276.185 140.319 276.111 140.625C275.952 141.279 276.481 142.133 277 142.479C277.203 142.615 277.208 142.709 277.208 142.944C277.208 143.627 275.917 143.471 275.458 143.5" stroke="black" stroke-linecap="round"/>
    <path d="M253.708 147.125V151.125" stroke="black" stroke-linecap="round"/>
    <path d="M252.083 147.25C253.243 147.57 254.522 147.362 255.708 147.625" stroke="black" stroke-linecap="round"/>
    <path d="M256.458 148.5C256.525 149.238 256.32 150.787 257.465 150.417C258.272 150.156 258.299 149.576 258.639 148.944C258.661 148.904 258.76 150.236 258.861 150.542C259.142 151.395 260.276 150.778 260.833 150.5" stroke="black" stroke-linecap="round"/>
    <path d="M262.208 150.125C262.565 149.809 264.121 148.995 263.764 148.382C263.415 147.784 262.803 148.937 262.708 149.125C262.332 149.869 261.945 150.909 263.027 151.187C263.581 151.33 264.074 151.512 264.458 151" stroke="black" stroke-linecap="round"/>
    <path d="M267.458 149.125H270.333" stroke="black" stroke-linecap="round"/>
    <path d="M274.708 147.75V151.375" stroke="black" stroke-linecap="round"/>
    <path d="M276.333 148.375C276.342 148.741 276.474 149.804 277.076 149.729C277.502 149.676 278.05 148.203 278.201 147.826C278.326 147.515 278.54 148.438 278.555 148.5C278.73 149.199 278.717 149.93 278.889 150.625C279.081 151.404 279.547 151.863 278.458 151.5" stroke="black" stroke-linecap="round"/>
    <path d="M285.583 145.875C285.583 146.83 285.626 147.692 285.826 148.625C285.92 149.062 286.107 149.671 286.083 150.125C286.071 150.35 285.148 150.25 284.958 150.25" stroke="black" stroke-linecap="round"/>
    <path d="M287.708 148.125C287.644 148.782 287.43 150.063 288.083 150.535C288.548 150.87 289.149 149.987 289.264 149.625C289.628 148.482 289.552 151.748 290.264 150.486C290.544 149.99 290.53 149.243 290.903 148.826C291.334 148.344 291.672 148.905 291.757 149.347C291.8 149.572 291.796 151.166 292.139 151.194C292.72 151.243 293.61 150.745 294.208 150.625" stroke="black" stroke-linecap="round"/>
    <path d="M296.458 150.5V150.375" stroke="black" stroke-linecap="round"/>
    <path d="M300.583 148.25H303.708" stroke="black" stroke-linecap="round"/>
    <path d="M308.708 146.25V149.625" stroke="black" stroke-linecap="round"/>
    <path d="M310.583 146.875C310.583 147.391 310.38 148.423 310.972 148.694C311.449 148.913 311.817 149.117 312.152 148.5C312.551 147.766 312.167 146.861 311.458 146.625" stroke="black" stroke-linecap="round"/>
    <path d="M314.458 148.875C314.588 149.395 315.702 148.408 314.333 148.75" stroke="black" stroke-linecap="round"/>
    <path d="M317.708 145.75C317.708 146.512 317.351 148.415 318.021 148.979C318.373 149.276 319.083 149.172 319.326 148.792C319.879 147.929 319.625 145.75 318.333 145.75" stroke="black" stroke-linecap="round"/>
    <path d="M321.583 146.5C321.583 147.557 321.795 148.247 322.687 148.903C323.266 149.328 323.953 149.06 324.326 148.5C324.586 148.11 324.495 147.342 324.277 146.958C323.89 146.274 322.847 146.625 322.208 146.625" stroke="black" stroke-linecap="round"/>
    <path d="M329.333 144.875C328.563 145.953 328.333 147.699 328.333 149" stroke="black" stroke-linecap="round"/>
    <path d="M329.583 145.75C329.824 145.653 330.708 148.141 330.708 148.625" stroke="black" stroke-linecap="round"/>
    <path d="M328.208 147.625C328.669 147.522 329.113 147.5 329.583 147.5" stroke="black" stroke-linecap="round"/>
    <path d="M332.708 145.125V148.75" stroke="black" stroke-linecap="round"/>
    <path d="M332.708 145.75C332.971 146.249 333.448 147 334.083 147C334.608 147 334.63 145.802 334.736 145.43C334.783 145.264 335.08 145.165 335.208 145.305C335.551 145.683 335.612 146.47 335.708 146.944C335.829 147.545 335.855 148.181 336.083 148.75" stroke="black" stroke-linecap="round"/>
    <path d="M340.458 135.75C341.417 136.504 342.303 137.359 343.138 138.25C343.778 138.932 343.81 139.111 343.152 139.708C342.262 140.517 341.296 141.239 340.416 142.049C339.961 142.467 340.087 142.533 340.583 142.25" stroke="black" stroke-linecap="round"/>
    <path d="M349.333 164H215.333V196H349.333V164Z" stroke="#1E1E1E"/>
    <path d="M243.333 169H219.333V189H243.333V169Z" stroke="#1E1E1E"/>
    <path d="M219.333 169L243.333 189" stroke="#1E1E1E"/>
    <path d="M243.333 169L219.333 189" stroke="#1E1E1E"/>
    <path d="M253.583 168.75V173.438" stroke="black" stroke-linecap="round"/>
    <path d="M253.458 168.875C254.088 168.825 255.664 168.457 256.208 169" stroke="black" stroke-linecap="round"/>
    <path d="M253.896 170.812H255.896" stroke="black" stroke-linecap="round"/>
    <path d="M258.02 170.563C257.63 171.018 256.817 172.29 257.409 172.813C257.814 173.17 258.344 172.934 258.652 172.549C258.983 172.136 259.202 171.276 259.069 170.75C258.964 170.336 258.925 170.375 258.52 170.438" stroke="black" stroke-linecap="round"/>
    <path d="M259.708 171.062C259.654 171.307 259.295 172.243 259.597 172.472C259.823 172.643 260.167 172.764 260.416 172.91C260.933 173.211 261.458 173.023 261.458 172.375" stroke="black" stroke-linecap="round"/>
    <path d="M264.021 170.562C263.99 171.22 263.958 171.877 263.958 172.535C263.958 172.975 263.957 172.488 263.962 172.34C263.983 171.725 264.159 171.396 264.694 171.09C265.241 170.778 265.751 170.823 266.17 171.344C266.356 171.575 266.556 171.825 266.632 172.118C266.725 172.482 266.665 172.85 266.722 173.215C266.817 173.828 266.698 171.885 267.069 171.389C267.431 170.907 268.261 170.532 268.68 171.097C269.098 171.659 268.632 172.539 268.712 173.177C268.742 173.416 269.441 172.654 269.521 172.562" stroke="black" stroke-linecap="round"/>
    <path d="M271.271 171.062C271.189 171.726 271.083 172.392 271.083 173.062" stroke="black" stroke-linecap="round"/>
    <path d="M271.521 169.312C271.463 169.32 271.479 169.333 271.458 169.375" stroke="black" stroke-linecap="round"/>
    <path d="M273.958 168.562C273.718 169.639 273.583 170.702 273.583 171.806C273.583 172.031 273.528 172.848 273.708 172.938" stroke="black" stroke-linecap="round"/>
    <path d="M276.083 171.375C276.104 171.513 276.175 172.83 276.437 172.858C276.743 172.89 277.134 172.392 277.336 172.222C277.568 172.028 277.827 171.873 277.986 171.611C278.07 171.472 278.073 171.69 278.076 171.75C278.103 172.266 278.083 172.789 278.083 173.306C278.083 173.589 278.145 177.368 277.861 177.292C277.521 177.201 275.808 176.087 276.083 175.812" stroke="black" stroke-linecap="round"/>
    <path d="M285.833 171.188C285.645 172.822 285.746 174.477 285.795 176.118C285.795 176.142 285.779 176.387 285.722 176.188C285.596 175.751 285.645 175.221 285.673 174.778C285.753 173.521 285.902 172.065 286.34 170.875C286.452 170.57 286.694 170.036 287.104 170.087C287.695 170.161 288.197 170.689 288.256 171.271C288.353 172.211 287.515 172.625 286.708 172.625" stroke="black" stroke-linecap="round"/>
    <path d="M290.583 170.25C290.409 170.599 290.58 171.275 290.583 171.66C290.586 172.052 290.594 172.425 290.645 172.812" stroke="black" stroke-linecap="round"/>
    <path d="M293.895 170.812C293.591 171.145 292.678 171.863 292.763 172.424C292.827 172.837 293.486 173.02 293.791 173.118C294.244 173.264 294.706 173.368 295.184 173.368C295.522 173.368 295.553 173.339 295.645 173.062" stroke="black" stroke-linecap="round"/>
    <path d="M296.958 170.938C296.958 171.575 296.958 172.213 296.958 172.851C296.958 173.108 297.072 172.347 297.159 172.104C297.269 171.801 297.54 170.927 298.017 171.451C298.235 171.691 298.204 172.113 298.208 172.41C298.209 172.506 298.134 173.01 298.25 173.083C298.379 173.166 298.782 172.981 298.902 172.938C299.16 172.845 299.367 172.662 299.583 172.5" stroke="black" stroke-linecap="round"/>
    <path d="M301.208 170.562C301.214 171.289 301.076 172.257 301.388 172.948C301.427 173.035 301.458 173.147 301.458 173" stroke="black" stroke-linecap="round"/>
    <path d="M304.27 170.875C303.499 170.978 303.197 171.71 303.399 172.399C303.582 173.026 304.282 172.713 304.708 172.5" stroke="black" stroke-linecap="round"/>
    <path d="M254.083 177.25C253.761 178.651 253.712 180.493 252.958 181.75" stroke="black" stroke-linecap="round"/>
    <path d="M254.333 177.625C254.833 178.853 255.122 180.203 255.708 181.375" stroke="black" stroke-linecap="round"/>
    <path d="M253.833 180.5H255.333" stroke="black" stroke-linecap="round"/>
    <path d="M258.958 176.875C258.958 177.569 258.956 178.264 258.986 178.958C258.986 178.97 259.16 179.967 259.062 180.049C258.958 180.135 258.778 179.985 258.694 179.938C258.367 179.753 257.883 179.759 257.541 179.903C257.02 180.121 256.911 181.017 257.333 181.375C258.339 182.228 259.335 181.823 260.083 181" stroke="black" stroke-linecap="round"/>
    <path d="M262.333 177C262.333 177.939 262.351 178.881 262.333 179.819C262.328 180.078 262.236 179.821 262.187 179.743C261.736 179.021 261.172 179.661 260.958 180.181C260.671 180.879 260.48 181.897 261.43 182.16C262.33 182.409 263.602 182.227 264.208 181.5" stroke="black" stroke-linecap="round"/>
    <path d="M265.083 179.75C265.128 180.384 265.208 181.03 265.208 181.667C265.208 182.201 265.181 180.595 265.229 180.062C265.266 179.642 265.352 178.719 265.736 178.431C265.948 178.271 266.454 178.375 266.708 178.375" stroke="black" stroke-linecap="round"/>
    <path d="M269.208 179.875C269.508 179.49 270.061 178.982 269.263 179C268.264 179.023 268.13 179.689 268.416 180.583C268.855 181.958 270.274 182.464 271.208 181.375" stroke="black" stroke-linecap="round"/>
    <path d="M273.708 178.5C273.173 179.402 274.095 179.781 274.201 180.632C274.303 181.45 272.978 181.476 272.458 181.625" stroke="black" stroke-linecap="round"/>
    <path d="M276.708 178.5C276.517 178.33 276.185 178.319 276.111 178.625C275.952 179.279 276.481 180.133 277 180.479C277.203 180.615 277.208 180.709 277.208 180.944C277.208 181.627 275.917 181.471 275.458 181.5" stroke="black" stroke-linecap="round"/>
    <path d="M253.708 185.125V189.125" stroke="black" stroke-linecap="round"/>
    <path d="M252.083 185.25C253.243 185.57 254.522 185.362 255.708 185.625" stroke="black" stroke-linecap="round"/>
    <path d="M256.458 186.5C256.525 187.238 256.32 188.787 257.465 188.417C258.272 188.156 258.299 187.576 258.639 186.944C258.661 186.904 258.76 188.236 258.861 188.542C259.142 189.395 260.276 188.778 260.833 188.5" stroke="black" stroke-linecap="round"/>
    <path d="M262.208 188.125C262.565 187.809 264.121 186.995 263.764 186.382C263.415 185.784 262.803 186.937 262.708 187.125C262.332 187.869 261.945 188.909 263.027 189.187C263.581 189.33 264.074 189.512 264.458 189" stroke="black" stroke-linecap="round"/>
    <path d="M267.458 187.125H270.333" stroke="black" stroke-linecap="round"/>
    <path d="M274.708 185.75V189.375" stroke="black" stroke-linecap="round"/>
    <path d="M276.333 186.375C276.342 186.741 276.474 187.804 277.076 187.729C277.502 187.676 278.05 186.203 278.201 185.826C278.326 185.515 278.54 186.438 278.555 186.5C278.73 187.199 278.717 187.93 278.889 188.625C279.081 189.404 279.547 189.863 278.458 189.5" stroke="black" stroke-linecap="round"/>
    <path d="M285.583 183.875C285.583 184.83 285.626 185.692 285.826 186.625C285.92 187.062 286.107 187.671 286.083 188.125C286.071 188.35 285.148 188.25 284.958 188.25" stroke="black" stroke-linecap="round"/>
    <path d="M287.708 186.125C287.644 186.782 287.43 188.063 288.083 188.535C288.548 188.87 289.149 187.987 289.264 187.625C289.628 186.482 289.552 189.748 290.264 188.486C290.544 187.99 290.53 187.243 290.903 186.826C291.334 186.344 291.672 186.905 291.757 187.347C291.8 187.572 291.796 189.166 292.139 189.194C292.72 189.243 293.61 188.745 294.208 188.625" stroke="black" stroke-linecap="round"/>
    <path d="M296.458 188.5V188.375" stroke="black" stroke-linecap="round"/>
    <path d="M300.583 186.25H303.708" stroke="black" stroke-linecap="round"/>
    <path d="M308.708 184.25V187.625" stroke="black" stroke-linecap="round"/>
    <path d="M310.583 184.875C310.583 185.391 310.38 186.423 310.972 186.694C311.449 186.913 311.817 187.117 312.152 186.5C312.551 185.766 312.167 184.861 311.458 184.625" stroke="black" stroke-linecap="round"/>
    <path d="M314.458 186.875C314.588 187.395 315.702 186.408 314.333 186.75" stroke="black" stroke-linecap="round"/>
    <path d="M317.708 183.75C317.708 184.512 317.351 186.415 318.021 186.979C318.373 187.276 319.083 187.172 319.326 186.792C319.879 185.929 319.625 183.75 318.333 183.75" stroke="black" stroke-linecap="round"/>
    <path d="M321.583 184.5C321.583 185.557 321.795 186.247 322.687 186.903C323.266 187.328 323.953 187.06 324.326 186.5C324.586 186.11 324.495 185.342 324.277 184.958C323.89 184.274 322.847 184.625 322.208 184.625" stroke="black" stroke-linecap="round"/>
    <path d="M329.333 182.875C328.563 183.953 328.333 185.699 328.333 187" stroke="black" stroke-linecap="round"/>
    <path d="M329.583 183.75C329.824 183.653 330.708 186.141 330.708 186.625" stroke="black" stroke-linecap="round"/>
    <path d="M328.208 185.625C328.669 185.522 329.113 185.5 329.583 185.5" stroke="black" stroke-linecap="round"/>
    <path d="M332.708 183.125V186.75" stroke="black" stroke-linecap="round"/>
    <path d="M332.708 183.75C332.971 184.249 333.448 185 334.083 185C334.608 185 334.63 183.802 334.736 183.43C334.783 183.264 335.08 183.165 335.208 183.305C335.551 183.683 335.612 184.47 335.708 184.944C335.829 185.545 335.855 186.181 336.083 186.75" stroke="black" stroke-linecap="round"/>
    <path d="M340.458 173.75C341.417 174.504 342.303 175.359 343.138 176.25C343.778 176.932 343.81 177.111 343.152 177.708C342.262 178.517 341.296 179.239 340.416 180.049C339.961 180.467 340.087 180.533 340.583 180.25" stroke="black" stroke-linecap="round"/>
    <path d="M415.667 201V1H565.667V201H415.667Z" stroke="#1E1E1E"/>
    <path d="M534.667 10H427.667V20H534.667V10Z" stroke="#1E1E1E"/>
    <path d="M434.917 12.5002C434.704 11.9687 433.577 12.0726 433.18 12.2711C432.06 12.8314 432.794 14.018 433.285 14.7294C433.387 14.8775 434.336 15.7469 433.833 15.8474C433.033 16.0074 432.228 15.9223 431.417 16.1252" stroke="black" stroke-linecap="round"/>
    <path d="M436.542 15.2498C436.735 15.2005 439.028 14.7327 438.597 14.0553C438.216 13.4567 436.611 13.7469 436.194 14.1803C435.672 14.7236 435.878 15.9126 436.319 16.4234C436.976 17.1825 437.763 16.9349 438.417 16.3748" stroke="black" stroke-linecap="round"/>
    <path d="M440.917 14.125C440.409 14.5865 439.737 15.7539 439.986 16.4653C440.086 16.7518 440.787 16.6466 441.014 16.625C442.302 16.5024 442.075 14.5221 441.292 14" stroke="black" stroke-linecap="round"/>
    <path d="M442.042 14.625C442.148 15.1846 442.162 16.5 443.014 16.5C443.388 16.5 444.118 16.3477 444.292 16" stroke="black" stroke-linecap="round"/>
    <path d="M445.916 14.375C445.916 15.3472 445.916 18.2639 445.916 17.2917C445.916 16.7782 445.903 16.2632 445.916 15.75C445.945 14.6215 446.373 14.25 447.416 14.25" stroke="black" stroke-linecap="round"/>
    <path d="M449.667 14.125C448.783 14.3563 447.973 15.8362 448.861 16.5625C449.213 16.8506 449.573 17.0224 450.042 16.9722C450.746 16.8967 450.971 16.3211 451.417 15.875" stroke="black" stroke-linecap="round"/>
    <path d="M452.917 12.5C452.917 13.9352 452.917 15.3704 452.917 16.8056C452.917 17.0369 453.114 16.2966 453.278 16.125C453.623 15.7634 453.96 15.6083 454.444 15.625C455.174 15.6502 455.243 16.2925 455.389 16.875C455.594 17.696 456.405 16.8459 456.792 16.625" stroke="black" stroke-linecap="round"/>
    <path d="M554.667 10H540.667V20H554.667V10Z" stroke="#1E1E1E"/>
    <path d="M540.667 10L554.667 20" stroke="#1E1E1E"/>
    <path d="M554.667 10L540.667 20" stroke="#1E1E1E"/>
    <path d="M557.667 54H543.667V64H557.667V54Z" stroke="#1E1E1E"/>
    <path d="M543.667 54L557.667 64" stroke="#1E1E1E"/>
    <path d="M557.667 54L543.667 64" stroke="#1E1E1E"/>
    <path d="M436.667 177H422.667V187H436.667V177Z" stroke="#1E1E1E"/>
    <path d="M422.667 177L436.667 187" stroke="#1E1E1E"/>
    <path d="M436.667 177L422.667 187" stroke="#1E1E1E"/>
    <path d="M498.667 177H442.667V187H498.667V177Z" stroke="#1E1E1E"/>
    <path d="M559.667 177H503.667V187H559.667V177Z" stroke="#1E1E1E"/>
    <path d="M559.667 85H422.667V128H559.667V85Z" stroke="#1E1E1E"/>
    <path d="M422.667 85L559.667 128" stroke="#1E1E1E"/>
    <path d="M559.667 85L422.667 128" stroke="#1E1E1E"/>
    <path d="M441.667 54H422.667V72H441.667V54Z" stroke="#1E1E1E"/>
    <path d="M422.667 54L441.667 72" stroke="#1E1E1E"/>
    <path d="M441.667 54L422.667 72" stroke="#1E1E1E"/>
    <path d="M415.667 47L565.666 47" stroke="#1E1E1E"/>
    <path d="M449.885 54.25C449.871 56.2598 449.262 58.5115 450.142 60.3889C450.751 61.6879 451.099 62.5364 452.635 61.7917C454.711 60.7845 454.285 57.9895 454.51 56.0833C454.628 55.0823 454.885 54.0066 454.885 53" stroke="black" stroke-width="2" stroke-linecap="round"/>
    <path d="M458.01 56.375C457.101 57.0823 458.575 58.4124 459.052 58.7639C459.673 59.2225 460.663 59.5224 460.732 60.4028C460.842 61.7912 458.774 61.375 457.885 61.375" stroke="black" stroke-width="2" stroke-linecap="round"/>
    <path d="M465.26 58.375C465.697 58.1319 467.06 57.6404 467.114 56.9931C467.132 56.7742 467.045 56.375 466.76 56.375C464.977 56.375 464.928 58.3634 464.857 59.5833C464.814 60.3288 464.537 61.3483 465.593 61.375C466.538 61.3989 466.964 61.3525 467.51 60.625" stroke="black" stroke-width="2" stroke-linecap="round"/>
    <path d="M470.885 56.375C470.885 57.7176 470.885 59.0602 470.885 60.4028C470.885 60.8657 470.891 61.3287 470.885 61.7917C470.885 61.7975 470.886 61.9471 470.857 61.9722C470.698 62.1111 470.762 61.5581 470.76 61.3472C470.752 60.5421 470.72 59.7057 470.906 58.9167C471.039 58.3504 471.536 57.3066 472.1 57.0139C472.66 56.7238 473.42 56.9018 474.01 57" stroke="black" stroke-width="2" stroke-linecap="round"/>
    <path d="M482.885 56.75C482.885 58.1435 482.885 59.537 482.885 60.9305C482.885 61.4653 483.141 59.8896 483.329 59.3888C483.606 58.6519 484.051 56.6138 484.996 56.3958C485.601 56.2562 486.193 56.7741 486.544 57.1944C487.44 58.2651 487.23 59.6166 487.142 60.9027C487.068 61.9684 489.717 59.7927 490.01 59.5" stroke="black" stroke-width="2" stroke-linecap="round"/>
    <path d="M495.01 56.2499C494.536 56.9818 494.448 58.3789 494.44 59.236C494.436 59.714 494.732 60.1533 495.038 60.4999C495.744 61.3002 497.224 60.7655 497.642 59.9027C498.033 59.0964 498.485 57.8421 498.184 56.9374C497.824 55.858 496.658 56.1249 495.76 56.1249" stroke="black" stroke-width="2" stroke-linecap="round"/>
    <path d="M499.635 56.625C499.715 57.745 499.386 60.3611 501.024 60.3611C501.879 60.3611 503.055 60.1538 503.76 59.625" stroke="black" stroke-width="2" stroke-linecap="round"/>
    <path d="M507.01 56.375C507.301 57.5694 507.385 58.8937 507.385 60.125C507.385 60.2203 507.385 60.4335 507.385 60.1944C507.385 59.494 507.362 58.7898 507.399 58.0902C507.475 56.6257 509.05 55.357 510.551 55.9236C511.891 56.4291 511.276 58.671 511.69 59.7638C511.816 60.0965 511.891 59.8489 511.961 59.6388C512.169 59.0146 512.334 58.3649 512.565 57.75C512.783 57.1714 514.155 55.2566 514.94 56.0416C516.131 57.2323 515.84 58.6787 515.663 60.1944C515.629 60.485 515.55 60.7521 515.919 60.6041C516.769 60.2641 517.633 60.0155 518.51 59.75" stroke="black" stroke-width="2" stroke-linecap="round"/>
    <path d="M521.385 57.7498C522.003 57.5137 523.447 57.2458 523.801 56.5693C523.851 56.4736 523.984 56.0261 523.829 55.9581C522.88 55.5431 521.382 57.0756 521.19 57.9026C520.532 60.7442 523.917 60.8748 525.885 60.8748" stroke="black" stroke-width="2" stroke-linecap="round"/>
    <path d="M451.26 68.1249C451.132 69.7824 450.911 71.429 450.774 73.0832C450.717 73.7646 450.569 73.8628 450.524 73.0416C450.438 71.5081 451.066 67.6354 453.162 67.3888C454.765 67.2003 457.044 69.1283 457.01 70.7916C456.992 71.6588 456.695 73.0493 456.01 73.6527C455.348 74.2355 453.585 73.8749 452.76 73.8749" stroke="black" stroke-linecap="round"/>
    <path d="M459.01 72.3748C459.83 71.9334 461.605 71.0498 461.982 70.0137C462.324 69.0732 460.607 69.4029 460.274 69.9026C459.94 70.4026 458.634 72.6721 459.176 73.1804C460.369 74.2985 462.781 74.6177 464.26 74.1248" stroke="black" stroke-linecap="round"/>
    <path d="M467.76 65.875C467.484 67.2325 464.644 77.4021 468.76 72.875" stroke="black" stroke-linecap="round"/>
    <path d="M464.51 70.875C466.417 70.875 468.399 71.0902 470.26 70.625" stroke="black" stroke-linecap="round"/>
    <path d="M472.51 69.625C472.436 70.0571 471.471 73.6242 472.288 73.8194C473.177 74.0321 474.609 73.5854 475.065 72.7639C475.498 71.9855 476.162 68.625 474.76 68.625" stroke="black" stroke-linecap="round"/>
    <path d="M475.51 70.125C475.578 70.8242 475.323 73.8092 476.288 74.2083C477.961 74.9009 479.21 72.8926 480.01 71.875" stroke="black" stroke-linecap="round"/>
    <path d="M482.01 69.125C482.01 70.6221 481.885 71.7228 481.538 73.1111C481.372 73.7718 481.35 73.3277 481.26 72.875" stroke="black" stroke-linecap="round"/>
    <path d="M481.51 67.875C482.171 67.5445 482.295 67.1946 482.01 66.625" stroke="black" stroke-linecap="round"/>
    <path d="M489.51 64.125C487.609 67.5199 485.855 70.8229 485.01 74.625" stroke="black" stroke-linecap="round"/>
    <path d="M493.26 68.125C491.442 69.3836 491.262 70.1414 492.135 72.2222C492.224 72.4344 492.964 73.5086 492.704 73.7361C492.197 74.1798 490.661 73.875 490.01 73.875" stroke="black" stroke-linecap="round"/>
    <path d="M424.667 134V141" stroke="black" stroke-linecap="round"/>
    <path d="M425.167 134.5C425.956 134.5 426.544 134.006 426.917 134.75" stroke="black" stroke-linecap="round"/>
    <path d="M424.667 137C425.319 137.261 425.976 137.25 426.667 137.25" stroke="black" stroke-linecap="round"/>
    <path d="M429.166 136.5C428.667 137.3 428.15 138.899 428.458 139.875C428.831 141.056 430.671 140.444 430.861 139.444C431.033 138.537 430.994 137.447 430.278 136.778C429.606 136.151 428.916 136.445 428.916 137.25" stroke="black" stroke-linecap="round"/>
    <path d="M431.417 137.5C431.417 138.285 431.051 140.123 432.181 140.236C433.159 140.334 434.141 140.082 434.917 139.5" stroke="black" stroke-linecap="round"/>
    <path d="M437.417 137C437.324 138.198 436.917 139.381 436.917 140.583C436.917 141.307 437.334 139.197 437.528 138.5C438.071 136.544 440.292 135.291 440.403 138.111C440.555 141.997 442.45 136.71 444.153 137.278C444.738 137.473 444.641 139.21 444.722 139.694C444.962 141.137 445.993 140.024 446.667 139.5" stroke="black" stroke-linecap="round"/>
    <path d="M448.917 136.5V140.25" stroke="black" stroke-linecap="round"/>
    <path d="M452.417 132.75C452.362 135.265 451.89 137.61 451.528 140.083C451.364 141.201 451.387 141.685 452.167 140.75" stroke="black" stroke-linecap="round"/>
    <path d="M454.917 137.5C455.281 138.982 455.504 140.484 456.903 138.736C457.129 138.453 457.403 137.416 457.417 137.778C457.452 138.724 457.417 139.678 457.417 140.625C457.417 142.329 457.659 144.486 456.917 146.083C456.549 146.874 454.678 143.892 454.417 143.5" stroke="black" stroke-linecap="round"/>
    <path d="M465.167 138.5C465.153 140.625 465.255 142.833 464.93 144.944C464.76 146.052 465.167 142.714 465.361 141.611C465.577 140.382 465.53 136.138 467.111 135.611C467.986 135.319 470.141 137.702 469.389 138.611C468.672 139.478 467.607 140.5 466.417 140.5" stroke="black" stroke-linecap="round"/>
    <path d="M471.916 136C471.916 137.26 471.772 138.567 472.166 139.75" stroke="black" stroke-linecap="round"/>
    <path d="M476.416 136.25C475.26 137.002 474.336 138.719 475.18 140.056C475.436 140.46 476.044 140.472 476.458 140.472C477.818 140.472 477.86 140.02 478.416 139" stroke="black" stroke-linecap="round"/>
    <path d="M481.167 136C480.476 137.152 480.245 141.228 480.82 140.014C481.344 138.906 481.957 137.43 483.264 137.028C484.946 136.51 483.696 140.648 485.028 140.833C486.096 140.982 486.979 139.092 487.514 138.431C488.211 137.57 488.167 137.513 488.167 138.681C488.167 139.519 488.167 142.032 488.167 141.194C488.167 140.63 488.167 140.065 488.167 139.5" stroke="black" stroke-linecap="round"/>
    <path d="M491.667 137C490.282 136.43 490.49 138.978 490.972 139.639C492.118 141.209 494.206 139.566 494.917 138.5" stroke="black" stroke-linecap="round"/>
    <path d="M425.416 148C425.416 150.926 425.416 153.852 425.416 156.778C425.416 158.136 425.414 155.641 425.416 155.472C425.443 153.706 425.486 151.627 426.277 150C426.463 149.619 427.444 148.23 428.069 148.597C429.39 149.374 431.081 152.394 430.125 153.889C429.206 155.324 428.58 156.225 426.916 155.75" stroke="black" stroke-linecap="round"/>
    <path d="M433.916 154C434.111 153.805 435.999 152.123 435.68 151.903C434.904 151.365 432.85 151.859 432.319 152.625C431.922 153.199 432.158 154.585 432.472 155.139C433.324 156.644 436.647 155.856 437.916 155.75" stroke="black" stroke-linecap="round"/>
    <path d="M442.667 150.75C442.352 152.44 442.955 153.353 443.292 154.903C443.652 156.563 442.163 156.75 440.917 156.75" stroke="black" stroke-linecap="round"/>
    <path d="M448.667 151C447.179 152.275 445.409 156.315 448.917 155" stroke="black" stroke-linecap="round"/>
    <path d="M452.667 151.75C452.814 153.21 452.917 154.657 452.917 156.125C452.917 156.989 452.917 155.064 452.917 154.986C452.917 153.481 453.113 151.5 454.917 151.5" stroke="black" stroke-linecap="round"/>
    <path d="M458.917 151.5V156" stroke="black" stroke-linecap="round"/>
    <path d="M462.916 152.5C462.379 155.839 461.916 159.069 461.916 162.444C461.916 163.585 461.753 160.168 461.722 159.028C461.659 156.741 461.506 154.255 463.333 152.583C464.012 151.961 466.5 149.769 466.916 151.528C467.009 151.919 467.586 153.673 467.111 153.944C466.778 154.135 466.061 154.137 465.666 154.25" stroke="black" stroke-linecap="round"/>
    <path d="M470.667 146C470.753 148.222 470.848 150.444 470.903 152.667C470.911 153.012 470.819 153.723 470.93 154.111C471.155 154.898 471.874 153.586 471.917 153.5" stroke="black" stroke-linecap="round"/>
    <path d="M471.167 151.25H473.417" stroke="black" stroke-linecap="round"/>
    <path d="M475.917 149.5C476.454 151.298 476.917 152.891 476.917 154.75" stroke="black" stroke-linecap="round"/>
    <path d="M479.417 150.75C479.431 151.379 479.872 154.677 481.278 153.583C483.55 151.816 481.992 150.377 479.917 150" stroke="black" stroke-linecap="round"/>
    <path d="M484.916 150.75C484.916 151.136 484.904 154.4 484.916 153.778C484.943 152.388 485.05 149.978 486.653 149.417C488.641 148.721 487.282 152.872 488.416 153.25" stroke="black" stroke-linecap="round"/>
    <path d="M495.917 149.5C495.931 150.943 495.558 154.3 498.028 153.333C500.095 152.524 500.228 150.574 498.917 149" stroke="black" stroke-linecap="round"/>
    <path d="M502.917 152.5C502.917 151.719 501.933 143.928 503.917 145.25" stroke="black" stroke-linecap="round"/>
    <path d="M500.667 149H504.917" stroke="black" stroke-linecap="round"/>
    <path d="M510.917 145.5C510.917 146.707 510.164 151.309 511.278 152.264C512.14 153.003 512.171 152.83 513.167 152" stroke="black" stroke-linecap="round"/>
    <path d="M509.167 150.5C510.437 150.309 511.664 150 512.917 149.75" stroke="black" stroke-linecap="round"/>
    <path d="M514.916 145.25C514.916 147.397 514.867 149.548 514.916 151.694C514.955 153.404 515.404 150.902 515.555 150.528C516.038 149.334 516.747 148.864 517.625 150.125C518.036 150.716 517.667 151.857 518.416 152.194C519.756 152.797 522.005 149.595 520.652 149.764C519.676 149.886 519.416 150.436 519.416 151.347C519.416 152.463 520.678 151.934 521.416 151.75" stroke="black" stroke-linecap="round"/>
    <path d="M531.917 149.75C532.415 149.224 533.05 148.548 532.917 147.75C532.815 147.142 530.704 147.998 530.43 148.305C529.746 149.075 529.731 150.984 529.944 151.944C530.158 152.908 534.287 151.46 534.917 151.25" stroke="black" stroke-linecap="round"/>
    <path d="M535.917 148C536.069 148.434 537.333 154.28 538.069 152.694C538.425 151.929 538.879 151.255 538.917 150.389C538.944 149.764 538.82 149.27 539.167 148.75" stroke="black" stroke-linecap="round"/>
    <path d="M542.166 150.75C542.186 150.241 542.847 149.167 542.166 149.264C541.118 149.414 541.406 151.292 541.416 152C541.443 153.808 543.278 152.711 544.278 152.125C544.89 151.766 545.297 151.395 545.472 150.694C545.487 150.636 545.705 149.695 545.791 149.833C546.115 150.352 545.697 153.195 546.305 151.167C546.555 150.336 547.063 148.162 548.291 148.292C549.456 148.414 549.144 150.707 549.166 151.472C549.232 153.72 550.747 151.788 551.666 151" stroke="black" stroke-linecap="round"/>
    <path d="M552.917 143C553.27 145.278 552.99 147.926 553.667 150.125C553.993 151.187 555.335 150.686 555.917 150.25" stroke="black" stroke-linecap="round"/>
    <path d="M551.917 147.75C552.9 147.75 554.079 147.581 554.917 148" stroke="black" stroke-linecap="round"/>
    <path d="M426.667 162.75C426.173 164.635 425.585 166.335 424.597 168.014C424.353 168.428 424.105 168.81 423.917 169.25" stroke="black" stroke-linecap="round"/>
    <path d="M427.417 163.25C427.567 165.165 427.667 167.079 427.667 169" stroke="black" stroke-linecap="round"/>
    <path d="M424.792 166.875C426.196 166.875 427.541 166.79 428.917 166.5" stroke="black" stroke-linecap="round"/>
    <path d="M431.792 163.625C431.792 164.916 431.438 166.063 431.305 167.326C431.215 168.182 431.2 167.414 430.583 167.208C429.607 166.883 429.095 167.661 429.194 168.542C429.356 169.978 431.539 168.846 432.292 168.625" stroke="black" stroke-linecap="round"/>
    <path d="M436.041 163.25C435.942 164.586 435.817 165.924 435.791 167.264C435.79 167.359 435.868 167.746 435.764 167.5C435.398 166.637 434.638 166.773 434.111 167.306C433.654 167.768 432.546 169.001 433.833 169.097C434.897 169.177 435.858 168.943 436.666 168.25" stroke="black" stroke-linecap="round"/>
    <path d="M439.291 165.75C439.291 166.514 439.35 167.311 439.236 168.069C439.146 168.67 439.013 167.41 439.069 167.188C439.213 166.624 439.545 165.78 440.166 165.625" stroke="black" stroke-linecap="round"/>
    <path d="M441.791 167.375C442.205 167.027 443.241 166.452 443.166 165.778C443.102 165.203 442.141 165.815 441.993 165.979C441.504 166.52 441.285 167.503 441.937 168.021C442.78 168.69 444.398 168.06 445.291 167.875" stroke="black" stroke-linecap="round"/>
    <path d="M448.292 165.25C447.251 165.25 447.392 166.867 447.917 167.444C448.125 167.674 448.567 167.743 448.333 168.125C448.119 168.476 447.663 168.563 447.292 168.625" stroke="black" stroke-linecap="round"/>
    <path d="M450.792 164.25C450.944 165.043 451.625 165.482 451.778 166.243C451.943 167.071 451.066 167.291 450.542 167.75" stroke="black" stroke-linecap="round"/>
    <path d="M422.917 171.875H451.292" stroke="black" stroke-linecap="round"/>
    <path d="M541.292 132.375C540.983 133.839 541.854 135.894 541.069 137.222C540.502 138.182 539.398 137.625 538.542 137.625" stroke="black" stroke-linecap="round"/>
    <path d="M542.667 134.75C542.687 135.286 542.557 137.74 543.507 137.424C544.243 137.178 544.543 136.741 544.667 136" stroke="black" stroke-linecap="round"/>
    <path d="M545.167 134.75C545.347 134.976 545.776 136.865 545.944 136.792C546.587 136.509 546.201 135.273 547.104 135.139C548.051 134.999 547.792 136.329 547.792 136.924C547.792 136.968 547.746 138.045 547.93 137.979C548.145 137.902 548.528 137.083 548.667 136.875" stroke="black" stroke-linecap="round"/>
    <path d="M553.042 134.25C552.944 135.242 552.792 136.251 552.792 137.25" stroke="black" stroke-linecap="round"/>
    <path d="M555.167 134C555.126 134.286 555.045 134.998 554.792 135.125" stroke="black" stroke-linecap="round"/>
    <path d="M555.167 134C555.304 134.018 557.496 134.061 557.264 134.5C557.21 134.601 557.098 134.617 557.014 134.681C556.776 134.861 556.739 135.208 556.653 135.472C556.395 136.264 556.042 137.277 556.042 138.125" stroke="black" stroke-linecap="round"/>
    <path d="M554.667 136.625H557.792" stroke="black" stroke-linecap="round"/>
    <path d="M447.417 179.625V184.25" stroke="black" stroke-linecap="round"/>
    <path d="M449.292 182C449.341 182.416 449.41 184.208 449.861 182.931C450.053 182.387 450.104 182.214 450.736 182.25C451.286 182.281 451.331 183.487 451.389 183.861C451.479 184.443 452.387 184.206 452.792 184.125" stroke="black" stroke-linecap="round"/>
    <path d="M455.667 179.5C455.636 180.751 455.417 181.976 455.417 183.229C455.417 183.8 456.501 183.359 456.792 183.25" stroke="black" stroke-linecap="round"/>
    <path d="M453.917 181.875C454.832 181.93 455.749 182 456.667 182" stroke="black" stroke-linecap="round"/>
    <path d="M459.167 181.625C459.167 182.102 458.883 183.428 459.181 183.056C459.324 182.876 459.352 182.397 459.444 182.181C459.607 181.8 459.841 181.468 460.097 181.146C460.871 180.173 461.137 180.783 461.792 181.625" stroke="black" stroke-linecap="round"/>
    <path d="M463.416 182.5C463.61 182.112 464.195 181.9 464.291 181.472C464.426 180.876 463.525 181.27 463.312 181.396C462.738 181.735 462.613 182.127 462.798 182.743C463.05 183.583 463.797 183.375 464.541 183.375" stroke="black" stroke-linecap="round"/>
    <path d="M467.667 181C466.643 181.853 467.933 182.46 468.514 182.875C469.247 183.399 467.222 184.064 466.917 184.125" stroke="black" stroke-linecap="round"/>
    <path d="M472.416 179.75C472.416 180.56 472.421 181.371 472.389 182.181C472.372 182.587 472.223 183.128 472.298 183.542C472.33 183.715 473.026 183.625 473.166 183.625" stroke="black" stroke-linecap="round"/>
    <path d="M470.292 182C471.867 182.239 473.157 182.461 474.667 182.125" stroke="black" stroke-linecap="round"/>
    <path d="M476.417 182.625C477.322 182.353 477.244 180.87 476.305 182.479C476.141 182.76 476.131 183.412 476.5 183.569C477.256 183.891 478.074 183.395 478.667 183" stroke="black" stroke-linecap="round"/>
    <path d="M481.791 179.75C481.791 180.95 481.883 184.547 481.916 183.347C481.938 182.567 481.248 182.561 480.805 183.188C480.606 183.47 480.288 183.941 480.444 184.312C480.751 185.041 482.724 184.581 483.291 184.375" stroke="black" stroke-linecap="round"/>
    <path d="M510.292 180.25C510.292 181.5 510.292 185.25 510.292 184C510.292 182.457 510.695 180.739 512.521 180.632C513.415 180.579 514.696 182.749 514.403 183.556C514.293 183.856 513.351 184.032 513.083 184.174C512.771 184.339 512.634 184.375 512.292 184.375" stroke="black" stroke-linecap="round"/>
    <path d="M517.042 181.875C517.042 182.085 517.005 184.339 516.917 184.25" stroke="black" stroke-linecap="round"/>
    <path d="M520.292 181.75C520.236 182.323 520.167 182.896 520.167 183.472C520.167 183.813 520.072 182.789 520.118 182.451C520.25 181.478 521.196 181.39 521.917 181.75" stroke="black" stroke-linecap="round"/>
    <path d="M523.667 183C524.363 182.647 525.037 182.363 525.389 181.625C525.65 181.076 524.134 181.812 524.069 181.847C523.186 182.33 523.03 183.11 523.944 183.764C524.734 184.329 525.907 184.147 526.792 184" stroke="black" stroke-linecap="round"/>
    <path d="M529.792 181.75C529.528 182.088 528.127 183.474 529.208 183.799C530.314 184.13 531.73 183.76 532.292 182.75" stroke="black" stroke-linecap="round"/>
    <path d="M533.667 179.25C533.673 180.528 533.571 181.89 533.792 183.16C533.832 183.394 534.024 183.501 534.194 183.653C534.945 184.32 535.33 183.741 535.792 183.125" stroke="black" stroke-linecap="round"/>
    <path d="M532.042 182.125C533.136 181.921 534.186 181.875 535.292 181.875" stroke="black" stroke-linecap="round"/>
    <path d="M538.292 181.75V184.125" stroke="black" stroke-linecap="round"/>
    <path d="M541.292 182.25C541.083 182.783 540.707 184.974 541.917 184.229C542.556 183.836 543.026 183.146 542.542 182.5" stroke="black" stroke-linecap="round"/>
    <path d="M544.792 181.75C544.862 182.313 545.047 184.528 545.639 183.139C545.951 182.405 545.906 181.472 546.875 181.708C547.936 181.968 548.042 182.624 548.042 183.604C548.042 184.469 548.108 184.455 548.792 184" stroke="black" stroke-linecap="round"/>
    <path d="M623 201V1H773V201H623Z" stroke="#1E1E1E"/>
    <path d="M695 106H644V116H695V106Z" stroke="#1E1E1E"/>
    <path d="M752 106H701V116H752V106Z" stroke="#1E1E1E"/>
    <path d="M635 123V60H761V123H635Z" stroke="#1E1E1E"/>
    <path d="M668.5 64C668.646 66.1386 669.042 68.4688 668.5 70.5833C668.279 71.4438 668.309 73.2149 667.347 73.6111C666.542 73.9429 664 74.3015 664 73.25" stroke="black" stroke-width="2" stroke-linecap="round"/>
    <path d="M672 68.5C672 69.7068 671.381 73.2534 673.139 73.7222C674.997 74.2177 674.946 69.7319 675 68.75" stroke="black" stroke-width="2" stroke-linecap="round"/>
    <path d="M678.75 68C678.666 69.3952 679.092 73.4084 678 74.5" stroke="black" stroke-width="2" stroke-linecap="round"/>
    <path d="M682.75 69.25C682.885 70.9411 682.831 76.0214 683 74.3333C683.18 72.5342 684.014 71.4409 685.583 70.5556C687.128 69.6841 687.283 70.9684 687.444 72.3333C687.571 73.4058 687.373 73.5 688.5 73.5" stroke="black" stroke-width="2" stroke-linecap="round"/>
    <path d="M699.5 70.4998C700.185 70.2919 702.749 69.9294 703 68.9442C703.106 68.528 702.773 67.7061 702.361 67.5414C700.803 66.9182 699.185 68.1297 698.861 69.6109C698.669 70.4916 698.392 72.7074 699.278 73.347C700.538 74.2574 702.403 73.1854 703.5 72.4998" stroke="black" stroke-width="2" stroke-linecap="round"/>
    <path d="M706 68C706.255 68.5656 707.822 73.6213 708.389 72.6944C709.406 71.0295 710.034 69.3302 711.25 67.75" stroke="black" stroke-width="2" stroke-linecap="round"/>
    <path d="M716.5 69.9999C716.203 67.0287 714.188 68.4133 713.167 70.3888C711.521 73.5702 715.009 73.6945 717 72.4999" stroke="black" stroke-width="2" stroke-linecap="round"/>
    <path d="M721 68.5C721 69.7946 720.968 71.0944 721 72.3889C721.006 72.6334 721.252 71.9688 721.361 71.75C721.541 71.3907 722.712 68.71 723.222 68.9722C724.481 69.6198 724.786 71.8165 725.055 73.0278C725.264 73.968 725.932 72.8183 726.25 72.5" stroke="black" stroke-width="2" stroke-linecap="round"/>
    <path d="M733.5 64C733.5 66.7568 733.328 69.5799 733.5 72.3333C733.556 73.2342 735.09 72.4551 735.5 72.25" stroke="black" stroke-width="2" stroke-linecap="round"/>
    <path d="M730 69.5C732.118 69.1077 734.328 68.5 736.5 68.5" stroke="black" stroke-width="2" stroke-linecap="round"/>
    <path d="M651.091 83.498C649.313 83.8725 647.107 85.9269 648.376 87.873C649.242 89.2009 650.671 88.8757 651.841 88.123" stroke="black" stroke-linecap="round"/>
    <path d="M653.841 85.623C653.797 85.9162 653.268 87.7067 653.716 87.9703C654.074 88.181 654.532 87.6185 654.66 87.373C654.875 86.9626 654.858 86.4761 654.841 86.0258C654.828 85.6844 654.144 85.9585 653.966 85.998" stroke="black" stroke-linecap="round"/>
    <path d="M656.591 85.498C656.557 86.2972 656.269 88.6814 656.362 87.8869C656.457 87.0799 657.675 86.2702 658.341 85.9286C659.414 85.3784 658.143 88.3976 659.341 87.998" stroke="black" stroke-linecap="round"/>
    <path d="M660.841 88.373C660.855 86.266 661.006 84.3817 662.091 82.5258C662.355 82.0744 662.977 81.6863 663.091 82.373" stroke="black" stroke-linecap="round"/>
    <path d="M660.341 84.998H662.716" stroke="black" stroke-linecap="round"/>
    <path d="M664.216 84.998C664.153 85.7824 664.31 87.2949 663.841 87.998" stroke="black" stroke-linecap="round"/>
    <path d="M666.967 85.623C666.844 86.4072 666.72 87.1909 666.612 87.9772C666.562 88.3448 666.592 88.0058 666.592 87.9425C666.592 87.1732 666.736 86.5364 667.217 85.9078C667.568 85.4483 668.163 85.248 668.717 85.248" stroke="black" stroke-linecap="round"/>
    <path d="M670.216 85.498C669.592 86.0187 669.827 87.5 669.841 88.248C669.853 88.8732 670.551 87.3365 670.598 87.248C670.857 86.7606 671.298 85.8414 671.897 85.6508C672.381 85.4967 672.663 87.0207 672.696 87.2758C672.796 88.0616 672.835 87.6027 673.223 87.1369C673.305 87.0384 674.183 86.1338 674.314 86.6092C674.415 86.9783 674.095 88.263 674.432 88.4703C674.934 88.7795 675.911 88.1865 676.341 87.998" stroke="black" stroke-linecap="round"/>
    <path d="M678.841 85.873C678.684 86.4548 678.32 87.3452 678.737 87.9078C678.905 88.1343 679.354 88.3703 679.591 88.1092C680.137 87.509 680.341 86.7768 680.341 85.998" stroke="black" stroke-linecap="round"/>
    <path d="M680.216 85.498H679.966" stroke="black" stroke-linecap="round"/>
    <path d="M680.966 85.873C680.805 86.1957 680.724 87.8667 681.216 87.9703C681.919 88.1183 682.654 87.3099 683.091 86.873" stroke="black" stroke-linecap="round"/>
    <path d="M687.341 82.498C687.057 84.2691 686.825 86.115 686.966 87.9147C686.995 88.2766 687.458 88.4564 687.772 88.4564C688.288 88.4564 688.339 88.129 688.466 87.748" stroke="black" stroke-linecap="round"/>
    <path d="M685.716 85.873H688.591" stroke="black" stroke-linecap="round"/>
    <path d="M690.341 85.123C690.339 85.414 690.111 88.1429 690.091 88.123" stroke="black" stroke-linecap="round"/>
    <path d="M693.717 85.498C693.059 85.8738 692.921 87.0542 693.161 87.7064C693.303 88.0924 693.677 88.0149 694.022 87.998C695.43 87.9294 694.861 86.2863 694.467 85.498" stroke="black" stroke-linecap="round"/>
    <path d="M696.841 85.748C696.838 85.811 696.819 87.3808 696.841 87.3453C697.096 86.9342 697.286 86.5669 697.64 86.2133C697.852 86.0016 698.566 85.5926 698.591 86.2064C698.607 86.5924 698.345 88.2775 698.779 88.4703C698.967 88.5541 700.377 87.2758 700.591 87.123" stroke="black" stroke-linecap="round"/>
    <path d="M712.341 84.623C711.963 85.6389 711.841 86.5004 711.841 87.5675C711.841 87.7419 712.494 86.5063 712.633 86.2619C712.909 85.7775 713.188 85.3965 713.786 85.373C714.461 85.3466 714.216 86.0101 714.216 86.5536C714.216 86.9471 713.998 88.0616 714.216 87.7342C714.435 87.4055 714.496 87.0089 714.772 86.6786C714.998 86.4082 716.271 85.0075 716.689 85.5258C717.056 85.9819 716.827 87.0121 716.841 87.5675C716.86 88.2675 718.822 87.2307 719.091 87.123" stroke="black" stroke-linecap="round"/>
    <path d="M720.966 85.9979C721.385 85.9885 722.606 86.1758 722.438 85.4424C722.241 84.5776 721.57 84.956 720.925 85.4146C719.687 86.2935 720.018 87.4541 721.55 87.5952C722.905 87.72 724.209 87.4695 725.466 86.9979" stroke="black" stroke-linecap="round"/>
    <path d="M728.091 84.998C727.177 85.1187 725.805 85.5414 727.091 86.4703C727.326 86.6399 728.26 86.8576 728.314 87.1786C728.429 87.8698 725.618 88.6572 727.341 87.623" stroke="black" stroke-linecap="round"/>
    <path d="M731.341 84.998C729.715 85.0377 731.502 86.2516 731.327 87.0814C731.21 87.6386 729.62 89.4874 729.341 88.373" stroke="black" stroke-linecap="round"/>
    <path d="M733.841 85.748C733.922 87.1926 734.324 88.6689 736.119 88.2203C736.682 88.0794 736.608 87.2432 736.536 86.8175C736.402 86.0295 736.065 85.7546 735.341 85.623" stroke="black" stroke-linecap="round"/>
    <path d="M734.841 85.623L734.341 85.748" stroke="black" stroke-linecap="round"/>
    <path d="M736.341 86.123C736.592 86.6595 737.055 88.2203 737.883 88.2203C738.694 88.2203 739.3 87.8518 739.591 87.123" stroke="black" stroke-linecap="round"/>
    <path d="M740.591 85.998C740.561 86.3292 740.382 87.099 740.799 87.2967C741.251 87.5104 742.073 87.4002 742.543 87.3036C743.087 87.1915 742.841 85.9521 742.841 85.498" stroke="black" stroke-linecap="round"/>
    <path d="M743.341 85.873C743.256 87.0622 743.044 88.2623 743.147 89.4564C743.194 89.9963 743.614 91.2078 743.314 91.7342C743.09 92.1251 741.422 91.873 741.036 91.873C740.503 91.873 740.341 91.9084 740.341 91.373" stroke="black" stroke-linecap="round"/>
    <path d="M745.967 86.6232C746.64 86.3538 747.672 85.7669 747.585 84.9357C747.497 84.1047 746.091 85.0471 745.897 85.401C745.073 86.9099 746.845 88.7646 748.342 88.1232" stroke="black" stroke-linecap="round"/>
    <path d="M650.75 108.5C649.363 108.622 647.493 110.473 647.958 111.951C648.143 112.539 648.51 113.486 649.215 113.486C649.98 113.486 650.951 113.123 651.25 112.375" stroke="black" stroke-linecap="round"/>
    <path d="M653.375 110.375C653.297 110.805 652.582 112.851 653.187 113.188C653.907 113.587 654.853 112.797 655.049 112.146C655.189 111.678 655.113 111.255 654.806 110.875C654.509 110.508 654.291 110.652 653.75 110.75" stroke="black" stroke-linecap="round"/>
    <path d="M655.25 111C655.26 111.593 655.468 112.713 656.153 112.972C656.97 113.282 657.755 112.495 658.25 112" stroke="black" stroke-linecap="round"/>
    <path d="M659.875 110.5C659.948 111.218 660 111.931 660 112.653C660 112.678 659.972 113.208 660.056 113.167C660.303 113.043 660.321 112.511 660.403 112.299C660.625 111.719 660.94 111.429 661.514 111.25C662.583 110.916 662.75 111.393 662.75 112.403C662.75 113.4 664.089 112.605 664.625 112.375" stroke="black" stroke-linecap="round"/>
    <path d="M668.875 110.375C668.14 110.98 667.625 112.156 667.625 113.097C667.625 113.995 668.978 113.063 669.375 112.875" stroke="black" stroke-linecap="round"/>
    <path d="M671.625 112.125C671.869 111.851 672.097 111.514 671.986 111.125C671.871 110.721 671.399 110.884 671.229 111.132C671.013 111.447 670.082 112.801 670.486 113.194C671.212 113.9 672.542 113.298 673.25 113" stroke="black" stroke-linecap="round"/>
    <path d="M676.25 108.75C676.25 110.002 676.257 111.261 676.118 112.507C676.048 113.133 675.875 113.743 675.875 114.375" stroke="black" stroke-linecap="round"/>
    <path d="M717.75 108.125C717.75 109.035 717.75 109.944 717.75 110.854C717.75 111.131 717.935 112.271 717.694 112.5C717.236 112.935 715.772 112.368 715.285 112.257C715.079 112.21 714.103 112 714.125 112" stroke="black" stroke-linecap="round"/>
    <path d="M719.75 110.875C719.303 112.165 719.646 113.337 721.125 112.597C721.744 112.288 722.196 111.86 722.319 111.153C722.431 110.512 721.975 110.303 721.5 110" stroke="black" stroke-linecap="round"/>
    <path d="M724.5 110.5C724.492 111.287 724.447 112.057 724.382 112.84C724.366 113.029 724.375 113.11 724.375 112.875" stroke="black" stroke-linecap="round"/>
    <path d="M728.5 110.375C728.287 111.261 728 112.177 728 113.097C728 113.621 728.262 112.909 728.319 112.771C728.595 112.101 728.704 110.763 729.681 110.875C730.425 110.96 730.069 112.49 730.132 112.993C730.219 113.69 731.599 112.888 731.875 112.75" stroke="black" stroke-linecap="round"/>
</svg>
