<svg width="775" height="293" viewBox="0 0 775 293" fill="none" xmlns="http://www.w3.org/2000/svg">
    <path d="M108.139 107L365.472 243" stroke="black"/>
    <path d="M1 26L375.484 26" stroke="black"/>
    <path d="M16.5203 39.25C15.9068 39.9979 12.7117 42.8437 12.9323 44C13.1235 45.0025 15.4561 46.1048 16.2421 46.4722C16.9799 46.8171 17.736 46.75 18.5228 46.75" stroke="black" stroke-linecap="round"/>
    <path d="M13.5165 36C11.189 36.4032 8.92106 36.8362 8.53782 39.6111C8.23972 41.7695 8.95395 43.5551 10.0259 45.375C11.4645 47.8175 13.8313 49.5 16.7429 49.5C18.535 49.5 20.9352 49.9384 22.6255 49.2222C26.0003 47.7923 25.0914 41.6215 23.2235 39.5C20.8316 36.7833 16.8632 36.5 13.5165 36.5" stroke="black" stroke-linecap="round"/>
    <path d="M40.1756 35.1252C39.3201 35.0743 38.6556 35.0601 38.0757 35.7502C37.0571 36.9622 36.2165 38.4309 35.3499 39.7502C34.6514 40.8137 34.1021 41.7315 34.0149 43.0002C33.9511 43.9268 33.7543 45.0288 34.0079 45.9446C34.3091 47.0321 35.118 48.2241 36.3373 48.3474C37.0876 48.4233 37.9072 47.6343 38.4512 47.2085C38.8431 46.9017 39.2177 46.7774 39.675 46.6252" stroke="black" stroke-linecap="round"/>
    <path d="M44.8069 42.5C43.6429 43.0812 42.4574 45.3307 42.9016 46.6319C43.3099 47.8279 44.879 47.7667 45.5579 46.8194C46.1739 45.9597 46.4821 44.4851 45.9264 43.5139C45.4486 42.6788 44.5683 42.9557 43.8056 43.125" stroke="black" stroke-linecap="round"/>
    <path d="M48.5614 42.75C48.4491 43.6189 48.2766 44.4844 48.0607 45.3333C47.9165 45.9005 47.5601 46.5591 47.5601 47.1597C47.5601 47.9654 47.9379 45.5932 48.1372 44.8125C48.4076 43.7529 49.2114 43.1111 50.2997 43.7361C51.4057 44.3712 51.4545 46.721 51.0159 47.7431C50.5234 48.8909 51.7111 45.3102 52.3718 44.25C52.8077 43.5506 53.7487 42.2504 54.1102 43.75C54.292 44.5043 54.2696 45.5099 54.1032 46.2639C54.0616 46.4528 53.4744 47.2997 53.7903 47.3194C54.5753 47.3684 55.8207 47.0696 55.8207 46.125" stroke="black" stroke-linecap="round"/>
    <path d="M58.9503 43.625C58.5725 46.4251 57.9841 49.1921 57.6013 51.9861C57.4583 53.0302 57.588 51.0872 57.6013 50.9375C57.7208 49.5956 58.1069 48.2744 58.4635 46.9792C58.7357 45.9908 59.2539 44.5274 60.1046 43.8611C60.7095 43.3873 61.5948 44.2771 61.9403 44.6667C62.512 45.3113 62.5485 45.6882 62.1141 46.4375C61.7771 47.0188 61.4371 47.4623 60.7443 47.4931C60.568 47.5009 59.532 47.6544 59.9516 47.375" stroke="black" stroke-linecap="round"/>
    <path d="M66.0842 43.625C65.4816 44.4508 64.0771 46.1002 65.208 47.1042C65.6345 47.4828 66.7759 47.1778 67.0994 46.7986C67.9561 45.7942 67.3269 43.9982 66.0842 43.75" stroke="black" stroke-linecap="round"/>
    <path d="M67.0854 44.125C68.1574 45.1527 66.9678 46.625 68.8864 46.625C69.0032 46.625 70.4479 46.4916 69.9642 46.25" stroke="black" stroke-linecap="round"/>
    <path d="M73.2183 43.875C73.2183 44.7523 73.2183 45.6296 73.2183 46.5069C73.2183 47.0902 73.2752 46.573 73.3504 46.2917C73.449 45.9224 73.675 43.8242 74.4282 44.3056C75.2609 44.8378 75.2552 45.9254 75.1235 46.7639C75.0099 47.4872 76.6379 47.1428 76.9731 46.875" stroke="black" stroke-linecap="round"/>
    <path d="M80.3527 43.375C80.2626 43.8448 79.8359 46.5953 80.6308 46.5417C81.3384 46.4939 81.8036 45.3551 82.0841 44.8472C82.3058 44.446 82.191 44.3543 82.2857 44.9167C82.436 45.8083 82.6056 46.6481 82.6056 47.5556C82.6056 48.3565 82.4098 49.0975 82.2301 49.875C82.1598 50.1791 82.0741 51.4889 81.7295 51.6528C81.0875 51.9581 79.858 51.5 79.1011 51.5" stroke="black" stroke-linecap="round"/>
    <path d="M95.4972 36.625C95.1202 38.79 95.2936 40.9403 94.7741 43.0556C94.4622 44.3254 94.3321 45.6447 93.8701 46.875" stroke="black" stroke-linecap="round"/>
    <path d="M95.8726 37.375C96.3829 39.6505 97.2015 41.8385 97.7291 44.1042C97.9061 44.8641 98.3389 46.9833 98.5566 44.9028C98.7421 43.1298 98.4361 41.3677 98.9738 39.6389C99.2034 38.9005 99.4758 38.1322 99.6274 37.375" stroke="black" stroke-linecap="round"/>
    <path d="M102.131 42.2499C101.875 42.8922 100.238 45.6249 101.95 45.6249C102.884 45.6249 103.31 44.8072 103.48 43.9582C103.597 43.3702 103.544 42.4681 102.868 42.2429C102.501 42.121 100.962 41.7054 101.129 42.3749" stroke="black" stroke-linecap="round"/>
    <path d="M104.008 42.625C104.008 43.4237 103.774 45.0874 104.516 45.7361C104.908 46.079 105.886 45.6463 105.886 45.125" stroke="black" stroke-linecap="round"/>
    <path d="M108.013 42.5C107.726 49.4288 107.731 42.0422 109.64 42.3889C110.474 42.5402 110.36 43.7649 110.384 44.3889C110.394 44.6276 110.328 44.9827 110.405 45.2153C110.465 45.3931 110.865 44.3501 110.878 44.3194C111.135 43.7369 111.571 42.625 112.366 42.625C113.123 42.625 112.845 44.345 112.769 44.7222C112.712 45.0079 112.424 45.9681 112.79 46.1736C113.293 46.4561 113.781 46.1879 114.146 45.875" stroke="black" stroke-linecap="round"/>
    <path d="M117.525 44C117.875 43.6749 119.153 42.8362 119.153 42.243C119.153 41.8667 118.892 41.8688 118.568 41.9861C117.568 42.3484 116.914 42.946 116.914 44.0208C116.914 45.0779 117.402 45.9503 118.422 46.25C119.033 46.4294 120.607 46.8604 120.78 46" stroke="black" stroke-linecap="round"/>
    <path d="M12.0142 61L12.0142 111" stroke="black" stroke-linecap="round"/>
    <path d="M21.5265 65.5C21.3544 67.6773 20.8384 69.7949 20.6573 71.9653C20.6109 72.5209 20.6011 71.702 20.5947 71.5833C20.5522 70.7913 20.6105 69.9653 20.6642 69.1736C20.7431 68.0127 21.2326 66.7046 22.5208 66.5208C24.2417 66.2753 24.8845 68.1073 24.1201 69.5069C23.8309 70.0365 23.3537 70.1156 22.8059 70.125C22.1561 70.1362 23.637 70.125 23.7655 70.125C24.7853 70.125 25.4047 70.43 25.2813 71.5694C25.1612 72.6791 20.9096 72.375 22.0271 72.375" stroke="black" stroke-linecap="round"/>
    <path d="M28.5358 68.4999C28.3139 69.7672 28.0768 71.0353 27.9169 72.3124C27.8033 73.2205 27.7388 70.4826 27.7987 69.5694C27.8408 68.928 28.0049 68.1844 28.7305 68.0277C29.1052 67.9468 29.2343 68.4882 29.2868 68.7499" stroke="black" stroke-linecap="round"/>
    <path d="M32.6659 68.2501C32.1714 69.2818 31.2893 70.668 32.5546 71.5209C33.4683 72.1369 34.4631 71.6048 34.8979 70.7362C35.5972 69.3394 35.4169 66.6018 33.4168 68.0001" stroke="black" stroke-linecap="round"/>
    <path d="M35.2943 68.25C35.2943 68.7808 35.0066 70.4919 35.3778 71C35.5324 71.2116 36.2225 71.125 36.4278 71.125C36.9878 71.125 37.7976 71.3564 37.7976 70.625" stroke="black" stroke-linecap="round"/>
    <path d="M39.5499 68.375C39.4652 69.6595 39.2433 71.0407 39.2996 72.3333C39.3219 72.8475 39.6101 71.3505 39.8072 70.875C39.8811 70.6965 40.8491 68.623 41.2535 69.4306C41.4998 69.9226 41.608 70.4844 41.6568 71.0278C41.6872 71.3669 41.5719 71.8949 41.7054 72.2222C41.9462 72.8123 43.5285 71.8186 43.8054 71.625" stroke="black" stroke-linecap="round"/>
    <path d="M48.3113 64.375C48.1119 65.7632 47.8561 67.1642 47.8107 68.5694C47.8074 68.6699 47.9264 69.4756 47.6716 69.1667C47.2445 68.6487 47.1142 68.4609 46.6842 69.2083C46.3781 69.7406 45.513 70.8341 45.8568 71.5208C46.4311 72.6679 47.4401 72.3596 48.1862 71.75" stroke="black" stroke-linecap="round"/>
    <path d="M53.8183 67.5C53.1693 67.635 52.042 67.675 52.2747 68.5833C52.454 69.2835 52.9856 69.6796 53.2343 70.3194C53.7116 71.5479 52.3945 71.582 51.5654 71.375" stroke="black" stroke-linecap="round"/>
    <path d="M21.0257 80C20.8251 82.0185 20.5061 83.9577 20.1496 85.9444C20.0402 86.554 20.0244 87.1314 20.0244 87.75" stroke="black" stroke-linecap="round"/>
    <path d="M21.6519 80.1248C22.497 80.0903 23.5762 79.8345 23.9604 80.7846C24.2088 81.3988 24.389 82.2033 24.2038 82.861C23.8725 84.0371 22.6431 84.1248 21.6519 84.1248" stroke="black" stroke-linecap="round"/>
    <path d="M21.1509 84.375C21.9014 85.3463 22.584 86.3659 23.2786 87.375" stroke="black" stroke-linecap="round"/>
    <path d="M26.9083 84.6252C27.2353 84.4798 28.1002 84.102 28.4659 83.9169C28.5808 83.8587 28.6951 83.7975 28.7997 83.7225C28.845 83.6899 28.938 83.6462 28.9109 83.5975C28.8852 83.5512 28.807 83.6279 28.7649 83.66C28.1304 84.1428 26.1213 85.7486 26.2964 86.6669C26.4373 87.4055 28.1922 87.0782 28.6606 87.0002" stroke="black" stroke-linecap="round"/>
    <path d="M32.0404 83.75C31.9015 84.353 31.897 87.0827 33.2503 86.3333C33.8778 85.9858 34.7207 85.0912 34.7731 84.3333C34.8134 83.7493 33.8079 83.4314 33.4032 83.2152C32.9624 82.9797 32.8374 83.0394 32.4158 83.25" stroke="black" stroke-linecap="round"/>
    <path d="M34.6684 83.625C34.6684 85.9566 34.4792 88.5795 33.7436 90.8056C33.5603 91.3605 32.9029 91.3568 32.4016 91.4028C32.1063 91.4299 30.0849 91.429 30.5381 90.75" stroke="black" stroke-linecap="round"/>
    <path d="M37.5464 83.375C37.2789 84.3705 36.7964 87.4058 36.7964 86.375" stroke="black" stroke-linecap="round"/>
    <path d="M38.0479 81C38.3956 81.2371 38.1729 81.0821 38.1729 81.375" stroke="black" stroke-linecap="round"/>
    <path d="M41.1768 83.2498C40.645 84.4259 39.6658 85.7035 41.2742 86.2915C42.1297 86.6042 43.1589 86.5682 43.1794 85.5137C43.1896 84.9892 43.4653 83.4024 42.7761 83.1804C42.1633 82.9829 41.4678 83.1702 41.302 83.7498" stroke="black" stroke-linecap="round"/>
    <path d="M45.3074 83.25C45.2703 83.6782 45.2329 84.1065 45.1961 84.5347C45.168 84.8611 45.1161 85.1863 45.1127 85.5139C45.1115 85.6296 45.0664 85.85 45.1822 85.8542C45.6921 85.8724 46.6658 83.7109 47.0874 83.3264C47.6303 82.8314 47.5261 85.007 47.4907 85.2292C47.4453 85.5147 47.0331 86.125 47.4768 86.125C47.8394 86.125 48.6298 86.1138 48.8119 85.75" stroke="black" stroke-linecap="round"/>
    <path d="M53.5682 82.375C53.2087 81.9134 52.4379 82.3098 52.1358 82.6389C51.4672 83.3673 53.3335 84.7106 53.7768 85.0555C54.3672 85.5148 55.0387 86.212 53.9089 86.4236C53.6055 86.4804 52.1914 86.7568 52.1914 86.25" stroke="black" stroke-linecap="round"/>
    <path d="M22.1521 95.5C21.4684 95.8414 21.0396 96.3472 20.5389 96.9097C20.2082 97.2813 19.6233 97.6111 19.4681 98.1042C18.9695 99.6885 19.2545 101.707 19.2734 103.347C19.2818 104.077 19.4154 105.417 20.372 105.368C20.8005 105.346 21.3829 105.363 21.7766 105.167C22.0711 105.02 22.2726 104.691 22.5276 104.5" stroke="black" stroke-linecap="round"/>
    <path d="M25.7822 100.375C25.3059 101.68 24.6839 103.006 24.8087 104.431C24.8882 105.338 26.0324 105.299 26.4288 104.583C26.844 103.834 27.2702 102.404 27.2702 101.535C27.2702 101.023 26.1536 101.25 25.7822 101.25" stroke="black" stroke-linecap="round"/>
    <path d="M28.4103 101.125C28.3749 101.813 28.3284 102.5 28.2851 103.188C28.2732 103.376 28.0093 104.937 28.2712 105.222C28.7181 105.709 29.3487 103.913 29.3837 103.806C29.4405 103.632 30.371 100.976 30.2599 102.181C30.1909 102.929 29.6078 105.446 30.8996 105.194C31.7832 105.022 32.1651 104.696 32.1651 103.75" stroke="black" stroke-linecap="round"/>
    <path d="M33.6673 101.125C33.7042 102.502 33.417 106.627 33.417 105.25C33.417 104.257 33.4915 103.251 33.6951 102.278C33.9699 100.964 35.263 99.2806 35.9202 101.25" stroke="black" stroke-linecap="round"/>
    <path d="M39.8001 99.625C38.9609 99.7036 38.1339 100.113 38.5832 101.062C38.8392 101.603 39.9481 102.348 39.6958 103.007C39.4423 103.669 38.3871 104.238 37.8253 104.639C37.4521 104.905 37.272 104.55 37.422 104.25" stroke="black" stroke-linecap="round"/>
    <path d="M42.3037 101.75C42.6951 101.525 44.7796 100.665 44.7513 99.9585C44.7373 99.6074 43.9194 99.9376 43.8335 99.9863C42.9877 100.465 41.7459 101.869 41.7335 102.903C41.7175 104.252 43.1634 104.532 44.1811 104.125" stroke="black" stroke-linecap="round"/>
    <path d="M53.8174 96C53.3407 98.6356 53.0674 106.678 53.0674 104" stroke="black" stroke-linecap="round"/>
    <path d="M54.0688 97C54.9336 97 55.8306 97.0405 56.2939 97.8889C56.6233 98.4919 56.5718 98.9713 56.2383 99.5556C55.6942 100.509 55.3028 100.5 54.3192 100.5" stroke="black" stroke-linecap="round"/>
    <path d="M59.0746 99.8752C58.9652 100.18 58.2731 102.114 58.1012 102.57C58.0266 102.767 57.9105 103.331 57.823 103.139C57.7304 102.936 57.8363 102.445 57.8786 102.236C58.0413 101.434 58.1445 100.263 58.8799 99.7502C59.2639 99.4825 60.5766 99.0578 60.5766 99.8752" stroke="black" stroke-linecap="round"/>
    <path d="M62.5792 99.75C62.5792 100.818 62.3665 101.831 62.3292 102.875C62.3224 103.065 62.3292 103.88 62.3292 103.25" stroke="black" stroke-linecap="round"/>
    <path d="M62.9551 96.75C62.9438 97.0087 62.9445 96.9428 62.8301 97" stroke="black" stroke-linecap="round"/>
    <path d="M66.2094 99C65.6508 99.5439 64.2184 100.545 64.3459 101.5C64.4504 102.283 65.333 102.751 66.0078 102.965C66.694 103.183 67.5336 103.226 68.212 103" stroke="black" stroke-linecap="round"/>
    <path d="M70.5898 99C70.1695 100.085 69.4634 101.302 69.4634 102.5" stroke="black" stroke-linecap="round"/>
    <path d="M71.0908 97C71.4022 97 71.5942 96.8783 71.3408 96.625" stroke="black" stroke-linecap="round"/>
    <path d="M73.8445 99C73.426 100.217 72.8383 101.504 72.5929 102.778C72.5717 102.888 72.6512 102.561 72.6764 102.451C72.8767 101.578 73.1341 100.004 74.067 99.5833C75.2267 99.0603 75.1202 101.574 74.971 102.125C74.7432 102.967 75.8167 101.974 76.0975 101.75" stroke="black" stroke-linecap="round"/>
    <path d="M80.2273 98.2502C80.0129 98.6786 78.9991 102.87 79.6919 102.952C79.9574 102.983 80.5028 102.604 80.721 102.486C81.3966 102.121 81.6861 101.567 81.8544 100.834C81.9645 100.354 82.5897 98.0695 81.7154 98.0071C81.4112 97.9854 80.7535 97.9492 80.6028 98.2502" stroke="black" stroke-linecap="round"/>
    <path d="M82.4803 98.875C81.8465 101.694 82.3572 104.644 81.9031 107.465C81.5625 109.582 79.2117 107.976 78.0996 107.5" stroke="black" stroke-linecap="round"/>
    <path d="M366.974 36H307.396V50.5H366.974V36Z" stroke="black"/>
    <path d="M316.784 40C316.299 41.9346 315.657 43.8183 315.657 45.8194C315.657 46.2874 315.848 47.2059 315.407 47.5" stroke="black" stroke-linecap="round"/>
    <path d="M316.909 40.5C317.477 42.5075 318.16 44.4144 318.16 46.5" stroke="black" stroke-linecap="round"/>
    <path d="M315.407 44.5L318.16 44.75" stroke="black" stroke-linecap="round"/>
    <path d="M321.415 40.5C321.377 40.9765 321.614 44 320.775 44C320.078 44 319.487 44.0017 319.565 44.8958C319.694 46.3724 320.888 47.4517 321.79 45.875" stroke="black" stroke-linecap="round"/>
    <path d="M324.543 40.875C324.682 42.0824 324.785 43.305 325.016 44.5C325.05 44.6776 325.07 44.6271 324.988 44.5278C324.695 44.1702 323.761 44.462 323.57 44.8056C322.812 46.1688 324.222 46.5408 325.169 46" stroke="black" stroke-linecap="round"/>
    <path d="M333.555 41.5C333.515 42.8148 333.476 44.1296 333.437 45.4444C333.429 45.7207 333.43 45.7338 333.43 45.5416C333.43 45.2504 333.428 45.0841 333.437 44.7708C333.462 43.8277 333.559 42.7646 334.139 41.9722C334.46 41.5335 335.434 40.4209 335.933 41.1527C336.253 41.6222 337.065 43.4414 336.35 43.8889C335.812 44.2262 335.084 43.7723 336.121 44.2569C336.591 44.4765 337.294 44.6855 337.157 45.3472C337 46.1041 334.89 45.75 334.369 45.75C333.955 45.75 333.415 45.9397 333.305 45.5" stroke="black" stroke-linecap="round"/>
    <path d="M339.438 43.4998C339.568 44.3439 339.675 45.1989 339.855 46.0346C339.931 46.3847 339.936 46.2013 339.939 46.0415C339.949 45.4219 339.914 44.7995 339.939 44.1804C339.978 43.1909 340.872 42.5916 341.441 43.4998" stroke="black" stroke-linecap="round"/>
    <path d="M343.443 43.5C343.224 43.9638 342.082 45.809 343.095 46.0486C343.777 46.2098 345.143 46.1246 345.39 45.3194C345.894 43.6716 344.198 43.375 342.942 43.375" stroke="black" stroke-linecap="round"/>
    <path d="M345.195 44.125C345.713 45.1823 345.885 45.5 347.045 45.5C347.432 45.5 347.896 45.5771 348.199 45.375" stroke="black" stroke-linecap="round"/>
    <path d="M349.451 43.375C349.75 44.1989 350.049 45.8714 350.674 46.5694C350.863 46.78 350.7 46.0048 350.702 45.7222C350.707 45.2152 350.987 42.9155 352.079 43.6111C352.782 44.0588 352.772 45.319 352.927 46.0417C352.99 46.3324 353.464 45.742 353.581 45.625" stroke="black" stroke-linecap="round"/>
    <path d="M357.962 40.125C358.05 41.559 358.232 43.0323 358.212 44.4722C358.207 44.8221 357.871 44.7211 357.656 44.6181C356.944 44.277 356.23 43.8027 355.667 44.75C354.384 46.9074 357.89 46.1995 359.088 46" stroke="black" stroke-linecap="round"/>
    <path d="M230.297 64H108.139V78.5H230.297V64Z" stroke="black"/>
    <path d="M115.273 67.875C114.869 68.1205 114.009 68.4633 113.826 68.9722C113.623 69.5397 114.203 70.4271 114.452 70.9028C114.778 71.5234 116.047 72.6121 115.669 73.3681C115.253 74.1996 112.089 74.25 113.02 74.25" stroke="black" stroke-linecap="round"/>
    <path d="M117.15 71.8752C117.361 71.868 119.883 71.6227 119 71.0836C118.434 70.738 117.386 71.4506 117.206 72.0002C116.811 73.2053 117.676 74.8001 119.028 74.1252" stroke="black" stroke-linecap="round"/>
    <path d="M121.406 71.125C121.218 71.7181 121.296 74.0233 122.185 74.0694C123.021 74.1128 122.942 72.9902 122.894 72.4722C122.817 71.6448 122.247 71.375 121.531 71.375" stroke="black" stroke-linecap="round"/>
    <path d="M122.532 71.75C123.04 72.5354 123.79 73.9615 124.973 73.5556C125.201 73.4773 125.235 73.3273 125.286 73.125" stroke="black" stroke-linecap="round"/>
    <path d="M127.038 70.9999C127.71 78.1292 126.511 68.9156 129.166 71.1249" stroke="black" stroke-linecap="round"/>
    <path d="M132.17 71C131.344 71.0676 130.712 71.3217 130.668 72.2361C130.652 72.5509 130.528 73.3048 130.723 73.5972C131.022 74.045 131.815 74.125 132.295 74.125" stroke="black" stroke-linecap="round"/>
    <path d="M134.297 68.875C134.297 70.1547 134.19 71.4999 134.325 72.7778C134.329 72.818 134.458 73.4645 134.603 73.3403C134.948 73.0451 134.566 72.0389 135.299 72.125C135.834 72.1879 135.683 73.0928 136.001 73.375C136.44 73.765 137.261 73.625 137.802 73.625" stroke="black" stroke-linecap="round"/>
    <path d="M145.061 68.75C145.061 70.313 145.2 74.9792 144.943 73.4375C144.803 72.5954 144.879 71.5245 144.964 70.6806C145.062 69.7103 145.563 68.8519 146.612 68.8264C147.517 68.8043 147.948 70.3947 147.731 71.1111C147.521 71.8084 146.522 71.3129 146.07 71.5139C145.903 71.5879 146.381 71.7062 146.549 71.7778C146.892 71.9238 147.282 72.0371 147.592 72.25C147.886 72.4513 147.887 73.0461 147.794 73.3542C147.627 73.9119 146.071 73.7333 145.687 73.75" stroke="black" stroke-linecap="round"/>
    <path d="M150.443 71.125C150.5 71.7351 150.585 72.3579 150.555 72.9723C150.535 73.3681 150.508 72.7496 150.509 72.6979C150.527 72.1378 150.55 71.5519 150.909 71.0973C151.124 70.826 151.293 70.875 151.632 70.875C151.986 70.875 152.043 70.9186 152.258 71.1875" stroke="black" stroke-linecap="round"/>
    <path d="M154.198 70.875C154.157 71.5358 153.761 73.3266 154.942 72.9896C155.527 72.8226 155.66 72.2788 155.634 71.7292C155.604 71.0908 155.212 70.875 154.636 70.875" stroke="black" stroke-linecap="round"/>
    <path d="M156.138 71.4375C156.144 72.0105 155.857 73.4339 156.764 73.3681C157.16 73.3393 158.009 73.3587 158.078 72.875" stroke="black" stroke-linecap="round"/>
    <path d="M159.768 71.125C159.549 71.8908 159.542 74.3025 159.58 73.5069C159.609 72.8989 159.753 72.1965 160.13 71.7014C160.382 71.3697 161.231 70.9691 161.409 71.5868C161.488 71.8588 161.458 72.1716 161.458 72.4514C161.458 73.0508 162.394 72.6097 162.709 72.5625" stroke="black" stroke-linecap="round"/>
    <path d="M165.838 68.625C165.862 69.5213 165.838 70.4349 165.905 71.3299C165.918 71.508 165.966 71.5043 165.765 71.4375C165.205 71.251 165.004 72.1026 165.025 72.5278C165.073 73.5042 166.543 73.6953 167.153 73.1875" stroke="black" stroke-linecap="round"/>
    <path d="M108.139 243V107H365.472V243H108.139Z" stroke="black"/>
    <path d="M365.472 107L108.139 243" stroke="black"/>
    <path d="M209.269 120.75C208.614 124.75 208.038 128.737 207.517 132.75" stroke="black" stroke-linecap="round"/>
    <path d="M205.264 121.25L210.521 121.5" stroke="black" stroke-linecap="round"/>
    <path d="M212.273 127C212.203 127.473 210.764 132.736 212.218 132.639C213.369 132.562 214.279 130.709 214.624 129.792C214.874 129.123 214.84 128.228 214.624 127.556C214.31 126.581 213.137 127.237 212.524 127.5" stroke="black" stroke-linecap="round"/>
    <path d="M215.027 128.75C215.081 129.153 215.071 131.684 215.778 131.743C216.026 131.764 216.28 131.75 216.529 131.75" stroke="black" stroke-linecap="round"/>
    <path d="M220.659 129.375C221.561 127.249 222.696 125.227 223.607 123.104C224.009 122.169 222.497 122.705 222.043 122.938C221.064 123.44 220.629 124.273 220.423 125.306C220.11 126.868 219.823 128.469 219.936 130.07C219.999 130.958 220.28 132.164 221.201 132.556C221.56 132.708 222.405 132.751 222.578 132.313C222.803 131.745 222.803 130.966 222.787 130.361C222.77 129.711 222.285 129.74 221.785 129.625" stroke="black" stroke-linecap="round"/>
    <path d="M227.293 123.625C226.782 126.579 226.501 129.77 225.672 132.667C225.668 132.683 225.853 132.641 225.916 132.625" stroke="black" stroke-linecap="round"/>
    <path d="M229.671 130.125C229.953 129.843 231.368 128.747 230.881 128.327C230.25 127.782 229.143 128.347 228.739 128.903C228.213 129.628 227.889 131.007 228.642 131.708C228.997 132.04 229.765 131.727 230.172 131.625" stroke="black" stroke-linecap="round"/>
    <path d="M240.56 123.25C240.295 125.21 240.017 127.201 239.781 129.167C239.719 129.682 239.665 130.199 239.614 130.715C239.585 131.013 239.43 131.357 239.587 131.611C239.685 131.77 241.069 130.917 241.207 130.84C241.815 130.5 243.295 131.449 243.439 130.875" stroke="black" stroke-linecap="round"/>
    <path d="M246.693 128.125C246.635 128.682 246.193 130.39 246.672 130.944C246.937 131.251 247.749 130.973 248.042 130.875C248.753 130.636 249.057 129.576 249.057 128.889C249.057 127.674 246.666 127.566 245.942 128" stroke="black" stroke-linecap="round"/>
    <path d="M249.321 128.875C249.327 129.231 249.058 131.182 249.891 130.611C250.275 130.349 250.462 130.127 250.698 129.75" stroke="black" stroke-linecap="round"/>
    <path d="M253.452 127.625C253.136 128.331 252.573 130.717 254.071 129.84C254.616 129.521 254.909 129.079 255.239 128.562C255.278 128.501 255.413 128.358 255.413 128.431C255.413 128.718 255.311 128.995 255.26 129.278C254.936 131.044 255.004 132.8 254.954 134.583C254.93 135.435 253.976 134.249 253.702 134" stroke="black" stroke-linecap="round"/>
    <path d="M259.209 128.25C259.07 128.782 258.654 129.716 259.174 130.202C259.505 130.51 260.115 130.436 260.474 130.236C261.009 129.938 261.242 129.125 261.003 128.57C260.689 127.841 258.583 127.014 258.583 128.25" stroke="black" stroke-linecap="round"/>
    <path d="M263.59 127.75C263.406 128.355 262.817 131.341 264.375 130.451C264.776 130.223 265.012 129.583 265.203 129.194C265.386 128.823 265.558 127.601 265.592 128.014C265.639 128.578 265.3 129.883 265.683 130.354C266.085 130.848 267.563 129.703 267.97 129.5" stroke="black" stroke-linecap="round"/>
    <path d="M272.226 121.375C271.769 124.017 271.122 126.729 270.974 129.417C270.951 129.833 270.942 130.312 271.391 130.486C272.29 130.835 273.005 130.712 273.102 129.75" stroke="black" stroke-linecap="round"/>
    <path d="M269.598 125.875L273.603 126.375" stroke="black" stroke-linecap="round"/>
    <path d="M112.645 89.75V98.75" stroke="black" stroke-linecap="round"/>
    <path d="M108.389 89.5C110.094 89.6216 111.961 89.944 113.646 90.25" stroke="black" stroke-linecap="round"/>
    <path d="M116.399 94C116.087 94.356 116.131 97.8927 116.552 97.9861C117.406 98.1756 117.987 97.7717 118.263 96.9722C118.988 94.8641 118.519 93.9558 116.399 93.25" stroke="black" stroke-linecap="round"/>
    <path d="M121.906 89C121.906 91.1574 121.906 93.3148 121.906 95.4722C121.906 95.8507 121.721 96.8536 121.962 97.1944C122.444 97.8769 123.484 97.4246 123.909 97" stroke="black" stroke-linecap="round"/>
    <path d="M119.403 93.25H123.409" stroke="black" stroke-linecap="round"/>
    <path d="M128.79 92.8749C128.019 93.5232 128.039 95.3673 128.609 96.1387C129.022 96.6957 130.213 96.6832 130.584 96.0901C131.031 95.3763 131.173 93.9203 130.494 93.3193C130.089 92.9609 129.318 92.3383 128.915 92.8749" stroke="black" stroke-linecap="round"/>
    <path d="M130.918 93.375C130.974 94.2853 130.632 96.2002 131.975 96.2917C132.719 96.3423 133.372 95.8498 134.047 95.625" stroke="black" stroke-linecap="round"/>
    <path d="M137.552 88.5C137.132 91.0646 136.425 94.4952 136.425 96.875" stroke="black" stroke-linecap="round"/>
    <path d="M144.811 89.75C144.18 89.75 143.427 90.6238 143.135 91.1042C142.728 91.7743 142.683 92.5882 142.683 93.3472C142.683 94.2567 142.697 95.163 142.961 96.0417C143.059 96.367 143.309 97 143.309 97" stroke="black" stroke-linecap="round"/>
    <path d="M147.189 91.625C147.182 91.8658 146.91 93.4556 147.154 93.4931C147.739 93.5828 148.588 93.5095 148.816 94.1806C149.423 95.9645 147.069 95.7525 146.062 95.25" stroke="black" stroke-linecap="round"/>
    <path d="M147.064 91.625C148.137 91.7899 149.235 91.75 150.318 91.75" stroke="black" stroke-linecap="round"/>
    <path d="M152.947 91.75C152.528 92.499 150.84 94.6615 152.314 95.3056C152.7 95.4745 153.391 95.4339 153.698 95.1389C154.766 94.1113 154.701 92.125 152.947 92.125" stroke="black" stroke-linecap="round"/>
    <path d="M156.201 88.75C157.444 90.3265 159.445 92.5031 158.746 94.7222C158.486 95.5441 158.038 96.2741 157.953 97.125" stroke="black" stroke-linecap="round"/>
    <path d="M21.0259 110H74.0945" stroke="black" stroke-linecap="round"/>
    <path d="M1 257V1H375.484V257H1Z" stroke="black"/>
    <path d="M42.0532 292L467.604 292" stroke="black" stroke-linecap="round"/>
    <path d="M42.0532 124V292" stroke="black" stroke-linecap="round"/>
    <path d="M467.604 257V292" stroke="black" stroke-linecap="round"/>
    <path d="M399.516 257V1H774V257H399.516Z" stroke="black"/>
    <path d="M399.516 26L774 26" stroke="black"/>
    <path d="M415.035 39.25C414.422 39.9979 411.227 42.8437 411.447 44C411.639 45.0025 413.971 46.1048 414.757 46.4722C415.495 46.8171 416.251 46.75 417.038 46.75" stroke="black" stroke-linecap="round"/>
    <path d="M412.032 36C409.705 36.4032 407.437 36.8362 407.053 39.6111C406.755 41.7695 407.47 43.5551 408.541 45.375C409.98 47.8175 412.347 49.5 415.259 49.5C417.051 49.5 419.451 49.9384 421.141 49.2222C424.516 47.7923 423.607 41.6215 421.739 39.5C419.347 36.7833 415.379 36.5 412.032 36.5" stroke="black" stroke-linecap="round"/>
    <path d="M438.691 35.1252C437.836 35.0743 437.171 35.0601 436.591 35.7502C435.573 36.9622 434.732 38.4309 433.866 39.7502C433.167 40.8137 432.618 41.7315 432.531 43.0002C432.467 43.9268 432.27 45.0288 432.524 45.9446C432.825 47.0321 433.634 48.2241 434.853 48.3474C435.603 48.4233 436.423 47.6343 436.967 47.2085C437.359 46.9017 437.733 46.7774 438.191 46.6252" stroke="black" stroke-linecap="round"/>
    <path d="M443.323 42.5C442.159 43.0812 440.973 45.3307 441.417 46.6319C441.825 47.8279 443.395 47.7667 444.073 46.8194C444.69 45.9597 444.998 44.4851 444.442 43.5139C443.964 42.6788 443.084 42.9557 442.321 43.125" stroke="black" stroke-linecap="round"/>
    <path d="M447.077 42.75C446.965 43.6189 446.792 44.4844 446.576 45.3333C446.432 45.9005 446.076 46.5591 446.076 47.1597C446.076 47.9654 446.454 45.5932 446.653 44.8125C446.923 43.7529 447.727 43.1111 448.815 43.7361C449.921 44.3712 449.97 46.721 449.532 47.7431C449.039 48.8909 450.227 45.3102 450.887 44.25C451.323 43.5506 452.264 42.2504 452.626 43.75C452.808 44.5043 452.785 45.5099 452.619 46.2639C452.577 46.4528 451.99 47.2997 452.306 47.3194C453.091 47.3684 454.336 47.0696 454.336 46.125" stroke="black" stroke-linecap="round"/>
    <path d="M457.466 43.625C457.088 46.4251 456.5 49.1921 456.117 51.9861C455.974 53.0302 456.104 51.0872 456.117 50.9375C456.236 49.5956 456.623 48.2744 456.979 46.9792C457.251 45.9908 457.77 44.5274 458.62 43.8611C459.225 43.3873 460.11 44.2771 460.456 44.6667C461.028 45.3113 461.064 45.6882 460.63 46.4375C460.293 47.0188 459.953 47.4623 459.26 47.4931C459.084 47.5009 458.048 47.6544 458.467 47.375" stroke="black" stroke-linecap="round"/>
    <path d="M464.6 43.625C463.997 44.4508 462.593 46.1002 463.724 47.1042C464.15 47.4828 465.292 47.1778 465.615 46.7986C466.472 45.7942 465.842 43.9982 464.6 43.75" stroke="black" stroke-linecap="round"/>
    <path d="M465.601 44.125C466.673 45.1527 465.483 46.625 467.402 46.625C467.519 46.625 468.964 46.4916 468.48 46.25" stroke="black" stroke-linecap="round"/>
    <path d="M471.734 43.875C471.734 44.7523 471.734 45.6296 471.734 46.5069C471.734 47.0902 471.791 46.573 471.866 46.2917C471.965 45.9224 472.191 43.8242 472.944 44.3056C473.777 44.8378 473.771 45.9254 473.639 46.7639C473.526 47.4872 475.154 47.1428 475.489 46.875" stroke="black" stroke-linecap="round"/>
    <path d="M478.868 43.375C478.778 43.8448 478.352 46.5953 479.146 46.5417C479.854 46.4939 480.319 45.3551 480.6 44.8472C480.821 44.446 480.707 44.3543 480.801 44.9167C480.952 45.8083 481.121 46.6481 481.121 47.5556C481.121 48.3565 480.925 49.0975 480.746 49.875C480.675 50.1791 480.59 51.4889 480.245 51.6528C479.603 51.9581 478.374 51.5 477.617 51.5" stroke="black" stroke-linecap="round"/>
    <path d="M494.013 36.625C493.636 38.79 493.809 40.9403 493.29 43.0556C492.978 44.3254 492.848 45.6447 492.386 46.875" stroke="black" stroke-linecap="round"/>
    <path d="M494.388 37.375C494.899 39.6505 495.717 41.8385 496.245 44.1042C496.422 44.8641 496.855 46.9833 497.072 44.9028C497.258 43.1298 496.952 41.3677 497.489 39.6389C497.719 38.9005 497.991 38.1322 498.143 37.375" stroke="black" stroke-linecap="round"/>
    <path d="M500.646 42.2499C500.391 42.8922 498.753 45.6249 500.466 45.6249C501.399 45.6249 501.825 44.8072 501.995 43.9582C502.113 43.3702 502.06 42.4681 501.383 42.2429C501.017 42.121 499.477 41.7054 499.645 42.3749" stroke="black" stroke-linecap="round"/>
    <path d="M502.524 42.625C502.524 43.4237 502.289 45.0874 503.032 45.7361C503.424 46.079 504.401 45.6463 504.401 45.125" stroke="black" stroke-linecap="round"/>
    <path d="M506.529 42.5C506.241 49.4288 506.247 42.0422 508.156 42.3889C508.989 42.5402 508.876 43.7649 508.9 44.3889C508.909 44.6276 508.843 44.9827 508.921 45.2153C508.98 45.3931 509.38 44.3501 509.394 44.3194C509.651 43.7369 510.086 42.625 510.882 42.625C511.639 42.625 511.361 44.345 511.285 44.7222C511.228 45.0079 510.94 45.9681 511.306 46.1736C511.809 46.4561 512.296 46.1879 512.662 45.875" stroke="black" stroke-linecap="round"/>
    <path d="M516.041 44C516.39 43.6749 517.668 42.8362 517.668 42.243C517.668 41.8667 517.408 41.8688 517.084 41.9861C516.084 42.3484 515.429 42.946 515.429 44.0208C515.429 45.0779 515.918 45.9503 516.938 46.25C517.549 46.4294 519.123 46.8604 519.295 46" stroke="black" stroke-linecap="round"/>
    <path d="M410.53 61L410.53 111" stroke="black" stroke-linecap="round"/>
    <path d="M420.042 65.5C419.87 67.6773 419.354 69.7949 419.173 71.9653C419.127 72.5209 419.117 71.702 419.11 71.5833C419.068 70.7913 419.126 69.9653 419.18 69.1736C419.259 68.0127 419.748 66.7046 421.036 66.5208C422.757 66.2753 423.4 68.1073 422.636 69.5069C422.347 70.0365 421.869 70.1156 421.322 70.125C420.672 70.1362 422.153 70.125 422.281 70.125C423.301 70.125 423.92 70.43 423.797 71.5694C423.677 72.6791 419.425 72.375 420.543 72.375" stroke="black" stroke-linecap="round"/>
    <path d="M427.051 68.4999C426.83 69.7672 426.592 71.0353 426.433 72.3124C426.319 73.2205 426.254 70.4826 426.314 69.5694C426.356 68.928 426.521 68.1844 427.246 68.0277C427.621 67.9468 427.75 68.4882 427.802 68.7499" stroke="black" stroke-linecap="round"/>
    <path d="M431.181 68.2501C430.687 69.2818 429.805 70.668 431.07 71.5209C431.984 72.1369 432.979 71.6048 433.414 70.7362C434.113 69.3394 433.933 66.6018 431.932 68.0001" stroke="black" stroke-linecap="round"/>
    <path d="M433.809 68.25C433.809 68.7808 433.522 70.4919 433.893 71C434.048 71.2116 434.738 71.125 434.943 71.125C435.503 71.125 436.313 71.3564 436.313 70.625" stroke="black" stroke-linecap="round"/>
    <path d="M438.066 68.375C437.981 69.6595 437.759 71.0407 437.815 72.3333C437.838 72.8475 438.126 71.3505 438.323 70.875C438.397 70.6965 439.365 68.623 439.769 69.4306C440.015 69.9226 440.124 70.4844 440.172 71.0278C440.203 71.3669 440.088 71.8949 440.221 72.2222C440.462 72.8123 442.044 71.8186 442.321 71.625" stroke="black" stroke-linecap="round"/>
    <path d="M446.826 64.375C446.627 65.7632 446.371 67.1642 446.326 68.5694C446.323 68.6699 446.442 69.4756 446.187 69.1667C445.76 68.6487 445.629 68.4609 445.199 69.2083C444.893 69.7406 444.028 70.8341 444.372 71.5208C444.946 72.6679 445.955 72.3596 446.701 71.75" stroke="black" stroke-linecap="round"/>
    <path d="M452.334 67.5C451.685 67.635 450.558 67.675 450.79 68.5833C450.97 69.2835 451.501 69.6796 451.75 70.3194C452.227 71.5479 450.91 71.582 450.081 71.375" stroke="black" stroke-linecap="round"/>
    <path d="M419.541 80C419.341 82.0185 419.022 83.9577 418.665 85.9444C418.556 86.554 418.54 87.1314 418.54 87.75" stroke="black" stroke-linecap="round"/>
    <path d="M420.167 80.1248C421.013 80.0903 422.092 79.8345 422.476 80.7846C422.724 81.3988 422.905 82.2033 422.719 82.861C422.388 84.0371 421.159 84.1248 420.167 84.1248" stroke="black" stroke-linecap="round"/>
    <path d="M419.667 84.375C420.417 85.3463 421.1 86.3659 421.794 87.375" stroke="black" stroke-linecap="round"/>
    <path d="M425.424 84.6252C425.751 84.4798 426.616 84.102 426.982 83.9169C427.096 83.8587 427.211 83.7975 427.315 83.7225C427.361 83.6899 427.454 83.6462 427.427 83.5975C427.401 83.5512 427.323 83.6279 427.281 83.66C426.646 84.1428 424.637 85.7486 424.812 86.6669C424.953 87.4055 426.708 87.0782 427.176 87.0002" stroke="black" stroke-linecap="round"/>
    <path d="M430.556 83.75C430.417 84.353 430.413 87.0827 431.766 86.3333C432.393 85.9858 433.236 85.0912 433.289 84.3333C433.329 83.7493 432.324 83.4314 431.919 83.2152C431.478 82.9797 431.353 83.0394 430.931 83.25" stroke="black" stroke-linecap="round"/>
    <path d="M433.184 83.625C433.184 85.9566 432.995 88.5795 432.259 90.8056C432.076 91.3605 431.418 91.3568 430.917 91.4028C430.622 91.4299 428.6 91.429 429.054 90.75" stroke="black" stroke-linecap="round"/>
    <path d="M436.062 83.375C435.795 84.3705 435.312 87.4058 435.312 86.375" stroke="black" stroke-linecap="round"/>
    <path d="M436.563 81C436.911 81.2371 436.688 81.0821 436.688 81.375" stroke="black" stroke-linecap="round"/>
    <path d="M439.692 83.2498C439.161 84.4259 438.181 85.7035 439.79 86.2915C440.645 86.6042 441.675 86.5682 441.695 85.5137C441.705 84.9892 441.981 83.4024 441.292 83.1804C440.679 82.9829 439.983 83.1702 439.818 83.7498" stroke="black" stroke-linecap="round"/>
    <path d="M443.823 83.25C443.786 83.6782 443.749 84.1065 443.712 84.5347C443.684 84.8611 443.632 85.1863 443.628 85.5139C443.627 85.6296 443.582 85.85 443.698 85.8542C444.208 85.8724 445.181 83.7109 445.603 83.3264C446.146 82.8314 446.042 85.007 446.006 85.2292C445.961 85.5147 445.549 86.125 445.992 86.125C446.355 86.125 447.145 86.1138 447.328 85.75" stroke="black" stroke-linecap="round"/>
    <path d="M452.084 82.375C451.724 81.9134 450.953 82.3098 450.651 82.6389C449.983 83.3673 451.849 84.7106 452.292 85.0555C452.883 85.5148 453.554 86.212 452.425 86.4236C452.121 86.4804 450.707 86.7568 450.707 86.25" stroke="black" stroke-linecap="round"/>
    <path d="M420.668 95.5C419.984 95.8414 419.555 96.3472 419.055 96.9097C418.724 97.2813 418.139 97.6111 417.984 98.1042C417.485 99.6885 417.77 101.707 417.789 103.347C417.797 104.077 417.931 105.417 418.888 105.368C419.316 105.346 419.899 105.363 420.292 105.167C420.587 105.02 420.788 104.691 421.043 104.5" stroke="black" stroke-linecap="round"/>
    <path d="M424.298 100.375C423.822 101.68 423.2 103.006 423.324 104.431C423.404 105.338 424.548 105.299 424.944 104.583C425.36 103.834 425.786 102.404 425.786 101.535C425.786 101.023 424.669 101.25 424.298 101.25" stroke="black" stroke-linecap="round"/>
    <path d="M426.926 101.125C426.891 101.813 426.844 102.5 426.801 103.188C426.789 103.376 426.525 104.937 426.787 105.222C427.234 105.709 427.864 103.913 427.899 103.806C427.956 103.632 428.887 100.976 428.776 102.181C428.706 102.929 428.123 105.446 429.415 105.194C430.299 105.022 430.681 104.696 430.681 103.75" stroke="black" stroke-linecap="round"/>
    <path d="M432.183 101.125C432.22 102.502 431.933 106.627 431.933 105.25C431.933 104.257 432.007 103.251 432.211 102.278C432.485 100.964 433.779 99.2806 434.436 101.25" stroke="black" stroke-linecap="round"/>
    <path d="M438.316 99.625C437.477 99.7036 436.65 100.113 437.099 101.062C437.355 101.603 438.464 102.348 438.211 103.007C437.958 103.669 436.903 104.238 436.341 104.639C435.968 104.905 435.788 104.55 435.938 104.25" stroke="black" stroke-linecap="round"/>
    <path d="M440.819 101.75C441.211 101.525 443.295 100.665 443.267 99.9585C443.253 99.6074 442.435 99.9376 442.349 99.9863C441.503 100.465 440.261 101.869 440.249 102.903C440.233 104.252 441.679 104.532 442.697 104.125" stroke="black" stroke-linecap="round"/>
    <path d="M452.333 96C451.856 98.6356 451.583 106.678 451.583 104" stroke="black" stroke-linecap="round"/>
    <path d="M452.584 97C453.449 97 454.346 97.0405 454.809 97.8889C455.138 98.4919 455.087 98.9713 454.753 99.5556C454.209 100.509 453.818 100.5 452.834 100.5" stroke="black" stroke-linecap="round"/>
    <path d="M457.59 99.8752C457.481 100.18 456.789 102.114 456.617 102.57C456.542 102.767 456.426 103.331 456.339 103.139C456.246 102.936 456.352 102.445 456.394 102.236C456.557 101.434 456.66 100.263 457.396 99.7502C457.78 99.4825 459.092 99.0578 459.092 99.8752" stroke="black" stroke-linecap="round"/>
    <path d="M461.095 99.75C461.095 100.818 460.882 101.831 460.845 102.875C460.838 103.065 460.845 103.88 460.845 103.25" stroke="black" stroke-linecap="round"/>
    <path d="M461.471 96.75C461.459 97.0087 461.46 96.9428 461.346 97" stroke="black" stroke-linecap="round"/>
    <path d="M464.725 99C464.166 99.5439 462.734 100.545 462.862 101.5C462.966 102.283 463.849 102.751 464.523 102.965C465.21 103.183 466.049 103.226 466.728 103" stroke="black" stroke-linecap="round"/>
    <path d="M469.105 99C468.685 100.085 467.979 101.302 467.979 102.5" stroke="black" stroke-linecap="round"/>
    <path d="M469.606 97C469.918 97 470.11 96.8783 469.856 96.625" stroke="black" stroke-linecap="round"/>
    <path d="M472.36 99C471.941 100.217 471.353 101.504 471.108 102.778C471.087 102.888 471.166 102.561 471.191 102.451C471.392 101.578 471.649 100.004 472.582 99.5833C473.742 99.0603 473.635 101.574 473.486 102.125C473.258 102.967 474.332 101.974 474.613 101.75" stroke="black" stroke-linecap="round"/>
    <path d="M478.743 98.2502C478.528 98.6786 477.515 102.87 478.208 102.952C478.473 102.983 479.018 102.604 479.237 102.486C479.912 102.121 480.202 101.567 480.37 100.834C480.48 100.354 481.105 98.0695 480.231 98.0071C479.927 97.9854 479.269 97.9492 479.118 98.2502" stroke="black" stroke-linecap="round"/>
    <path d="M480.996 98.875C480.362 101.694 480.873 104.644 480.419 107.465C480.078 109.582 477.727 107.976 476.615 107.5" stroke="black" stroke-linecap="round"/>
    <path d="M628.812 64H506.654V78.5H628.812V64Z" stroke="black"/>
    <path d="M513.788 67.875C513.384 68.1205 512.525 68.4633 512.342 68.9722C512.138 69.5397 512.718 70.4271 512.968 70.9028C513.293 71.5234 514.563 72.6121 514.185 73.3681C513.768 74.1996 510.604 74.25 511.535 74.25" stroke="black" stroke-linecap="round"/>
    <path d="M515.665 71.8752C515.876 71.868 518.398 71.6227 517.515 71.0836C516.949 70.738 515.901 71.4506 515.721 72.0002C515.326 73.2053 516.191 74.8001 517.543 74.1252" stroke="black" stroke-linecap="round"/>
    <path d="M519.922 71.125C519.734 71.7181 519.811 74.0233 520.7 74.0694C521.537 74.1128 521.458 72.9902 521.41 72.4722C521.333 71.6448 520.762 71.375 520.047 71.375" stroke="black" stroke-linecap="round"/>
    <path d="M521.048 71.75C521.556 72.5354 522.306 73.9615 523.489 73.5556C523.716 73.4773 523.751 73.3273 523.801 73.125" stroke="black" stroke-linecap="round"/>
    <path d="M525.554 70.9999C526.226 78.1292 525.027 68.9156 527.681 71.1249" stroke="black" stroke-linecap="round"/>
    <path d="M530.685 71C529.86 71.0676 529.228 71.3217 529.183 72.2361C529.168 72.5509 529.044 73.3048 529.239 73.5972C529.538 74.045 530.33 74.125 530.811 74.125" stroke="black" stroke-linecap="round"/>
    <path d="M532.813 68.875C532.813 70.1547 532.705 71.4999 532.841 72.7778C532.845 72.818 532.974 73.4645 533.119 73.3403C533.464 73.0451 533.081 72.0389 533.814 72.125C534.35 72.1879 534.199 73.0928 534.517 73.375C534.956 73.765 535.776 73.625 536.318 73.625" stroke="black" stroke-linecap="round"/>
    <path d="M506.654 243V107H763.987V243H506.654Z" stroke="black"/>
    <path d="M511.16 89.75V98.75" stroke="black" stroke-linecap="round"/>
    <path d="M506.904 89.5C508.609 89.6216 510.476 89.944 512.161 90.25" stroke="black" stroke-linecap="round"/>
    <path d="M514.915 94C514.603 94.356 514.647 97.8927 515.068 97.9861C515.922 98.1756 516.503 97.7717 516.778 96.9722C517.504 94.8641 517.035 93.9558 514.915 93.25" stroke="black" stroke-linecap="round"/>
    <path d="M520.422 89C520.422 91.1574 520.422 93.3148 520.422 95.4722C520.422 95.8507 520.237 96.8536 520.478 97.1944C520.96 97.8769 522 97.4246 522.425 97" stroke="black" stroke-linecap="round"/>
    <path d="M517.919 93.25H521.924" stroke="black" stroke-linecap="round"/>
    <path d="M527.306 92.8749C526.535 93.5232 526.554 95.3673 527.125 96.1387C527.537 96.6957 528.729 96.6832 529.1 96.0901C529.547 95.3763 529.688 93.9203 529.009 93.3193C528.605 92.9609 527.834 92.3383 527.431 92.8749" stroke="black" stroke-linecap="round"/>
    <path d="M529.434 93.375C529.489 94.2853 529.148 96.2002 530.491 96.2917C531.234 96.3423 531.887 95.8498 532.563 95.625" stroke="black" stroke-linecap="round"/>
    <path d="M536.067 88.5C535.648 91.0646 534.941 94.4952 534.941 96.875" stroke="black" stroke-linecap="round"/>
    <path d="M543.326 89.75C542.695 89.75 541.942 90.6238 541.651 91.1042C541.244 91.7743 541.199 92.5882 541.199 93.3472C541.199 94.2567 541.212 95.163 541.477 96.0417C541.575 96.367 541.825 97 541.825 97" stroke="black" stroke-linecap="round"/>
    <path d="M545.705 91.625C545.697 91.8658 545.426 93.4556 545.67 93.4931C546.254 93.5828 547.103 93.5095 547.332 94.1806C547.939 95.9645 545.584 95.7525 544.578 95.25" stroke="black" stroke-linecap="round"/>
    <path d="M545.58 91.625C546.653 91.7899 547.75 91.75 548.834 91.75" stroke="black" stroke-linecap="round"/>
    <path d="M551.462 91.75C551.044 92.499 549.355 94.6615 550.829 95.3056C551.216 95.4745 551.907 95.4339 552.213 95.1389C553.282 94.1113 553.217 92.125 551.462 92.125" stroke="black" stroke-linecap="round"/>
    <path d="M554.716 88.75C555.959 90.3265 557.961 92.5031 557.261 94.7222C557.002 95.5441 556.554 96.2741 556.469 97.125" stroke="black" stroke-linecap="round"/>
    <path d="M419.542 110H472.61" stroke="black" stroke-linecap="round"/>
    <path d="M507.155 125H763.987" stroke="black"/>
    <path d="M519.045 111.25C517.113 111.776 516.176 112.927 515.374 114.667C514.857 115.787 514.421 117.398 515.221 118.5C515.802 119.302 516.542 119.296 517.488 119.25C517.894 119.23 518.288 118.328 518.419 118" stroke="black" stroke-linecap="round"/>
    <path d="M521.924 115.625C521.49 116.275 519.545 120.903 521.952 119.514C522.733 119.063 523.594 117.196 523.023 116.34C522.7 115.857 521.795 116 521.298 116" stroke="black" stroke-linecap="round"/>
    <path d="M523.175 116.5C523.19 117.127 523.074 119.084 523.732 119.514C524.341 119.912 525 119.014 525.303 118.625" stroke="black" stroke-linecap="round"/>
    <path d="M528.307 111.125C528.121 113.826 527.95 116.545 528.175 119.243C528.266 120.339 529.232 119.587 529.559 119" stroke="black" stroke-linecap="round"/>
    <path d="M527.181 116.125C528.017 116.034 528.862 116.039 529.684 115.875" stroke="black" stroke-linecap="round"/>
    <path d="M531.561 116.625C531.913 116.469 532.536 115.97 532.437 115.5C532.399 115.317 531.906 115.387 531.811 115.403C531.308 115.489 531.089 115.845 530.991 116.32C530.778 117.353 531.023 118.416 531.923 119.028C532.598 119.487 533.143 119.807 533.689 119.125" stroke="black" stroke-linecap="round"/>
    <path d="M536.818 116C536.679 116.538 536.444 117.975 536.874 118.417C537.214 118.766 537.996 117.605 538.111 117.431C538.641 116.633 538.541 115.375 537.444 115.375" stroke="black" stroke-linecap="round"/>
    <path d="M538.445 116.5C538.101 117.325 537.772 118.151 537.472 118.993C537.296 119.485 537.156 120.175 536.804 120.59C536.481 120.971 535.615 120.571 535.191 120.5" stroke="black" stroke-linecap="round"/>
    <path d="M541.199 116C541.199 116.614 540.888 118.229 541.602 118.597C542.367 118.992 543.028 118.423 543.229 117.688C543.589 116.368 543.046 115.51 541.699 115.375" stroke="black" stroke-linecap="round"/>
    <path d="M545.955 116C545.781 116.655 545.705 118.491 545.705 116.778C545.705 115.547 545.814 115 547.081 115" stroke="black" stroke-linecap="round"/>
    <path d="M549.835 115C550.006 115.84 550.075 116.924 550.433 117.722C550.527 117.932 551.088 116.906 551.114 116.826C551.155 116.705 551.157 116.07 551.274 116C551.357 115.951 551.32 116.189 551.316 116.285C551.293 116.859 551.181 117.427 551.059 117.986C550.972 118.381 550.785 121.222 550.35 121.222C549.545 121.222 548.756 120.739 547.958 120.625" stroke="black" stroke-linecap="round"/>
    <path d="M582.252 112C581.683 113.028 581.19 114.046 580.972 115.208C580.795 116.157 580.791 117.122 580.625 118.069C580.573 118.364 580.5 119.782 580.5 118.75" stroke="black" stroke-linecap="round"/>
    <path d="M578.748 112.125C579.999 112.125 581.251 112.125 582.502 112.125C583.593 112.125 584.989 111.911 586.007 112.25" stroke="black" stroke-linecap="round"/>
    <path d="M585.882 115.75C586.008 116.134 586.36 118.062 587.161 117.806C587.772 117.61 588.307 116.707 588.677 116.236C588.901 115.951 589.394 114.997 589.303 115.347C589.035 116.38 588.838 117.395 588.781 118.465C588.748 119.092 589.204 121.058 588.246 121.118C587.528 121.163 586.823 121.221 586.257 120.75" stroke="black" stroke-linecap="round"/>
    <path d="M594.518 115.125C594.233 116.92 593.909 118.663 593.378 120.403C593.268 120.762 592.992 122.431 593.023 121.069C593.056 119.64 593.211 118.173 593.864 116.875C594.493 115.626 595.751 115.259 597.042 115.035C597.412 114.97 598.568 114.673 598.913 115.035C599.215 115.352 599.024 116.443 598.913 116.791C598.542 117.947 596.97 117.625 596.02 117.625" stroke="black" stroke-linecap="round"/>
    <path d="M602.528 116.75C602.879 116.496 603.187 116.195 603.529 115.931C603.857 115.678 604.325 115.539 604.614 115.25C604.838 115.026 604.369 114.981 604.267 114.972C603.561 114.912 602.815 115.035 602.382 115.653C601.736 116.575 601.778 118.622 602.827 119.264C603.55 119.706 604.604 118.978 604.906 118.375" stroke="black" stroke-linecap="round"/>
    <path d="M632.077 112C631.28 112.057 630.49 112.298 629.963 112.938C629.354 113.675 630.777 115.722 631.18 116.271C631.797 117.11 633.108 118.163 632.953 119.347C632.844 120.175 630.703 119.608 630.199 119.5" stroke="black" stroke-linecap="round"/>
    <path d="M635.832 112.375C635.45 113.711 635.055 115.045 634.698 116.389C634.6 116.758 634.438 117.225 634.483 117.625C634.55 118.234 635.097 118.886 635.581 119.208C636.355 119.724 637.334 119.492 637.334 118.5" stroke="black" stroke-linecap="round"/>
    <path d="M633.704 116.125H637.834" stroke="black" stroke-linecap="round"/>
    <path d="M639.461 116.625C639.186 117.083 639.074 118.34 639.266 118.847C639.437 119.297 640.65 119.678 641.06 119.444C641.518 119.183 641.385 117.992 641.311 117.556C641.172 116.74 640.576 116.398 639.837 116.25" stroke="black" stroke-linecap="round"/>
    <path d="M641.84 117.125C641.84 117.723 641.527 118.847 642.194 119.083C642.491 119.188 644.343 120.008 644.343 119.5" stroke="black" stroke-linecap="round"/>
    <path d="M646.345 117C645.703 122.288 646.344 116.716 647.666 117.208C648.444 117.498 648.321 118.923 648.348 119.569C648.387 120.507 650.048 119.338 650.475 119.125" stroke="black" stroke-linecap="round"/>
    <path d="M655.232 113.875C655.041 114.946 654.855 116.018 654.634 117.083C654.587 117.31 654.566 117.66 654.453 117.875C654.379 118.015 653.287 117.64 652.993 117.778C652.494 118.011 651.827 119.878 652.52 120.167C653.461 120.559 654.995 120.197 655.927 119.972C656.749 119.774 657.396 119.344 657.77 118.576C658.84 116.376 655.998 120.501 657.596 119.833C658.598 119.414 659.556 118.637 659.48 117.465C659.421 116.553 657.933 116.928 657.359 117" stroke="black" stroke-linecap="round"/>
    <path d="M659.863 117.125C659.924 118.033 660.277 120.136 661.664 119.292C662.055 119.053 662.366 118.719 662.366 118.25" stroke="black" stroke-linecap="round"/>
    <path d="M663.367 116.5C663.383 117.406 663.45 118.31 663.485 119.215C663.51 119.848 663.492 119.428 663.492 119.083C663.492 118.498 663.303 117.494 663.708 117C664.246 116.343 665.117 116.215 665.87 116" stroke="black" stroke-linecap="round"/>
    <path d="M669.876 113.125C669.869 113.266 669.552 118.552 669.062 118.389C668.884 118.33 668.784 117.942 668.569 117.84C667.898 117.522 667.173 117.977 666.67 118.396C665.962 118.986 665.483 119.539 666.427 120.069C667.202 120.505 667.885 120.369 668.624 120" stroke="black" stroke-linecap="round"/>
    <path d="M677.26 113.625C676.554 115.338 675.995 117.192 675.633 119" stroke="black" stroke-linecap="round"/>
    <path d="M676.76 114.125C678.017 113.665 680.402 111.959 680.681 114.18C680.811 115.213 680.274 115.671 679.291 115.861C679.128 115.892 676.712 115.947 676.69 116.153C676.676 116.281 677.563 116.955 677.636 117.042C678.079 117.569 678.366 118.179 678.693 118.778C678.902 119.161 679.138 119.863 679.138 119.125" stroke="black" stroke-linecap="round"/>
    <path d="M682.266 115.625C681.908 116.386 680.943 117.852 681.411 118.757C681.68 119.277 682.54 118.702 682.739 118.389C683.374 117.39 683.433 115.836 682.517 115.125" stroke="black" stroke-linecap="round"/>
    <path d="M683.643 116C683.559 116.252 682.325 118.959 683.477 118.847C684.499 118.748 685.158 117.814 685.771 117.125" stroke="black" stroke-linecap="round"/>
    <path d="M688.775 112.5C688.106 114.698 687.389 116.883 686.731 119.083C686.634 119.406 686.372 120.138 686.877 120.285C687.75 120.538 688.627 119.821 689.025 119.125" stroke="black" stroke-linecap="round"/>
    <path d="M686.146 116.625C687.653 116.567 689.15 116.477 690.652 116.375" stroke="black" stroke-linecap="round"/>
    <path d="M691.904 117.625C692.588 117.278 693.507 116.547 693.628 115.722C693.699 115.24 692.001 116.681 691.973 116.708C691.478 117.197 689.923 118.804 691.167 119.396C691.936 119.762 693.171 119.129 693.906 118.875" stroke="black" stroke-linecap="round"/>
    <path d="M711.044 111.5C710.915 113.577 710.628 115.686 710.195 117.722C710.086 118.237 710.168 117.343 710.168 117.264C710.168 116.094 709.62 113.023 711.19 112.569C711.775 112.4 712.297 112.249 712.685 112.806C713.251 113.619 713.642 114.65 713.616 115.653C713.586 116.836 711.941 119.646 710.543 118.25" stroke="black" stroke-linecap="round"/>
    <path d="M716.926 114.875C716.715 116.096 716.56 117.35 716.008 118.472C715.842 118.81 715.925 118.81 715.925 118.375" stroke="black" stroke-linecap="round"/>
    <path d="M717.176 113.125L717.051 112.875" stroke="black" stroke-linecap="round"/>
    <path d="M721.933 114.625C721.395 114.416 720.904 114.504 720.611 115.055C720.196 115.839 720.81 116.638 721.404 117.132C722.516 118.057 721.564 118.242 720.431 118.375" stroke="black" stroke-linecap="round"/>
    <path d="M726.814 114.375C726.115 114.724 724.758 117.095 725.57 117.743C726.238 118.277 727.166 117.752 727.816 117.5" stroke="black" stroke-linecap="round"/>
    <path d="M730.944 115.125C730.752 115.62 730.463 118.365 731.306 118.389C732.045 118.41 732.539 117.331 732.724 116.792C732.921 116.221 733.288 115.34 732.863 114.778C732.361 114.113 731.391 114.344 730.694 114.375" stroke="black" stroke-linecap="round"/>
    <path d="M734.448 114.5C734.565 115.106 733.658 117.578 734.282 117.618C735.546 117.7 737.686 116.59 737.932 115.236C738.093 114.354 737.179 117.009 737.411 117.875C737.841 119.485 739.249 117.49 739.58 116.875" stroke="black" stroke-linecap="round"/>
    <path d="M741.834 114.375C741.735 115.406 741.49 116.417 741.382 117.444C741.315 118.076 741.853 116.252 742.223 115.736C742.335 115.58 743.298 114.839 743.336 115.403C743.373 115.958 743.214 116.483 743.009 116.993C742.99 117.039 742.378 118.307 742.543 118.319C743.149 118.364 744.436 117.401 744.837 117" stroke="black" stroke-linecap="round"/>
    <path d="M748.092 110.375C747.827 112.781 747.347 115.334 747.417 117.771C747.432 118.299 747.558 118.444 748.022 118.493C748.511 118.544 748.626 117.991 748.717 117.625" stroke="black" stroke-linecap="round"/>
    <path d="M745.964 114.125C746.894 114.31 748.516 114.324 749.343 114.875" stroke="black" stroke-linecap="round"/>
    <path d="M525.553 135.625C524.415 136.335 524.538 137.394 524.149 138.597C523.773 139.756 523.429 140.8 523.579 142.042C523.701 143.057 524.798 143.627 525.762 143.542C526.895 143.441 527.53 142.564 528.182 141.75" stroke="black" stroke-linecap="round"/>
    <path d="M530.185 138.75C530.04 140.109 529.684 144.186 529.684 142.819C529.684 141.733 529.895 140.623 530.31 139.618C530.58 138.965 531.286 138.425 531.812 139.125" stroke="black" stroke-linecap="round"/>
    <path d="M534.69 138.75C534.647 139.414 533.875 142.936 534.6 143.167C535.636 143.496 535.981 142.29 536.164 141.569C536.331 140.917 536.864 139.52 536.359 138.896C535.959 138.401 535.508 138.808 535.191 139.125" stroke="black" stroke-linecap="round"/>
    <path d="M536.693 139.875C536.693 140.455 536.278 142.125 537.166 142.125C537.382 142.125 537.579 142.139 537.792 142.181C538.279 142.275 538.402 142.068 538.821 141.875" stroke="black" stroke-linecap="round"/>
    <path d="M541.199 138.5C541.077 139.854 540.953 141.207 540.844 142.562C540.784 143.313 541.024 142.041 541.039 141.993C541.393 140.81 541.842 138.648 543.549 138.903C545.293 139.163 544.878 141.415 544.974 142.618C545.006 143.016 546.16 142.446 546.33 142.375" stroke="black" stroke-linecap="round"/>
    <path d="M549.209 140.625C549.406 140.498 552.047 139.113 551.031 138.472C549.86 137.734 549.128 140.155 549.105 140.861C549.05 142.553 551.26 144.428 552.464 142.625" stroke="black" stroke-linecap="round"/>
    <path d="M579.874 135.375C579.441 137.756 578.748 140.321 578.748 142.625" stroke="black" stroke-linecap="round"/>
    <path d="M580.375 136.25C580.627 138.5 580.843 140.645 581.557 142.785C581.832 143.61 581.957 141.889 582.002 141.681C582.393 139.862 582.748 138.053 583.406 136.306C583.708 135.506 583.754 135.324 583.754 136.125" stroke="black" stroke-linecap="round"/>
    <path d="M585.507 138.75C584.841 139.32 584.525 141.103 584.895 141.889C585.116 142.358 585.98 143.082 586.494 142.653C587.209 142.056 587.692 140.564 587.287 139.681C586.938 138.921 586.056 139.013 585.381 139.125" stroke="black" stroke-linecap="round"/>
    <path d="M587.509 140C587.515 140.601 587.21 142.095 588.183 141.993C588.569 141.953 589.17 141.113 589.511 140.875" stroke="black" stroke-linecap="round"/>
    <path d="M591.389 138.875C591.167 139.569 591.053 141.002 591.292 141.688C591.362 141.889 591.483 141.306 591.57 141.111C591.859 140.461 592.203 139.832 592.655 139.278C592.878 139.004 593.275 138.504 593.642 138.854C594.235 139.422 593.841 140.555 593.781 141.257C593.758 141.522 593.747 142.321 593.767 142.056C593.812 141.445 593.967 140.847 594.303 140.327C594.841 139.492 596.843 138.261 596.994 139.903C597.067 140.704 596.927 142.41 598.203 142.014C599.01 141.764 601.134 140.37 600.456 139.306C599.871 138.387 599.203 140.089 599.302 140.632C599.6 142.271 601.603 141.467 602.654 141.25" stroke="black" stroke-linecap="round"/>
    <path d="M633.568 137C634.007 136.835 635.511 135.953 635.752 136.785C635.93 137.4 635.977 138.114 635.919 138.75C635.88 139.175 635.773 139.677 635.279 139.743C635.248 139.747 634.932 139.777 635.022 139.687C635.673 139.037 636.681 140.345 636.948 140.687C637.483 141.376 638.149 142.226 638.7 141.125" stroke="black" stroke-linecap="round"/>
    <path d="M639.076 137.125C640.41 136.733 640.961 137.591 641.245 138.847C641.421 139.625 641.216 140.132 640.786 140.722C640.628 140.939 641.348 140.725 641.579 140.861C642.016 141.12 642.44 141.469 642.984 141.458C643.498 141.448 643.56 140.866 643.707 140.5" stroke="black" stroke-linecap="round"/>
    <path d="M645.834 137.25C645.934 138.034 646.056 138.819 645.987 139.611C645.962 139.902 645.933 139.797 646.029 139.632C646.317 139.138 647.457 140.034 647.559 140.431C647.873 141.654 645.709 142.271 645.709 141.125" stroke="black" stroke-linecap="round"/>
    <path d="M646.084 137.25C647.318 137.25 648.551 137.25 649.784 137.25C650.06 137.25 649.234 137.321 648.963 137.375" stroke="black" stroke-linecap="round"/>
    <path d="M654.596 136.125C654.348 135.754 653.585 135.45 653.191 135.736C652.328 136.363 652.541 137.381 652.843 138.236C653.011 138.71 653.686 139.843 653.566 140.347C653.423 140.953 652.182 140.75 651.717 140.75" stroke="black" stroke-linecap="round"/>
    <path d="M652.468 134.75C652.855 136.66 653.126 138.429 653.247 140.361C653.298 141.177 653.349 142.011 653.719 142.75" stroke="black" stroke-linecap="round"/>
    <path d="M747.716 137.25C748.227 137.506 748.194 139.288 748.341 139.875" stroke="black" stroke-linecap="round"/>
    <path d="M721.307 135.375V143.25" stroke="black" stroke-linecap="round"/>
    <path d="M721.432 143.375H739.33" stroke="black" stroke-linecap="round"/>
    <path d="M739.831 134.5V143.125" stroke="black" stroke-linecap="round"/>
    <path d="M720.931 134.5H739.08" stroke="black" stroke-linecap="round"/>
    <path d="M729.067 137C729.081 138.449 728.983 139.799 730.207 140.75C731.108 141.449 732.058 140.765 732.224 139.819C732.437 138.607 731.998 138.031 730.847 137.521C730.415 137.329 729.968 137.375 729.505 137.375C728.951 137.375 728.159 137.222 729.067 137.625" stroke="black" stroke-linecap="round"/>
    <path d="M747.841 134.25C746.931 133.589 746.175 133.746 745.366 134.5C744.478 135.328 744.667 137.039 744.768 138.097C744.89 139.381 745.39 141.502 746.896 141.82C748.032 142.059 749.903 142.068 750.956 141.542C752.053 140.994 751.925 139.682 751.965 138.611C752.006 137.491 751.916 136.573 750.963 135.875C750.453 135.501 749.772 135.027 749.169 134.827C748.718 134.676 748.187 134.375 747.716 134.375" stroke="black" stroke-linecap="round"/>
    <path d="M712.17 135.25C711.109 135.26 709.527 135.104 708.659 135.917C707.847 136.677 707.415 138.037 707.748 139.125C708.153 140.449 709.714 141.721 710.877 142.368C711.852 142.911 713.752 143.664 714.659 142.618C715.72 141.397 715.928 138.646 715.146 137.222C714.664 136.345 713.687 135.846 712.768 135.528C712.568 135.459 711.592 135.01 711.92 135.5" stroke="black" stroke-linecap="round"/>
    <path d="M710.418 138.875H713.297" stroke="black" stroke-linecap="round"/>
    <path d="M746.965 138.875C747.315 138.526 748.517 138.75 748.988 138.75C749.444 138.75 749.485 138.7 749.343 139.125" stroke="black" stroke-linecap="round"/>
    <path d="M721.586 160.542V168.417" stroke="black" stroke-linecap="round"/>
    <path d="M721.711 168.542H739.61" stroke="black" stroke-linecap="round"/>
    <path d="M740.11 159.667V168.292" stroke="black" stroke-linecap="round"/>
    <path d="M721.211 159.667H739.359" stroke="black" stroke-linecap="round"/>
    <path d="M729.347 162.167C729.361 163.615 729.262 164.965 730.487 165.917C731.388 166.616 732.338 165.932 732.504 164.986C732.717 163.773 732.277 163.198 731.127 162.687C730.695 162.495 730.248 162.542 729.785 162.542C729.231 162.542 728.439 162.388 729.347 162.792" stroke="black" stroke-linecap="round"/>
    <path d="M748.121 159.417C747.211 158.756 746.455 158.912 745.646 159.667C744.758 160.494 744.947 162.206 745.048 163.264C745.17 164.547 745.669 166.669 747.175 166.986C748.312 167.226 750.182 167.234 751.236 166.708C752.332 166.161 752.205 164.848 752.244 163.778C752.286 162.657 752.196 161.739 751.243 161.042C750.733 160.668 750.052 160.194 749.449 159.993C748.998 159.843 748.467 159.542 747.996 159.542" stroke="black" stroke-linecap="round"/>
    <path d="M712.45 160.417C711.389 160.426 709.806 160.271 708.938 161.083C708.126 161.844 707.695 163.204 708.028 164.292C708.432 165.615 709.994 166.887 711.157 167.535C712.132 168.077 714.032 168.831 714.939 167.785C715.999 166.563 716.208 163.812 715.426 162.389C714.944 161.512 713.967 161.012 713.048 160.694C712.847 160.625 711.872 160.176 712.2 160.667" stroke="black" stroke-linecap="round"/>
    <path d="M710.697 164.042H713.576" stroke="black" stroke-linecap="round"/>
    <path d="M747.245 164.042C747.595 163.692 748.796 163.917 749.268 163.917C749.724 163.917 749.765 163.866 749.623 164.292" stroke="black" stroke-linecap="round"/>
    <path d="M722.588 189.542V197.417" stroke="black" stroke-linecap="round"/>
    <path d="M722.713 197.542H740.611" stroke="black" stroke-linecap="round"/>
    <path d="M741.112 188.667V197.292" stroke="black" stroke-linecap="round"/>
    <path d="M722.212 188.667H740.361" stroke="black" stroke-linecap="round"/>
    <path d="M730.348 191.167C730.362 192.615 730.263 193.965 731.488 194.917C732.389 195.616 733.339 194.932 733.505 193.986C733.718 192.773 733.278 192.198 732.128 191.687C731.696 191.495 731.249 191.542 730.786 191.542C730.231 191.542 729.44 191.388 730.348 191.792" stroke="black" stroke-linecap="round"/>
    <path d="M749.122 188.417C748.212 187.756 747.456 187.912 746.647 188.667C745.759 189.494 745.948 191.206 746.049 192.264C746.171 193.547 746.671 195.669 748.177 195.986C749.313 196.226 751.184 196.234 752.238 195.708C753.334 195.161 753.206 193.848 753.246 192.778C753.287 191.657 753.197 190.739 752.245 190.042C751.734 189.668 751.053 189.194 750.451 188.993C750 188.843 749.468 188.542 748.997 188.542" stroke="black" stroke-linecap="round"/>
    <path d="M713.451 189.417C712.391 189.426 710.808 189.271 709.94 190.083C709.128 190.844 708.696 192.204 709.029 193.292C709.434 194.615 710.995 195.887 712.158 196.535C713.133 197.077 715.033 197.831 715.941 196.785C717.001 195.563 717.21 192.812 716.427 191.389C715.945 190.512 714.968 190.012 714.049 189.694C713.849 189.625 712.874 189.176 713.201 189.667" stroke="black" stroke-linecap="round"/>
    <path d="M711.699 193.042H714.577" stroke="black" stroke-linecap="round"/>
    <path d="M748.246 193.042C748.596 192.692 749.798 192.917 750.27 192.917C750.725 192.917 750.766 192.866 750.624 193.292" stroke="black" stroke-linecap="round"/>
    <path d="M507.155 151H763.486" stroke="black" stroke-linecap="round"/>
    <path d="M506.654 178H763.987" stroke="black" stroke-linecap="round"/>
    <path d="M506.654 208L763.987 207.998" stroke="black" stroke-linecap="round"/>
    <path d="M523.175 159.625C522.823 162.058 523.05 164.404 523.05 166.84C523.05 168.185 523.063 169.53 523.05 170.875C523.046 171.354 522.979 171.145 522.925 170.875" stroke="black" stroke-linecap="round"/>
    <path d="M523.301 161C524.387 161.157 525.469 161.345 526.555 161.5" stroke="black" stroke-linecap="round"/>
    <path d="M522.675 165C523.592 165.13 524.51 165.255 525.428 165.375" stroke="black" stroke-linecap="round"/>
    <path d="M527.806 164.75C527.485 165.356 526.65 169.653 527.633 169.59C528.647 169.525 529.119 167.907 529.281 167.125C529.432 166.389 529.589 165.521 529.058 164.903C528.646 164.422 527.97 164.673 527.431 164.75" stroke="black" stroke-linecap="round"/>
    <path d="M530.435 165.75C530.741 166.845 530.811 170.275 530.811 169.139C530.811 167.904 530.951 166.823 531.562 165.722C531.8 165.292 532.443 164.136 533.091 164.292C533.585 164.41 533.193 165.055 533.063 165.25" stroke="black" stroke-linecap="round"/>
    <path d="M535.691 161.625C535.697 161.928 535.772 169.777 534.941 169.5" stroke="black" stroke-linecap="round"/>
    <path d="M539.196 162.625C538.287 163.582 537.422 164.585 536.61 165.625C536.135 166.233 537.114 166.564 537.569 166.875C538.137 167.263 538.741 167.628 539.196 168.153C539.432 168.424 539.485 168.666 539.822 168.75" stroke="black" stroke-linecap="round"/>
    <path d="M542.074 161.125C541.964 163.606 542.158 166.386 541.512 168.826C541.39 169.285 541.324 169.02 541.324 168.75" stroke="black" stroke-linecap="round"/>
    <path d="M544.578 165.125C544.597 165.652 545.037 168.133 544.516 168.597C544.355 168.74 544.344 168.439 544.328 168.375" stroke="black" stroke-linecap="round"/>
    <path d="M544.328 163.875V163.125" stroke="black" stroke-linecap="round"/>
    <path d="M548.333 168.625C548.973 166.272 549.634 163.922 550.252 161.563C550.399 161.003 550.483 161.147 550.836 161.5" stroke="black" stroke-linecap="round"/>
    <path d="M548.208 164.125C549.007 164.168 549.807 164.217 550.607 164.243C550.807 164.249 551.173 164.188 551.323 164.375C551.482 164.573 551.722 164.577 551.963 164.625" stroke="black" stroke-linecap="round"/>
    <path d="M553.34 160.125C552.976 162.449 552.525 164.788 552.366 167.139C552.356 167.284 552.181 168.554 552.394 168.674C553.147 169.096 554.247 168.155 554.341 167.5" stroke="black" stroke-linecap="round"/>
    <path d="M550.961 167H555.092" stroke="black" stroke-linecap="round"/>
    <path d="M578.497 158.875C578.224 161.698 577.496 164.415 577.496 167.25" stroke="black" stroke-linecap="round"/>
    <path d="M579.123 159.875C579.152 160.032 579.797 164.881 580.027 164.91C580.751 165 581.188 162.951 581.223 162.514C581.28 161.806 580.807 159.409 581.626 159" stroke="black" stroke-linecap="round"/>
    <path d="M584.129 163.125C583.981 163.801 583.098 165.836 584.31 165.972C585.11 166.062 585.492 165.738 585.492 164.931C585.492 163.256 584.378 162.858 583.003 163.25" stroke="black" stroke-linecap="round"/>
    <path d="M586.132 163.625C586.025 164.186 585.56 166.143 586.688 166.25C587.565 166.333 588.167 166.246 588.385 165.375" stroke="black" stroke-linecap="round"/>
    <path d="M589.887 162.625C589.843 163.18 589.538 164.562 589.727 165.167C589.8 165.401 589.901 164.705 590.012 164.486C590.119 164.276 590.416 163.908 590.707 164.014C591.312 164.233 591.372 165.141 591.389 165.653C591.436 167.064 591.792 165.559 592.091 165C592.634 163.986 593.565 163.393 594.685 163.16C595.553 162.979 595.255 164.567 595.185 165.042C595.146 165.31 594.738 166.135 594.907 166.431C595.081 166.734 597.283 166.162 597.522 166.125" stroke="black" stroke-linecap="round"/>
    <path d="M599.524 164.625C599.676 164.349 600.736 162.903 599.816 162.903C598.889 162.903 598.94 164.09 599.107 164.736C599.289 165.441 599.865 165.488 600.49 165.556C601.252 165.637 601.818 165.75 602.528 166" stroke="black" stroke-linecap="round"/>
    <path d="M636.072 161.625C637.175 161.392 638.731 160.787 639.896 160.903C640.154 160.929 640.051 161.466 640.021 161.583C639.86 162.234 639.398 162.764 638.867 163.153C638.509 163.415 638.278 163.303 638.714 163.396C639.433 163.55 639.774 164.343 639.889 164.986C640.028 165.76 637.845 165.375 637.323 165.375" stroke="black" stroke-linecap="round"/>
    <path d="M642.455 161.875C642.382 162.559 641.793 164.597 642.719 164.993C643.328 165.253 644.918 165.322 645.347 164.736C646.052 163.774 645.372 161.984 644.402 161.507C643.679 161.152 643.148 161.449 642.58 161.875" stroke="black" stroke-linecap="round"/>
    <path d="M646.71 162.25C646.816 163.602 646.67 165.132 648.393 164.84C649.239 164.697 649.864 163.819 649.812 162.972C649.677 160.808 647.868 161.619 646.46 161.875" stroke="black" stroke-linecap="round"/>
    <path d="M654.47 160.375C653.759 160.075 653.096 160.468 652.996 161.25C652.898 162.018 653.567 162.66 653.789 163.347C654.183 164.568 652.829 165.445 651.717 165" stroke="black" stroke-linecap="round"/>
    <path d="M652.843 158.875C652.843 160.975 652.843 163.074 652.843 165.174C652.843 165.94 653.218 166.64 653.218 167.375" stroke="black" stroke-linecap="round"/>
    <path d="M521.673 189.625C521.673 191.639 521.804 193.706 521.611 195.715C521.576 196.076 521.643 196.94 521.326 196.764C521.075 196.625 521.298 194.25 521.298 194.007C521.298 192.732 521.341 191.511 522.16 190.465C522.846 189.589 524.504 193.382 524.413 194.09C524.33 194.729 524.178 195.089 523.551 195.25C523.152 195.353 522.915 195.305 522.675 195.625" stroke="black" stroke-linecap="round"/>
    <path d="M526.054 192.375C525.958 193.655 525.772 194.935 525.561 196.201C525.419 197.048 525.612 194.448 525.936 193.653C526.26 192.858 526.557 191.94 527.181 192.875" stroke="black" stroke-linecap="round"/>
    <path d="M528.683 192.25C528.951 192.71 528.726 193.769 528.71 194.264C528.692 194.834 528.683 195.402 528.683 195.972C528.683 196.176 528.691 197.168 528.558 196.5" stroke="black" stroke-linecap="round"/>
    <path d="M529.183 190.25C529.183 189.821 529.019 190.161 528.933 190.375" stroke="black" stroke-linecap="round"/>
    <path d="M530.811 192.625C531.107 193.657 531.453 194.688 531.687 195.736C531.775 196.133 531.957 195.896 532.076 195.639C532.569 194.573 532.786 193.429 533.314 192.375" stroke="black" stroke-linecap="round"/>
    <path d="M535.817 194.125C536.268 193.909 538.226 192.859 538.056 192.264C537.895 191.701 536.656 193.331 536.582 193.458C536.322 193.904 535.806 195.239 536.324 195.66C536.533 195.829 536.943 195.75 537.194 195.75" stroke="black" stroke-linecap="round"/>
    <path d="M539.947 192.25C539.892 193.446 540.027 195.04 539.579 196.16C539.32 196.805 539.558 194.765 539.648 194.076C539.804 192.881 540.816 191.6 541.324 193.375" stroke="black" stroke-linecap="round"/>
    <path d="M549.46 188.625C549.143 190.711 549.091 193.15 548.264 195.125C548.195 195.288 548.208 195.453 548.208 195.625" stroke="black" stroke-linecap="round"/>
    <path d="M546.581 189.25H553.965" stroke="black" stroke-linecap="round"/>
    <path d="M577.245 186.375C577.17 187.903 577.181 189.454 576.981 190.972C576.887 191.682 576.62 192.407 576.62 193.125C576.62 193.414 576.62 195.027 576.62 194" stroke="black" stroke-linecap="round"/>
    <path d="M577.12 187.375C577.844 189.303 578.668 191.179 579.54 193.042C580.032 194.092 580.117 192.085 580.124 191.847C580.18 189.982 580.835 188.456 581.376 186.708C581.439 186.502 581.446 186.215 581.626 186.125" stroke="black" stroke-linecap="round"/>
    <path d="M583.504 191.25C583.24 191.989 583.082 193.194 583.427 193.923C583.757 194.621 584.537 193.965 584.728 193.555C585.001 192.97 585.373 191.651 585.089 191.014C584.956 190.715 583.885 190.875 583.629 190.875" stroke="black" stroke-linecap="round"/>
    <path d="M585.256 191.75C585.448 193.025 585.394 193.667 586.633 194.097C586.929 194.2 587.384 193.508 587.384 193.25" stroke="black" stroke-linecap="round"/>
    <path d="M590.012 191C589.885 191.738 589.542 192.735 589.692 193.5C589.696 193.519 589.869 193.954 589.915 193.917C590.453 193.477 590.264 192.242 590.68 191.695C591.04 191.221 591.975 190.828 592.557 191.084C593.163 191.35 593.068 192.718 592.919 193.222C592.724 193.88 593.363 191.871 593.851 191.389C594.147 191.097 595.54 190.278 595.756 191.056C595.864 191.443 595.327 193.359 595.554 193.472C596.141 193.765 597.538 192.891 598.148 192.75" stroke="black" stroke-linecap="round"/>
    <path d="M600.275 191.75C600.723 191.526 602.909 189.366 601.569 189.861C600.728 190.171 600.239 190.717 600.456 191.625C600.619 192.304 600.976 192.887 601.513 193.333C601.88 193.639 602.268 193.378 602.653 193.25" stroke="black" stroke-linecap="round"/>
    <path d="M637.448 188.25C638.282 189.181 638.806 190.94 638.665 192.188C638.614 192.634 638.392 193.172 637.928 193.326C637.556 193.45 636.361 193.375 636.753 193.375C637.99 193.375 639.337 193.208 640.556 193.444C640.985 193.528 641.112 193.716 641.453 193.375" stroke="black" stroke-linecap="round"/>
    <path d="M643.081 189.25C643.085 190.047 642.553 192.919 643.734 193.292C644.391 193.499 644.871 192.912 645 192.333C645.123 191.784 645.3 190.536 644.944 190.028C644.583 189.511 643.879 189.539 643.331 189.5" stroke="black" stroke-linecap="round"/>
    <path d="M646.961 189.5C646.718 190.317 646.567 192.052 647.239 192.722C647.843 193.325 648.683 192.773 648.991 192.125C649.252 191.577 649.407 190.338 649.123 189.771C648.907 189.339 648.123 189.5 647.712 189.5" stroke="black" stroke-linecap="round"/>
    <path d="M653.97 188.375C653.581 188.181 652.381 188.433 652.078 188.75C651.615 189.236 653.084 190.683 653.372 190.965C653.781 191.366 655.261 192.423 654.54 193.049C653.923 193.583 653.07 193.52 652.343 193.375" stroke="black" stroke-linecap="round"/>
    <path d="M652.468 187C652.597 189.72 652.843 192.402 652.843 195.125" stroke="black" stroke-linecap="round"/>
    <path d="M515.916 217.75C515.649 220.417 515.536 223.087 515.86 225.75C515.924 226.274 515.9 229.024 516.416 228.25" stroke="black" stroke-linecap="round"/>
    <path d="M515.666 219.5C516.197 219.434 519.171 218.602 519.171 219.75" stroke="black" stroke-linecap="round"/>
    <path d="M515.416 224C515.946 223.955 519.421 223.102 519.421 224" stroke="black" stroke-linecap="round"/>
    <path d="M516.667 227.75C518.046 227.75 519.432 227.786 520.811 227.75C521.218 227.739 521.598 227.712 521.173 227.5" stroke="black" stroke-linecap="round"/>
    <path d="M524.177 217.5C524.177 220.074 524.177 222.648 524.177 225.222C524.177 225.65 524.119 226.138 524.233 226.556C524.664 228.136 526.274 227.755 527.181 227" stroke="black" stroke-linecap="round"/>
    <path d="M522.174 224L526.43 223.75" stroke="black" stroke-linecap="round"/>
    <path d="M530.185 222C528.213 223.569 527.512 224.872 529.128 226.889C530.131 228.141 531.62 227.908 532.938 227.25" stroke="black" stroke-linecap="round"/>
    <path d="M536.693 226.75C536.406 226.672 535.447 225.74 535.219 226.139C535.029 226.47 535.257 226.816 535.441 227" stroke="black" stroke-linecap="round"/>
    <path d="M510.785 138.375C511.117 139.552 511.307 140.494 512.008 141.458C512.263 141.809 512.671 142.159 512.885 142.5C513.033 142.737 515.386 139.149 515.666 138.75" stroke="black" stroke-linecap="round"/>
    <path d="M511.536 164.125C511.937 165.114 512.791 165.854 513.135 166.833C513.251 167.163 513.523 168.663 513.914 168.75C514.367 168.851 514.887 167.061 515.04 166.75C515.566 165.68 516.134 164.737 516.792 163.75" stroke="black" stroke-linecap="round"/>
    <path d="M510.034 191.625C510.618 192.809 511.187 194.006 511.703 195.222C511.769 195.378 511.727 195.861 511.981 195.861C512.902 195.861 515.487 191.696 515.916 192.125" stroke="black" stroke-linecap="round"/>
    <path d="M546.455 70.1249C546.119 69.452 544.534 71.2063 544.314 71.4513C543.793 72.0317 543.713 72.5197 544.203 73.1943C544.735 73.9285 546.02 74.1188 546.455 73.2499" stroke="black" stroke-linecap="round"/>
    <path d="M548.833 70.625C548.881 71.0971 548.768 73.193 549.369 73.4931C549.879 73.7478 550.658 73.5253 551.045 73.1389C552.02 72.165 551.126 71.1565 550.21 70.75" stroke="black" stroke-linecap="round"/>
    <path d="M553.59 71C553.593 71.4268 553.384 74.7212 554.779 73.5347C555.193 73.1826 555.504 72.6205 555.579 72.0833C555.582 72.0572 555.626 71.3157 555.69 71.6111C555.872 72.4534 555.49 73.1211 556.093 73.7986C556.295 74.0255 557.082 73.8273 557.296 73.7986C557.886 73.7194 558.576 73.69 558.346 73" stroke="black" stroke-linecap="round"/>
    <path d="M560.349 70.75C560.447 71.5539 560.599 73.9765 560.599 73.1667C560.599 72.5903 560.586 72.0157 560.682 71.4444C560.887 70.2273 561.429 69.7044 562.351 70.625" stroke="black" stroke-linecap="round"/>
    <path d="M564.98 70.25C563.738 70.7957 565.119 72.1509 565.279 72.8194C565.467 73.6073 564.037 73.375 563.603 73.375" stroke="black" stroke-linecap="round"/>
    <path d="M569.485 71.7501C570.082 71.2052 570.904 70.5782 569.617 70.771C568.85 70.8859 568.656 71.6438 568.818 72.3057C569.071 73.3396 570.834 73.3751 571.738 73.3751" stroke="black" stroke-linecap="round"/>
    <path d="M579.498 70.25C579.341 70.5097 577.29 73.631 578.775 73.5556C579.637 73.5118 580.334 72.8502 580.875 72.25" stroke="black" stroke-linecap="round"/>
    <path d="M582.503 71.0001C582.432 71.3587 581.623 73.625 582.586 73.4723C583.205 73.3742 583.781 73.0413 583.949 72.4029C584.263 71.2095 583.328 70.5682 582.252 70.8751" stroke="black" stroke-linecap="round"/>
    <path d="M584.254 71.375C584.321 71.7167 584.322 72.5253 584.56 72.8194C584.684 72.9728 585.283 72.875 585.443 72.875C585.841 72.875 586.36 72.9406 586.507 72.5" stroke="black" stroke-linecap="round"/>
    <path d="M589.011 67.875C588.969 69.0674 588.9 70.2646 588.9 71.4583C588.9 71.6833 588.88 72.0598 589.039 72.2639C589.212 72.4857 589.765 72.375 590.012 72.375" stroke="black" stroke-linecap="round"/>
    <path d="M586.507 70.375H590.262" stroke="black" stroke-linecap="round"/>
    <path d="M592.265 71.2502C592.361 71.2202 595.79 70.1136 594.17 70.2641C593.358 70.3395 592.493 70.6794 592.515 71.6252C592.554 73.3369 595.676 72.7502 596.77 72.7502" stroke="black" stroke-linecap="round"/>
    <path d="M597.897 70.5001C598.05 70.9254 598.357 72.5692 599.135 72.3473C599.595 72.2159 599.793 71.3519 599.948 70.9585C600.503 69.5511 598.889 70.1914 598.147 70.5001" stroke="black" stroke-linecap="round"/>
    <path d="M600.401 70.75C600.421 71.478 600.843 73.6876 600.22 74.3472C600.066 74.5098 599.582 74.6386 599.371 74.7222C598.617 75.0211 598.225 74.8365 597.647 74.375" stroke="black" stroke-linecap="round"/>
    <path d="M602.653 70.5002C602.802 70.9578 603.051 72.7568 603.863 72.5279C604.476 72.3553 605.093 71.8602 605.122 71.1877C605.159 70.3142 604.255 69.7627 603.529 70.1252" stroke="black" stroke-linecap="round"/>
    <path d="M607.034 70.3748C607.15 71.0371 607.352 71.7706 607.249 72.4512C607.23 72.5766 607.069 72.9355 606.964 72.6109C606.797 72.0905 606.869 71.2887 607.145 70.8193C607.247 70.6457 608.536 69.2807 608.536 70.1248" stroke="black" stroke-linecap="round"/>
    <path d="M610.664 69.875C610.818 70.3134 611.062 71.8681 611.804 71.7292C612.215 71.6523 612.526 71.4052 612.639 71C612.721 70.7038 612.817 70.4603 613.021 70.2222C613.051 70.187 613.033 70.315 613.028 70.3611C612.969 70.9181 612.898 71.4778 612.792 72.0278C612.533 73.3634 612.055 75.8937 610.316 75.6944C609.611 75.6136 608.973 75.5239 608.536 75" stroke="black" stroke-linecap="round"/>
</svg>
