<svg width="782" height="182" viewBox="0 0 782 182" fill="none" xmlns="http://www.w3.org/2000/svg">
    <path d="M711.608 1H38.6187C36.4095 1 34.6187 2.79086 34.6187 5V49C34.6187 51.2091 36.4095 53 38.6186 53H711.608C713.817 53 715.608 51.2091 715.608 49V5C715.608 2.79086 713.817 1 711.608 1Z" stroke="#1E1E1E" stroke-dasharray="2 2"/>
    <path d="M285.805 34H283.699V23.848H280.063V21.994H289.441V23.848H285.805V34ZM291.708 34H289.818V25.306H291.708V26.584C292.044 26.152 292.464 25.798 292.968 25.522C293.472 25.246 293.994 25.108 294.534 25.108V26.98C294.366 26.944 294.168 26.926 293.94 26.926C293.544 26.926 293.118 27.046 292.662 27.286C292.218 27.514 291.9 27.778 291.708 28.078V34ZM303.258 34H301.368V33.064C300.696 33.832 299.76 34.216 298.56 34.216C297.768 34.216 297.066 33.964 296.454 33.46C295.842 32.944 295.536 32.236 295.536 31.336C295.536 30.412 295.836 29.71 296.436 29.23C297.048 28.75 297.756 28.51 298.56 28.51C299.796 28.51 300.732 28.882 301.368 29.626V28.33C301.368 27.826 301.182 27.43 300.81 27.142C300.438 26.854 299.946 26.71 299.334 26.71C298.362 26.71 297.504 27.076 296.76 27.808L295.986 26.494C296.97 25.558 298.188 25.09 299.64 25.09C300.708 25.09 301.578 25.342 302.25 25.846C302.922 26.35 303.258 27.148 303.258 28.24V34ZM299.298 32.92C300.246 32.92 300.936 32.62 301.368 32.02V30.706C300.936 30.106 300.246 29.806 299.298 29.806C298.758 29.806 298.314 29.95 297.966 30.238C297.618 30.526 297.444 30.904 297.444 31.372C297.444 31.84 297.618 32.218 297.966 32.506C298.314 32.782 298.758 32.92 299.298 32.92ZM306.645 24.244C306.333 24.244 306.057 24.13 305.817 23.902C305.589 23.674 305.475 23.398 305.475 23.074C305.475 22.75 305.589 22.474 305.817 22.246C306.057 22.018 306.333 21.904 306.645 21.904C306.969 21.904 307.245 22.018 307.473 22.246C307.701 22.474 307.815 22.75 307.815 23.074C307.815 23.398 307.701 23.674 307.473 23.902C307.245 24.13 306.969 24.244 306.645 24.244ZM307.599 34H305.709V25.306H307.599V34ZM317.808 34H315.918V28.564C315.918 27.364 315.336 26.764 314.172 26.764C313.716 26.764 313.29 26.878 312.894 27.106C312.498 27.334 312.18 27.61 311.94 27.934V34H310.05V25.306H311.94V26.494C312.264 26.11 312.696 25.78 313.236 25.504C313.776 25.228 314.364 25.09 315 25.09C315.924 25.09 316.62 25.33 317.088 25.81C317.568 26.29 317.808 26.98 317.808 27.88V34ZM321.199 24.244C320.887 24.244 320.611 24.13 320.371 23.902C320.143 23.674 320.029 23.398 320.029 23.074C320.029 22.75 320.143 22.474 320.371 22.246C320.611 22.018 320.887 21.904 321.199 21.904C321.523 21.904 321.799 22.018 322.027 22.246C322.255 22.474 322.369 22.75 322.369 23.074C322.369 23.398 322.255 23.674 322.027 23.902C321.799 24.13 321.523 24.244 321.199 24.244ZM322.153 34H320.263V25.306H322.153V34ZM332.363 34H330.473V28.564C330.473 27.364 329.891 26.764 328.727 26.764C328.271 26.764 327.845 26.878 327.449 27.106C327.053 27.334 326.735 27.61 326.495 27.934V34H324.605V25.306H326.495V26.494C326.819 26.11 327.251 25.78 327.791 25.504C328.331 25.228 328.919 25.09 329.555 25.09C330.479 25.09 331.175 25.33 331.643 25.81C332.123 26.29 332.363 26.98 332.363 27.88V34ZM338.346 37.528C336.87 37.528 335.658 37.096 334.71 36.232L335.592 34.864C336.24 35.608 337.158 35.98 338.346 35.98C339.066 35.98 339.672 35.788 340.164 35.404C340.668 35.032 340.92 34.438 340.92 33.622V32.578C340.176 33.538 339.246 34.018 338.13 34.018C336.99 34.018 336.06 33.622 335.34 32.83C334.632 32.038 334.278 30.946 334.278 29.554C334.278 28.174 334.632 27.088 335.34 26.296C336.06 25.492 336.99 25.09 338.13 25.09C339.27 25.09 340.2 25.564 340.92 26.512V25.306H342.81V33.55C342.81 34.294 342.678 34.936 342.414 35.476C342.162 36.028 341.814 36.442 341.37 36.718C340.926 37.006 340.452 37.21 339.948 37.33C339.456 37.462 338.922 37.528 338.346 37.528ZM338.688 32.344C339.12 32.344 339.546 32.23 339.966 32.002C340.386 31.774 340.704 31.498 340.92 31.174V27.934C340.704 27.61 340.386 27.334 339.966 27.106C339.546 26.878 339.12 26.764 338.688 26.764C337.944 26.764 337.35 27.022 336.906 27.538C336.462 28.042 336.24 28.714 336.24 29.554C336.24 30.394 336.462 31.072 336.906 31.588C337.35 32.092 337.944 32.344 338.688 32.344ZM353.843 34.216C352.523 34.216 351.443 33.79 350.603 32.938C349.763 32.074 349.343 30.976 349.343 29.644C349.343 28.324 349.763 27.238 350.603 26.386C351.443 25.522 352.523 25.09 353.843 25.09C355.295 25.09 356.405 25.606 357.173 26.638L355.931 27.79C355.451 27.106 354.785 26.764 353.933 26.764C353.141 26.764 352.505 27.034 352.025 27.574C351.545 28.102 351.305 28.792 351.305 29.644C351.305 30.496 351.545 31.192 352.025 31.732C352.505 32.272 353.141 32.542 353.933 32.542C354.761 32.542 355.427 32.2 355.931 31.516L357.173 32.668C356.405 33.7 355.295 34.216 353.843 34.216ZM362.754 34.216C361.41 34.216 360.33 33.778 359.514 32.902C358.698 32.014 358.29 30.928 358.29 29.644C358.29 28.36 358.698 27.28 359.514 26.404C360.33 25.528 361.41 25.09 362.754 25.09C364.11 25.09 365.196 25.528 366.012 26.404C366.828 27.28 367.236 28.36 367.236 29.644C367.236 30.94 366.828 32.026 366.012 32.902C365.196 33.778 364.11 34.216 362.754 34.216ZM362.754 32.542C363.534 32.542 364.146 32.266 364.59 31.714C365.046 31.15 365.274 30.46 365.274 29.644C365.274 28.84 365.046 28.162 364.59 27.61C364.146 27.046 363.534 26.764 362.754 26.764C361.986 26.764 361.374 27.046 360.918 27.61C360.474 28.162 360.252 28.84 360.252 29.644C360.252 30.46 360.474 31.15 360.918 31.714C361.374 32.266 361.986 32.542 362.754 32.542ZM376.906 34H375.016V32.848C374.2 33.76 373.174 34.216 371.938 34.216C370.078 34.216 369.148 33.298 369.148 31.462V25.306H371.038V30.778C371.038 31.414 371.188 31.87 371.488 32.146C371.788 32.41 372.22 32.542 372.784 32.542C373.24 32.542 373.666 32.434 374.062 32.218C374.458 32.002 374.776 31.732 375.016 31.408V25.306H376.906V34ZM381.251 34H379.361V25.306H381.251V26.584C381.587 26.152 382.007 25.798 382.511 25.522C383.015 25.246 383.537 25.108 384.077 25.108V26.98C383.909 26.944 383.711 26.926 383.483 26.926C383.087 26.926 382.661 27.046 382.205 27.286C381.761 27.514 381.443 27.778 381.251 28.078V34ZM388.571 34.216C387.011 34.216 385.769 33.766 384.845 32.866L385.709 31.498C386.033 31.834 386.471 32.122 387.023 32.362C387.575 32.602 388.121 32.722 388.661 32.722C389.213 32.722 389.633 32.614 389.921 32.398C390.221 32.182 390.371 31.9 390.371 31.552C390.371 31.24 390.191 31 389.831 30.832C389.471 30.652 389.033 30.514 388.517 30.418C388.001 30.31 387.485 30.184 386.969 30.04C386.453 29.884 386.015 29.614 385.655 29.23C385.295 28.846 385.115 28.348 385.115 27.736C385.115 26.992 385.421 26.368 386.033 25.864C386.645 25.348 387.479 25.09 388.535 25.09C389.867 25.09 390.995 25.498 391.919 26.314L391.127 27.646C390.851 27.334 390.485 27.082 390.029 26.89C389.573 26.698 389.081 26.602 388.553 26.602C388.061 26.602 387.665 26.704 387.365 26.908C387.077 27.1 386.933 27.352 386.933 27.664C386.933 27.904 387.059 28.102 387.311 28.258C387.575 28.402 387.899 28.51 388.283 28.582C388.679 28.654 389.105 28.756 389.561 28.888C390.017 29.008 390.437 29.152 390.821 29.32C391.217 29.488 391.541 29.764 391.793 30.148C392.057 30.52 392.189 30.976 392.189 31.516C392.189 32.308 391.871 32.956 391.235 33.46C390.599 33.964 389.711 34.216 388.571 34.216ZM398.106 34.216C396.786 34.216 395.694 33.796 394.83 32.956C393.978 32.104 393.552 31 393.552 29.644C393.552 28.372 393.966 27.298 394.794 26.422C395.634 25.534 396.69 25.09 397.962 25.09C399.246 25.09 400.278 25.534 401.058 26.422C401.85 27.31 402.246 28.444 402.246 29.824V30.274H395.532C395.604 30.958 395.886 31.528 396.378 31.984C396.87 32.44 397.512 32.668 398.304 32.668C398.748 32.668 399.192 32.584 399.636 32.416C400.092 32.248 400.47 32.014 400.77 31.714L401.634 32.956C400.758 33.796 399.582 34.216 398.106 34.216ZM400.41 28.942C400.386 28.342 400.164 27.808 399.744 27.34C399.336 26.872 398.742 26.638 397.962 26.638C397.218 26.638 396.636 26.872 396.216 27.34C395.796 27.796 395.562 28.33 395.514 28.942H400.41ZM407.081 34.216C405.521 34.216 404.279 33.766 403.355 32.866L404.219 31.498C404.543 31.834 404.981 32.122 405.533 32.362C406.085 32.602 406.631 32.722 407.171 32.722C407.723 32.722 408.143 32.614 408.431 32.398C408.731 32.182 408.881 31.9 408.881 31.552C408.881 31.24 408.701 31 408.341 30.832C407.981 30.652 407.543 30.514 407.027 30.418C406.511 30.31 405.995 30.184 405.479 30.04C404.963 29.884 404.525 29.614 404.165 29.23C403.805 28.846 403.625 28.348 403.625 27.736C403.625 26.992 403.931 26.368 404.543 25.864C405.155 25.348 405.989 25.09 407.045 25.09C408.377 25.09 409.505 25.498 410.429 26.314L409.637 27.646C409.361 27.334 408.995 27.082 408.539 26.89C408.083 26.698 407.591 26.602 407.063 26.602C406.571 26.602 406.175 26.704 405.875 26.908C405.587 27.1 405.443 27.352 405.443 27.664C405.443 27.904 405.569 28.102 405.821 28.258C406.085 28.402 406.409 28.51 406.793 28.582C407.189 28.654 407.615 28.756 408.071 28.888C408.527 29.008 408.947 29.152 409.331 29.32C409.727 29.488 410.051 29.764 410.303 30.148C410.567 30.52 410.699 30.976 410.699 31.516C410.699 32.308 410.381 32.956 409.745 33.46C409.109 33.964 408.221 34.216 407.081 34.216ZM424.982 34H423.092V32.848C422.276 33.76 421.25 34.216 420.014 34.216C418.154 34.216 417.224 33.298 417.224 31.462V25.306H419.114V30.778C419.114 31.414 419.264 31.87 419.564 32.146C419.864 32.41 420.296 32.542 420.86 32.542C421.316 32.542 421.742 32.434 422.138 32.218C422.534 32.002 422.852 31.732 423.092 31.408V25.306H424.982V34ZM432.117 34.216C430.965 34.216 430.035 33.742 429.327 32.794V37.312H427.437V25.306H429.327V26.494C430.023 25.558 430.953 25.09 432.117 25.09C433.257 25.09 434.181 25.498 434.889 26.314C435.609 27.13 435.969 28.24 435.969 29.644C435.969 31.048 435.609 32.164 434.889 32.992C434.181 33.808 433.257 34.216 432.117 34.216ZM431.559 32.542C432.303 32.542 432.897 32.272 433.341 31.732C433.785 31.192 434.007 30.496 434.007 29.644C434.007 28.792 433.785 28.102 433.341 27.574C432.897 27.034 432.303 26.764 431.559 26.764C431.127 26.764 430.701 26.878 430.281 27.106C429.861 27.334 429.543 27.61 429.327 27.934V31.372C429.543 31.696 429.861 31.972 430.281 32.2C430.701 32.428 431.127 32.542 431.559 32.542ZM439.733 34H437.843V21.994H439.733V34ZM446.109 34.216C444.765 34.216 443.685 33.778 442.869 32.902C442.053 32.014 441.645 30.928 441.645 29.644C441.645 28.36 442.053 27.28 442.869 26.404C443.685 25.528 444.765 25.09 446.109 25.09C447.465 25.09 448.551 25.528 449.367 26.404C450.183 27.28 450.591 28.36 450.591 29.644C450.591 30.94 450.183 32.026 449.367 32.902C448.551 33.778 447.465 34.216 446.109 34.216ZM446.109 32.542C446.889 32.542 447.501 32.266 447.945 31.714C448.401 31.15 448.629 30.46 448.629 29.644C448.629 28.84 448.401 28.162 447.945 27.61C447.501 27.046 446.889 26.764 446.109 26.764C445.341 26.764 444.729 27.046 444.273 27.61C443.829 28.162 443.607 28.84 443.607 29.644C443.607 30.46 443.829 31.15 444.273 31.714C444.729 32.266 445.341 32.542 446.109 32.542ZM459.704 34H457.814V33.064C457.142 33.832 456.206 34.216 455.006 34.216C454.214 34.216 453.512 33.964 452.9 33.46C452.288 32.944 451.982 32.236 451.982 31.336C451.982 30.412 452.282 29.71 452.882 29.23C453.494 28.75 454.202 28.51 455.006 28.51C456.242 28.51 457.178 28.882 457.814 29.626V28.33C457.814 27.826 457.628 27.43 457.256 27.142C456.884 26.854 456.392 26.71 455.78 26.71C454.808 26.71 453.95 27.076 453.206 27.808L452.432 26.494C453.416 25.558 454.634 25.09 456.086 25.09C457.154 25.09 458.024 25.342 458.696 25.846C459.368 26.35 459.704 27.148 459.704 28.24V34ZM455.744 32.92C456.692 32.92 457.382 32.62 457.814 32.02V30.706C457.382 30.106 456.692 29.806 455.744 29.806C455.204 29.806 454.76 29.95 454.412 30.238C454.064 30.526 453.89 30.904 453.89 31.372C453.89 31.84 454.064 32.218 454.412 32.506C454.76 32.782 455.204 32.92 455.744 32.92ZM470.164 34H468.274V32.812C467.554 33.748 466.624 34.216 465.484 34.216C464.344 34.216 463.414 33.808 462.694 32.992C461.974 32.176 461.614 31.066 461.614 29.662C461.614 28.27 461.974 27.16 462.694 26.332C463.414 25.504 464.344 25.09 465.484 25.09C466.624 25.09 467.554 25.564 468.274 26.512V21.994H470.164V34ZM466.024 32.542C466.468 32.542 466.9 32.434 467.32 32.218C467.74 32.002 468.058 31.726 468.274 31.39V27.934C468.058 27.598 467.74 27.322 467.32 27.106C466.9 26.878 466.468 26.764 466.024 26.764C465.28 26.764 464.686 27.034 464.242 27.574C463.798 28.114 463.576 28.81 463.576 29.662C463.576 30.514 463.798 31.21 464.242 31.75C464.686 32.278 465.28 32.542 466.024 32.542Z" fill="#1E1E1E"/>
    <path d="M684.99 65H65.2368C63.0277 65 61.2368 66.7909 61.2368 69V113C61.2368 115.209 63.0277 117 65.2368 117H684.99C687.199 117 688.99 115.209 688.99 113V69C688.99 66.7909 687.199 65 684.99 65Z" stroke="#1E1E1E" stroke-dasharray="2 2"/>
    <path d="M319.264 98.216C317.464 98.216 315.964 97.64 314.764 96.488C313.564 95.324 312.964 93.83 312.964 92.006C312.964 90.182 313.564 88.694 314.764 87.542C315.964 86.378 317.464 85.796 319.264 85.796C321.352 85.796 322.96 86.696 324.088 88.496L322.288 89.414C321.988 88.898 321.562 88.478 321.01 88.154C320.47 87.83 319.888 87.668 319.264 87.668C318.076 87.668 317.086 88.076 316.294 88.892C315.514 89.708 315.124 90.746 315.124 92.006C315.124 93.266 315.514 94.304 316.294 95.12C317.086 95.936 318.076 96.344 319.264 96.344C319.9 96.344 320.488 96.182 321.028 95.858C321.568 95.534 321.988 95.114 322.288 94.598L324.088 95.516C322.936 97.316 321.328 98.216 319.264 98.216ZM329.643 98.216C328.299 98.216 327.219 97.778 326.403 96.902C325.587 96.014 325.179 94.928 325.179 93.644C325.179 92.36 325.587 91.28 326.403 90.404C327.219 89.528 328.299 89.09 329.643 89.09C330.999 89.09 332.085 89.528 332.901 90.404C333.717 91.28 334.125 92.36 334.125 93.644C334.125 94.94 333.717 96.026 332.901 96.902C332.085 97.778 330.999 98.216 329.643 98.216ZM329.643 96.542C330.423 96.542 331.035 96.266 331.479 95.714C331.935 95.15 332.163 94.46 332.163 93.644C332.163 92.84 331.935 92.162 331.479 91.61C331.035 91.046 330.423 90.764 329.643 90.764C328.875 90.764 328.263 91.046 327.807 91.61C327.363 92.162 327.141 92.84 327.141 93.644C327.141 94.46 327.363 95.15 327.807 95.714C328.263 96.266 328.875 96.542 329.643 96.542ZM348.584 98H346.694V92.33C346.694 91.286 346.22 90.764 345.272 90.764C344.876 90.764 344.492 90.878 344.12 91.106C343.748 91.334 343.46 91.604 343.256 91.916V98H341.366V92.33C341.366 91.286 340.886 90.764 339.926 90.764C339.542 90.764 339.164 90.878 338.792 91.106C338.432 91.334 338.144 91.61 337.928 91.934V98H336.038V89.306H337.928V90.494C338.144 90.17 338.516 89.858 339.044 89.558C339.584 89.246 340.154 89.09 340.754 89.09C342.014 89.09 342.806 89.624 343.13 90.692C343.406 90.26 343.814 89.888 344.354 89.576C344.894 89.252 345.47 89.09 346.082 89.09C347.75 89.09 348.584 89.966 348.584 91.718V98ZM355.712 98.216C354.56 98.216 353.63 97.742 352.922 96.794V101.312H351.032V89.306H352.922V90.494C353.618 89.558 354.548 89.09 355.712 89.09C356.852 89.09 357.776 89.498 358.484 90.314C359.204 91.13 359.564 92.24 359.564 93.644C359.564 95.048 359.204 96.164 358.484 96.992C357.776 97.808 356.852 98.216 355.712 98.216ZM355.154 96.542C355.898 96.542 356.492 96.272 356.936 95.732C357.38 95.192 357.602 94.496 357.602 93.644C357.602 92.792 357.38 92.102 356.936 91.574C356.492 91.034 355.898 90.764 355.154 90.764C354.722 90.764 354.296 90.878 353.876 91.106C353.456 91.334 353.138 91.61 352.922 91.934V95.372C353.138 95.696 353.456 95.972 353.876 96.2C354.296 96.428 354.722 96.542 355.154 96.542ZM368.638 98H366.748V97.064C366.076 97.832 365.14 98.216 363.94 98.216C363.148 98.216 362.446 97.964 361.834 97.46C361.222 96.944 360.916 96.236 360.916 95.336C360.916 94.412 361.216 93.71 361.816 93.23C362.428 92.75 363.136 92.51 363.94 92.51C365.176 92.51 366.112 92.882 366.748 93.626V92.33C366.748 91.826 366.562 91.43 366.19 91.142C365.818 90.854 365.326 90.71 364.714 90.71C363.742 90.71 362.884 91.076 362.14 91.808L361.366 90.494C362.35 89.558 363.568 89.09 365.02 89.09C366.088 89.09 366.958 89.342 367.63 89.846C368.302 90.35 368.638 91.148 368.638 92.24V98ZM364.678 96.92C365.626 96.92 366.316 96.62 366.748 96.02V94.706C366.316 94.106 365.626 93.806 364.678 93.806C364.138 93.806 363.694 93.95 363.346 94.238C362.998 94.526 362.824 94.904 362.824 95.372C362.824 95.84 362.998 96.218 363.346 96.506C363.694 96.782 364.138 96.92 364.678 96.92ZM378.847 98H376.957V92.564C376.957 91.364 376.375 90.764 375.211 90.764C374.755 90.764 374.329 90.878 373.933 91.106C373.537 91.334 373.219 91.61 372.979 91.934V98H371.089V89.306H372.979V90.494C373.303 90.11 373.735 89.78 374.275 89.504C374.815 89.228 375.403 89.09 376.039 89.09C376.963 89.09 377.659 89.33 378.127 89.81C378.607 90.29 378.847 90.98 378.847 91.88V98ZM380.923 101.402L381.211 99.71C381.427 99.806 381.667 99.854 381.931 99.854C382.543 99.854 382.957 99.602 383.173 99.098L383.605 98.108L380.041 89.306H382.057L384.595 95.822L387.133 89.306H389.167L384.973 99.566C384.457 100.85 383.461 101.504 381.985 101.528C381.589 101.528 381.235 101.486 380.923 101.402ZM397.947 98.216C396.387 98.216 395.145 97.766 394.221 96.866L395.085 95.498C395.409 95.834 395.847 96.122 396.399 96.362C396.951 96.602 397.497 96.722 398.037 96.722C398.589 96.722 399.009 96.614 399.297 96.398C399.597 96.182 399.747 95.9 399.747 95.552C399.747 95.24 399.567 95 399.207 94.832C398.847 94.652 398.409 94.514 397.893 94.418C397.377 94.31 396.861 94.184 396.345 94.04C395.829 93.884 395.391 93.614 395.031 93.23C394.671 92.846 394.491 92.348 394.491 91.736C394.491 90.992 394.797 90.368 395.409 89.864C396.021 89.348 396.855 89.09 397.911 89.09C399.243 89.09 400.371 89.498 401.295 90.314L400.503 91.646C400.227 91.334 399.861 91.082 399.405 90.89C398.949 90.698 398.457 90.602 397.929 90.602C397.437 90.602 397.041 90.704 396.741 90.908C396.453 91.1 396.309 91.352 396.309 91.664C396.309 91.904 396.435 92.102 396.687 92.258C396.951 92.402 397.275 92.51 397.659 92.582C398.055 92.654 398.481 92.756 398.937 92.888C399.393 93.008 399.813 93.152 400.197 93.32C400.593 93.488 400.917 93.764 401.169 94.148C401.433 94.52 401.565 94.976 401.565 95.516C401.565 96.308 401.247 96.956 400.611 97.46C399.975 97.964 399.087 98.216 397.947 98.216ZM407.482 98.216C406.162 98.216 405.07 97.796 404.206 96.956C403.354 96.104 402.928 95 402.928 93.644C402.928 92.372 403.342 91.298 404.17 90.422C405.01 89.534 406.066 89.09 407.338 89.09C408.622 89.09 409.654 89.534 410.434 90.422C411.226 91.31 411.622 92.444 411.622 93.824V94.274H404.908C404.98 94.958 405.262 95.528 405.754 95.984C406.246 96.44 406.888 96.668 407.68 96.668C408.124 96.668 408.568 96.584 409.012 96.416C409.468 96.248 409.846 96.014 410.146 95.714L411.01 96.956C410.134 97.796 408.958 98.216 407.482 98.216ZM409.786 92.942C409.762 92.342 409.54 91.808 409.12 91.34C408.712 90.872 408.118 90.638 407.338 90.638C406.594 90.638 406.012 90.872 405.592 91.34C405.172 91.796 404.938 92.33 404.89 92.942H409.786ZM416.097 98.216C415.365 98.216 414.807 98.024 414.423 97.64C414.051 97.256 413.865 96.704 413.865 95.984V90.962H412.425V89.306H413.865V86.93H415.755V89.306H417.519V90.962H415.755V95.516C415.755 95.828 415.827 96.08 415.971 96.272C416.115 96.452 416.319 96.542 416.583 96.542C416.967 96.542 417.249 96.44 417.429 96.236L417.879 97.658C417.483 98.03 416.889 98.216 416.097 98.216ZM426.993 98H425.103V96.848C424.287 97.76 423.261 98.216 422.025 98.216C420.165 98.216 419.235 97.298 419.235 95.462V89.306H421.125V94.778C421.125 95.414 421.275 95.87 421.575 96.146C421.875 96.41 422.307 96.542 422.871 96.542C423.327 96.542 423.753 96.434 424.149 96.218C424.545 96.002 424.863 95.732 425.103 95.408V89.306H426.993V98ZM434.128 98.216C432.976 98.216 432.046 97.742 431.338 96.794V101.312H429.448V89.306H431.338V90.494C432.034 89.558 432.964 89.09 434.128 89.09C435.268 89.09 436.192 89.498 436.9 90.314C437.62 91.13 437.98 92.24 437.98 93.644C437.98 95.048 437.62 96.164 436.9 96.992C436.192 97.808 435.268 98.216 434.128 98.216ZM433.57 96.542C434.314 96.542 434.908 96.272 435.352 95.732C435.796 95.192 436.018 94.496 436.018 93.644C436.018 92.792 435.796 92.102 435.352 91.574C434.908 91.034 434.314 90.764 433.57 90.764C433.138 90.764 432.712 90.878 432.292 91.106C431.872 91.334 431.554 91.61 431.338 91.934V95.372C431.554 95.696 431.872 95.972 432.292 96.2C432.712 96.428 433.138 96.542 433.57 96.542Z" fill="#1E1E1E"/>
    <path d="M658.516 129H92C89.7909 129 88 130.791 88 133V177C88 179.209 89.7908 181 92 181H658.516C660.725 181 662.516 179.209 662.516 177V133C662.516 130.791 660.725 129 658.516 129Z" stroke="#1E1E1E" stroke-dasharray="2 2"/>
    <path d="M328.732 162H326.626V149.994H331.9C333.112 149.994 334.066 150.354 334.762 151.074C335.47 151.794 335.824 152.688 335.824 153.756C335.824 154.812 335.47 155.706 334.762 156.438C334.066 157.158 333.112 157.518 331.9 157.518H328.732V162ZM331.612 155.664C332.212 155.664 332.704 155.49 333.088 155.142C333.472 154.794 333.664 154.332 333.664 153.756C333.664 153.18 333.472 152.718 333.088 152.37C332.704 152.022 332.212 151.848 331.612 151.848H328.732V155.664H331.612ZM339.413 162H337.523V153.306H339.413V154.584C339.749 154.152 340.169 153.798 340.673 153.522C341.177 153.246 341.699 153.108 342.239 153.108V154.98C342.071 154.944 341.873 154.926 341.645 154.926C341.249 154.926 340.823 155.046 340.367 155.286C339.923 155.514 339.605 155.778 339.413 156.078V162ZM344.7 152.244C344.388 152.244 344.112 152.13 343.872 151.902C343.644 151.674 343.53 151.398 343.53 151.074C343.53 150.75 343.644 150.474 343.872 150.246C344.112 150.018 344.388 149.904 344.7 149.904C345.024 149.904 345.3 150.018 345.528 150.246C345.756 150.474 345.87 150.75 345.87 151.074C345.87 151.398 345.756 151.674 345.528 151.902C345.3 152.13 345.024 152.244 344.7 152.244ZM345.654 162H343.764V153.306H345.654V162ZM352.065 162.216C350.745 162.216 349.665 161.79 348.825 160.938C347.985 160.074 347.565 158.976 347.565 157.644C347.565 156.324 347.985 155.238 348.825 154.386C349.665 153.522 350.745 153.09 352.065 153.09C353.517 153.09 354.627 153.606 355.395 154.638L354.153 155.79C353.673 155.106 353.007 154.764 352.155 154.764C351.363 154.764 350.727 155.034 350.247 155.574C349.767 156.102 349.527 156.792 349.527 157.644C349.527 158.496 349.767 159.192 350.247 159.732C350.727 160.272 351.363 160.542 352.155 160.542C352.983 160.542 353.649 160.2 354.153 159.516L355.395 160.668C354.627 161.7 353.517 162.216 352.065 162.216ZM361.067 162.216C359.747 162.216 358.655 161.796 357.791 160.956C356.939 160.104 356.513 159 356.513 157.644C356.513 156.372 356.927 155.298 357.755 154.422C358.595 153.534 359.651 153.09 360.923 153.09C362.207 153.09 363.239 153.534 364.019 154.422C364.811 155.31 365.207 156.444 365.207 157.824V158.274H358.493C358.565 158.958 358.847 159.528 359.339 159.984C359.831 160.44 360.473 160.668 361.265 160.668C361.709 160.668 362.153 160.584 362.597 160.416C363.053 160.248 363.431 160.014 363.731 159.714L364.595 160.956C363.719 161.796 362.543 162.216 361.067 162.216ZM363.371 156.942C363.347 156.342 363.125 155.808 362.705 155.34C362.297 154.872 361.703 154.638 360.923 154.638C360.179 154.638 359.597 154.872 359.177 155.34C358.757 155.796 358.523 156.33 358.475 156.942H363.371ZM374.665 162.216C373.105 162.216 371.863 161.766 370.939 160.866L371.803 159.498C372.127 159.834 372.565 160.122 373.117 160.362C373.669 160.602 374.215 160.722 374.755 160.722C375.307 160.722 375.727 160.614 376.015 160.398C376.315 160.182 376.465 159.9 376.465 159.552C376.465 159.24 376.285 159 375.925 158.832C375.565 158.652 375.127 158.514 374.611 158.418C374.095 158.31 373.579 158.184 373.063 158.04C372.547 157.884 372.109 157.614 371.749 157.23C371.389 156.846 371.209 156.348 371.209 155.736C371.209 154.992 371.515 154.368 372.127 153.864C372.739 153.348 373.573 153.09 374.629 153.09C375.961 153.09 377.089 153.498 378.013 154.314L377.221 155.646C376.945 155.334 376.579 155.082 376.123 154.89C375.667 154.698 375.175 154.602 374.647 154.602C374.155 154.602 373.759 154.704 373.459 154.908C373.171 155.1 373.027 155.352 373.027 155.664C373.027 155.904 373.153 156.102 373.405 156.258C373.669 156.402 373.993 156.51 374.377 156.582C374.773 156.654 375.199 156.756 375.655 156.888C376.111 157.008 376.531 157.152 376.915 157.32C377.311 157.488 377.635 157.764 377.887 158.148C378.151 158.52 378.283 158.976 378.283 159.516C378.283 160.308 377.965 160.956 377.329 161.46C376.693 161.964 375.805 162.216 374.665 162.216ZM384.199 162.216C382.879 162.216 381.787 161.796 380.923 160.956C380.071 160.104 379.645 159 379.645 157.644C379.645 156.372 380.059 155.298 380.887 154.422C381.727 153.534 382.783 153.09 384.055 153.09C385.339 153.09 386.371 153.534 387.151 154.422C387.943 155.31 388.339 156.444 388.339 157.824V158.274H381.625C381.697 158.958 381.979 159.528 382.471 159.984C382.963 160.44 383.605 160.668 384.397 160.668C384.841 160.668 385.285 160.584 385.729 160.416C386.185 160.248 386.563 160.014 386.863 159.714L387.727 160.956C386.851 161.796 385.675 162.216 384.199 162.216ZM386.503 156.942C386.479 156.342 386.257 155.808 385.837 155.34C385.429 154.872 384.835 154.638 384.055 154.638C383.311 154.638 382.729 154.872 382.309 155.34C381.889 155.796 381.655 156.33 381.607 156.942H386.503ZM392.815 162.216C392.083 162.216 391.525 162.024 391.141 161.64C390.769 161.256 390.583 160.704 390.583 159.984V154.962H389.143V153.306H390.583V150.93H392.473V153.306H394.237V154.962H392.473V159.516C392.473 159.828 392.545 160.08 392.689 160.272C392.833 160.452 393.037 160.542 393.301 160.542C393.685 160.542 393.967 160.44 394.147 160.236L394.597 161.658C394.201 162.03 393.607 162.216 392.815 162.216ZM403.711 162H401.821V160.848C401.005 161.76 399.979 162.216 398.743 162.216C396.883 162.216 395.953 161.298 395.953 159.462V153.306H397.843V158.778C397.843 159.414 397.993 159.87 398.293 160.146C398.593 160.41 399.025 160.542 399.589 160.542C400.045 160.542 400.471 160.434 400.867 160.218C401.263 160.002 401.581 159.732 401.821 159.408V153.306H403.711V162ZM410.846 162.216C409.694 162.216 408.764 161.742 408.056 160.794V165.312H406.166V153.306H408.056V154.494C408.752 153.558 409.682 153.09 410.846 153.09C411.986 153.09 412.91 153.498 413.618 154.314C414.338 155.13 414.698 156.24 414.698 157.644C414.698 159.048 414.338 160.164 413.618 160.992C412.91 161.808 411.986 162.216 410.846 162.216ZM410.288 160.542C411.032 160.542 411.626 160.272 412.07 159.732C412.514 159.192 412.736 158.496 412.736 157.644C412.736 156.792 412.514 156.102 412.07 155.574C411.626 155.034 411.032 154.764 410.288 154.764C409.856 154.764 409.43 154.878 409.01 155.106C408.59 155.334 408.272 155.61 408.056 155.934V159.372C408.272 159.696 408.59 159.972 409.01 160.2C409.43 160.428 409.856 160.542 410.288 160.542Z" fill="#1E1E1E"/>
    <g clip-path="url(#clip0_26_4021)">
        <path d="M776.108 6.85789C772.308 3.08039 767.256 1 761.882 1C756.508 1 751.456 3.08039 747.656 6.85789C743.856 10.6354 741.763 15.6578 741.763 21C741.763 26.3422 743.856 31.3646 747.656 35.1421C751.456 38.9196 756.508 41 761.882 41C767.255 41 772.308 38.9196 776.108 35.1421C779.908 31.3646 782 26.3422 782 21C782 15.6578 779.908 10.6354 776.108 6.85789ZM761.882 38.6562C752.088 38.6562 744.121 30.7357 744.121 21C744.121 11.2643 752.088 3.34375 761.882 3.34375C771.675 3.34375 779.643 11.2643 779.643 21C779.643 30.7357 771.675 38.6562 761.882 38.6562Z" fill="#06DA69"/>
        <path d="M754.306 12.2969C751.567 12.2969 749.339 14.5119 749.339 17.2345C749.339 17.8816 749.867 18.4063 750.518 18.4063C751.169 18.4063 751.697 17.8816 751.697 17.2345C751.697 15.8042 752.867 14.6406 754.306 14.6406C755.744 14.6406 756.915 15.8042 756.915 17.2345C756.915 17.8816 757.442 18.4063 758.093 18.4063C758.744 18.4063 759.272 17.8816 759.272 17.2345C759.272 14.5119 757.044 12.2969 754.306 12.2969ZM769.457 12.2969C766.719 12.2969 764.491 14.5119 764.491 17.2345C764.491 17.8816 765.018 18.4063 765.669 18.4063C766.32 18.4063 766.848 17.8816 766.848 17.2345C766.848 15.8042 768.019 14.6406 769.457 14.6406C770.896 14.6406 772.066 15.8042 772.066 17.2345C772.066 17.8816 772.594 18.4063 773.245 18.4063C773.896 18.4063 774.424 17.8816 774.424 17.2345C774.424 14.5119 772.196 12.2969 769.457 12.2969ZM772.99 23.6607C772.377 23.4451 771.703 23.7648 771.486 24.3751C770.051 28.4124 766.191 31.125 761.881 31.125C757.572 31.125 753.712 28.4124 752.277 24.3751C752.06 23.7648 751.386 23.4451 750.772 23.6607C750.159 23.8763 749.837 24.5459 750.054 25.1561C751.822 30.1281 756.575 33.4688 761.881 33.4688C767.188 33.4688 771.941 30.1281 773.709 25.1561C773.926 24.5459 773.604 23.8763 772.99 23.6607Z" fill="#06DA69"/>
    </g>
    <g clip-path="url(#clip1_26_4021)">
        <path d="M761.882 110.33C751.232 110.33 742.568 101.717 742.568 91.1299C742.568 80.5431 751.232 71.9299 761.882 71.9299C772.531 71.9299 781.196 80.5431 781.196 91.1299C781.196 101.717 772.531 110.33 761.882 110.33ZM761.882 74.3299C752.563 74.3299 744.982 81.8663 744.982 91.1299C744.982 100.394 752.563 107.93 761.882 107.93C771.2 107.93 778.781 100.394 778.781 91.1299C778.781 81.8663 771.2 74.3299 761.882 74.3299ZM770.872 99.4035C771.013 99.3331 771.14 99.2355 771.244 99.1165C771.348 98.9974 771.427 98.8592 771.477 98.7097C771.527 98.5602 771.547 98.4023 771.536 98.2451C771.525 98.0879 771.482 97.9345 771.412 97.7935C771.299 97.5699 768.586 92.3299 761.882 92.3299C755.177 92.3299 752.465 97.5699 752.352 97.7931C752.209 98.0767 752.186 98.4048 752.286 98.7056C752.387 99.0064 752.603 99.2554 752.888 99.3979C753.173 99.5406 753.504 99.5653 753.807 99.4668C754.111 99.3682 754.363 99.1544 754.509 98.8719C754.596 98.7027 756.703 94.7299 761.882 94.7299C767.06 94.7299 769.168 98.7027 769.252 98.8667C769.352 99.0664 769.506 99.2343 769.697 99.3515C769.888 99.4686 770.108 99.5305 770.333 99.5299C770.514 99.5299 770.698 99.4895 770.872 99.4035ZM767.917 88.7299C766.586 88.7299 765.503 87.6535 765.503 86.3299C765.503 85.0063 766.586 83.9299 767.917 83.9299C769.249 83.9299 770.332 85.0063 770.332 86.3299C770.332 87.6535 769.249 88.7299 767.917 88.7299ZM755.846 88.7299C754.515 88.7299 753.432 87.6535 753.432 86.3299C753.432 85.0063 754.515 83.9299 755.846 83.9299C757.178 83.9299 758.26 85.0063 758.26 86.3299C758.26 87.6535 757.178 88.7299 755.846 88.7299Z" fill="#FF3636"/>
    </g>
    <path d="M761.882 180.46C751.232 180.46 742.568 171.847 742.568 161.26C742.568 150.673 751.232 142.06 761.882 142.06C772.531 142.06 781.196 150.673 781.196 161.26C781.196 171.847 772.531 180.46 761.882 180.46ZM761.882 144.46C752.563 144.46 744.982 151.996 744.982 161.26C744.982 170.523 752.563 178.06 761.882 178.06C771.2 178.06 778.781 170.523 778.781 161.26C778.781 151.996 771.2 144.46 761.882 144.46ZM770.872 169.533C771.013 169.463 771.14 169.365 771.244 169.246C771.348 169.127 771.427 168.989 771.477 168.84C771.527 168.69 771.547 168.532 771.536 168.375C771.525 168.218 771.482 168.064 771.412 167.923C771.299 167.7 768.586 162.46 761.882 162.46C755.177 162.46 752.465 167.7 752.352 167.923C752.209 168.207 752.186 168.535 752.286 168.836C752.387 169.136 752.603 169.385 752.888 169.528C753.173 169.67 753.504 169.695 753.807 169.597C754.111 169.498 754.363 169.284 754.509 169.002C754.596 168.833 756.703 164.86 761.882 164.86C767.06 164.86 769.168 168.833 769.252 168.997C769.352 169.196 769.506 169.364 769.697 169.481C769.888 169.599 770.108 169.66 770.333 169.66C770.514 169.66 770.698 169.619 770.872 169.533ZM767.917 158.86C766.586 158.86 765.503 157.783 765.503 156.46C765.503 155.136 766.586 154.06 767.917 154.06C769.249 154.06 770.332 155.136 770.332 156.46C770.332 157.783 769.249 158.86 767.917 158.86ZM755.846 158.86C754.515 158.86 753.432 157.783 753.432 156.46C753.432 155.136 754.515 154.06 755.846 154.06C757.178 154.06 758.26 155.136 758.26 156.46C758.26 157.783 757.178 158.86 755.846 158.86Z" fill="#FF3636"/>
    <path d="M7.29289 181.707C7.68341 182.098 8.31657 182.098 8.7071 181.707L15.0711 175.343C15.4616 174.953 15.4616 174.319 15.0711 173.929C14.6805 173.538 14.0474 173.538 13.6568 173.929L7.99999 179.586L2.34314 173.929C1.95261 173.538 1.31945 173.538 0.928925 173.929C0.5384 174.319 0.5384 174.953 0.928925 175.343L7.29289 181.707ZM7 1L6.99999 181L8.99999 181L9 1L7 1Z" fill="#1E1E1E"/>
    <defs>
        <clipPath id="clip0_26_4021">
            <rect width="40.2373" height="40" fill="white" transform="translate(741.763 1)"/>
        </clipPath>
        <clipPath id="clip1_26_4021">
            <rect width="40.2373" height="40" fill="white" transform="translate(741.763 71.1299)"/>
        </clipPath>
    </defs>
</svg>
